<svg xmlns="http://www.w3.org/2000/svg" xmlns:xlink="http://www.w3.org/1999/xlink" width="190" height="163" viewBox="0 0 190 163">
  <defs>
    <clipPath id="clip-path">
      <rect id="Rectángulo_5641" data-name="Rectángulo 5641" width="190" height="163" transform="translate(194 1213)" fill="#fdd835"/>
    </clipPath>
  </defs>
  <g id="Enmascarar_grupo_34" data-name="Enmascarar grupo 34" transform="translate(-194 -1213)" clip-path="url(#clip-path)">
    <g id="representacion" transform="translate(207.5 1213)">
      <g id="Grupo_55398" data-name="Grupo 55398">
        <path id="Trazado_104928" data-name="Trazado 104928" d="M160.564,36.1v87.879a4.781,4.781,0,0,1-4.781,4.781H7.217a4.781,4.781,0,0,1-4.781-4.781V36.1A4.783,4.783,0,0,1,7.217,31.32H155.783A4.783,4.783,0,0,1,160.564,36.1Z" fill="#99e6fc"/>
        <path id="Trazado_104929" data-name="Trazado 104929" d="M15.186,128.76H7.217a4.781,4.781,0,0,1-4.781-4.781V36.1A4.783,4.783,0,0,1,7.217,31.32h7.968A4.783,4.783,0,0,0,10.4,36.1v87.879A4.781,4.781,0,0,0,15.186,128.76Z" fill="#62dbfb"/>
        <path id="Trazado_104930" data-name="Trazado 104930" d="M67.115,117.538H95.885V149.3H67.115Z" fill="#a8d3d8"/>
        <path id="Trazado_104931" data-name="Trazado 104931" d="M67.114,117.538h7.968V149.3H67.114Z" fill="#8ebac5"/>
        <path id="Trazado_104932" data-name="Trazado 104932" d="M160.564,106.258v17.722a4.781,4.781,0,0,1-4.781,4.781H7.217a4.781,4.781,0,0,1-4.781-4.781V106.258a5.736,5.736,0,0,0,5.737,5.737h146.65a5.736,5.736,0,0,0,5.737-5.737Z" fill="#eef5f6"/>
        <path id="Trazado_104933" data-name="Trazado 104933" d="M140.659,6.216V91.389a3.824,3.824,0,0,1-3.825,3.825H26.166a3.824,3.824,0,0,1-3.825-3.825V6.216a3.824,3.824,0,0,1,3.825-3.825H136.834a3.824,3.824,0,0,1,3.825,3.825Z" fill="#eef5f6"/>
        <path id="Trazado_104934" data-name="Trazado 104934" d="M34.134,95.213H26.166a3.824,3.824,0,0,1-3.825-3.825V6.216a3.824,3.824,0,0,1,3.825-3.825h7.968A3.824,3.824,0,0,0,30.31,6.216V91.389A3.824,3.824,0,0,0,34.134,95.213Z" fill="#cbe5e8"/>
        <path id="Trazado_104935" data-name="Trazado 104935" d="M108,41.041V70.9a.638.638,0,0,1-.319.551L81.817,86.381a.648.648,0,0,1-.316.083h0a.627.627,0,0,1-.319-.083L55.321,71.452A.638.638,0,0,1,55,70.9V41.041a.645.645,0,0,1,.086-.319.635.635,0,0,1,.233-.236L81.18,25.557a.649.649,0,0,1,.637,0l25.859,14.93a.635.635,0,0,1,.233.236A.645.645,0,0,1,108,41.041Z" fill="#fe7ab6"/>
        <path id="Trazado_104936" data-name="Trazado 104936" d="M88.718,29.541a.649.649,0,0,0-.637,0L62.221,44.471a.635.635,0,0,0-.233.236.645.645,0,0,0-.086.319V74.884a.638.638,0,0,0,.319.551l-6.9-3.984A.638.638,0,0,1,55,70.9V41.041a.645.645,0,0,1,.086-.319.635.635,0,0,1,.233-.236L81.18,25.557a.649.649,0,0,1,.637,0Z" fill="#fe5ca7"/>
        <path id="Trazado_104937" data-name="Trazado 104937" d="M81.5,55.971l0,30.493a.627.627,0,0,1-.319-.083L55.321,71.452A.638.638,0,0,1,55,70.9V41.041a.645.645,0,0,1,.086-.319Z" fill="#bbf49b"/>
        <path id="Trazado_104938" data-name="Trazado 104938" d="M108,41.041V70.9a.638.638,0,0,1-.319.551L81.817,86.381a.648.648,0,0,1-.316.083v-30.5l26.407-15.245a.645.645,0,0,1,.086.319Z" fill="#bd80e1"/>
        <path id="Trazado_104939" data-name="Trazado 104939" d="M109.8,160.609H53.2a2.55,2.55,0,0,1-2.55-2.55v-9.036a2.55,2.55,0,0,1,2.55-2.55h56.6a2.55,2.55,0,0,1,2.55,2.55v9.036A2.55,2.55,0,0,1,109.8,160.609Z" fill="#eef5f6"/>
        <path id="Trazado_104940" data-name="Trazado 104940" d="M140.659,6.216V16.725H22.341V6.216a3.824,3.824,0,0,1,3.825-3.825H136.834a3.824,3.824,0,0,1,3.825,3.825Z" fill="#fe7ab6"/>
        <circle id="Elipse_4159" data-name="Elipse 4159" cx="26.777" cy="26.777" r="26.777" transform="translate(97.802 11.798)" fill="#bbf49b"/>
        <path id="Trazado_104941" data-name="Trazado 104941" d="M128.563,65.058a26.779,26.779,0,1,1,0-52.964,26.781,26.781,0,0,0,0,52.964Z" fill="#9be69d"/>
        <path id="Trazado_104942" data-name="Trazado 104942" d="M15.186,128.76H7.217a4.781,4.781,0,0,1-4.781-4.781V106.258a5.736,5.736,0,0,0,5.737,5.737H10.4v11.984A4.781,4.781,0,0,0,15.186,128.76Z" fill="#cbe5e8"/>
        <path id="Trazado_104943" data-name="Trazado 104943" d="M61.17,160.609H53.2a2.549,2.549,0,0,1-2.55-2.55v-9.036a2.551,2.551,0,0,1,2.55-2.55H61.17a2.551,2.551,0,0,0-2.55,2.55v9.036A2.549,2.549,0,0,0,61.17,160.609Z" fill="#cbe5e8"/>
        <path id="Trazado_104944" data-name="Trazado 104944" d="M34.134,2.391A3.824,3.824,0,0,0,30.31,6.216V16.725H22.341V6.216a3.824,3.824,0,0,1,3.825-3.825h7.968Z" fill="#fe5ca7"/>
        <path id="Trazado_104945" data-name="Trazado 104945" d="M62.221,75.436l-6.9-3.984A.638.638,0,0,1,55,70.9V41.041a.645.645,0,0,1,.086-.319l6.9,3.984a.645.645,0,0,0-.086.319V74.884a.638.638,0,0,0,.319.551Z" fill="#9be69d"/>
        <path id="Trazado_104946" data-name="Trazado 104946" d="M62.221,75.436l-6.9-3.984A.638.638,0,0,1,55,70.9V41.041a.645.645,0,0,1,.086-.319l6.9,3.984a.645.645,0,0,0-.086.319V74.884a.638.638,0,0,0,.319.551Z" fill="#9be69d"/>
        <path id="Trazado_104947" data-name="Trazado 104947" d="M88.4,51.983v30.6l-6.585,3.8a.648.648,0,0,1-.316.083v-30.5Z" fill="#af66da"/>
      </g>
      <g id="Grupo_55399" data-name="Grupo 55399">
        <path id="Trazado_104948" data-name="Trazado 104948" d="M39.845,35.955a2.39,2.39,0,0,0,2.391-2.391V27.9H47.9a2.391,2.391,0,1,0,0-4.781H40.482a3.032,3.032,0,0,0-3.028,3.028v7.414a2.391,2.391,0,0,0,2.391,2.391Z" fill="#3a2c60"/>
        <path id="Trazado_104949" data-name="Trazado 104949" d="M40.482,88.955H47.9a2.391,2.391,0,1,0,0-4.781H42.235V78.513a2.391,2.391,0,0,0-4.781,0v7.414A3.032,3.032,0,0,0,40.482,88.955Z" fill="#3a2c60"/>
        <path id="Trazado_104950" data-name="Trazado 104950" d="M115.1,88.955h7.414a3.032,3.032,0,0,0,3.028-3.028V78.513a2.391,2.391,0,0,0-4.781,0v5.661H115.1a2.391,2.391,0,0,0,0,4.781Z" fill="#3a2c60"/>
        <path id="Trazado_104951" data-name="Trazado 104951" d="M155.782,28.928h-3.676a29.279,29.279,0,0,0-9.054-12.908V6.215A6.223,6.223,0,0,0,136.836,0H41.1a2.391,2.391,0,1,0,0,4.781h95.732a1.436,1.436,0,0,1,1.434,1.434v6.613a29.113,29.113,0,0,0-29.9,1.509H24.73V6.215a1.436,1.436,0,0,1,1.434-1.434h3.783a2.391,2.391,0,1,0,0-4.781H26.164a6.223,6.223,0,0,0-6.215,6.215V28.928H7.219A7.18,7.18,0,0,0,.047,36.1v87.882a7.18,7.18,0,0,0,7.172,7.172H64.725v12.93H53.2a4.946,4.946,0,0,0-4.94,4.94v9.036A4.946,4.946,0,0,0,53.2,163h56.6a4.946,4.946,0,0,0,4.94-4.94v-9.036a4.946,4.946,0,0,0-4.94-4.94H98.275v-12.93h38.086a2.391,2.391,0,0,0,0-4.781H7.219a2.393,2.393,0,0,1-2.391-2.391V113.661a8.075,8.075,0,0,0,3.347.724h146.65a8.08,8.08,0,0,0,3.347-.724v10.321a2.393,2.393,0,0,1-2.391,2.391h-8.265a2.391,2.391,0,0,0,0,4.781h8.265a7.18,7.18,0,0,0,7.172-7.172V36.1a7.18,7.18,0,0,0-7.172-7.172Zm-45.824,120.1v9.036a.16.16,0,0,1-.159.159H53.2a.16.16,0,0,1-.159-.159v-9.036a.16.16,0,0,1,.159-.159h56.6A.159.159,0,0,1,109.958,149.024Zm-16.463-4.94H69.506v-12.93H93.494ZM148.966,38.576a24.387,24.387,0,1,1-24.387-24.387A24.415,24.415,0,0,1,148.966,38.576ZM81.5,28.136l14.007,8.085q-.094,1.166-.1,2.355a29.165,29.165,0,0,0,.669,6.216L81.5,53.209,59.786,40.672ZM57.394,44.812,79.11,57.35V82.424L57.394,69.887Zm26.5,12.538,13.636-7.872a29.3,29.3,0,0,0,8.079,11.233v9.176L83.891,82.424Zm18.98-38.232a29.142,29.142,0,0,0-6.512,12.075l-13.339-7.7a3.027,3.027,0,0,0-3.034,0L54.148,38.407a3.026,3.026,0,0,0-1.535,2.634V70.9a3.039,3.039,0,0,0,1.514,2.622L79.98,88.448a3.029,3.029,0,0,0,3.034,0L108.876,73.52a3.038,3.038,0,0,0,1.51-2.62V64.051a29.114,29.114,0,0,0,27.883.274V91.388a1.436,1.436,0,0,1-1.434,1.434H26.164a1.436,1.436,0,0,1-1.434-1.434V19.118ZM154.825,109.6H8.175a3.35,3.35,0,0,1-3.347-3.347V36.1A2.393,2.393,0,0,1,7.219,33.71h12.73V91.388A6.223,6.223,0,0,0,26.164,97.6H136.836a6.223,6.223,0,0,0,6.215-6.215V61.132a29.144,29.144,0,0,0,10.288-27.423h2.443a2.393,2.393,0,0,1,2.391,2.391v70.158a3.351,3.351,0,0,1-3.347,3.347Z" fill="#3a2c60"/>
        <path id="Trazado_104952" data-name="Trazado 104952" d="M118.6,48.3a3.028,3.028,0,0,0,4.283,0l16.248-16.248a2.39,2.39,0,1,0-3.381-3.381L120.738,43.677l-7.326-7.326a2.39,2.39,0,1,0-3.381,3.381Z" fill="#3a2c60"/>
      </g>
    </g>
  </g>
</svg>
