<svg xmlns="http://www.w3.org/2000/svg" xmlns:xlink="http://www.w3.org/1999/xlink" width="190" height="163" viewBox="0 0 190 163">
  <defs>
    <clipPath id="clip-path">
      <rect id="Rectángulo_5639" data-name="Rectángulo 5639" width="190" height="163" transform="translate(194 892)" fill="#fdd835"/>
    </clipPath>
  </defs>
  <g id="Enmascarar_grupo_33" data-name="Enmascarar grupo 33" transform="translate(-194 -892)" clip-path="url(#clip-path)">
    <g id="recetas" transform="translate(202.11 889.027)">
      <path id="Trazado_104900" data-name="Trazado 104900" d="M28.872,4.668H144.906V24.731H28.872Z" fill="#fff"/>
      <path id="Trazado_104901" data-name="Trazado 104901" d="M28.872,4.668H144.906V24.731H28.872Z" fill="#efefef"/>
      <path id="Trazado_104902" data-name="Trazado 104902" d="M36.606,26.428a1.7,1.7,0,0,1-1.7-1.7V11.88a1.7,1.7,0,0,1,1.7-1.7H136.874a1.7,1.7,0,0,1,0,3.394H38.3V24.731A1.7,1.7,0,0,1,36.606,26.428Z" fill="#fff"/>
      <path id="Trazado_104903" data-name="Trazado 104903" d="M170.481,31.655V85.8a6.923,6.923,0,0,1-6.924,6.924H144.9V75.012H28.872V92.722H10.223A6.923,6.923,0,0,1,3.3,85.8V31.655a6.923,6.923,0,0,1,6.924-6.924H163.557a6.923,6.923,0,0,1,6.924,6.924Z" fill="#72c1e8"/>
      <path id="Trazado_104904" data-name="Trazado 104904" d="M170.481,62.311V85.8a6.923,6.923,0,0,1-6.924,6.924H144.9V75.012H28.872V92.722H10.223A6.923,6.923,0,0,1,3.3,85.8V62.311Z" fill="#7c7b7a"/>
      <path id="Trazado_104905" data-name="Trazado 104905" d="M160.882,86.016H144.9a1.7,1.7,0,0,1,0-3.394h15.639V68.2a1.7,1.7,0,1,1,3.394,0V82.961A3.058,3.058,0,0,1,160.882,86.016Z" fill="#efefef"/>
      <path id="Trazado_104906" data-name="Trazado 104906" d="M28.872,86.016H14.481a1.7,1.7,0,0,1,0-3.394h14.39a1.7,1.7,0,0,1,0,3.394Z" fill="#efefef"/>
      <circle id="Elipse_4154" data-name="Elipse 4154" cx="4.325" cy="4.325" r="4.325" transform="translate(11.703 36.403)" fill="#fc5d3d"/>
      <circle id="Elipse_4155" data-name="Elipse 4155" cx="4.325" cy="4.325" r="4.325" transform="translate(27.1 36.403)" fill="#13bf6d"/>
      <path id="Trazado_104907" data-name="Trazado 104907" d="M110.309,33.174H63.47a3.4,3.4,0,0,0-3.394,3.394v8.321a3.4,3.4,0,0,0,3.394,3.394h46.839a3.4,3.4,0,0,0,3.394-3.394V36.568A3.4,3.4,0,0,0,110.309,33.174Z" fill="#fff"/>
      <path id="Trazado_104908" data-name="Trazado 104908" d="M162.24,56.826h-2.552a1.7,1.7,0,0,1,0-3.394h2.552a1.7,1.7,0,0,1,0,3.394Zm-9.341,0H11.7a1.7,1.7,0,0,1,0-3.394H152.9a1.7,1.7,0,0,1,0,3.394Z" fill="#c5e5ff"/>
      <path id="Trazado_104909" data-name="Trazado 104909" d="M144.9,75.012v69.6H43.073v12.561a7.1,7.1,0,1,1-14.2,0V75.012Z" fill="#13bf6d"/>
      <path id="Trazado_104910" data-name="Trazado 104910" d="M135.631,146.313a1.7,1.7,0,0,1-1.7-1.7V82.911a1.7,1.7,0,0,1,3.394,0v61.705A1.7,1.7,0,0,1,135.631,146.313Z" fill="#76ffba"/>
      <path id="Trazado_104911" data-name="Trazado 104911" d="M159.1,144.615v12.561a7.1,7.1,0,0,1-7.1,7.1H35.972a7.1,7.1,0,0,0,7.1-7.1V144.615Z" fill="#efefef"/>
      <path id="Trazado_104912" data-name="Trazado 104912" d="M151.138,157.375H52.588a1.7,1.7,0,1,1,0-3.394h96.853v-2.741a1.7,1.7,0,0,1,3.394,0v4.438A1.7,1.7,0,0,1,151.138,157.375Z" fill="#fff"/>
      <path id="Trazado_104913" data-name="Trazado 104913" d="M108.4,110.192c-3.186,4.75-9.552,6.356-12.9,3.011-2.335-2.335-2.335-6.359-.136-9.693l-8.91-.007H84.8c-13.747,0-23.068,10.55-24.332,18.728a1.871,1.871,0,0,1-1.225,1.487l-3.377,1.6,1.107,6.314,6.233-1.155a13.646,13.646,0,0,0,5.46,1.155H102.9c9.473,0,11.539-13.469,5.494-21.437Z" fill="#f0c020"/>
      <path id="Trazado_104914" data-name="Trazado 104914" d="M101.529,98.9a11.109,11.109,0,0,0-6.165,4.606l-8.91-.007c1.009-6.559,7.87-10.955,12.488-8.069a6.18,6.18,0,0,1,2.586,3.471Z" fill="#f0c020"/>
      <path id="Trazado_104915" data-name="Trazado 104915" d="M64.5,125.375a1.7,1.7,0,0,1-1.23-2.061c.121-.479.259-.956.413-1.42a1.7,1.7,0,0,1,3.223,1.063c-.128.388-.244.787-.345,1.187A1.7,1.7,0,0,1,64.5,125.375Zm2.95-7.558a1.7,1.7,0,0,1-.254-2.387c4.1-5.08,10.358-7.878,17.609-7.878a1.7,1.7,0,1,1,0,3.394c-6.205,0-11.521,2.35-14.968,6.617a1.7,1.7,0,0,1-2.387.253Z" fill="#f9e5af"/>
      <path id="Trazado_104916" data-name="Trazado 104916" d="M108.4,110.192c-3.186,4.75-9.552,6.356-12.9,3.011-2.335-2.335-2.335-6.359-.136-9.693a11.1,11.1,0,0,1,6.165-4.606,6.878,6.878,0,0,1,6.812,1.459c2.392,2.392,2.313,6.473.057,9.829Z" fill="#f0c020"/>
      <circle id="Elipse_4156" data-name="Elipse 4156" cx="1.697" cy="1.697" r="1.697" transform="translate(68.209 2.973)"/>
      <circle id="Elipse_4157" data-name="Elipse 4157" cx="1.697" cy="1.697" r="1.697" transform="translate(110.832 23.033)" fill="#3a2c60"/>
      <path id="Trazado_104917" data-name="Trazado 104917" d="M10.223,94.418H27.175v62.758a8.808,8.808,0,0,0,8.794,8.8H152a8.813,8.813,0,0,0,8.8-8.8V144.617a1.694,1.694,0,0,0-1.7-1.7H146.6v-48.5h16.956a8.633,8.633,0,0,0,8.621-8.621V31.654a8.633,8.633,0,0,0-8.621-8.621H146.6V4.67a1.689,1.689,0,0,0-1.69-1.7H76.694a1.7,1.7,0,0,0,0,3.394h66.511l.006,16.665H119.317a1.7,1.7,0,0,0,0,3.394h44.239a5.247,5.247,0,0,1,5.227,5.227v28.96H5V31.654a5.247,5.247,0,0,1,5.227-5.227h95.518a1.7,1.7,0,1,0,0-3.394H30.568V6.367h32.55a1.7,1.7,0,1,0,0-3.394H28.871a1.694,1.694,0,0,0-1.7,1.7V23.033H10.223A8.633,8.633,0,0,0,1.6,31.654V85.8a8.633,8.633,0,0,0,8.621,8.621ZM90.6,142.92a1.7,1.7,0,0,0,0,3.394h66.81v10.861a5.426,5.426,0,0,1-5.4,5.4H42.915a8.727,8.727,0,0,0,1.853-5.4V146.314H77.02a1.7,1.7,0,0,0,.014-3.394H43.072a1.694,1.694,0,0,0-1.7,1.7v12.558a5.4,5.4,0,1,1-10.806,0V76.711H143.207V142.92Zm78.187-78.912V85.8a5.242,5.242,0,0,1-5.227,5.227H146.6V76.712h2.635a1.7,1.7,0,0,0,0-3.394h-127a1.7,1.7,0,0,0,0,3.394h4.94V91.024H10.223A5.242,5.242,0,0,1,5,85.8V64.008Z" fill="#3a2c60"/>
      <path id="Trazado_104918" data-name="Trazado 104918" d="M156.842,42.427a1.7,1.7,0,0,0,0-3.394h-4.419a1.7,1.7,0,0,0,0,3.394Z" fill="#3a2c60"/>
      <path id="Trazado_104919" data-name="Trazado 104919" d="M10.006,40.73a6.023,6.023,0,1,0,6.023-6.023A6.03,6.03,0,0,0,10.006,40.73Zm8.652,0A2.629,2.629,0,1,1,16.029,38.1,2.632,2.632,0,0,1,18.658,40.73Z" fill="#3a2c60"/>
      <path id="Trazado_104920" data-name="Trazado 104920" d="M25.4,40.73a6.023,6.023,0,1,0,6.023-6.023A6.03,6.03,0,0,0,25.4,40.73Zm8.652,0A2.629,2.629,0,1,1,31.426,38.1,2.632,2.632,0,0,1,34.055,40.73Z" fill="#3a2c60"/>
      <path id="Trazado_104921" data-name="Trazado 104921" d="M63.47,31.478a5.1,5.1,0,0,0-5.091,5.091V44.89a5.1,5.1,0,0,0,5.091,5.091h46.839A5.1,5.1,0,0,0,115.4,44.89V36.569a5.1,5.1,0,0,0-5.091-5.091Zm48.536,5.091V44.89a1.7,1.7,0,0,1-1.7,1.7H63.47a1.7,1.7,0,0,1-1.7-1.7V36.569a1.7,1.7,0,0,1,1.7-1.7h46.839A1.7,1.7,0,0,1,112.006,36.569Z" fill="#3a2c60"/>
      <path id="Trazado_104922" data-name="Trazado 104922" d="M104.539,39.033H69.24a1.7,1.7,0,1,0,0,3.394h35.3a1.7,1.7,0,1,0,0-3.394Z" fill="#3a2c60"/>
      <circle id="Elipse_4158" data-name="Elipse 4158" cx="1.697" cy="1.697" r="1.697" transform="translate(82.111 142.92)" fill="#3a2c60"/>
      <path id="Trazado_104923" data-name="Trazado 104923" d="M115.94,89.6a1.7,1.7,0,0,0-2.4,2.4l.384.384-5.733,5.733a8.583,8.583,0,0,0-5.621-1.133,7.774,7.774,0,0,0-1.4-1.916l4.292-6.861.46.288a1.7,1.7,0,1,0,1.8-2.877l-3.8-2.376a1.7,1.7,0,1,0-1.8,2.877l.46.288-4.295,6.864c-5.306-1.823-11.48,2.4-13.2,8.534-15.514-.011-25.024,11.917-26.3,20.167a.177.177,0,0,1-.113.146c-.134.048-3.408,1.6-3.537,1.665a1.7,1.7,0,0,0,1.453,3.068l3.311-1.568a3.57,3.57,0,0,0,2.241-2.793c1.12-7.249,9.616-17.291,22.655-17.291l7.833,0a8.768,8.768,0,0,0,1.666,9.2c3.626,3.627,9.922,2.691,13.927-1.337,3.709,6.927,1.947,16.867-5.323,16.867H68.667a11.974,11.974,0,0,1-4.681-.965,1.691,1.691,0,0,0-1.087-.161l-6.233,1.154a1.7,1.7,0,0,0,.618,3.337l5.7-1.056a15.95,15.95,0,0,0,5.681,1.085H102.9c10.63,0,13.522-14.048,7.514-23.21,1.794-3.3,1.845-6.938.181-9.611l5.724-5.724.384.384a1.7,1.7,0,0,0,2.4-2.4ZM99.2,97.968a13.157,13.157,0,0,0-4.719,3.844l-5.824,0c2.028-5.175,7.979-7.388,10.543-3.839ZM96.7,112c-1.806-1.806-1.582-5.039.088-7.57,2.5-3.86,7.735-5.489,10.353-2.871,1.766,1.766,1.7,4.925-.151,7.683h0c-2.6,3.874-7.745,5.3-10.289,2.756Z" fill="#3a2c60"/>
      <path id="Trazado_104924" data-name="Trazado 104924" d="M92.67,125.316v-.5a1.7,1.7,0,0,0-3.394,0v.5a1.7,1.7,0,0,0,3.394,0Z" fill="#3a2c60"/>
      <path id="Trazado_104925" data-name="Trazado 104925" d="M103.63,122.333v-.5a1.7,1.7,0,0,0-3.394,0v.5a1.7,1.7,0,0,0,3.394,0Z" fill="#3a2c60"/>
      <path id="Trazado_104926" data-name="Trazado 104926" d="M96.249,119.749v-.5a1.7,1.7,0,1,0-3.394,0v.5a1.7,1.7,0,0,0,3.394,0Z" fill="#3a2c60"/>
      <path id="Trazado_104927" data-name="Trazado 104927" d="M83.028,121.34v-.5a1.7,1.7,0,1,0-3.394,0v.5a1.7,1.7,0,0,0,3.394,0Z" fill="#3a2c60"/>
    </g>
  </g>
</svg>
