<svg xmlns="http://www.w3.org/2000/svg" width="1010.5" height="326.5" viewBox="0 0 1010.5 326.5">
  <g id="Grupo_56164" data-name="Grupo 56164" transform="translate(-285 -569)">
    <g id="Grupo_55404" data-name="Grupo 55404" transform="translate(-20 26)">
      <g id="Grupo_55403" data-name="Grupo 55403" transform="translate(1352.333 465.333)">
        <rect id="Rectángulo_6005" data-name="Rectángulo 6005" width="295" height="294" transform="translate(-332.333 109.667)" fill="none" stroke="#afafaf" stroke-miterlimit="10" stroke-width="1"/>
        <line id="Línea_174" data-name="Línea 174" x2="295" transform="translate(-332.333 376.94)" fill="none" stroke="#afafaf" stroke-miterlimit="10" stroke-width="1"/>
        <line id="Línea_175" data-name="Línea 175" x2="295" transform="translate(-332.333 350.212)" fill="none" stroke="#afafaf" stroke-miterlimit="10" stroke-width="1"/>
        <line id="Línea_176" data-name="Línea 176" x2="295" transform="translate(-332.333 323.485)" fill="none" stroke="#afafaf" stroke-miterlimit="10" stroke-width="1"/>
        <line id="Línea_177" data-name="Línea 177" x2="295" transform="translate(-332.333 296.758)" fill="none" stroke="#afafaf" stroke-miterlimit="10" stroke-width="1"/>
        <line id="Línea_178" data-name="Línea 178" x2="295" transform="translate(-332.333 270.03)" fill="none" stroke="#afafaf" stroke-miterlimit="10" stroke-width="1"/>
        <line id="Línea_179" data-name="Línea 179" x2="295" transform="translate(-332.333 243.303)" fill="none" stroke="#afafaf" stroke-miterlimit="10" stroke-width="1"/>
        <line id="Línea_180" data-name="Línea 180" x2="295" transform="translate(-332.333 216.576)" fill="none" stroke="#afafaf" stroke-miterlimit="10" stroke-width="1"/>
        <line id="Línea_181" data-name="Línea 181" x2="295" transform="translate(-332.333 189.849)" fill="none" stroke="#afafaf" stroke-miterlimit="10" stroke-width="1"/>
        <line id="Línea_182" data-name="Línea 182" x2="295" transform="translate(-332.333 163.121)" fill="none" stroke="#afafaf" stroke-miterlimit="10" stroke-width="1"/>
        <line id="Línea_185" data-name="Línea 185" x2="295" transform="translate(-332.333 136.394)" fill="none" stroke="#afafaf" stroke-miterlimit="10" stroke-width="1"/>
        <line id="Línea_184" data-name="Línea 184" y2="294" transform="translate(-184.833 109.667)" fill="none" stroke="#afafaf" stroke-miterlimit="10" stroke-width="1"/>
      </g>
      <path id="Trazado_108146" data-name="Trazado 108146" d="M0,0H295V32H0Z" transform="translate(1020 543)" fill="#f57c00"/>
      <path id="Trazado_108147" data-name="Trazado 108147" d="M7.859-4.648h-4.5V0H1.016V-11.375H8.422v1.9H3.359v2.938h4.5ZM9.117-4.3A5.013,5.013,0,0,1,9.6-6.547,3.546,3.546,0,0,1,11-8.07a4.069,4.069,0,0,1,2.113-.539A3.849,3.849,0,0,1,15.9-7.562a4.2,4.2,0,0,1,1.207,2.844l.016.578A4.418,4.418,0,0,1,16.039-1.02,3.775,3.775,0,0,1,13.125.156a3.793,3.793,0,0,1-2.918-1.172A4.5,4.5,0,0,1,9.117-4.2Zm2.258.16A3.16,3.16,0,0,0,11.828-2.3a1.5,1.5,0,0,0,1.3.638,1.5,1.5,0,0,0,1.281-.63,3.457,3.457,0,0,0,.461-2.015,3.128,3.128,0,0,0-.461-1.831,1.5,1.5,0,0,0-1.3-.649,1.474,1.474,0,0,0-1.281.646A3.516,3.516,0,0,0,11.375-4.144ZM23.266-6.336a6.134,6.134,0,0,0-.812-.062,1.654,1.654,0,0,0-1.68.867V0H18.516V-8.453h2.133l.063,1.008a2.092,2.092,0,0,1,1.883-1.164,2.366,2.366,0,0,1,.7.1Zm3.2-2.117.07.945a2.971,2.971,0,0,1,2.43-1.1A2.255,2.255,0,0,1,31.211-7.32,2.9,2.9,0,0,1,33.75-8.609a2.521,2.521,0,0,1,2.047.8,3.681,3.681,0,0,1,.672,2.41V0H34.2V-5.4a1.616,1.616,0,0,0-.281-1.053,1.245,1.245,0,0,0-.992-.333,1.409,1.409,0,0,0-1.406.971L31.531,0H29.273V-5.4a1.6,1.6,0,0,0-.289-1.065A1.257,1.257,0,0,0,28-6.789a1.463,1.463,0,0,0-1.391.8V0H24.352V-8.453ZM43.1,0a2.507,2.507,0,0,1-.227-.758,2.732,2.732,0,0,1-2.133.914,3,3,0,0,1-2.059-.719,2.312,2.312,0,0,1-.816-1.812,2.389,2.389,0,0,1,1-2.062,4.915,4.915,0,0,1,2.879-.727h1.039v-.484a1.393,1.393,0,0,0-.3-.937,1.183,1.183,0,0,0-.949-.352,1.345,1.345,0,0,0-.895.273.929.929,0,0,0-.324.75H38.055a2.268,2.268,0,0,1,.453-1.359,3,3,0,0,1,1.281-.98,4.669,4.669,0,0,1,1.859-.355,3.689,3.689,0,0,1,2.48.785,2.747,2.747,0,0,1,.918,2.207v3.664a4.041,4.041,0,0,0,.336,1.82V0ZM41.234-1.57a1.945,1.945,0,0,0,.922-.223,1.462,1.462,0,0,0,.625-.6V-3.844h-.844q-1.7,0-1.8,1.172l-.008.133a.9.9,0,0,0,.3.7A1.153,1.153,0,0,0,41.234-1.57Zm8.25-8.961v2.078H50.93V-6.8H49.484v4.219a1.007,1.007,0,0,0,.18.672.9.9,0,0,0,.688.2,3.6,3.6,0,0,0,.664-.055V-.047a4.648,4.648,0,0,1-1.367.2,2.156,2.156,0,0,1-2.422-2.4V-6.8H45.992V-8.453h1.234v-2.078ZM51.6-4.3a5.013,5.013,0,0,1,.484-2.242A3.546,3.546,0,0,1,53.48-8.07a4.069,4.069,0,0,1,2.113-.539,3.849,3.849,0,0,1,2.793,1.047,4.2,4.2,0,0,1,1.207,2.844l.016.578A4.418,4.418,0,0,1,58.523-1.02,3.775,3.775,0,0,1,55.609.156a3.793,3.793,0,0,1-2.918-1.172A4.5,4.5,0,0,1,51.6-4.2Zm2.258.16A3.16,3.16,0,0,0,54.313-2.3a1.5,1.5,0,0,0,1.3.638,1.5,1.5,0,0,0,1.281-.63,3.457,3.457,0,0,0,.461-2.015,3.128,3.128,0,0,0-.461-1.831,1.5,1.5,0,0,0-1.3-.649,1.474,1.474,0,0,0-1.281.646A3.516,3.516,0,0,0,53.859-4.144Z" transform="translate(1065 565)" fill="#fff"/>
      <path id="Trazado_108144" data-name="Trazado 108144" d="M-2.109-2.977H-6.875L-7.945,0H-9.492l4.344-11.375h1.313L.516,0H-1.023ZM-6.422-4.2h3.867l-1.937-5.32ZM8.8-4.852a6.61,6.61,0,0,1-.867,3.773A3.084,3.084,0,0,1,5.227.156a3.107,3.107,0,0,1-2.7-1.207,6.274,6.274,0,0,1-.906-3.605v-1.93a6.463,6.463,0,0,1,.867-3.727,3.108,3.108,0,0,1,2.719-1.219,3.136,3.136,0,0,1,2.7,1.176A6.237,6.237,0,0,1,8.8-6.727ZM7.359-6.828A5.3,5.3,0,0,0,6.844-9.5a1.775,1.775,0,0,0-1.633-.84,1.751,1.751,0,0,0-1.617.836,5.171,5.171,0,0,0-.523,2.57v2.313A5.381,5.381,0,0,0,3.605-1.9a1.771,1.771,0,0,0,1.621.879,1.747,1.747,0,0,0,1.59-.828,5.186,5.186,0,0,0,.543-2.609Z" transform="translate(1095 594)" fill="#12263f"/>
      <path id="Trazado_108142" data-name="Trazado 108142" d="M-2.109-2.977H-6.875L-7.945,0H-9.492l4.344-11.375h1.313L.516,0H-1.023ZM-6.422-4.2h3.867l-1.937-5.32ZM6.422,0H4.969V-9.633L2.055-8.562V-9.875L6.2-11.43h.227Z" transform="translate(1095 620)" fill="#12263f"/>
      <path id="Trazado_108140" data-name="Trazado 108140" d="M-2.109-2.977H-6.875L-7.945,0H-9.492l4.344-11.375h1.313L.516,0H-1.023ZM-6.422-4.2h3.867l-1.937-5.32ZM9.125,0H1.672V-1.039L5.609-5.414A9.354,9.354,0,0,0,6.816-7.027a2.693,2.693,0,0,0,.332-1.285,2.041,2.041,0,0,0-.539-1.461,1.885,1.885,0,0,0-1.437-.57A2.232,2.232,0,0,0,3.5-9.73a2.343,2.343,0,0,0-.6,1.707H1.453a3.355,3.355,0,0,1,1.012-2.539,3.751,3.751,0,0,1,2.707-.969A3.6,3.6,0,0,1,7.68-10.7,2.838,2.838,0,0,1,8.6-8.484q0,1.68-2.141,4L3.414-1.18H9.125Z" transform="translate(1095 646)" fill="#12263f"/>
      <path id="Trazado_108136" data-name="Trazado 108136" d="M-2.109-2.977H-6.875L-7.945,0H-9.492l4.344-11.375h1.313L.516,0H-1.023ZM-6.422-4.2h3.867l-1.937-5.32Zm10.2-2.187H4.859A2.387,2.387,0,0,0,6.469-6.93a1.8,1.8,0,0,0,.586-1.414,1.764,1.764,0,0,0-1.992-2,2.072,2.072,0,0,0-1.5.535,1.873,1.873,0,0,0-.559,1.418H1.563a2.9,2.9,0,0,1,.988-2.246,3.6,3.6,0,0,1,2.512-.895,3.558,3.558,0,0,1,2.523.852A3.076,3.076,0,0,1,8.5-8.312a2.5,2.5,0,0,1-.48,1.438A2.9,2.9,0,0,1,6.711-5.836a2.8,2.8,0,0,1,1.449.984,2.734,2.734,0,0,1,.512,1.68,3.1,3.1,0,0,1-1,2.43,3.745,3.745,0,0,1-2.6.9A3.844,3.844,0,0,1,2.465-.711,2.877,2.877,0,0,1,1.461-3H2.914A1.859,1.859,0,0,0,3.5-1.562a2.229,2.229,0,0,0,1.57.539,2.187,2.187,0,0,0,1.6-.547,2.108,2.108,0,0,0,.555-1.57,1.912,1.912,0,0,0-.609-1.523,2.655,2.655,0,0,0-1.758-.547H3.773Z" transform="translate(1095 672)" fill="#12263f"/>
      <path id="Trazado_108137" data-name="Trazado 108137" d="M-2.109-2.977H-6.875L-7.945,0H-9.492l4.344-11.375h1.313L.516,0H-1.023ZM-6.422-4.2h3.867l-1.937-5.32Zm14.2.383H9.352v1.18H7.773V0H6.32V-2.641H1.141v-.852l5.094-7.883H7.773Zm-4.992,0H6.32V-9.4l-.172.313Z" transform="translate(1095 698)" fill="#12263f"/>
      <path id="Trazado_108131" data-name="Trazado 108131" d="M-2.109-2.977H-6.875L-7.945,0H-9.492l4.344-11.375h1.313L.516,0H-1.023ZM-6.422-4.2h3.867l-1.937-5.32ZM2.336-5.7l.578-5.672H8.742v1.336h-4.6L3.8-6.937A3.671,3.671,0,0,1,5.7-7.43,3.138,3.138,0,0,1,8.164-6.4a4.026,4.026,0,0,1,.914,2.777,3.886,3.886,0,0,1-.949,2.77A3.46,3.46,0,0,1,5.477.156,3.6,3.6,0,0,1,3.016-.68,3.337,3.337,0,0,1,1.93-2.992H3.3a2.3,2.3,0,0,0,.7,1.473,2.162,2.162,0,0,0,1.484.5,1.95,1.95,0,0,0,1.582-.687,2.874,2.874,0,0,0,.574-1.9,2.638,2.638,0,0,0-.621-1.832,2.113,2.113,0,0,0-1.652-.691,2.383,2.383,0,0,0-1.484.414l-.383.313Z" transform="translate(1095 724)" fill="#12263f"/>
      <path id="Trazado_108132" data-name="Trazado 108132" d="M-2.109-2.977H-6.875L-7.945,0H-9.492l4.344-11.375h1.313L.516,0H-1.023ZM-6.422-4.2h3.867l-1.937-5.32Zm13.766-7.18v1.227H7.078a3.805,3.805,0,0,0-2.687,1A4.161,4.161,0,0,0,3.234-6.43,3.085,3.085,0,0,1,5.688-7.461,2.95,2.95,0,0,1,8.059-6.414a4.038,4.038,0,0,1,.887,2.7A4.025,4.025,0,0,1,7.988-.9,3.3,3.3,0,0,1,5.422.156,3.247,3.247,0,0,1,2.773-1.1a4.97,4.97,0,0,1-1.016-3.23v-.555a7.488,7.488,0,0,1,1.34-4.8,4.921,4.921,0,0,1,3.988-1.7Zm-1.9,5.125a2.306,2.306,0,0,0-1.367.445A2.32,2.32,0,0,0,3.211-4.7v.531A3.731,3.731,0,0,0,3.844-1.9a1.9,1.9,0,0,0,1.578.859,1.838,1.838,0,0,0,1.535-.719,2.982,2.982,0,0,0,.559-1.883,2.983,2.983,0,0,0-.566-1.895A1.816,1.816,0,0,0,5.445-6.258Z" transform="translate(1095 752)" fill="#12263f"/>
      <path id="Trazado_108133" data-name="Trazado 108133" d="M-2.109-2.977H-6.875L-7.945,0H-9.492l4.344-11.375h1.313L.516,0H-1.023ZM-6.422-4.2h3.867l-1.937-5.32ZM9.016-10.562,4.3,0H2.789l4.7-10.187H1.328v-1.187H9.016Z" transform="translate(1095 778)" fill="#12263f"/>
      <path id="Trazado_108125" data-name="Trazado 108125" d="M-2.109-2.977H-6.875L-7.945,0H-9.492l4.344-11.375h1.313L.516,0H-1.023ZM-6.422-4.2h3.867l-1.937-5.32ZM8.57-8.406a2.641,2.641,0,0,1-.449,1.516A3.057,3.057,0,0,1,6.906-5.852a3.26,3.26,0,0,1,1.41,1.117,2.811,2.811,0,0,1,.52,1.664,2.972,2.972,0,0,1-1,2.352A3.827,3.827,0,0,1,5.219.156,3.81,3.81,0,0,1,2.59-.723,2.986,2.986,0,0,1,1.6-3.07a2.9,2.9,0,0,1,.5-1.664A3.136,3.136,0,0,1,3.5-5.859,2.981,2.981,0,0,1,2.3-6.9a2.679,2.679,0,0,1-.437-1.508,2.94,2.94,0,0,1,.922-2.281,3.458,3.458,0,0,1,2.43-.844,3.461,3.461,0,0,1,2.426.844A2.934,2.934,0,0,1,8.57-8.406ZM7.391-3.1a2.1,2.1,0,0,0-.605-1.555,2.147,2.147,0,0,0-1.582-.6,2.11,2.11,0,0,0-1.566.594A2.12,2.12,0,0,0,3.047-3.1a2.019,2.019,0,0,0,.574,1.523,2.2,2.2,0,0,0,1.6.555,2.2,2.2,0,0,0,1.594-.559A2.014,2.014,0,0,0,7.391-3.1ZM5.219-10.344a1.865,1.865,0,0,0-1.379.527,1.937,1.937,0,0,0-.527,1.434,1.928,1.928,0,0,0,.52,1.4,1.844,1.844,0,0,0,1.387.535A1.844,1.844,0,0,0,6.605-6.98a1.928,1.928,0,0,0,.52-1.4A1.929,1.929,0,0,0,6.586-9.8,1.839,1.839,0,0,0,5.219-10.344Z" transform="translate(1095 805)" fill="#12263f"/>
      <path id="Trazado_108126" data-name="Trazado 108126" d="M-2.109-2.977H-6.875L-7.945,0H-9.492l4.344-11.375h1.313L.516,0H-1.023ZM-6.422-4.2h3.867l-1.937-5.32ZM7.211-5a3.536,3.536,0,0,1-1.082.867A2.936,2.936,0,0,1,4.75-3.8a3.031,3.031,0,0,1-1.715-.484A3.149,3.149,0,0,1,1.906-5.652a4.648,4.648,0,0,1-.4-1.941,4.735,4.735,0,0,1,.434-2.055,3.185,3.185,0,0,1,1.23-1.4,3.509,3.509,0,0,1,1.859-.484,3.177,3.177,0,0,1,2.66,1.262,5.5,5.5,0,0,1,.973,3.441v.422q0,3.32-1.312,4.848A5.043,5.043,0,0,1,3.391.008H3.109V-1.219h.3a3.979,3.979,0,0,0,2.75-.932A4,4,0,0,0,7.211-5ZM4.984-5a2.232,2.232,0,0,0,1.34-.445,2.625,2.625,0,0,0,.895-1.1v-.578A3.977,3.977,0,0,0,6.6-9.437a1.842,1.842,0,0,0-1.562-.891,1.856,1.856,0,0,0-1.531.73A3.013,3.013,0,0,0,2.93-7.672a3.136,3.136,0,0,0,.559,1.918A1.769,1.769,0,0,0,4.984-5Z" transform="translate(1095 834)" fill="#12263f"/>
      <path id="Trazado_108127" data-name="Trazado 108127" d="M-6.6-2.977h-4.766L-12.437,0h-1.547l4.344-11.375h1.313L-3.977,0H-5.516ZM-10.914-4.2h3.867l-1.937-5.32ZM1.93,0H.477V-9.633l-2.914,1.07V-9.875L1.7-11.43H1.93ZM13.3-4.852a6.61,6.61,0,0,1-.867,3.773A3.084,3.084,0,0,1,9.719.156a3.107,3.107,0,0,1-2.7-1.207,6.274,6.274,0,0,1-.906-3.605v-1.93a6.463,6.463,0,0,1,.867-3.727A3.108,3.108,0,0,1,9.7-11.531a3.136,3.136,0,0,1,2.7,1.176A6.237,6.237,0,0,1,13.3-6.727ZM11.852-6.828A5.3,5.3,0,0,0,11.336-9.5a1.775,1.775,0,0,0-1.633-.84,1.751,1.751,0,0,0-1.617.836,5.171,5.171,0,0,0-.523,2.57v2.313A5.381,5.381,0,0,0,8.1-1.9a1.771,1.771,0,0,0,1.621.879,1.747,1.747,0,0,0,1.59-.828,5.186,5.186,0,0,0,.543-2.609Z" transform="translate(1095 861)" fill="#12263f"/>
      <path id="Trazado_108148" data-name="Trazado 108148" d="M7.859-4.648h-4.5V0H1.016V-11.375H8.422v1.9H3.359v2.938h4.5ZM9.117-4.3A5.013,5.013,0,0,1,9.6-6.547,3.546,3.546,0,0,1,11-8.07a4.069,4.069,0,0,1,2.113-.539A3.849,3.849,0,0,1,15.9-7.562a4.2,4.2,0,0,1,1.207,2.844l.016.578A4.418,4.418,0,0,1,16.039-1.02,3.775,3.775,0,0,1,13.125.156a3.793,3.793,0,0,1-2.918-1.172A4.5,4.5,0,0,1,9.117-4.2Zm2.258.16A3.16,3.16,0,0,0,11.828-2.3a1.5,1.5,0,0,0,1.3.638,1.5,1.5,0,0,0,1.281-.63,3.457,3.457,0,0,0,.461-2.015,3.128,3.128,0,0,0-.461-1.831,1.5,1.5,0,0,0-1.3-.649,1.474,1.474,0,0,0-1.281.646A3.516,3.516,0,0,0,11.375-4.144ZM23.266-6.336a6.134,6.134,0,0,0-.812-.062,1.654,1.654,0,0,0-1.68.867V0H18.516V-8.453h2.133l.063,1.008a2.092,2.092,0,0,1,1.883-1.164,2.366,2.366,0,0,1,.7.1Zm3.2-2.117.07.945a2.971,2.971,0,0,1,2.43-1.1A2.255,2.255,0,0,1,31.211-7.32,2.9,2.9,0,0,1,33.75-8.609a2.521,2.521,0,0,1,2.047.8,3.681,3.681,0,0,1,.672,2.41V0H34.2V-5.4a1.616,1.616,0,0,0-.281-1.053,1.245,1.245,0,0,0-.992-.333,1.409,1.409,0,0,0-1.406.971L31.531,0H29.273V-5.4a1.6,1.6,0,0,0-.289-1.065A1.257,1.257,0,0,0,28-6.789a1.463,1.463,0,0,0-1.391.8V0H24.352V-8.453ZM43.1,0a2.507,2.507,0,0,1-.227-.758,2.732,2.732,0,0,1-2.133.914,3,3,0,0,1-2.059-.719,2.312,2.312,0,0,1-.816-1.812,2.389,2.389,0,0,1,1-2.062,4.915,4.915,0,0,1,2.879-.727h1.039v-.484a1.393,1.393,0,0,0-.3-.937,1.183,1.183,0,0,0-.949-.352,1.345,1.345,0,0,0-.895.273.929.929,0,0,0-.324.75H38.055a2.268,2.268,0,0,1,.453-1.359,3,3,0,0,1,1.281-.98,4.669,4.669,0,0,1,1.859-.355,3.689,3.689,0,0,1,2.48.785,2.747,2.747,0,0,1,.918,2.207v3.664a4.041,4.041,0,0,0,.336,1.82V0ZM41.234-1.57a1.945,1.945,0,0,0,.922-.223,1.462,1.462,0,0,0,.625-.6V-3.844h-.844q-1.7,0-1.8,1.172l-.008.133a.9.9,0,0,0,.3.7A1.153,1.153,0,0,0,41.234-1.57Zm8.25-8.961v2.078H50.93V-6.8H49.484v4.219a1.007,1.007,0,0,0,.18.672.9.9,0,0,0,.688.2,3.6,3.6,0,0,0,.664-.055V-.047a4.648,4.648,0,0,1-1.367.2,2.156,2.156,0,0,1-2.422-2.4V-6.8H45.992V-8.453h1.234v-2.078ZM51.6-4.3a5.013,5.013,0,0,1,.484-2.242A3.546,3.546,0,0,1,53.48-8.07a4.069,4.069,0,0,1,2.113-.539,3.849,3.849,0,0,1,2.793,1.047,4.2,4.2,0,0,1,1.207,2.844l.016.578A4.418,4.418,0,0,1,58.523-1.02,3.775,3.775,0,0,1,55.609.156a3.793,3.793,0,0,1-2.918-1.172A4.5,4.5,0,0,1,51.6-4.2Zm2.258.16A3.16,3.16,0,0,0,54.313-2.3a1.5,1.5,0,0,0,1.3.638,1.5,1.5,0,0,0,1.281-.63,3.457,3.457,0,0,0,.461-2.015,3.128,3.128,0,0,0-.461-1.831,1.5,1.5,0,0,0-1.3-.649,1.474,1.474,0,0,0-1.281.646A3.516,3.516,0,0,0,53.859-4.144Z" transform="translate(1212 565)" fill="#fff"/>
      <path id="Trazado_108143" data-name="Trazado 108143" d="M-49.273-5.7l.578-5.672h5.828v1.336h-4.6l-.344,3.1a3.671,3.671,0,0,1,1.9-.492A3.138,3.138,0,0,1-43.445-6.4a4.026,4.026,0,0,1,.914,2.777,3.886,3.886,0,0,1-.949,2.77A3.46,3.46,0,0,1-46.133.156,3.6,3.6,0,0,1-48.594-.68,3.337,3.337,0,0,1-49.68-2.992h1.367a2.3,2.3,0,0,0,.7,1.473,2.162,2.162,0,0,0,1.484.5,1.95,1.95,0,0,0,1.582-.687,2.874,2.874,0,0,0,.574-1.9A2.638,2.638,0,0,0-44.6-5.441a2.113,2.113,0,0,0-1.652-.691,2.383,2.383,0,0,0-1.484.414l-.383.313Zm13.859.7a3.536,3.536,0,0,1-1.082.867,2.936,2.936,0,0,1-1.379.328,3.031,3.031,0,0,1-1.715-.484,3.149,3.149,0,0,1-1.129-1.363,4.648,4.648,0,0,1-.4-1.941,4.735,4.735,0,0,1,.434-2.055,3.185,3.185,0,0,1,1.23-1.4,3.509,3.509,0,0,1,1.859-.484,3.177,3.177,0,0,1,2.66,1.262,5.5,5.5,0,0,1,.973,3.441v.422q0,3.32-1.312,4.848A5.043,5.043,0,0,1-39.234.008h-.281V-1.219h.3a3.979,3.979,0,0,0,2.75-.932A4,4,0,0,0-35.414-5Zm-2.227,0a2.232,2.232,0,0,0,1.34-.445,2.625,2.625,0,0,0,.895-1.1v-.578a3.977,3.977,0,0,0-.617-2.312,1.842,1.842,0,0,0-1.562-.891,1.856,1.856,0,0,0-1.531.73A3.013,3.013,0,0,0-39.7-7.672a3.136,3.136,0,0,0,.559,1.918A1.769,1.769,0,0,0-37.641-5Zm11.773,1.18h1.578v1.18h-1.578V0H-27.32V-2.641H-32.5v-.852l5.094-7.883h1.539Zm-4.992,0h3.539V-9.4l-.172.313Zm14.82-1.547,1.875-3.086h1.688l-2.766,4.18L-12.391,0h-1.672l-1.953-3.164L-17.969,0h-1.68L-16.8-4.273l-2.766-4.18h1.672Zm15.8-3.039A2.641,2.641,0,0,1-.684-6.891,3.057,3.057,0,0,1-1.9-5.852,3.26,3.26,0,0,1-.488-4.734,2.811,2.811,0,0,1,.031-3.07a2.972,2.972,0,0,1-1,2.352A3.827,3.827,0,0,1-3.586.156,3.81,3.81,0,0,1-6.215-.723,2.986,2.986,0,0,1-7.2-3.07a2.9,2.9,0,0,1,.5-1.664A3.136,3.136,0,0,1-5.3-5.859,2.981,2.981,0,0,1-6.5-6.9a2.679,2.679,0,0,1-.437-1.508,2.94,2.94,0,0,1,.922-2.281,3.458,3.458,0,0,1,2.43-.844,3.461,3.461,0,0,1,2.426.844A2.934,2.934,0,0,1-.234-8.406Zm-1.18,5.3A2.1,2.1,0,0,0-2.02-4.656a2.147,2.147,0,0,0-1.582-.6,2.11,2.11,0,0,0-1.566.594A2.12,2.12,0,0,0-5.758-3.1a2.019,2.019,0,0,0,.574,1.523,2.2,2.2,0,0,0,1.6.555,2.2,2.2,0,0,0,1.594-.559A2.014,2.014,0,0,0-1.414-3.1Zm-2.172-7.242a1.865,1.865,0,0,0-1.379.527,1.937,1.937,0,0,0-.527,1.434,1.928,1.928,0,0,0,.52,1.4,1.844,1.844,0,0,0,1.387.535A1.844,1.844,0,0,0-2.2-6.98a1.928,1.928,0,0,0,.52-1.4A1.929,1.929,0,0,0-2.219-9.8,1.839,1.839,0,0,0-3.586-10.344ZM7.953-3.82H9.531v1.18H7.953V0H6.5V-2.641H1.32v-.852l5.094-7.883H7.953Zm-4.992,0H6.5V-9.4l-.172.313ZM15.586,0H14.133V-9.633l-2.914,1.07V-9.875l4.141-1.555h.227Zm9.7-8.453.039.938a3.122,3.122,0,0,1,2.508-1.094A2.417,2.417,0,0,1,30.25-7.25a3.2,3.2,0,0,1,1.1-.984,3.242,3.242,0,0,1,1.6-.375q2.781,0,2.828,2.945V0H34.328V-5.578a1.941,1.941,0,0,0-.414-1.355,1.823,1.823,0,0,0-1.391-.449,1.916,1.916,0,0,0-1.336.48,1.949,1.949,0,0,0-.617,1.293V0H29.117V-5.539a1.613,1.613,0,0,0-1.8-1.844,1.934,1.934,0,0,0-1.945,1.211V0H23.922V-8.453Zm14.023,0,.039.938a3.122,3.122,0,0,1,2.508-1.094A2.417,2.417,0,0,1,44.273-7.25a3.2,3.2,0,0,1,1.1-.984,3.242,3.242,0,0,1,1.6-.375q2.781,0,2.828,2.945V0H48.352V-5.578a1.941,1.941,0,0,0-.414-1.355,1.823,1.823,0,0,0-1.391-.449,1.917,1.917,0,0,0-1.336.48,1.949,1.949,0,0,0-.617,1.293V0H43.141V-5.539a1.613,1.613,0,0,0-1.8-1.844,1.934,1.934,0,0,0-1.945,1.211V0H37.945V-8.453Z" transform="translate(1241 623)" fill="#12263f"/>
      <path id="Trazado_108145" data-name="Trazado 108145" d="M-47.531-8.406a2.641,2.641,0,0,1-.449,1.516A3.057,3.057,0,0,1-49.2-5.852a3.26,3.26,0,0,1,1.41,1.117,2.811,2.811,0,0,1,.52,1.664,2.972,2.972,0,0,1-1,2.352,3.827,3.827,0,0,1-2.621.875,3.81,3.81,0,0,1-2.629-.879A2.986,2.986,0,0,1-54.5-3.07,2.9,2.9,0,0,1-54-4.734,3.136,3.136,0,0,1-52.6-5.859,2.981,2.981,0,0,1-53.8-6.9a2.679,2.679,0,0,1-.437-1.508,2.94,2.94,0,0,1,.922-2.281,3.458,3.458,0,0,1,2.43-.844,3.461,3.461,0,0,1,2.426.844A2.934,2.934,0,0,1-47.531-8.406Zm-1.18,5.3a2.1,2.1,0,0,0-.605-1.555,2.147,2.147,0,0,0-1.582-.6,2.11,2.11,0,0,0-1.566.594,2.12,2.12,0,0,0-.59,1.563,2.019,2.019,0,0,0,.574,1.523,2.2,2.2,0,0,0,1.6.555,2.2,2.2,0,0,0,1.594-.559A2.014,2.014,0,0,0-48.711-3.1Zm-2.172-7.242a1.865,1.865,0,0,0-1.379.527,1.937,1.937,0,0,0-.527,1.434,1.928,1.928,0,0,0,.52,1.4,1.844,1.844,0,0,0,1.387.535A1.844,1.844,0,0,0-49.5-6.98a1.928,1.928,0,0,0,.52-1.4A1.929,1.929,0,0,0-49.516-9.8,1.839,1.839,0,0,0-50.883-10.344ZM-39.344-3.82h1.578v1.18h-1.578V0H-40.8V-2.641h-5.18v-.852l5.094-7.883h1.539Zm-4.992,0H-40.8V-9.4l-.172.313ZM-31.711,0h-1.453V-9.633l-2.914,1.07V-9.875l4.141-1.555h.227Zm11.18-5.367,1.875-3.086h1.688l-2.766,4.18L-16.883,0h-1.672l-1.953-3.164L-22.461,0h-1.68l2.852-4.273-2.766-4.18h1.672ZM-6.875,0H-8.328V-9.633l-2.914,1.07V-9.875L-7.1-11.43h.227ZM2.109,0H.656V-9.633l-2.914,1.07V-9.875L1.883-11.43h.227ZM13.242-8.406a2.641,2.641,0,0,1-.449,1.516,3.057,3.057,0,0,1-1.215,1.039,3.26,3.26,0,0,1,1.41,1.117,2.811,2.811,0,0,1,.52,1.664,2.972,2.972,0,0,1-1,2.352A3.827,3.827,0,0,1,9.891.156,3.81,3.81,0,0,1,7.262-.723,2.986,2.986,0,0,1,6.273-3.07a2.9,2.9,0,0,1,.5-1.664A3.136,3.136,0,0,1,8.172-5.859,2.981,2.981,0,0,1,6.977-6.9a2.679,2.679,0,0,1-.437-1.508,2.94,2.94,0,0,1,.922-2.281,3.458,3.458,0,0,1,2.43-.844,3.461,3.461,0,0,1,2.426.844A2.934,2.934,0,0,1,13.242-8.406Zm-1.18,5.3a2.1,2.1,0,0,0-.605-1.555,2.147,2.147,0,0,0-1.582-.6,2.11,2.11,0,0,0-1.566.594A2.12,2.12,0,0,0,7.719-3.1a2.019,2.019,0,0,0,.574,1.523,2.2,2.2,0,0,0,1.6.555,2.2,2.2,0,0,0,1.594-.559A2.014,2.014,0,0,0,12.063-3.1ZM9.891-10.344a1.865,1.865,0,0,0-1.379.527,1.937,1.937,0,0,0-.527,1.434,1.928,1.928,0,0,0,.52,1.4,1.844,1.844,0,0,0,1.387.535,1.844,1.844,0,0,0,1.387-.535,1.928,1.928,0,0,0,.52-1.4A1.929,1.929,0,0,0,11.258-9.8,1.839,1.839,0,0,0,9.891-10.344ZM20.867-5a3.536,3.536,0,0,1-1.082.867,2.936,2.936,0,0,1-1.379.328,3.031,3.031,0,0,1-1.715-.484,3.149,3.149,0,0,1-1.129-1.363,4.648,4.648,0,0,1-.4-1.941A4.735,4.735,0,0,1,15.6-9.648a3.185,3.185,0,0,1,1.23-1.4,3.509,3.509,0,0,1,1.859-.484,3.177,3.177,0,0,1,2.66,1.262,5.5,5.5,0,0,1,.973,3.441v.422q0,3.32-1.312,4.848A5.043,5.043,0,0,1,17.047.008h-.281V-1.219h.3a3.979,3.979,0,0,0,2.75-.932A4,4,0,0,0,20.867-5ZM18.641-5a2.232,2.232,0,0,0,1.34-.445,2.625,2.625,0,0,0,.895-1.1v-.578a3.977,3.977,0,0,0-.617-2.312,1.842,1.842,0,0,0-1.562-.891,1.856,1.856,0,0,0-1.531.73,3.013,3.013,0,0,0-.578,1.926,3.136,3.136,0,0,0,.559,1.918A1.769,1.769,0,0,0,18.641-5ZM29.781-8.453l.039.938a3.122,3.122,0,0,1,2.508-1.094A2.417,2.417,0,0,1,34.742-7.25a3.2,3.2,0,0,1,1.1-.984,3.242,3.242,0,0,1,1.6-.375q2.781,0,2.828,2.945V0H38.82V-5.578a1.941,1.941,0,0,0-.414-1.355,1.823,1.823,0,0,0-1.391-.449,1.917,1.917,0,0,0-1.336.48,1.949,1.949,0,0,0-.617,1.293V0H33.609V-5.539a1.613,1.613,0,0,0-1.8-1.844,1.934,1.934,0,0,0-1.945,1.211V0H28.414V-8.453Zm14.023,0,.039.938a3.122,3.122,0,0,1,2.508-1.094A2.417,2.417,0,0,1,48.766-7.25a3.2,3.2,0,0,1,1.1-.984,3.242,3.242,0,0,1,1.6-.375q2.781,0,2.828,2.945V0H52.844V-5.578a1.941,1.941,0,0,0-.414-1.355,1.823,1.823,0,0,0-1.391-.449A1.917,1.917,0,0,0,49.7-6.9a1.949,1.949,0,0,0-.617,1.293V0H47.633V-5.539a1.613,1.613,0,0,0-1.8-1.844,1.934,1.934,0,0,0-1.945,1.211V0H42.438V-8.453Z" transform="translate(1241 594)" fill="#12263f"/>
      <path id="Trazado_108141" data-name="Trazado 108141" d="M-43.836-3.82h1.578v1.18h-1.578V0h-1.453V-2.641h-5.18v-.852l5.094-7.883h1.539Zm-4.992,0h3.539V-9.4l-.172.313ZM-33.5,0h-7.453V-1.039l3.938-4.375a9.355,9.355,0,0,0,1.207-1.613,2.693,2.693,0,0,0,.332-1.285,2.041,2.041,0,0,0-.539-1.461,1.885,1.885,0,0,0-1.437-.57,2.232,2.232,0,0,0-1.676.613,2.343,2.343,0,0,0-.6,1.707h-1.445a3.355,3.355,0,0,1,1.012-2.539,3.751,3.751,0,0,1,2.707-.969,3.6,3.6,0,0,1,2.508.832,2.838,2.838,0,0,1,.922,2.215q0,1.68-2.141,4l-3.047,3.3H-33.5Zm8.664-4.852A6.61,6.61,0,0,1-25.7-1.078,3.084,3.084,0,0,1-28.414.156a3.107,3.107,0,0,1-2.7-1.207,6.274,6.274,0,0,1-.906-3.605v-1.93a6.463,6.463,0,0,1,.867-3.727,3.108,3.108,0,0,1,2.719-1.219,3.136,3.136,0,0,1,2.7,1.176,6.237,6.237,0,0,1,.891,3.629Zm-1.445-1.977A5.3,5.3,0,0,0-26.8-9.5a1.775,1.775,0,0,0-1.633-.84,1.751,1.751,0,0,0-1.617.836,5.171,5.171,0,0,0-.523,2.57v2.313A5.381,5.381,0,0,0-30.035-1.9a1.771,1.771,0,0,0,1.621.879,1.747,1.747,0,0,0,1.59-.828,5.186,5.186,0,0,0,.543-2.609Zm10.242,1.461,1.875-3.086h1.688l-2.766,4.18L-12.391,0h-1.672l-1.953-3.164L-17.969,0h-1.68L-16.8-4.273l-2.766-4.18h1.672Zm9.57-.336.578-5.672H-.062v1.336h-4.6l-.344,3.1a3.671,3.671,0,0,1,1.9-.492A3.138,3.138,0,0,1-.641-6.4,4.026,4.026,0,0,1,.273-3.625,3.886,3.886,0,0,1-.676-.855,3.46,3.46,0,0,1-3.328.156,3.6,3.6,0,0,1-5.789-.68,3.337,3.337,0,0,1-6.875-2.992h1.367a2.3,2.3,0,0,0,.7,1.473,2.162,2.162,0,0,0,1.484.5,1.95,1.95,0,0,0,1.582-.687,2.874,2.874,0,0,0,.574-1.9,2.638,2.638,0,0,0-.621-1.832,2.113,2.113,0,0,0-1.652-.691,2.383,2.383,0,0,0-1.484.414l-.383.313ZM7.391-5a3.536,3.536,0,0,1-1.082.867A2.936,2.936,0,0,1,4.93-3.8a3.031,3.031,0,0,1-1.715-.484A3.149,3.149,0,0,1,2.086-5.652a4.648,4.648,0,0,1-.4-1.941,4.735,4.735,0,0,1,.434-2.055,3.185,3.185,0,0,1,1.23-1.4,3.509,3.509,0,0,1,1.859-.484,3.177,3.177,0,0,1,2.66,1.262,5.5,5.5,0,0,1,.973,3.441v.422q0,3.32-1.312,4.848A5.043,5.043,0,0,1,3.57.008H3.289V-1.219h.3a3.979,3.979,0,0,0,2.75-.932A4,4,0,0,0,7.391-5ZM5.164-5A2.232,2.232,0,0,0,6.5-5.445a2.625,2.625,0,0,0,.895-1.1v-.578a3.977,3.977,0,0,0-.617-2.312,1.842,1.842,0,0,0-1.562-.891,1.856,1.856,0,0,0-1.531.73,3.013,3.013,0,0,0-.578,1.926,3.136,3.136,0,0,0,.559,1.918A1.769,1.769,0,0,0,5.164-5ZM16.938-3.82h1.578v1.18H16.938V0H15.484V-2.641H10.3v-.852L15.4-11.375h1.539Zm-4.992,0h3.539V-9.4l-.172.313ZM25.289-8.453l.039.938a3.122,3.122,0,0,1,2.508-1.094A2.417,2.417,0,0,1,30.25-7.25a3.2,3.2,0,0,1,1.1-.984,3.242,3.242,0,0,1,1.6-.375q2.781,0,2.828,2.945V0H34.328V-5.578a1.941,1.941,0,0,0-.414-1.355,1.823,1.823,0,0,0-1.391-.449,1.916,1.916,0,0,0-1.336.48,1.949,1.949,0,0,0-.617,1.293V0H29.117V-5.539a1.613,1.613,0,0,0-1.8-1.844,1.934,1.934,0,0,0-1.945,1.211V0H23.922V-8.453Zm14.023,0,.039.938a3.122,3.122,0,0,1,2.508-1.094A2.417,2.417,0,0,1,44.273-7.25a3.2,3.2,0,0,1,1.1-.984,3.242,3.242,0,0,1,1.6-.375q2.781,0,2.828,2.945V0H48.352V-5.578a1.941,1.941,0,0,0-.414-1.355,1.823,1.823,0,0,0-1.391-.449,1.917,1.917,0,0,0-1.336.48,1.949,1.949,0,0,0-.617,1.293V0H43.141V-5.539a1.613,1.613,0,0,0-1.8-1.844,1.934,1.934,0,0,0-1.945,1.211V0H37.945V-8.453Z" transform="translate(1241 649)" fill="#12263f"/>
      <path id="Trazado_108138" data-name="Trazado 108138" d="M-42.484,0h-7.453V-1.039L-46-5.414a9.355,9.355,0,0,0,1.207-1.613,2.693,2.693,0,0,0,.332-1.285A2.041,2.041,0,0,0-45-9.773a1.885,1.885,0,0,0-1.437-.57,2.232,2.232,0,0,0-1.676.613,2.343,2.343,0,0,0-.6,1.707h-1.445a3.355,3.355,0,0,1,1.012-2.539,3.751,3.751,0,0,1,2.707-.969,3.6,3.6,0,0,1,2.508.832,2.838,2.838,0,0,1,.922,2.215q0,1.68-2.141,4L-48.2-1.18h5.711Zm7.07-5a3.536,3.536,0,0,1-1.082.867,2.936,2.936,0,0,1-1.379.328,3.031,3.031,0,0,1-1.715-.484,3.149,3.149,0,0,1-1.129-1.363,4.648,4.648,0,0,1-.4-1.941,4.735,4.735,0,0,1,.434-2.055,3.185,3.185,0,0,1,1.23-1.4,3.509,3.509,0,0,1,1.859-.484,3.177,3.177,0,0,1,2.66,1.262,5.5,5.5,0,0,1,.973,3.441v.422q0,3.32-1.312,4.848A5.043,5.043,0,0,1-39.234.008h-.281V-1.219h.3a3.979,3.979,0,0,0,2.75-.932A4,4,0,0,0-35.414-5Zm-2.227,0a2.232,2.232,0,0,0,1.34-.445,2.625,2.625,0,0,0,.895-1.1v-.578a3.977,3.977,0,0,0-.617-2.312,1.842,1.842,0,0,0-1.562-.891,1.856,1.856,0,0,0-1.531.73A3.013,3.013,0,0,0-39.7-7.672a3.136,3.136,0,0,0,.559,1.918A1.769,1.769,0,0,0-37.641-5Zm13.016-5.562L-29.336,0h-1.516l4.7-10.187h-6.156v-1.187h7.688Zm8.586,5.2,1.875-3.086h1.688l-2.766,4.18L-12.391,0h-1.672l-1.953-3.164L-17.969,0h-1.68L-16.8-4.273l-2.766-4.18h1.672ZM-1.031-3.82H.547v1.18H-1.031V0H-2.484V-2.641h-5.18v-.852l5.094-7.883h1.539Zm-4.992,0h3.539V-9.4l-.172.313ZM9.3,0H1.852V-1.039L5.789-5.414A9.354,9.354,0,0,0,7-7.027a2.693,2.693,0,0,0,.332-1.285,2.041,2.041,0,0,0-.539-1.461,1.885,1.885,0,0,0-1.437-.57,2.232,2.232,0,0,0-1.676.613,2.343,2.343,0,0,0-.6,1.707H1.633a3.355,3.355,0,0,1,1.012-2.539,3.751,3.751,0,0,1,2.707-.969,3.6,3.6,0,0,1,2.508.832,2.838,2.838,0,0,1,.922,2.215q0,1.68-2.141,4L3.594-1.18H9.3Zm8.664-4.852A6.61,6.61,0,0,1,17.1-1.078,3.084,3.084,0,0,1,14.391.156a3.107,3.107,0,0,1-2.7-1.207,6.274,6.274,0,0,1-.906-3.605v-1.93a6.463,6.463,0,0,1,.867-3.727,3.108,3.108,0,0,1,2.719-1.219,3.136,3.136,0,0,1,2.7,1.176,6.237,6.237,0,0,1,.891,3.629ZM16.523-6.828A5.3,5.3,0,0,0,16.008-9.5a1.775,1.775,0,0,0-1.633-.84,1.751,1.751,0,0,0-1.617.836,5.171,5.171,0,0,0-.523,2.57v2.313A5.381,5.381,0,0,0,12.77-1.9a1.771,1.771,0,0,0,1.621.879,1.747,1.747,0,0,0,1.59-.828,5.186,5.186,0,0,0,.543-2.609Zm8.766-1.625.039.938a3.122,3.122,0,0,1,2.508-1.094A2.417,2.417,0,0,1,30.25-7.25a3.2,3.2,0,0,1,1.1-.984,3.242,3.242,0,0,1,1.6-.375q2.781,0,2.828,2.945V0H34.328V-5.578a1.941,1.941,0,0,0-.414-1.355,1.823,1.823,0,0,0-1.391-.449,1.916,1.916,0,0,0-1.336.48,1.949,1.949,0,0,0-.617,1.293V0H29.117V-5.539a1.613,1.613,0,0,0-1.8-1.844,1.934,1.934,0,0,0-1.945,1.211V0H23.922V-8.453Zm14.023,0,.039.938a3.122,3.122,0,0,1,2.508-1.094A2.417,2.417,0,0,1,44.273-7.25a3.2,3.2,0,0,1,1.1-.984,3.242,3.242,0,0,1,1.6-.375q2.781,0,2.828,2.945V0H48.352V-5.578a1.941,1.941,0,0,0-.414-1.355,1.823,1.823,0,0,0-1.391-.449,1.917,1.917,0,0,0-1.336.48,1.949,1.949,0,0,0-.617,1.293V0H43.141V-5.539a1.613,1.613,0,0,0-1.8-1.844,1.934,1.934,0,0,0-1.945,1.211V0H37.945V-8.453Z" transform="translate(1241 675)" fill="#12263f"/>
      <path id="Trazado_108139" data-name="Trazado 108139" d="M-42.484,0h-7.453V-1.039L-46-5.414a9.355,9.355,0,0,0,1.207-1.613,2.693,2.693,0,0,0,.332-1.285A2.041,2.041,0,0,0-45-9.773a1.885,1.885,0,0,0-1.437-.57,2.232,2.232,0,0,0-1.676.613,2.343,2.343,0,0,0-.6,1.707h-1.445a3.355,3.355,0,0,1,1.012-2.539,3.751,3.751,0,0,1,2.707-.969,3.6,3.6,0,0,1,2.508.832,2.838,2.838,0,0,1,.922,2.215q0,1.68-2.141,4L-48.2-1.18h5.711ZM-36.2,0h-1.453V-9.633l-2.914,1.07V-9.875l4.141-1.555h.227Zm11.367-4.852A6.61,6.61,0,0,1-25.7-1.078,3.084,3.084,0,0,1-28.414.156a3.107,3.107,0,0,1-2.7-1.207,6.274,6.274,0,0,1-.906-3.605v-1.93a6.463,6.463,0,0,1,.867-3.727,3.108,3.108,0,0,1,2.719-1.219,3.136,3.136,0,0,1,2.7,1.176,6.237,6.237,0,0,1,.891,3.629Zm-1.445-1.977A5.3,5.3,0,0,0-26.8-9.5a1.775,1.775,0,0,0-1.633-.84,1.751,1.751,0,0,0-1.617.836,5.171,5.171,0,0,0-.523,2.57v2.313A5.381,5.381,0,0,0-30.035-1.9a1.771,1.771,0,0,0,1.621.879,1.747,1.747,0,0,0,1.59-.828,5.186,5.186,0,0,0,.543-2.609Zm10.242,1.461,1.875-3.086h1.688l-2.766,4.18L-12.391,0h-1.672l-1.953-3.164L-17.969,0h-1.68L-16.8-4.273l-2.766-4.18h1.672ZM.32,0H-7.133V-1.039L-3.2-5.414A9.354,9.354,0,0,0-1.988-7.027a2.693,2.693,0,0,0,.332-1.285A2.041,2.041,0,0,0-2.2-9.773a1.885,1.885,0,0,0-1.437-.57,2.232,2.232,0,0,0-1.676.613,2.343,2.343,0,0,0-.6,1.707H-7.352A3.355,3.355,0,0,1-6.34-10.562a3.751,3.751,0,0,1,2.707-.969,3.6,3.6,0,0,1,2.508.832A2.838,2.838,0,0,1-.2-8.484q0,1.68-2.141,4l-3.047,3.3H.32Zm7.07-5a3.536,3.536,0,0,1-1.082.867A2.936,2.936,0,0,1,4.93-3.8a3.031,3.031,0,0,1-1.715-.484A3.149,3.149,0,0,1,2.086-5.652a4.648,4.648,0,0,1-.4-1.941,4.735,4.735,0,0,1,.434-2.055,3.185,3.185,0,0,1,1.23-1.4,3.509,3.509,0,0,1,1.859-.484,3.177,3.177,0,0,1,2.66,1.262,5.5,5.5,0,0,1,.973,3.441v.422q0,3.32-1.312,4.848A5.043,5.043,0,0,1,3.57.008H3.289V-1.219h.3a3.979,3.979,0,0,0,2.75-.932A4,4,0,0,0,7.391-5ZM5.164-5A2.232,2.232,0,0,0,6.5-5.445a2.625,2.625,0,0,0,.895-1.1v-.578a3.977,3.977,0,0,0-.617-2.312,1.842,1.842,0,0,0-1.562-.891,1.856,1.856,0,0,0-1.531.73,3.013,3.013,0,0,0-.578,1.926,3.136,3.136,0,0,0,.559,1.918A1.769,1.769,0,0,0,5.164-5ZM18.18-10.562,13.469,0H11.953l4.7-10.187H10.492v-1.187H18.18Zm7.109,2.109.039.938a3.122,3.122,0,0,1,2.508-1.094A2.417,2.417,0,0,1,30.25-7.25a3.2,3.2,0,0,1,1.1-.984,3.242,3.242,0,0,1,1.6-.375q2.781,0,2.828,2.945V0H34.328V-5.578a1.941,1.941,0,0,0-.414-1.355,1.823,1.823,0,0,0-1.391-.449,1.916,1.916,0,0,0-1.336.48,1.949,1.949,0,0,0-.617,1.293V0H29.117V-5.539a1.613,1.613,0,0,0-1.8-1.844,1.934,1.934,0,0,0-1.945,1.211V0H23.922V-8.453Zm14.023,0,.039.938a3.122,3.122,0,0,1,2.508-1.094A2.417,2.417,0,0,1,44.273-7.25a3.2,3.2,0,0,1,1.1-.984,3.242,3.242,0,0,1,1.6-.375q2.781,0,2.828,2.945V0H48.352V-5.578a1.941,1.941,0,0,0-.414-1.355,1.823,1.823,0,0,0-1.391-.449,1.917,1.917,0,0,0-1.336.48,1.949,1.949,0,0,0-.617,1.293V0H43.141V-5.539a1.613,1.613,0,0,0-1.8-1.844,1.934,1.934,0,0,0-1.945,1.211V0H37.945V-8.453Z" transform="translate(1241 701)" fill="#12263f"/>
      <path id="Trazado_108134" data-name="Trazado 108134" d="M-45.187,0h-1.453V-9.633l-2.914,1.07V-9.875l4.141-1.555h.227Zm10.336-3.82h1.578v1.18h-1.578V0H-36.3V-2.641h-5.18v-.852l5.094-7.883h1.539Zm-4.992,0H-36.3V-9.4l-.172.313ZM-25.07-8.406a2.641,2.641,0,0,1-.449,1.516,3.057,3.057,0,0,1-1.215,1.039,3.26,3.26,0,0,1,1.41,1.117A2.811,2.811,0,0,1-24.8-3.07a2.972,2.972,0,0,1-1,2.352,3.827,3.827,0,0,1-2.621.875,3.81,3.81,0,0,1-2.629-.879,2.986,2.986,0,0,1-.988-2.348,2.9,2.9,0,0,1,.5-1.664,3.136,3.136,0,0,1,1.395-1.125,2.981,2.981,0,0,1-1.2-1.039,2.679,2.679,0,0,1-.437-1.508,2.94,2.94,0,0,1,.922-2.281,3.458,3.458,0,0,1,2.43-.844A3.461,3.461,0,0,1-26-10.687,2.934,2.934,0,0,1-25.07-8.406Zm-1.18,5.3a2.1,2.1,0,0,0-.605-1.555,2.147,2.147,0,0,0-1.582-.6A2.11,2.11,0,0,0-30-4.664a2.12,2.12,0,0,0-.59,1.563,2.019,2.019,0,0,0,.574,1.523,2.2,2.2,0,0,0,1.6.555,2.2,2.2,0,0,0,1.594-.559A2.014,2.014,0,0,0-26.25-3.1Zm-2.172-7.242a1.865,1.865,0,0,0-1.379.527,1.937,1.937,0,0,0-.527,1.434,1.928,1.928,0,0,0,.52,1.4,1.844,1.844,0,0,0,1.387.535,1.844,1.844,0,0,0,1.387-.535,1.928,1.928,0,0,0,.52-1.4A1.929,1.929,0,0,0-27.055-9.8,1.839,1.839,0,0,0-28.422-10.344Zm12.383,4.977,1.875-3.086h1.688l-2.766,4.18L-12.391,0h-1.672l-1.953-3.164L-17.969,0h-1.68L-16.8-4.273l-2.766-4.18h1.672ZM.32,0H-7.133V-1.039L-3.2-5.414A9.354,9.354,0,0,0-1.988-7.027a2.693,2.693,0,0,0,.332-1.285A2.041,2.041,0,0,0-2.2-9.773a1.885,1.885,0,0,0-1.437-.57,2.232,2.232,0,0,0-1.676.613,2.343,2.343,0,0,0-.6,1.707H-7.352A3.355,3.355,0,0,1-6.34-10.562a3.751,3.751,0,0,1,2.707-.969,3.6,3.6,0,0,1,2.508.832A2.838,2.838,0,0,1-.2-8.484q0,1.68-2.141,4l-3.047,3.3H.32ZM6.6,0H5.148V-9.633L2.234-8.562V-9.875L6.375-11.43H6.6ZM17.969-4.852A6.61,6.61,0,0,1,17.1-1.078,3.084,3.084,0,0,1,14.391.156a3.107,3.107,0,0,1-2.7-1.207,6.274,6.274,0,0,1-.906-3.605v-1.93a6.463,6.463,0,0,1,.867-3.727,3.108,3.108,0,0,1,2.719-1.219,3.136,3.136,0,0,1,2.7,1.176,6.237,6.237,0,0,1,.891,3.629ZM16.523-6.828A5.3,5.3,0,0,0,16.008-9.5a1.775,1.775,0,0,0-1.633-.84,1.751,1.751,0,0,0-1.617.836,5.171,5.171,0,0,0-.523,2.57v2.313A5.381,5.381,0,0,0,12.77-1.9a1.771,1.771,0,0,0,1.621.879,1.747,1.747,0,0,0,1.59-.828,5.186,5.186,0,0,0,.543-2.609Zm8.766-1.625.039.938a3.122,3.122,0,0,1,2.508-1.094A2.417,2.417,0,0,1,30.25-7.25a3.2,3.2,0,0,1,1.1-.984,3.242,3.242,0,0,1,1.6-.375q2.781,0,2.828,2.945V0H34.328V-5.578a1.941,1.941,0,0,0-.414-1.355,1.823,1.823,0,0,0-1.391-.449,1.916,1.916,0,0,0-1.336.48,1.949,1.949,0,0,0-.617,1.293V0H29.117V-5.539a1.613,1.613,0,0,0-1.8-1.844,1.934,1.934,0,0,0-1.945,1.211V0H23.922V-8.453Zm14.023,0,.039.938a3.122,3.122,0,0,1,2.508-1.094A2.417,2.417,0,0,1,44.273-7.25a3.2,3.2,0,0,1,1.1-.984,3.242,3.242,0,0,1,1.6-.375q2.781,0,2.828,2.945V0H48.352V-5.578a1.941,1.941,0,0,0-.414-1.355,1.823,1.823,0,0,0-1.391-.449,1.917,1.917,0,0,0-1.336.48,1.949,1.949,0,0,0-.617,1.293V0H43.141V-5.539a1.613,1.613,0,0,0-1.8-1.844,1.934,1.934,0,0,0-1.945,1.211V0H37.945V-8.453Z" transform="translate(1241 727)" fill="#12263f"/>
      <path id="Trazado_108135" data-name="Trazado 108135" d="M-45.187,0h-1.453V-9.633l-2.914,1.07V-9.875l4.141-1.555h.227ZM-33.82-4.852a6.61,6.61,0,0,1-.867,3.773A3.084,3.084,0,0,1-37.4.156a3.107,3.107,0,0,1-2.7-1.207A6.274,6.274,0,0,1-41-4.656v-1.93a6.463,6.463,0,0,1,.867-3.727,3.108,3.108,0,0,1,2.719-1.219,3.136,3.136,0,0,1,2.7,1.176,6.237,6.237,0,0,1,.891,3.629Zm-1.445-1.977A5.3,5.3,0,0,0-35.781-9.5a1.775,1.775,0,0,0-1.633-.84,1.751,1.751,0,0,0-1.617.836,5.171,5.171,0,0,0-.523,2.57v2.313A5.381,5.381,0,0,0-39.02-1.9a1.771,1.771,0,0,0,1.621.879,1.747,1.747,0,0,0,1.59-.828,5.186,5.186,0,0,0,.543-2.609ZM-31.3-5.7l.578-5.672H-24.9v1.336h-4.6l-.344,3.1a3.671,3.671,0,0,1,1.9-.492A3.138,3.138,0,0,1-25.477-6.4a4.026,4.026,0,0,1,.914,2.777,3.886,3.886,0,0,1-.949,2.77A3.46,3.46,0,0,1-28.164.156,3.6,3.6,0,0,1-30.625-.68a3.337,3.337,0,0,1-1.086-2.312h1.367a2.3,2.3,0,0,0,.7,1.473,2.162,2.162,0,0,0,1.484.5,1.95,1.95,0,0,0,1.582-.687,2.874,2.874,0,0,0,.574-1.9,2.638,2.638,0,0,0-.621-1.832,2.113,2.113,0,0,0-1.652-.691,2.383,2.383,0,0,0-1.484.414l-.383.313Zm15.266.336,1.875-3.086h1.688l-2.766,4.18L-12.391,0h-1.672l-1.953-3.164L-17.969,0h-1.68L-16.8-4.273l-2.766-4.18h1.672ZM-2.383,0H-3.836V-9.633L-6.75-8.562V-9.875l4.141-1.555h.227ZM7.953-3.82H9.531v1.18H7.953V0H6.5V-2.641H1.32v-.852l5.094-7.883H7.953Zm-4.992,0H6.5V-9.4l-.172.313ZM17.734-8.406a2.641,2.641,0,0,1-.449,1.516A3.057,3.057,0,0,1,16.07-5.852a3.26,3.26,0,0,1,1.41,1.117A2.811,2.811,0,0,1,18-3.07,2.972,2.972,0,0,1,17-.719a3.827,3.827,0,0,1-2.621.875,3.81,3.81,0,0,1-2.629-.879,2.986,2.986,0,0,1-.988-2.348,2.9,2.9,0,0,1,.5-1.664,3.136,3.136,0,0,1,1.395-1.125,2.981,2.981,0,0,1-1.2-1.039,2.679,2.679,0,0,1-.437-1.508,2.94,2.94,0,0,1,.922-2.281,3.458,3.458,0,0,1,2.43-.844,3.461,3.461,0,0,1,2.426.844A2.934,2.934,0,0,1,17.734-8.406Zm-1.18,5.3a2.1,2.1,0,0,0-.605-1.555,2.147,2.147,0,0,0-1.582-.6,2.11,2.11,0,0,0-1.566.594,2.12,2.12,0,0,0-.59,1.563,2.019,2.019,0,0,0,.574,1.523,2.2,2.2,0,0,0,1.6.555,2.2,2.2,0,0,0,1.594-.559A2.014,2.014,0,0,0,16.555-3.1Zm-2.172-7.242A1.865,1.865,0,0,0,13-9.816a1.937,1.937,0,0,0-.527,1.434A1.928,1.928,0,0,0,13-6.98a1.844,1.844,0,0,0,1.387.535A1.844,1.844,0,0,0,15.77-6.98a1.928,1.928,0,0,0,.52-1.4A1.929,1.929,0,0,0,15.75-9.8,1.839,1.839,0,0,0,14.383-10.344ZM25.289-8.453l.039.938a3.122,3.122,0,0,1,2.508-1.094A2.417,2.417,0,0,1,30.25-7.25a3.2,3.2,0,0,1,1.1-.984,3.242,3.242,0,0,1,1.6-.375q2.781,0,2.828,2.945V0H34.328V-5.578a1.941,1.941,0,0,0-.414-1.355,1.823,1.823,0,0,0-1.391-.449,1.916,1.916,0,0,0-1.336.48,1.949,1.949,0,0,0-.617,1.293V0H29.117V-5.539a1.613,1.613,0,0,0-1.8-1.844,1.934,1.934,0,0,0-1.945,1.211V0H23.922V-8.453Zm14.023,0,.039.938a3.122,3.122,0,0,1,2.508-1.094A2.417,2.417,0,0,1,44.273-7.25a3.2,3.2,0,0,1,1.1-.984,3.242,3.242,0,0,1,1.6-.375q2.781,0,2.828,2.945V0H48.352V-5.578a1.941,1.941,0,0,0-.414-1.355,1.823,1.823,0,0,0-1.391-.449,1.917,1.917,0,0,0-1.336.48,1.949,1.949,0,0,0-.617,1.293V0H43.141V-5.539a1.613,1.613,0,0,0-1.8-1.844,1.934,1.934,0,0,0-1.945,1.211V0H37.945V-8.453Z" transform="translate(1241 753)" fill="#12263f"/>
      <path id="Trazado_108128" data-name="Trazado 108128" d="M-38.1-10.562-42.812,0h-1.516l4.7-10.187h-6.156v-1.187H-38.1Zm7.742,6.742h1.578v1.18h-1.578V0h-1.453V-2.641h-5.18v-.852l5.094-7.883h1.539Zm-4.992,0h3.539V-9.4l-.172.313Zm14.82-1.547,1.875-3.086h1.688l-2.766,4.18L-16.883,0h-1.672l-1.953-3.164L-22.461,0h-1.68l2.852-4.273-2.766-4.18h1.672ZM-6.875,0H-8.328V-9.633l-2.914,1.07V-9.875L-7.1-11.43h.227ZM4.492-4.852a6.61,6.61,0,0,1-.867,3.773A3.084,3.084,0,0,1,.914.156a3.107,3.107,0,0,1-2.7-1.207,6.274,6.274,0,0,1-.906-3.605v-1.93a6.463,6.463,0,0,1,.867-3.727A3.108,3.108,0,0,1,.9-11.531a3.136,3.136,0,0,1,2.7,1.176,6.237,6.237,0,0,1,.891,3.629ZM3.047-6.828A5.3,5.3,0,0,0,2.531-9.5,1.775,1.775,0,0,0,.9-10.344a1.751,1.751,0,0,0-1.617.836,5.171,5.171,0,0,0-.523,2.57v2.313A5.381,5.381,0,0,0-.707-1.9a1.771,1.771,0,0,0,1.621.879A1.747,1.747,0,0,0,2.5-1.852a5.186,5.186,0,0,0,.543-2.609ZM7.008-5.7l.578-5.672h5.828v1.336h-4.6l-.344,3.1a3.671,3.671,0,0,1,1.9-.492A3.138,3.138,0,0,1,12.836-6.4a4.026,4.026,0,0,1,.914,2.777A3.886,3.886,0,0,1,12.8-.855,3.46,3.46,0,0,1,10.148.156,3.6,3.6,0,0,1,7.688-.68,3.337,3.337,0,0,1,6.6-2.992H7.969a2.3,2.3,0,0,0,.7,1.473,2.162,2.162,0,0,0,1.484.5,1.95,1.95,0,0,0,1.582-.687,2.874,2.874,0,0,0,.574-1.9,2.638,2.638,0,0,0-.621-1.832,2.113,2.113,0,0,0-1.652-.691,2.383,2.383,0,0,0-1.484.414l-.383.313ZM20.8-8.453l.039.938a3.122,3.122,0,0,1,2.508-1.094A2.417,2.417,0,0,1,25.758-7.25a3.2,3.2,0,0,1,1.1-.984,3.242,3.242,0,0,1,1.6-.375q2.781,0,2.828,2.945V0H29.836V-5.578a1.941,1.941,0,0,0-.414-1.355,1.823,1.823,0,0,0-1.391-.449A1.916,1.916,0,0,0,26.7-6.9a1.949,1.949,0,0,0-.617,1.293V0H24.625V-5.539a1.613,1.613,0,0,0-1.8-1.844,1.934,1.934,0,0,0-1.945,1.211V0H19.43V-8.453Zm14.023,0,.039.938a3.122,3.122,0,0,1,2.508-1.094A2.417,2.417,0,0,1,39.781-7.25a3.2,3.2,0,0,1,1.1-.984,3.242,3.242,0,0,1,1.6-.375q2.781,0,2.828,2.945V0H43.859V-5.578a1.941,1.941,0,0,0-.414-1.355,1.823,1.823,0,0,0-1.391-.449,1.917,1.917,0,0,0-1.336.48A1.949,1.949,0,0,0,40.1-5.609V0H38.648V-5.539a1.613,1.613,0,0,0-1.8-1.844A1.934,1.934,0,0,0,34.9-6.172V0H33.453V-8.453Z" transform="translate(1241 781)" fill="#12263f"/>
      <path id="Trazado_108129" data-name="Trazado 108129" d="M-41.34-5.7l.578-5.672h5.828v1.336h-4.6l-.344,3.1a3.671,3.671,0,0,1,1.9-.492A3.138,3.138,0,0,1-35.512-6.4,4.026,4.026,0,0,1-34.6-3.625a3.886,3.886,0,0,1-.949,2.77A3.46,3.46,0,0,1-38.2.156,3.6,3.6,0,0,1-40.66-.68a3.337,3.337,0,0,1-1.086-2.312h1.367a2.3,2.3,0,0,0,.7,1.473,2.162,2.162,0,0,0,1.484.5,1.95,1.95,0,0,0,1.582-.687,2.874,2.874,0,0,0,.574-1.9,2.638,2.638,0,0,0-.621-1.832,2.113,2.113,0,0,0-1.652-.691,2.383,2.383,0,0,0-1.484.414l-.383.313ZM-25.566,0H-33.02V-1.039l3.938-4.375a9.354,9.354,0,0,0,1.207-1.613,2.693,2.693,0,0,0,.332-1.285,2.041,2.041,0,0,0-.539-1.461,1.885,1.885,0,0,0-1.437-.57A2.232,2.232,0,0,0-31.2-9.73a2.343,2.343,0,0,0-.6,1.707h-1.445a3.355,3.355,0,0,1,1.012-2.539,3.751,3.751,0,0,1,2.707-.969,3.6,3.6,0,0,1,2.508.832,2.838,2.838,0,0,1,.922,2.215q0,1.68-2.141,4l-3.047,3.3h5.711Zm9.578-7.016,2.727-4.359H-11.5L-15.09-5.734-11.41,0h-1.781l-2.8-4.437L-18.8,0h-1.773l3.688-5.734-3.6-5.641h1.758Zm17.25-3.547L-3.449,0H-4.965l4.7-10.187H-6.426v-1.187H1.262ZM9-3.82h1.578v1.18H9V0H7.551V-2.641H2.371v-.852l5.094-7.883H9Zm-4.992,0H7.551V-9.4l-.172.313ZM17.355-8.453l.039.938A3.122,3.122,0,0,1,19.9-8.609,2.417,2.417,0,0,1,22.316-7.25a3.2,3.2,0,0,1,1.1-.984,3.242,3.242,0,0,1,1.6-.375q2.781,0,2.828,2.945V0H26.395V-5.578a1.941,1.941,0,0,0-.414-1.355,1.823,1.823,0,0,0-1.391-.449,1.916,1.916,0,0,0-1.336.48,1.949,1.949,0,0,0-.617,1.293V0H21.184V-5.539a1.613,1.613,0,0,0-1.8-1.844,1.934,1.934,0,0,0-1.945,1.211V0H15.988V-8.453Zm14.023,0,.039.938a3.122,3.122,0,0,1,2.508-1.094A2.417,2.417,0,0,1,36.34-7.25a3.2,3.2,0,0,1,1.1-.984,3.242,3.242,0,0,1,1.6-.375q2.781,0,2.828,2.945V0H40.418V-5.578A1.941,1.941,0,0,0,40-6.934a1.823,1.823,0,0,0-1.391-.449,1.917,1.917,0,0,0-1.336.48,1.949,1.949,0,0,0-.617,1.293V0H35.207V-5.539a1.613,1.613,0,0,0-1.8-1.844,1.934,1.934,0,0,0-1.945,1.211V0H30.012V-8.453Z" transform="translate(1241 807)" fill="#12263f"/>
      <path id="Trazado_108130" data-name="Trazado 108130" d="M-38.852-6.391h1.086a2.387,2.387,0,0,0,1.609-.539,1.8,1.8,0,0,0,.586-1.414,1.764,1.764,0,0,0-1.992-2,2.072,2.072,0,0,0-1.5.535,1.873,1.873,0,0,0-.559,1.418h-1.445a2.9,2.9,0,0,1,.988-2.246,3.6,3.6,0,0,1,2.512-.895,3.558,3.558,0,0,1,2.523.852,3.076,3.076,0,0,1,.914,2.367,2.5,2.5,0,0,1-.48,1.438,2.9,2.9,0,0,1-1.309,1.039,2.8,2.8,0,0,1,1.449.984,2.734,2.734,0,0,1,.512,1.68,3.1,3.1,0,0,1-1,2.43,3.745,3.745,0,0,1-2.6.9A3.844,3.844,0,0,1-40.16-.711a2.877,2.877,0,0,1-1-2.289h1.453a1.859,1.859,0,0,0,.586,1.438,2.229,2.229,0,0,0,1.57.539,2.187,2.187,0,0,0,1.6-.547,2.108,2.108,0,0,0,.555-1.57,1.912,1.912,0,0,0-.609-1.523,2.655,2.655,0,0,0-1.758-.547h-1.086Zm14.227-4.172L-29.336,0h-1.516l4.7-10.187h-6.156v-1.187h7.688Zm8.586,5.2,1.875-3.086h1.688l-2.766,4.18L-12.391,0h-1.672l-1.953-3.164L-17.969,0h-1.68L-16.8-4.273l-2.766-4.18h1.672Zm9.57-.336.578-5.672H-.062v1.336h-4.6l-.344,3.1a3.671,3.671,0,0,1,1.9-.492A3.138,3.138,0,0,1-.641-6.4,4.026,4.026,0,0,1,.273-3.625,3.886,3.886,0,0,1-.676-.855,3.46,3.46,0,0,1-3.328.156,3.6,3.6,0,0,1-5.789-.68,3.337,3.337,0,0,1-6.875-2.992h1.367a2.3,2.3,0,0,0,.7,1.473,2.162,2.162,0,0,0,1.484.5,1.95,1.95,0,0,0,1.582-.687,2.874,2.874,0,0,0,.574-1.9,2.638,2.638,0,0,0-.621-1.832,2.113,2.113,0,0,0-1.652-.691,2.383,2.383,0,0,0-1.484.414l-.383.313ZM9.3,0H1.852V-1.039L5.789-5.414A9.354,9.354,0,0,0,7-7.027a2.693,2.693,0,0,0,.332-1.285,2.041,2.041,0,0,0-.539-1.461,1.885,1.885,0,0,0-1.437-.57,2.232,2.232,0,0,0-1.676.613,2.343,2.343,0,0,0-.6,1.707H1.633a3.355,3.355,0,0,1,1.012-2.539,3.751,3.751,0,0,1,2.707-.969,3.6,3.6,0,0,1,2.508.832,2.838,2.838,0,0,1,.922,2.215q0,1.68-2.141,4L3.594-1.18H9.3Zm7-8.453.039.938a3.122,3.122,0,0,1,2.508-1.094A2.417,2.417,0,0,1,21.266-7.25a3.2,3.2,0,0,1,1.1-.984,3.242,3.242,0,0,1,1.6-.375q2.781,0,2.828,2.945V0H25.344V-5.578a1.941,1.941,0,0,0-.414-1.355,1.823,1.823,0,0,0-1.391-.449A1.916,1.916,0,0,0,22.2-6.9a1.949,1.949,0,0,0-.617,1.293V0H20.133V-5.539a1.613,1.613,0,0,0-1.8-1.844,1.934,1.934,0,0,0-1.945,1.211V0H14.938V-8.453Zm14.023,0,.039.938a3.122,3.122,0,0,1,2.508-1.094A2.417,2.417,0,0,1,35.289-7.25a3.2,3.2,0,0,1,1.1-.984,3.242,3.242,0,0,1,1.6-.375q2.781,0,2.828,2.945V0H39.367V-5.578a1.941,1.941,0,0,0-.414-1.355,1.823,1.823,0,0,0-1.391-.449,1.917,1.917,0,0,0-1.336.48,1.949,1.949,0,0,0-.617,1.293V0H34.156V-5.539a1.613,1.613,0,0,0-1.8-1.844,1.934,1.934,0,0,0-1.945,1.211V0H28.961V-8.453Z" transform="translate(1241 834)" fill="#12263f"/>
      <path id="Trazado_108124" data-name="Trazado 108124" d="M-33.5,0h-7.453V-1.039l3.938-4.375a9.355,9.355,0,0,0,1.207-1.613,2.693,2.693,0,0,0,.332-1.285,2.041,2.041,0,0,0-.539-1.461,1.885,1.885,0,0,0-1.437-.57,2.232,2.232,0,0,0-1.676.613,2.343,2.343,0,0,0-.6,1.707h-1.445a3.355,3.355,0,0,1,1.012-2.539,3.751,3.751,0,0,1,2.707-.969,3.6,3.6,0,0,1,2.508.832,2.838,2.838,0,0,1,.922,2.215q0,1.68-2.141,4l-3.047,3.3H-33.5Zm7.2-11.383v1.227h-.266a3.805,3.805,0,0,0-2.687,1A4.161,4.161,0,0,0-30.406-6.43a3.085,3.085,0,0,1,2.453-1.031,2.95,2.95,0,0,1,2.371,1.047,4.038,4.038,0,0,1,.887,2.7A4.025,4.025,0,0,1-25.652-.9,3.3,3.3,0,0,1-28.219.156,3.247,3.247,0,0,1-30.867-1.1a4.97,4.97,0,0,1-1.016-3.23v-.555a7.488,7.488,0,0,1,1.34-4.8,4.921,4.921,0,0,1,3.988-1.7Zm-1.9,5.125a2.306,2.306,0,0,0-1.367.445A2.32,2.32,0,0,0-30.43-4.7v.531A3.731,3.731,0,0,0-29.8-1.9a1.9,1.9,0,0,0,1.578.859,1.838,1.838,0,0,0,1.535-.719,2.982,2.982,0,0,0,.559-1.883,2.983,2.983,0,0,0-.566-1.895A1.816,1.816,0,0,0-28.2-6.258Zm12.156.891,1.875-3.086h1.688l-2.766,4.18L-12.391,0h-1.672l-1.953-3.164L-17.969,0h-1.68L-16.8-4.273l-2.766-4.18h1.672ZM-5.031-6.391h1.086A2.387,2.387,0,0,0-2.336-6.93,1.8,1.8,0,0,0-1.75-8.344a1.764,1.764,0,0,0-1.992-2,2.072,2.072,0,0,0-1.5.535A1.873,1.873,0,0,0-5.8-8.391H-7.242a2.9,2.9,0,0,1,.988-2.246,3.6,3.6,0,0,1,2.512-.895,3.558,3.558,0,0,1,2.523.852A3.076,3.076,0,0,1-.3-8.312a2.5,2.5,0,0,1-.48,1.438A2.9,2.9,0,0,1-2.094-5.836a2.8,2.8,0,0,1,1.449.984,2.734,2.734,0,0,1,.512,1.68,3.1,3.1,0,0,1-1,2.43,3.745,3.745,0,0,1-2.6.9A3.844,3.844,0,0,1-6.34-.711,2.877,2.877,0,0,1-7.344-3h1.453A1.859,1.859,0,0,0-5.3-1.562a2.229,2.229,0,0,0,1.57.539,2.187,2.187,0,0,0,1.6-.547,2.108,2.108,0,0,0,.555-1.57,1.912,1.912,0,0,0-.609-1.523,2.655,2.655,0,0,0-1.758-.547H-5.031ZM9.2-10.562,4.484,0H2.969l4.7-10.187H1.508v-1.187H9.2ZM16.3-8.453l.039.938a3.122,3.122,0,0,1,2.508-1.094A2.417,2.417,0,0,1,21.266-7.25a3.2,3.2,0,0,1,1.1-.984,3.242,3.242,0,0,1,1.6-.375q2.781,0,2.828,2.945V0H25.344V-5.578a1.941,1.941,0,0,0-.414-1.355,1.823,1.823,0,0,0-1.391-.449A1.916,1.916,0,0,0,22.2-6.9a1.949,1.949,0,0,0-.617,1.293V0H20.133V-5.539a1.613,1.613,0,0,0-1.8-1.844,1.934,1.934,0,0,0-1.945,1.211V0H14.938V-8.453Zm14.023,0,.039.938a3.122,3.122,0,0,1,2.508-1.094A2.417,2.417,0,0,1,35.289-7.25a3.2,3.2,0,0,1,1.1-.984,3.242,3.242,0,0,1,1.6-.375q2.781,0,2.828,2.945V0H39.367V-5.578a1.941,1.941,0,0,0-.414-1.355,1.823,1.823,0,0,0-1.391-.449,1.917,1.917,0,0,0-1.336.48,1.949,1.949,0,0,0-.617,1.293V0H34.156V-5.539a1.613,1.613,0,0,0-1.8-1.844,1.934,1.934,0,0,0-1.945,1.211V0H28.961V-8.453Z" transform="translate(1241 863)" fill="#12263f"/>
    </g>
    <g id="Grupo_56163" data-name="Grupo 56163">
      <g id="Rectángulo_6004" data-name="Rectángulo 6004" transform="translate(811 766)" fill="#fff" stroke="#fdd835" stroke-width="3">
        <rect width="84" height="95" stroke="none"/>
        <rect x="1.5" y="1.5" width="81" height="92" fill="none"/>
      </g>
      <path id="Trazado_108119" data-name="Trazado 108119" d="M23.791-6.906H11.578L9.445,0H-.076L13.482-36.969h8.379L35.521,0H25.949Zm-10.08-6.881h7.947L17.672-26.609Zm46.566-.66h3.758v6.6H60.277V0H51.721V-7.846H37.426l-.508-5.23,14.8-23.816v-.076h8.557Zm-15.209,0h6.652V-25.822l-.533.863Z" transform="translate(822 832)" fill="#12263f"/>
      <g id="Rectángulo_6025" data-name="Rectángulo 6025" transform="translate(285 597)" fill="#fff" stroke="#f57c00" stroke-width="3">
        <rect width="221" height="264" stroke="none"/>
        <rect x="1.5" y="1.5" width="218" height="261" fill="none"/>
      </g>
      <g id="Rectángulo_6026" data-name="Rectángulo 6026" transform="translate(516 672)" fill="#fff" stroke="#f57c00" stroke-width="3">
        <rect width="160" height="189" stroke="none"/>
        <rect x="1.5" y="1.5" width="157" height="186" fill="none"/>
      </g>
      <g id="Rectángulo_6027" data-name="Rectángulo 6027" transform="translate(687 725)" fill="#fff" stroke="#f57c00" stroke-width="3">
        <rect width="113" height="136" stroke="none"/>
        <rect x="1.5" y="1.5" width="110" height="133" fill="none"/>
      </g>
      <g id="Rectángulo_6028" data-name="Rectángulo 6028" transform="translate(520 595)" fill="#fff" stroke="#fdd835" stroke-width="3">
        <rect width="56" height="70" stroke="none"/>
        <rect x="1.5" y="1.5" width="53" height="67" fill="none"/>
      </g>
      <g id="Rectángulo_6029" data-name="Rectángulo 6029" transform="translate(587 615)" fill="#fff" stroke="#fdd835" stroke-width="3">
        <rect width="42" height="50" stroke="none"/>
        <rect x="1.5" y="1.5" width="39" height="47" fill="none"/>
      </g>
      <g id="Rectángulo_6030" data-name="Rectángulo 6030" transform="translate(640 628)" fill="#fff" stroke="#fdd835" stroke-width="3">
        <rect width="32" height="37" stroke="none"/>
        <rect x="1.5" y="1.5" width="29" height="34" fill="none"/>
      </g>
      <g id="Rectángulo_6031" data-name="Rectángulo 6031" transform="translate(683 637)" fill="#fff" stroke="#fdd835" stroke-width="3">
        <rect width="25" height="28" stroke="none"/>
        <rect x="1.5" y="1.5" width="22" height="25" fill="none"/>
      </g>
      <path id="Trazado_108117" data-name="Trazado 108117" d="M38.889-11.289H18.926L15.439,0H-.125L22.039-60.43h13.7L58.064,0H42.417ZM22.412-22.537H35.4L28.887-43.5ZM92.6,0H78.567V-44.658L64.788-40.632V-51.257L91.309-60.43H92.6Z" transform="translate(344 767)" fill="#12263f"/>
      <path id="Trazado_108116" data-name="Trazado 108116" d="M38.889-11.289H18.926L15.439,0H-.125L22.039-60.43h13.7L58.064,0H42.417ZM22.412-22.537H35.4L28.887-43.5ZM103.76,0H61.592V-9.131l19.424-20.42q7.18-8.176,7.18-12.991a9.036,9.036,0,0,0-1.7-5.935,6.076,6.076,0,0,0-4.939-2.034,6.151,6.151,0,0,0-5.188,2.719,11.172,11.172,0,0,0-1.992,6.786H60.347a19.846,19.846,0,0,1,2.781-10.272,19.5,19.5,0,0,1,7.72-7.367A22.932,22.932,0,0,1,81.887-61.3q9.795,0,15.087,4.524t5.292,12.991a18.864,18.864,0,0,1-1.328,6.952,30.487,30.487,0,0,1-4.13,7.1,104.025,104.025,0,0,1-9.027,9.94l-7.8,9.006H103.76Z" transform="translate(545 794)" fill="#12263f"/>
      <path id="Trazado_108118" data-name="Trazado 108118" d="M23.791-6.906H11.578L9.445,0H-.076L13.482-36.969h8.379L35.521,0H25.949Zm-10.08-6.881h7.947L17.672-26.609ZM45.5-22.064h4.037q4.8,0,4.8-4.7a4.062,4.062,0,0,0-1.143-2.983A4.333,4.333,0,0,0,49.969-30.9a4.638,4.638,0,0,0-2.958.99,3.021,3.021,0,0,0-1.257,2.463H37.2a8.759,8.759,0,0,1,1.625-5.205,10.731,10.731,0,0,1,4.507-3.567A15.409,15.409,0,0,1,49.664-37.5q6.17,0,9.7,2.818a9.369,9.369,0,0,1,3.529,7.744,7.809,7.809,0,0,1-1.46,4.507,10.406,10.406,0,0,1-4.253,3.44A9.939,9.939,0,0,1,61.8-15.755a8.526,8.526,0,0,1,1.676,5.37,9.539,9.539,0,0,1-3.809,7.922Q55.859.508,49.664.508A16.4,16.4,0,0,1,42.923-.876a10.562,10.562,0,0,1-4.71-3.834,9.968,9.968,0,0,1-1.6-5.573h8.607a3.853,3.853,0,0,0,1.371,2.945,4.84,4.84,0,0,0,3.377,1.244,5.07,5.07,0,0,0,3.605-1.257,4.2,4.2,0,0,0,1.346-3.212q0-2.793-1.4-3.961a5.838,5.838,0,0,0-3.859-1.168H45.5Z" transform="translate(712 811)" fill="#12263f"/>
      <path id="Trazado_108123" data-name="Trazado 108123" d="M10.065-2.922H4.9L4,0H-.032L5.7-15.641H9.249L15.028,0h-4.05ZM5.8-5.833H9.163L7.477-11.258ZM16.156-7.64l.956-8h9.142v2.793h-6.2L19.7-9.719a4.27,4.27,0,0,1,1.015-.4,4.632,4.632,0,0,1,1.23-.173,4.589,4.589,0,0,1,3.583,1.38A5.56,5.56,0,0,1,26.78-5.038a5.55,5.55,0,0,1-.671,2.723A4.615,4.615,0,0,1,24.224-.44a5.952,5.952,0,0,1-2.868.655,6.4,6.4,0,0,1-2.761-.606,4.953,4.953,0,0,1-2.02-1.664,4.043,4.043,0,0,1-.72-2.388h3.631a2.054,2.054,0,0,0,.548,1.361,1.739,1.739,0,0,0,1.3.5q1.826,0,1.826-2.7,0-2.5-2.234-2.5a2.23,2.23,0,0,0-1.891.815Z" transform="translate(535 637)" fill="#12263f"/>
      <path id="Trazado_108122" data-name="Trazado 108122" d="M10.065-2.922H4.9L4,0H-.032L5.7-15.641H9.249L15.028,0h-4.05ZM5.8-5.833H9.163L7.477-11.258ZM24.686-15.866v2.847h-.161a5.435,5.435,0,0,0-3.335.972,4.1,4.1,0,0,0-1.606,2.7,4.233,4.233,0,0,1,3.094-1.2A3.949,3.949,0,0,1,25.91-9.066a5.979,5.979,0,0,1,1.2,3.889,5.475,5.475,0,0,1-.7,2.739,5.021,5.021,0,0,1-1.966,1.95,5.649,5.649,0,0,1-2.8.7A5.838,5.838,0,0,1,18.67-.542a5.207,5.207,0,0,1-2.041-2.165,7.128,7.128,0,0,1-.752-3.244V-7.4a9.029,9.029,0,0,1,1.037-4.345,7.515,7.515,0,0,1,2.959-3.024,8.461,8.461,0,0,1,4.265-1.1ZM21.42-7.756a2.077,2.077,0,0,0-1.2.332,2.108,2.108,0,0,0-.72.813v1.08q0,2.953,2.052,2.953a1.666,1.666,0,0,0,1.38-.738,3,3,0,0,0,.553-1.851,2.944,2.944,0,0,0-.564-1.867A1.807,1.807,0,0,0,21.42-7.756Z" transform="translate(595 647)" fill="#12263f"/>
      <path id="Trazado_108121" data-name="Trazado 108121" d="M5.948-1.727H2.895L2.361,0H-.019l3.39-9.242H5.465L8.88,0H6.487Zm-2.52-1.72H5.415l-1-3.206ZM15.844-8.1,12.391,0h-2.26L13.59-7.592H9.185v-1.65h6.659Z" transform="translate(648 651)" fill="#12263f"/>
      <path id="Trazado_108120" data-name="Trazado 108120" d="M5.948-1.727H2.895L2.361,0H-.019l3.39-9.242H5.465L8.88,0H6.487Zm-2.52-1.72H5.415l-1-3.206ZM15.653-6.773a2.134,2.134,0,0,1-.333,1.187,2.427,2.427,0,0,1-.917.825,2.671,2.671,0,0,1,1.047.885,2.285,2.285,0,0,1,.387,1.33A2.419,2.419,0,0,1,14.984-.59a3.545,3.545,0,0,1-2.352.717,3.61,3.61,0,0,1-2.374-.72,2.4,2.4,0,0,1-.87-1.952,2.314,2.314,0,0,1,.381-1.314,2.59,2.59,0,0,1,1.079-.9,2.441,2.441,0,0,1-.927-.825,2.119,2.119,0,0,1-.336-1.187,2.371,2.371,0,0,1,.819-1.9,3.292,3.292,0,0,1,2.209-.7,3.312,3.312,0,0,1,2.222.7A2.371,2.371,0,0,1,15.653-6.773ZM13.692-2.717a1.22,1.22,0,0,0-.3-.879,1.028,1.028,0,0,0-.778-.308,1.038,1.038,0,0,0-.781.308,1.212,1.212,0,0,0-.3.879,1.223,1.223,0,0,0,.3.873,1.035,1.035,0,0,0,.79.321.994.994,0,0,0,.768-.317A1.245,1.245,0,0,0,13.692-2.717ZM12.613-7.725a.791.791,0,0,0-.657.282,1.226,1.226,0,0,0-.225.784,1.3,1.3,0,0,0,.229.8.788.788,0,0,0,.673.3.756.756,0,0,0,.657-.3,1.34,1.34,0,0,0,.219-.8,1.229,1.229,0,0,0-.225-.781A.8.8,0,0,0,12.613-7.725Z" transform="translate(688 656)" fill="#12263f"/>
    </g>
  </g>
</svg>
