<svg xmlns="http://www.w3.org/2000/svg" width="142.754" height="136" viewBox="0 0 142.754 136">
  <g id="color" transform="translate(0 -12.112)">
    <path id="Trazado_104997" data-name="Trazado 104997" d="M25.3,186.7a46.149,46.149,0,1,0,46.074,79.815V203.427Z" transform="translate(0 -125.909)" fill="#09a1e5"/>
    <path id="Trazado_104998" data-name="Trazado 104998" d="M302.074,186.7,256,203.427v63.086A46.149,46.149,0,1,0,302.074,186.7Z" transform="translate(-184.623 -125.909)" fill="#89c247"/>
    <path id="Trazado_104999" data-name="Trazado 104999" d="M212.729,12.112,196,80.06l62.8-19.271q.068-1.258.07-2.533a46.144,46.144,0,0,0-46.144-46.144Z" transform="translate(-141.352)" fill="#cb2e81"/>
    <path id="Trazado_105000" data-name="Trazado 105000" d="M90.5,58.256c0,.85.025,1.694.07,2.533L136.644,80.06V12.112A46.144,46.144,0,0,0,90.5,58.256Z" transform="translate(-65.267 0)" fill="#ff3187"/>
    <path id="Trazado_105001" data-name="Trazado 105001" d="M111.592,168.888a45.947,45.947,0,0,0-20.841,4.966A46.151,46.151,0,0,0,115.984,212.5l20.841-36.1a45.925,45.925,0,0,0-25.233-7.508Z" transform="translate(-65.448 -113.064)" fill="#ff5178"/>
    <path id="Trazado_105002" data-name="Trazado 105002" d="M281.233,168.888A45.925,45.925,0,0,0,256,176.4l20.841,36.1a46.151,46.151,0,0,0,25.233-38.645A45.947,45.947,0,0,0,281.233,168.888Z" transform="translate(-184.623 -113.064)" fill="#ffd23b"/>
    <path id="Trazado_105003" data-name="Trazado 105003" d="M255.206,325.3H226l8.365,41.17a46.1,46.1,0,0,0,20.911-38.636C255.276,326.985,255.251,326.141,255.206,325.3Z" transform="translate(-162.987 -225.867)" fill="#7ed7ff"/>
    <path id="Trazado_105004" data-name="Trazado 105004" d="M181.07,325.3q-.068,1.258-.07,2.533a46.1,46.1,0,0,0,20.911,38.636V325.3Z" transform="translate(-130.534 -225.867)" fill="#bfebff"/>
    <path id="Trazado_105005" data-name="Trazado 105005" d="M234.365,195.815,226,216.35l8.365,20.535a45.947,45.947,0,0,0,20.841-4.966,46.11,46.11,0,0,0-20.841-36.1Z" transform="translate(-162.987 -132.484)" fill="#dff5ff"/>
    <path id="Trazado_105006" data-name="Trazado 105006" d="M181.251,231.918a45.947,45.947,0,0,0,20.841,4.966V195.815A46.11,46.11,0,0,0,181.251,231.918Z" transform="translate(-130.715 -132.484)" fill="#fff"/>
  </g>
</svg>
