<svg xmlns="http://www.w3.org/2000/svg" width="133" height="132.957" viewBox="0 0 133 132.957">
  <g id="Flat" transform="translate(-16 -16.155)">
    <path id="Trazado_104953" data-name="Trazado 104953" d="M224.576,136.712,184,125.441V24l40.576,11.271Z" transform="translate(-120.661 -5.634)" fill="#d6d6d4"/>
    <path id="Trazado_104954" data-name="Trazado 104954" d="M184,24V69.085l4.5,3.6A17.512,17.512,0,0,0,203.686,76,17.513,17.513,0,0,1,220.317,80.6l4.259,4.26V35.271Z" transform="translate(-120.661 -5.634)" fill="#3086cd"/>
    <path id="Trazado_104955" data-name="Trazado 104955" d="M0,0H4.508V27.884H0Z" transform="translate(69.575 110.772) rotate(-75.936)" fill="#bfbfbd"/>
    <path id="Trazado_104956" data-name="Trazado 104956" d="M0,0H4.508V27.884H0Z" transform="translate(69.577 101.751) rotate(-75.936)" fill="#bfbfbd"/>
    <path id="Trazado_104957" data-name="Trazado 104957" d="M0,0H4.508V6.971H0Z" transform="translate(89.869 97.809) rotate(-75.936)" fill="#bfbfbd"/>
    <path id="Trazado_104958" data-name="Trazado 104958" d="M0,0H4.508V16.265H0Z" transform="translate(69.574 92.731) rotate(-75.936)" fill="#bfbfbd"/>
    <path id="Trazado_104959" data-name="Trazado 104959" d="M0,0H4.508V27.884H0Z" transform="translate(69.579 83.709) rotate(-75.936)" fill="#bfbfbd"/>
    <path id="Trazado_104960" data-name="Trazado 104960" d="M97.814,125.441,64,136.712V35.271L97.814,24Z" transform="translate(-34.475 -5.634)" fill="#e0e0de"/>
    <path id="Trazado_104961" data-name="Trazado 104961" d="M361.814,125.441,328,136.712V35.271L361.814,24Z" transform="translate(-224.085 -5.634)" fill="#e0e0de"/>
    <path id="Trazado_104962" data-name="Trazado 104962" d="M184,126.542l4.5,3.6a17.512,17.512,0,0,0,15.188,3.315,17.513,17.513,0,0,1,16.631,4.607l4.259,4.26v-15.78l-9.017-13.525L208.8,119.78,197.525,104,184,110.763Z" transform="translate(-120.661 -63.092)" fill="#5ac6d4"/>
    <g id="Grupo_55400" data-name="Grupo 55400" transform="translate(35.556 79.382)">
      <path id="Trazado_104963" data-name="Trazado 104963" d="M0,0H21.386V4.508H0Z" transform="matrix(0.949, -0.316, 0.316, 0.949, 74.415, 33.839)" fill="#bfbfbd"/>
      <path id="Trazado_104964" data-name="Trazado 104964" d="M0,0H21.386V4.508H0Z" transform="matrix(0.949, -0.316, 0.316, 0.949, 74.417, 24.819)" fill="#bfbfbd"/>
      <path id="Trazado_104965" data-name="Trazado 104965" d="M0,0H21.386V4.508H0Z" transform="matrix(0.949, -0.316, 0.316, 0.949, 74.42, 15.799)" fill="#bfbfbd"/>
      <path id="Trazado_104966" data-name="Trazado 104966" d="M0,0H21.386V4.508H0Z" transform="matrix(0.949, -0.316, 0.316, 0.949, 74.422, 6.779)" fill="#bfbfbd"/>
      <path id="Trazado_104967" data-name="Trazado 104967" d="M0,0H21.386V4.508H0Z" transform="matrix(0.949, -0.316, 0.316, 0.949, 0, 33.818)" fill="#bfbfbd"/>
      <path id="Trazado_104968" data-name="Trazado 104968" d="M0,0H21.386V4.508H0Z" transform="matrix(0.949, -0.316, 0.316, 0.949, 0.003, 24.798)" fill="#bfbfbd"/>
      <path id="Trazado_104969" data-name="Trazado 104969" d="M0,0H21.386V4.508H0Z" transform="matrix(0.949, -0.316, 0.316, 0.949, 0.005, 15.778)" fill="#bfbfbd"/>
      <path id="Trazado_104970" data-name="Trazado 104970" d="M0,0H21.386V4.508H0Z" transform="matrix(0.949, -0.316, 0.316, 0.949, 0.008, 6.758)" fill="#bfbfbd"/>
    </g>
    <path id="Trazado_104971" data-name="Trazado 104971" d="M385.016,308.864l-.175-.263a19.443,19.443,0,0,1,2.429-24.534l-10.144-13.525a5.636,5.636,0,0,1,9.017-6.763l10.144,13.525V248l5.8,3.479a11.271,11.271,0,0,1,5.472,9.665v54.483H385.016Z" transform="translate(-258.558 -166.516)" fill="#fec9a3"/>
    <path id="Trazado_104972" data-name="Trazado 104972" d="M46.542,308.864l.175-.263a19.443,19.443,0,0,0-2.429-24.534l10.144-13.525a5.636,5.636,0,0,0-9.017-6.763L35.271,277.305V248l-5.8,3.479A11.271,11.271,0,0,0,24,261.144v54.483H46.542Z" transform="translate(-5.746 -166.516)" fill="#fec9a3"/>
    <path id="Trazado_104973" data-name="Trazado 104973" d="M64,84.864l3.852-.77a21.436,21.436,0,0,0,12.263-7.3,21.435,21.435,0,0,1,16.467-7.713h1.231V24L64,35.271Z" transform="translate(-34.475 -5.634)" fill="#348fd9"/>
    <path id="Trazado_104974" data-name="Trazado 104974" d="M64,119.78l9.017-13.525,9.017,6.763L88.8,104l9.017,6.763v15.78H96.582a21.435,21.435,0,0,0-16.467,7.713,21.436,21.436,0,0,1-12.263,7.3l-3.852.77Z" transform="translate(-34.475 -63.092)" fill="#60d1e0"/>
    <path id="Trazado_104975" data-name="Trazado 104975" d="M85.1,154.267l-3.751-2.5L85.852,145a2.254,2.254,0,0,1,3.126-.625l6.763,4.508-2.5,3.751-4.887-3.258Z" transform="translate(-46.931 -91.82)" fill="#3fb5c4"/>
    <path id="Trazado_104976" data-name="Trazado 104976" d="M221.905,138.82l-2.705-3.607,9.017-6.763a2.254,2.254,0,0,1,3.228.553l4.508,6.763-3.751,2.5-3.187-4.78Z" transform="translate(-145.942 -80.329)" fill="#3fb5c4"/>
    <path id="Trazado_104977" data-name="Trazado 104977" d="M328,84.864l3.852-.77a21.436,21.436,0,0,0,12.263-7.3,21.435,21.435,0,0,1,16.467-7.713h1.231V24L328,35.271Z" transform="translate(-224.085 -5.634)" fill="#348fd9"/>
    <path id="Trazado_104978" data-name="Trazado 104978" d="M328,126.542l11.271-13.525,9.017,4.508L355.051,104l6.763,6.763v15.78h-1.231a21.435,21.435,0,0,0-16.467,7.713,21.436,21.436,0,0,1-12.263,7.3l-3.852.77Z" transform="translate(-224.085 -63.092)" fill="#60d1e0"/>
    <path id="Trazado_104979" data-name="Trazado 104979" d="M356.9,186.611l-4.818-4.818-2.983,4.475-3.751-2.5L349.852,177a2.254,2.254,0,0,1,3.47-.343l6.763,6.763Z" transform="translate(-236.542 -114.804)" fill="#3fb5c4"/>
    <path id="Trazado_104980" data-name="Trazado 104980" d="M20.508,31.891H16A16.046,16.046,0,0,1,28.864,16.2l.219-.044.884,4.421-.219.044A11.525,11.525,0,0,0,20.508,31.891Z" fill="#a0dde5"/>
    <circle id="Elipse_4160" data-name="Elipse 4160" cx="4.508" cy="4.508" r="4.508" transform="translate(83.627 34.145)" fill="#f35244"/>
  </g>
</svg>
