<svg id="impresora" xmlns="http://www.w3.org/2000/svg" width="133" height="133" viewBox="0 0 133 133">
  <path id="Trazado_104981" data-name="Trazado 104981" d="M49.482,121.172H33.9a3.894,3.894,0,0,1-3.9-3.9V101.689A11.7,11.7,0,0,1,41.689,90h7.793a3.894,3.894,0,0,1,3.9,3.9v23.379A3.894,3.894,0,0,1,49.482,121.172Z" transform="translate(-22.207 -66.621)" fill="#57555c"/>
  <path id="Trazado_104982" data-name="Trazado 104982" d="M393.172,117.275a3.894,3.894,0,0,1-3.9,3.9H373.689a3.894,3.894,0,0,1-3.9-3.9L362,93.9a3.894,3.894,0,0,1,3.9-3.9h15.586a11.7,11.7,0,0,1,11.689,11.689Z" transform="translate(-267.965 -66.621)" fill="#3c3a41"/>
  <path id="Trazado_104983" data-name="Trazado 104983" d="M176.242,31.172V50.654a3.859,3.859,0,0,1-3.9,3.9H93.9a3.859,3.859,0,0,1-3.9-3.9V3.9A3.858,3.858,0,0,1,93.9,0H145.07l7.793,23.379Z" transform="translate(-66.621)" fill="#e5e5e5"/>
  <path id="Trazado_104984" data-name="Trazado 104984" d="M295.225,54.551H256V0h11.949l7.793,23.379,23.379,7.793V50.654A3.859,3.859,0,0,1,295.225,54.551Z" transform="translate(-189.5)" fill="#d9d9d9"/>
  <path id="Trazado_104985" data-name="Trazado 104985" d="M121.311,180H11.689A11.673,11.673,0,0,0,0,191.689v47.277a11.674,11.674,0,0,0,11.689,11.689H121.311A11.674,11.674,0,0,0,133,238.967V191.689A11.673,11.673,0,0,0,121.311,180Z" transform="translate(0 -133.242)" fill="#1ba9ef"/>
  <path id="Trazado_104986" data-name="Trazado 104986" d="M302,27.275a3.859,3.859,0,0,0,3.9,3.9h27.275L302,0Z" transform="translate(-223.551)" fill="#fe9923"/>
  <path id="Trazado_104987" data-name="Trazado 104987" d="M322.5,191.689v47.277a11.674,11.674,0,0,1-11.689,11.689H256V180h54.811A11.673,11.673,0,0,1,322.5,191.689Z" transform="translate(-189.5 -133.242)" fill="#1689fc"/>
  <path id="Trazado_104988" data-name="Trazado 104988" d="M71.689,247.793H63.9a3.9,3.9,0,0,1,0-7.793h7.793a3.9,3.9,0,0,1,0,7.793Z" transform="translate(-44.414 -177.656)" fill="#e1e4fb"/>
  <path id="Trazado_104989" data-name="Trazado 104989" d="M176.242,320v45.979a3.859,3.859,0,0,1-3.9,3.9H93.9a3.859,3.859,0,0,1-3.9-3.9V320Z" transform="translate(-66.621 -236.874)" fill="#e5e5e5"/>
  <path id="Trazado_104990" data-name="Trazado 104990" d="M299.121,320v45.979a3.859,3.859,0,0,1-3.9,3.9H256V320Z" transform="translate(-189.5 -236.874)" fill="#d9d9d9"/>
  <g id="Grupo_55401" data-name="Grupo 55401" transform="translate(38.965 94.035)">
    <path id="Trazado_104991" data-name="Trazado 104991" d="M205.07,365.9a3.859,3.859,0,0,1-3.9,3.9H153.9a3.9,3.9,0,0,1,0-7.793h47.277A3.858,3.858,0,0,1,205.07,365.9Z" transform="translate(-150 -362)" fill="#aeadb3"/>
    <path id="Trazado_104992" data-name="Trazado 104992" d="M205.07,425.9a3.859,3.859,0,0,1-3.9,3.9H153.9a3.9,3.9,0,0,1,0-7.793h47.277A3.858,3.858,0,0,1,205.07,425.9Z" transform="translate(-150 -406.414)" fill="#aeadb3"/>
  </g>
  <g id="Grupo_55402" data-name="Grupo 55402" transform="translate(66.5 94.035)">
    <path id="Trazado_104993" data-name="Trazado 104993" d="M283.535,425.9a3.859,3.859,0,0,1-3.9,3.9H256V422h23.639A3.858,3.858,0,0,1,283.535,425.9Z" transform="translate(-256 -406.414)" fill="#8b8892"/>
    <path id="Trazado_104994" data-name="Trazado 104994" d="M283.535,365.9a3.859,3.859,0,0,1-3.9,3.9H256V362h23.639A3.858,3.858,0,0,1,283.535,365.9Z" transform="translate(-256 -362)" fill="#8b8892"/>
  </g>
  <path id="Trazado_104995" data-name="Trazado 104995" d="M161.828,305.9a3.859,3.859,0,0,1-3.9,3.9H63.9a3.9,3.9,0,0,1,0-7.793h94.035A3.858,3.858,0,0,1,161.828,305.9Z" transform="translate(-44.414 -223.551)" fill="#57555c"/>
  <path id="Trazado_104996" data-name="Trazado 104996" d="M306.914,305.9a3.859,3.859,0,0,1-3.9,3.9H256V302h47.018A3.858,3.858,0,0,1,306.914,305.9Z" transform="translate(-189.5 -223.551)" fill="#3c3a41"/>
</svg>
