<svg xmlns="http://www.w3.org/2000/svg" width="74.033" height="100.27" viewBox="0 0 74.033 100.27">
  <g id="revista_1_" data-name="revista (1)" transform="translate(-66.986)">
    <path id="Trazado_105024" data-name="Trazado 105024" d="M111.8,127.972l9.111-82.313H177.06v82.313Z" transform="translate(-36.042 -36.717)" fill="#e5e9ea"/>
    <path id="SVGCleanerId_0" d="M66.986,465.4c0-.078,0-.154,0-.231v.229Z" transform="translate(0 -374.069)" fill="#e5e9ea"/>
    <path id="Trazado_105025" data-name="Trazado 105025" d="M84.874,8.942V91.33A8.944,8.944,0,0,0,66.989,91.1V8.942h0a8.943,8.943,0,0,1,17.887,0Z" transform="translate(-0.001)" fill="#f4f4f4"/>
    <g id="Grupo_55405" data-name="Grupo 55405" transform="translate(66.986)">
      <path id="Trazado_105026" data-name="Trazado 105026" d="M75.931,0V82.386A8.946,8.946,0,0,0,66.989,91.1V8.942h0A8.945,8.945,0,0,1,75.931,0Z" transform="translate(-66.987)" fill="#d1d1d1"/>
      <path id="Trazado_105027" data-name="Trazado 105027" d="M141.022,429.546l-.546,1.293-.374.886-.6,1.41-.327.774-.047.113-.3.706-.624,1.477-.346.819-.651,1.537H75.934a8.943,8.943,0,1,1,8.942-8.94Z" transform="translate(-66.989 -338.29)" fill="#d1d1d1"/>
    </g>
    <path id="Trazado_105028" data-name="Trazado 105028" d="M92.2,439.3v6.586H85.613A6.586,6.586,0,1,1,92.2,439.3Z" transform="translate(-9.683 -347.968)" fill="#b2b2b2"/>
    <g id="Grupo_55406" data-name="Grupo 55406" transform="translate(88.326 17.961)">
      <path id="Trazado_105029" data-name="Trazado 105029" d="M196.427,291.64H177.485a1.535,1.535,0,1,1,0-3.07h18.942a1.535,1.535,0,1,1,0,3.07Z" transform="translate(-175.95 -250.017)" fill="#566368"/>
      <path id="Trazado_105030" data-name="Trazado 105030" d="M196.427,324.449H177.485a1.535,1.535,0,0,1,0-3.07h18.942a1.535,1.535,0,0,1,0,3.07Z" transform="translate(-175.95 -276.401)" fill="#566368"/>
      <path id="Trazado_105031" data-name="Trazado 105031" d="M196.427,357.259H177.485a1.535,1.535,0,1,1,0-3.07h18.942a1.535,1.535,0,1,1,0,3.07Z" transform="translate(-175.95 -302.785)" fill="#566368"/>
      <path id="Trazado_105032" data-name="Trazado 105032" d="M196.427,390.069H177.485a1.535,1.535,0,1,1,0-3.07h18.942a1.535,1.535,0,1,1,0,3.07Z" transform="translate(-175.95 -329.169)" fill="#566368"/>
      <path id="Trazado_105033" data-name="Trazado 105033" d="M196.427,422.879H177.485a1.535,1.535,0,0,1,0-3.07h18.942a1.535,1.535,0,1,1,0,3.07Z" transform="translate(-175.95 -355.554)" fill="#566368"/>
      <path id="Trazado_105034" data-name="Trazado 105034" d="M325.866,94.78H306.924a1.535,1.535,0,1,1,0-3.07h18.942a1.535,1.535,0,0,1,0,3.07Z" transform="translate(-280.04 -91.71)" fill="#566368"/>
      <path id="Trazado_105035" data-name="Trazado 105035" d="M325.866,127.59H306.924a1.535,1.535,0,1,1,0-3.07h18.942a1.535,1.535,0,0,1,0,3.07Z" transform="translate(-280.04 -118.094)" fill="#566368"/>
      <path id="Trazado_105036" data-name="Trazado 105036" d="M325.866,160.4H306.924a1.535,1.535,0,1,1,0-3.07h18.942a1.535,1.535,0,0,1,0,3.07Z" transform="translate(-280.04 -144.479)" fill="#566368"/>
      <path id="Trazado_105037" data-name="Trazado 105037" d="M325.866,390.069H306.924a1.535,1.535,0,1,1,0-3.07h18.942a1.535,1.535,0,0,1,0,3.07Z" transform="translate(-280.04 -329.169)" fill="#566368"/>
      <path id="Trazado_105038" data-name="Trazado 105038" d="M325.866,422.879H306.924a1.535,1.535,0,1,1,0-3.07h18.942a1.535,1.535,0,0,1,0,3.07Z" transform="translate(-280.04 -355.554)" fill="#566368"/>
    </g>
    <rect id="Rect치ngulo_6009" data-name="Rect치ngulo 6009" width="18.941" height="32.127" transform="translate(89.86 19.496)" fill="#fa3f68"/>
    <path id="Trazado_105039" data-name="Trazado 105039" d="M195.314,164.656h-4.093l-.493,8.764h-6.941V153.434s7.336,0,10.8-1.975Z" transform="translate(-93.927 -121.797)" fill="#fff"/>
    <rect id="Rect치ngulo_6010" data-name="Rect치ngulo 6010" width="18.941" height="32.127" transform="translate(115.211 38.174)" fill="#53bce9"/>
    <path id="Trazado_105040" data-name="Trazado 105040" d="M196.269,107.87a3.3,3.3,0,0,1-1.684,1.844c-3.462,1.975-10.8,1.975-10.8,1.975V99.548h10.027S197.359,104.05,196.269,107.87Z" transform="translate(-93.926 -80.052)" fill="#fcb65f"/>
    <path id="Trazado_105041" data-name="Trazado 105041" d="M332.173,271.142v17.2H313.232v-6.151l6.777-7.776,4.715,4.175Z" transform="translate(-198.021 -218.041)" fill="#566368"/>
    <path id="Trazado_105042" data-name="Trazado 105042" d="M332.173,298.587v3.2H313.232v-6.151l6.777-7.776,4.714,4.175.008-.008Z" transform="translate(-198.021 -231.484)" fill="#435054"/>
    <circle id="Elipse_4161" data-name="Elipse 4161" cx="4.297" cy="4.297" r="4.297" transform="translate(118.918 43.233)" fill="#fcb65f"/>
    <path id="Trazado_105043" data-name="Trazado 105043" d="M202.56,174.138a1.535,1.535,0,0,1-.539-2.972l2.183-.819a1.535,1.535,0,1,1,1.078,2.874l-2.183.819A1.53,1.53,0,0,1,202.56,174.138Z" transform="translate(-107.789 -136.907)" fill="#435054"/>
    <g id="Grupo_55407" data-name="Grupo 55407" transform="translate(66.986 91.099)">
      <path id="SVGCleanerId_0_1_" d="M66.986,465.4c0-.078,0-.154,0-.231v.229Z" transform="translate(-66.986 -465.168)" fill="#e5e9ea"/>
    </g>
    <g id="Grupo_55408" data-name="Grupo 55408" transform="translate(85.449 92.55)">
      <path id="Trazado_105044" data-name="Trazado 105044" d="M214.639,492.43l-.624,1.477-.346.819H161.26v-2.3Z" transform="translate(-161.26 -488.542)" fill="#b2b2b2"/>
      <path id="Trazado_105045" data-name="Trazado 105045" d="M225.25,472.577l-.375.886-.6,1.41H172.41v-2.3Z" transform="translate(-170.226 -472.577)" fill="#b2b2b2"/>
    </g>
  </g>
</svg>
