<svg xmlns="http://www.w3.org/2000/svg" width="85" height="85" viewBox="0 0 85 85">
  <g id="Grupo_56168" data-name="Grupo 56168" transform="translate(-274 -5818)">
    <circle id="Elipse_4119" data-name="Elipse 4119" cx="42.5" cy="42.5" r="42.5" transform="translate(274 5818)" fill="#26c6da"/>
    <g id="libro_2_" data-name="libro (2)" transform="translate(237.848 5818)">
      <g id="Grupo_55056" data-name="Grupo 55056" transform="translate(50.251 1.099)">
        <path id="Trazado_104323" data-name="Trazado 104323" d="M150.652,443.177h8.8v7.237l-4.4-1.173-4.4,1.173Z" transform="translate(-136.872 -379.307)" fill="#f88fa4"/>
        <path id="Trazado_104324" data-name="Trazado 104324" d="M190.652,443.177v6.455l2.932.782v-7.237Z" transform="translate(-171.008 -379.307)" fill="#f05475"/>
        <path id="Trazado_104325" data-name="Trazado 104325" d="M113.533,68.438A2.932,2.932,0,0,1,110.6,71.37H59.584a2.932,2.932,0,0,1-2.932-2.932V10.432A2.932,2.932,0,0,1,59.584,7.5h51.163a2.932,2.932,0,0,1,2.932,2.932Z" transform="translate(-56.652 -7.5)" fill="#71e4bf"/>
        <path id="Trazado_104326" data-name="Trazado 104326" d="M110.747,7.5h-.007L110.6,66.975a1.466,1.466,0,0,1-1.466,1.463H59.584a5.834,5.834,0,0,1-2.932-.787v.787a2.932,2.932,0,0,0,2.932,2.932H110.6a2.932,2.932,0,0,0,2.932-2.932l.147-58.006A2.932,2.932,0,0,0,110.747,7.5Z" transform="translate(-56.652 -7.5)" fill="#6987a0"/>
        <path id="Trazado_104327" data-name="Trazado 104327" d="M63.835,7.5H59.584a2.932,2.932,0,0,0-2.932,2.932V68.438a2.932,2.932,0,0,0,2.932,2.932h4.251Z" transform="translate(-56.652 -7.5)" fill="#f88fa4"/>
        <path id="Trazado_104328" data-name="Trazado 104328" d="M59.584,418.6a5.834,5.834,0,0,1-2.932-.787v.787a2.932,2.932,0,0,0,2.932,2.932h4.251V418.6Z" transform="translate(-56.652 -357.661)" fill="#f05475"/>
        <path id="Trazado_104329" data-name="Trazado 104329" d="M110.747,7.5H59.584a2.932,2.932,0,0,0-2.932,2.932v5.424a2.932,2.932,0,0,0,2.932,2.932h51.163a2.931,2.931,0,0,1,2.9,2.551l.028-10.907A2.932,2.932,0,0,0,110.747,7.5Z" transform="translate(-56.652 -7.5)" fill="#ffe1ba"/>
        <path id="Trazado_104330" data-name="Trazado 104330" d="M59.584,51.217h51.163a2.931,2.931,0,0,1,2.9,2.551l.014-5.6a2.931,2.931,0,0,0-2.919-2.666h-54.1v2.785a2.932,2.932,0,0,0,2.932,2.932Z" transform="translate(-56.652 -39.929)" fill="#fef2e2"/>
        <path id="Trazado_104331" data-name="Trazado 104331" d="M428.366,53.768l.014-5.6a2.931,2.931,0,0,0-2.919-2.666h-.019l-.013,5.717h.033A2.93,2.93,0,0,1,428.366,53.768Z" transform="translate(-371.367 -39.929)" fill="#ffe1ba"/>
        <path id="Trazado_104332" data-name="Trazado 104332" d="M161.879,154.851a6.613,6.613,0,1,0-4.019,4.025V179.03h19.773v-4.4c0-6.588-8.8-13.194-8.8-13.194h10.995a4.4,4.4,0,0,0,4.4-4.4v-2.19Z" transform="translate(-135.485 -125.719)" fill="#fff5bd"/>
        <path id="Trazado_104333" data-name="Trazado 104333" d="M232.513,206.215v2.932a1.467,1.467,0,0,1-1.264.724h-18.1S226.118,221.342,226.118,226v1.466H209.277v2.932H229.05V226c0-6.588-8.8-13.194-8.8-13.194h10.995a4.4,4.4,0,0,0,4.4-4.4v-2.19Z" transform="translate(-186.902 -177.083)" fill="#ffc277"/>
        <circle id="Elipse_4129" data-name="Elipse 4129" cx="2.883" cy="2.883" r="2.883" transform="translate(45.861 23.365)" fill="#f88fa4"/>
      </g>
      <g id="Grupo_55059" data-name="Grupo 55059" transform="translate(49.152)">
        <g id="Grupo_55057" data-name="Grupo 55057" transform="translate(27.463 17.052)">
          <path id="Trazado_104334" data-name="Trazado 104334" d="M247.481,118.518h-2.2v-2.2h2.2Zm-4.4,0h-2.2v-2.2h2.2Zm-4.4,0h-2.2v-2.2h2.2Z" transform="translate(-236.486 -116.319)" fill="#fff"/>
        </g>
        <g id="Grupo_55058" data-name="Grupo 55058">
          <path id="Trazado_104335" data-name="Trazado 104335" d="M108.378,4.031A4.036,4.036,0,0,0,104.347,0H53.183a4.036,4.036,0,0,0-4.031,4.031V34.62h2.2V13.045a4.005,4.005,0,0,0,1.832.442h3.152V63.87H53.183a1.834,1.834,0,0,1-1.832-1.832V36.745h-2.2V62.037a4.036,4.036,0,0,0,4.031,4.031h9.749v7.568l5.5-1.466,5.5,1.466V66.069H104.2a4.035,4.035,0,0,0,4.031-4.029l.025-9.835-2.2-.006-.025,9.838A1.834,1.834,0,0,1,104.2,63.87H58.534V13.487h45.812a1.834,1.834,0,0,1,1.8,1.526L106.063,50l2.2.006ZM71.728,66.069v4.706l-3.3-.88-3.3.88V66.069Zm32.618-54.781H53.183a1.834,1.834,0,0,1-1.832-1.832V7.77H63.372v-2.2H51.351V4.031A1.834,1.834,0,0,1,53.183,2.2h51.163a1.834,1.834,0,0,1,1.832,1.83l0,1.982a4.006,4.006,0,0,0-1.827-.44H65.5v2.2h38.849a1.834,1.834,0,0,1,1.819,1.619l-.006,2.332A4.008,4.008,0,0,0,104.347,11.288Z" transform="translate(-49.152)"/>
          <path id="Trazado_104336" data-name="Trazado 104336" d="M178.928,149.395a3.985,3.985,0,1,0-4.659-2.043H156.877a7.711,7.711,0,1,0-6.517,6.525V169.26a3.3,3.3,0,0,1-2.657-3.235v-4.389a5.5,5.5,0,0,0-5.5-5.5v2.2a3.3,3.3,0,0,1,3.3,3.3v4.389a5.5,5.5,0,0,0,4.856,5.459v2.247h2.879v5.578h5.585v-2.2h-3.386V173.73h10.986v5.578h5.585v-2.2h-3.386V173.73h3.709v-5.5c0-4.845-4.176-9.537-6.915-12.094h8.015a5.487,5.487,0,0,0,1.425-.188l3.133,3.518L179.63,158l-2.75-3.088a5.545,5.545,0,0,0,.938-.968h3.968v-2.2h-2.971a5.5,5.5,0,0,0,.112-1.109v-1.246Zm-2.883-3.827a1.784,1.784,0,1,1,1.784,1.784A1.786,1.786,0,0,1,176.045,145.568Zm-16.9,8.371,2.635,1.979c.084.063,8.357,6.345,8.357,12.315v3.3H152.559V150.918l-1.468.522a5.515,5.515,0,1,1,3.351-3.356l-.519,1.466h22.807v1.09a3.3,3.3,0,0,1-3.3,3.3h-14.29Z" transform="translate(-127.985 -118.22)"/>
          <path id="Trazado_104337" data-name="Trazado 104337" d="M234.277,228.715h2.181v2.2h-2.181Z" transform="translate(-207.138 -195.186)"/>
          <path id="Trazado_104338" data-name="Trazado 104338" d="M235.414,291.1v-3.445h-2.2V291.1a4.036,4.036,0,0,0,4.031,4.031h3.143v-2.2h-3.143A1.834,1.834,0,0,1,235.414,291.1Z" transform="translate(-206.232 -245.482)"/>
        </g>
      </g>
    </g>
  </g>
</svg>
