<svg xmlns="http://www.w3.org/2000/svg" width="85" height="85" viewBox="0 0 85 85">
  <g id="Grupo_56160" data-name="Grupo 56160" transform="translate(-285 -9477)">
    <circle id="Elipse_4163" data-name="Elipse 4163" cx="42.5" cy="42.5" r="42.5" transform="translate(285 9477)" fill="#26c6da"/>
    <g id="flat" transform="translate(289.167 9484.334)">
      <path id="Trazado_105155" data-name="Trazado 105155" d="M68.793,73.667H7.874A4.874,4.874,0,0,1,3,68.793V3H54.172L68.793,17.621Z" fill="#e5e4d1"/>
      <path id="Trazado_105156" data-name="Trazado 105156" d="M59.621,17.621H45V3Z" transform="translate(9.172)" fill="#c6c3a7"/>
      <path id="Trazado_105157" data-name="Trazado 105157" d="M47,5H59.184V17.184Z" transform="translate(9.609 0.437)" fill="#e5e4d1"/>
      <path id="Trazado_105158" data-name="Trazado 105158" d="M57,8h4.874V67.7A4.874,4.874,0,0,1,57,72.575Z" transform="translate(11.793 1.092)" fill="#d3d1b6"/>
      <g id="Grupo_55434" data-name="Grupo 55434" transform="translate(6.655 6.655)">
        <path id="Trazado_105159" data-name="Trazado 105159" d="M14.529,15.747h-.374L10.5,6H6V18.184H8.437V8.437h.374l3.655,9.747h4.5V6H14.529Z" transform="translate(-6 -6)" fill="#d75745"/>
        <path id="Trazado_105160" data-name="Trazado 105160" d="M33.747,15.747h-.394l-2.13-5.326a1.218,1.218,0,0,0-2.264,0l-2.13,5.326h-.394V6H24V16.965a1.218,1.218,0,0,0,1.218,1.218h2.437a1.218,1.218,0,0,0,1.132-.766l1.3-3.264,1.3,3.264a1.218,1.218,0,0,0,1.132.766h2.437a1.218,1.218,0,0,0,1.218-1.218V6H33.747Z" transform="translate(-2.069 -6)" fill="#d75745"/>
        <path id="Trazado_105161" data-name="Trazado 105161" d="M17,18.184h6.092V15.747H19.437V13.31h3.655V10.874H19.437V8.437h3.655V6H17Z" transform="translate(-3.598 -6)" fill="#d75745"/>
        <path id="Trazado_105162" data-name="Trazado 105162" d="M43.31,8.437V6H37.218A1.218,1.218,0,0,0,36,7.218v4.874a1.218,1.218,0,0,0,1.218,1.218h3.655v2.437H36v2.437h6.092a1.218,1.218,0,0,0,1.218-1.218V12.092a1.218,1.218,0,0,0-1.218-1.218H38.437V8.437Z" transform="translate(0.552 -6)" fill="#d75745"/>
      </g>
      <path id="Trazado_105163" data-name="Trazado 105163" d="M6,18H64.483v2.437H6Z" transform="translate(0.655 3.276)" fill="#2d75bb"/>
      <path id="Trazado_105164" data-name="Trazado 105164" d="M7,24H33.8V38.621H7Z" transform="translate(0.874 4.586)" fill="#f9bb4b"/>
      <path id="Trazado_105165" data-name="Trazado 105165" d="M6,43H23.057v2.437H6Z" transform="translate(0.655 8.736)" fill="#394d5c"/>
      <path id="Trazado_105166" data-name="Trazado 105166" d="M6,39H35.241v2.437H6Z" transform="translate(0.655 7.862)" fill="#394d5c"/>
      <path id="Trazado_105167" data-name="Trazado 105167" d="M6,47H32.8v2.437H6Z" transform="translate(0.655 9.609)" fill="#394d5c"/>
      <path id="Trazado_105168" data-name="Trazado 105168" d="M0,0H17.057V9.747H0Z" transform="translate(63.919 57.827) rotate(180)" fill="#f9bb4b"/>
      <path id="Trazado_105169" data-name="Trazado 105169" d="M0,0H56.046V4.874H0Z" transform="translate(63.919 67.575) rotate(180)" fill="#2d75bb"/>
      <path id="Trazado_105170" data-name="Trazado 105170" d="M33,24H57.368v4.874H33Z" transform="translate(6.552 4.586)" fill="#f9bb4b"/>
      <path id="Trazado_105171" data-name="Trazado 105171" d="M33,32H57.368v4.874H33Z" transform="translate(6.552 6.333)" fill="#f9bb4b"/>
      <path id="Trazado_105172" data-name="Trazado 105172" d="M32,39h4.874v2.437H32Z" transform="translate(6.333 7.862)" fill="#394d5c"/>
      <path id="Trazado_105173" data-name="Trazado 105173" d="M22,43H39.057v2.437H22Z" transform="translate(4.149 8.736)" fill="#394d5c"/>
      <path id="Trazado_105174" data-name="Trazado 105174" d="M30,47h7.31v2.437H30Z" transform="translate(5.896 9.609)" fill="#394d5c"/>
    </g>
  </g>
</svg>
