<svg xmlns="http://www.w3.org/2000/svg" width="81.134" height="109.438" viewBox="0 0 81.134 109.438">
  <g id="revista_4_" data-name="revista (4)" transform="translate(-60)">
    <path id="Trazado_105088" data-name="Trazado 105088" d="M140,40h62.266v92.456H140Z" transform="translate(-61.132 -30.566)" fill="#c0e5e7"/>
    <path id="Trazado_105089" data-name="Trazado 105089" d="M78.868,9.434A9.434,9.434,0,1,0,60,9.434V101.89H78.868Z" fill="#71c285"/>
    <path id="Trazado_105090" data-name="Trazado 105090" d="M78.868,395.321v-1.887a9.434,9.434,0,1,0-9.434,9.434h52.832v-7.547Z" transform="translate(0 -293.431)" fill="#4d8157"/>
    <path id="Trazado_105091" data-name="Trazado 105091" d="M172,72h47.171V90.868H172Z" transform="translate(-85.584 -55.018)" fill="#29abe2"/>
    <path id="Trazado_105092" data-name="Trazado 105092" d="M172,184h22.642v20.755H172Z" transform="translate(-85.584 -140.602)" fill="#f15a24"/>
    <path id="Trazado_105093" data-name="Trazado 105093" d="M276,304h22.642v22.642H276Z" transform="translate(-165.055 -232.3)" fill="#24ae5f"/>
    <g id="Grupo_55416" data-name="Grupo 55416" transform="translate(84.529 43.398)">
      <path id="Trazado_105094" data-name="Trazado 105094" d="M292,184h20.755v3.774H292Z" transform="translate(-261.81 -184)" fill="#29485a"/>
      <path id="Trazado_105095" data-name="Trazado 105095" d="M292,216h20.755v3.774H292Z" transform="translate(-261.81 -208.453)" fill="#29485a"/>
      <path id="Trazado_105096" data-name="Trazado 105096" d="M292,248h20.755v3.774H292Z" transform="translate(-261.81 -232.905)" fill="#29485a"/>
      <path id="Trazado_105097" data-name="Trazado 105097" d="M164,296h20.755v3.774H164Z" transform="translate(-164 -269.584)" fill="#29485a"/>
      <path id="Trazado_105098" data-name="Trazado 105098" d="M164,328h20.755v3.774H164Z" transform="translate(-164 -294.037)" fill="#29485a"/>
      <path id="Trazado_105099" data-name="Trazado 105099" d="M164,360h20.755v3.774H164Z" transform="translate(-164 -318.489)" fill="#29485a"/>
      <path id="Trazado_105100" data-name="Trazado 105100" d="M164,392h20.755v3.774H164Z" transform="translate(-164 -342.942)" fill="#29485a"/>
    </g>
  </g>
</svg>
