<svg xmlns="http://www.w3.org/2000/svg" width="80.499" height="80.499" viewBox="0 0 80.499 80.499">
  <g id="periodico" transform="translate(-1 -1)">
    <g id="Grupo_55077" data-name="Grupo 55077" transform="translate(2.298 2.298)">
      <g id="Grupo_55065" data-name="Grupo 55065" transform="translate(0 22.072)">
        <path id="Trazado_104339" data-name="Trazado 104339" d="M9.79,69.636h2.6A5.193,5.193,0,1,1,2,69.636V19H7.193V67.04A2.6,2.6,0,0,0,9.79,69.636Z" transform="translate(-2 -19)" fill="#e6e9ed"/>
      </g>
      <g id="Grupo_55066" data-name="Grupo 55066" transform="translate(5.193 12.984)">
        <path id="Trazado_104340" data-name="Trazado 104340" d="M11.193,19.79V71.725H8.6a2.6,2.6,0,0,1-2.6-2.6V12h5.193Z" transform="translate(-6 -12)" fill="#f0d0b4"/>
      </g>
      <g id="Grupo_55067" data-name="Grupo 55067" transform="translate(10.387 0)">
        <path id="Trazado_104341" data-name="Trazado 104341" d="M28.177,2H10V22.774H77.515V2Z" transform="translate(-10 -2)" fill="#e6e9ed"/>
      </g>
      <g id="Grupo_55068" data-name="Grupo 55068" transform="translate(5.193 20.774)">
        <path id="Trazado_104342" data-name="Trazado 104342" d="M78.709,18V69.935a5.192,5.192,0,0,1-5.193,5.193H6a5.187,5.187,0,0,0,5.193-5.193V18H78.709Z" transform="translate(-6 -18)" fill="#ffeaa7"/>
      </g>
      <g id="Grupo_55069" data-name="Grupo 55069" transform="translate(36.354 67.515)">
        <path id="Trazado_104343" data-name="Trazado 104343" d="M30,54H45.58v5.193H30Z" transform="translate(-30 -54)" fill="#e6e9ed"/>
      </g>
      <g id="Grupo_55070" data-name="Grupo 55070" transform="translate(15.58 67.515)">
        <path id="Trazado_104344" data-name="Trazado 104344" d="M14,54H29.58v5.193H14Z" transform="translate(-14 -54)" fill="#e6e9ed"/>
      </g>
      <g id="Grupo_55071" data-name="Grupo 55071" transform="translate(59.725 25.967)">
        <path id="Trazado_104345" data-name="Trazado 104345" d="M48,22H60.984v5.193H48Z" transform="translate(-48 -22)" fill="#ff826e"/>
      </g>
      <g id="Grupo_55072" data-name="Grupo 55072" transform="translate(15.58 25.967)">
        <path id="Trazado_104346" data-name="Trazado 104346" d="M52.951,22V58.354H47.758V54.81a5.2,5.2,0,0,0-4.168-5.09l-.935-.182v-.013a7.819,7.819,0,0,0,1.207-4.155V37.58a10.387,10.387,0,1,0-20.774,0v7.79A7.819,7.819,0,0,0,24.3,49.525v.013l-.935.182a5.2,5.2,0,0,0-4.168,5.09v3.545H14V22Z" transform="translate(-14 -22)" fill="#e6e9ed"/>
      </g>
      <g id="Grupo_55073" data-name="Grupo 55073" transform="translate(24.669 31.161)">
        <path id="Trazado_104347" data-name="Trazado 104347" d="M27.713,43.956a5.426,5.426,0,0,0,.974.753v.013a3.895,3.895,0,0,1-2.727,2.856l-3.752.753A7.819,7.819,0,0,1,21,44.177v-7.79a10.387,10.387,0,0,1,20.774,0v7.79a7.819,7.819,0,0,1-1.207,4.155l-3.752-.753a3.895,3.895,0,0,1-2.727-2.856V44.71a5.17,5.17,0,0,0,2.493-4.427v-3.9H34.3a12.3,12.3,0,0,1-5.505-1.3,2.6,2.6,0,0,0-2.6,2.6v2.6A5.226,5.226,0,0,0,27.713,43.956Z" transform="translate(-21 -26)" fill="#656d78"/>
      </g>
      <g id="Grupo_55074" data-name="Grupo 55074" transform="translate(20.774 51.896)">
        <path id="Trazado_104348" data-name="Trazado 104348" d="M46.564,48.851V52.4H18V48.851a5.2,5.2,0,0,1,4.168-5.09l.935-.182v-.013l3.752-.753a3.848,3.848,0,0,0,1.532-.844v.039a3.9,3.9,0,0,0,7.79,0V41.97a3.848,3.848,0,0,0,1.532.844l3.752.753v.013l.935.182a5.2,5.2,0,0,1,4.168,5.09Z" transform="translate(-18 -41.97)" fill="#b4dd7f"/>
      </g>
      <g id="Grupo_55075" data-name="Grupo 55075" transform="translate(31.161 49.87)">
        <path id="Trazado_104349" data-name="Trazado 104349" d="M32.6,40.423a3.819,3.819,0,0,0,1.194,2.012v.039a3.9,3.9,0,0,1-7.79,0v-.039a3.819,3.819,0,0,0,1.195-2.012V40.41a5.143,5.143,0,0,0,5.4,0Z" transform="translate(-26 -40.41)" fill="#f0d0b4"/>
      </g>
      <g id="Grupo_55076" data-name="Grupo 55076" transform="translate(29.863 40.25)">
        <path id="Trazado_104350" data-name="Trazado 104350" d="M35.387,34.3v3.9a5.17,5.17,0,0,1-2.493,4.427,5.143,5.143,0,0,1-5.4,0,5.426,5.426,0,0,1-.974-.753A5.226,5.226,0,0,1,25,38.193V35.6A2.6,2.6,0,0,1,27.6,33,12.3,12.3,0,0,0,33.1,34.3Z" transform="translate(-25 -33)" fill="#f0d0b4"/>
      </g>
    </g>
    <g id="Grupo_55078" data-name="Grupo 55078" transform="translate(1 1)">
      <path id="Trazado_104351" data-name="Trazado 104351" d="M11.387,1V13.984H6.193v9.089H1V75.007A6.5,6.5,0,0,0,7.492,81.5H75.007A6.5,6.5,0,0,0,81.5,75.007V1ZM8.79,16.58h2.6V73.709h-1.3a1.3,1.3,0,0,1-1.3-1.3ZM7.492,78.9a3.9,3.9,0,0,1-3.9-3.9V25.669h2.6V72.41a3.9,3.9,0,0,0,3.9,3.9h1.059A3.89,3.89,0,0,1,7.492,78.9Zm67.515,0H12.683a6.466,6.466,0,0,0,1.3-3.9V24.371h2.6v-2.6h-2.6V3.6H78.9V21.774h-2.6v2.6h2.6V75.007A3.9,3.9,0,0,1,75.007,78.9Z" transform="translate(-1 -1)"/>
      <path id="Trazado_104352" data-name="Trazado 104352" d="M46.811,15.26a.182.182,0,0,1-.351.013l-.888-5.326a2.831,2.831,0,0,0-5.569,0l-.888,5.326a.18.18,0,0,1-.353-.042L37.586,4.888l-2.58.293L36.18,15.5a2.774,2.774,0,0,0,5.5.2l.888-5.326c.013-.084.087-.147.271-.147a.176.176,0,0,1,.174.148L43.9,15.7a2.773,2.773,0,0,0,5.493-.177L50.57,5.18l-2.58-.293Z" transform="translate(9.146 0.16)"/>
      <path id="Trazado_104353" data-name="Trazado 104353" d="M18.6,8.748l5.773,9.235h3.316V5h-2.6v9.235L19.316,5H16V17.984h2.6Z" transform="translate(3.476 0.193)"/>
      <path id="Trazado_104354" data-name="Trazado 104354" d="M55.492,15.387H52.9a1.3,1.3,0,0,1-1.3-1.3H49a3.9,3.9,0,0,0,3.9,3.9h2.6a3.9,3.9,0,0,0,0-7.79H52.9a1.3,1.3,0,1,1,0-2.6h2.6a1.3,1.3,0,0,1,1.3,1.3h2.6a3.9,3.9,0,0,0-3.9-3.9H52.9a3.9,3.9,0,1,0,0,7.79h2.6a1.3,1.3,0,0,1,0,2.6Z" transform="translate(13.322 0.193)"/>
      <path id="Trazado_104355" data-name="Trazado 104355" d="M34.79,15.387H29.6v-2.6H34.79v-2.6H29.6V7.6H34.79V5H27V17.984h7.79Z" transform="translate(6.758 0.193)"/>
      <path id="Trazado_104356" data-name="Trazado 104356" d="M27,17h2.6v2.6H27Z" transform="translate(6.758 3.774)"/>
      <path id="Trazado_104357" data-name="Trazado 104357" d="M51,17h2.6v2.6H51Z" transform="translate(13.919 3.774)"/>
      <path id="Trazado_104358" data-name="Trazado 104358" d="M23,17h2.6v2.6H23Z" transform="translate(5.564 3.774)"/>
      <path id="Trazado_104359" data-name="Trazado 104359" d="M47,17h2.6v2.6H47Z" transform="translate(12.725 3.774)"/>
      <path id="Trazado_104360" data-name="Trazado 104360" d="M35,17h2.6v2.6H35Z" transform="translate(9.145 3.774)"/>
      <path id="Trazado_104361" data-name="Trazado 104361" d="M31,17h2.6v2.6H31Z" transform="translate(7.951 3.774)"/>
      <path id="Trazado_104362" data-name="Trazado 104362" d="M19,17h2.6v2.6H19Z" transform="translate(4.371 3.774)"/>
      <path id="Trazado_104363" data-name="Trazado 104363" d="M55,17h2.6v2.6H55Z" transform="translate(15.112 3.774)"/>
      <path id="Trazado_104364" data-name="Trazado 104364" d="M43,17h2.6v2.6H43Z" transform="translate(11.532 3.774)"/>
      <path id="Trazado_104365" data-name="Trazado 104365" d="M39,17h2.6v2.6H39Z" transform="translate(10.338 3.774)"/>
      <path id="Trazado_104366" data-name="Trazado 104366" d="M15,17h2.6v2.6H15Z" transform="translate(3.177 3.774)"/>
      <path id="Trazado_104367" data-name="Trazado 104367" d="M13,59.951H54.548V21H13ZM24.685,45.669v-7.79a9.089,9.089,0,0,1,18.177,0v7.79a6.44,6.44,0,0,1-.6,2.7l-2.714-.545a2.584,2.584,0,0,1-1.519-1.191,6.451,6.451,0,0,0,2.233-4.86V36.58H36.677a11.047,11.047,0,0,1-4.92-1.162l-.274-.136h-.306a3.9,3.9,0,0,0-3.9,3.9v2.6a6.45,6.45,0,0,0,2.234,4.861A2.492,2.492,0,0,1,28.095,47.8l-2.812.569a6.434,6.434,0,0,1-.6-2.7Zm12.984-3.9a3.9,3.9,0,1,1-7.79,0v-2.6a1.3,1.3,0,0,1,1.05-1.275,13.675,13.675,0,0,0,5.748,1.275h.992Zm-5.893,6.144a5.919,5.919,0,0,0,4,0,5.122,5.122,0,0,0,.554.77,2.588,2.588,0,0,1-5.108.009A5.325,5.325,0,0,0,31.776,47.918Zm-7.862,3.376,4.794-.972c.091-.026.174-.064.262-.095a5.181,5.181,0,0,0,9.605-.009c.121.043.238.093.364.129l4.7.948a3.909,3.909,0,0,1,3.123,3.819v2.242H20.79V55.112a3.908,3.908,0,0,1,3.124-3.819ZM15.6,23.6H51.951V57.354h-2.6V55.112a6.5,6.5,0,0,0-4.534-6.165,9.01,9.01,0,0,0,.639-3.278v-7.79a11.685,11.685,0,1,0-23.371,0v7.79a9.011,9.011,0,0,0,.639,3.278,6.5,6.5,0,0,0-4.534,6.165v2.242H15.6Z" transform="translate(2.58 4.967)"/>
      <path id="Trazado_104368" data-name="Trazado 104368" d="M47,28.79H62.58V21H47ZM49.6,23.6H59.984v2.6H49.6Z" transform="translate(12.725 4.967)"/>
      <path id="Trazado_104369" data-name="Trazado 104369" d="M47,29H62.58v2.6H47Z" transform="translate(12.725 7.354)"/>
      <path id="Trazado_104370" data-name="Trazado 104370" d="M47,37H62.58v2.6H47Z" transform="translate(12.725 9.741)"/>
      <path id="Trazado_104371" data-name="Trazado 104371" d="M47,41H62.58v2.6H47Z" transform="translate(12.725 10.935)"/>
      <path id="Trazado_104372" data-name="Trazado 104372" d="M51,45H61.387v2.6H51Z" transform="translate(13.919 12.128)"/>
      <path id="Trazado_104373" data-name="Trazado 104373" d="M47,45h2.6v2.6H47Z" transform="translate(12.725 12.128)"/>
      <path id="Trazado_104374" data-name="Trazado 104374" d="M47,49H62.58v2.6H47Z" transform="translate(12.725 13.322)"/>
      <path id="Trazado_104375" data-name="Trazado 104375" d="M57,33h2.6v2.6H57Z" transform="translate(15.709 8.548)"/>
      <path id="Trazado_104376" data-name="Trazado 104376" d="M47,33H57.387v2.6H47Z" transform="translate(12.725 8.548)"/>
      <path id="Trazado_104377" data-name="Trazado 104377" d="M13,60.79H31.177V53H13ZM15.6,55.6H28.58v2.6H15.6Z" transform="translate(2.58 14.515)"/>
      <path id="Trazado_104378" data-name="Trazado 104378" d="M29,60.79H47.177V53H29ZM31.6,55.6H44.58v2.6H31.6Z" transform="translate(7.354 14.515)"/>
    </g>
  </g>
</svg>
