<svg xmlns="http://www.w3.org/2000/svg" width="85" height="68.943" viewBox="0 0 85 68.943">
  <g id="revista_2_" data-name="revista (2)" transform="translate(0 -48.358)">
    <path id="Trazado_105046" data-name="Trazado 105046" d="M85,57.053V114.6a2.448,2.448,0,0,1-3.189,2.317c-15.218-4.757-27.422-9.6-38.661-.583a2.467,2.467,0,0,1-3.1-.007c-12.3-10.093-26.2-2.48-37.437.884A2.031,2.031,0,0,1,0,115.266V56.757a2.032,2.032,0,0,1,1.391-1.929c26.669-8.878,26.533-8.021,37.881-1.059a3.617,3.617,0,0,0,4.134-.262c11.611-9.173,24.548-3.772,39.909,1.239A2.431,2.431,0,0,1,85,57.053Z" fill="#78b9eb"/>
    <path id="Trazado_105047" data-name="Trazado 105047" d="M85,57.053v52.378a2.448,2.448,0,0,1-3.189,2.317c-15.218-4.757-27.422-9.6-38.661-.583a2.467,2.467,0,0,1-3.1-.007c-12.3-10.093-26.2-2.48-37.437.884A2.03,2.03,0,0,1,0,110.094V56.757a2.032,2.032,0,0,1,1.391-1.929c26.669-8.878,26.533-8.021,37.881-1.059a3.618,3.618,0,0,0,4.134-.262c11.611-9.173,24.548-3.772,39.909,1.239A2.431,2.431,0,0,1,85,57.053Z" fill="#b3d8f4"/>
    <path id="Trazado_105048" data-name="Trazado 105048" d="M294.75,57.948v52.378a2.448,2.448,0,0,1-3.189,2.317c-15.218-4.757-27.422-9.6-38.661-.583a2.477,2.477,0,0,1-1.4.541V55.14a3.652,3.652,0,0,0,1.653-.738c11.611-9.173,24.548-3.772,39.909,1.239A2.431,2.431,0,0,1,294.75,57.948Z" transform="translate(-209.75 -0.895)" fill="#96c8ef"/>
    <path id="Trazado_105049" data-name="Trazado 105049" d="M314.946,114.288c-15.458-5.035-19.986-6.3-27.539-2.265a1.667,1.667,0,0,1-2.458-1.465V94.211a1.672,1.672,0,0,1,.82-1.435c8.878-5.284,12.963-3.955,30.21,1.673a1.666,1.666,0,0,1,1.149,1.584V112.7A1.666,1.666,0,0,1,314.946,114.288Z" transform="translate(-237.643 -34.265)" fill="#5aaae7"/>
    <g id="Grupo_55409" data-name="Grupo 55409" transform="translate(4.087 56.241)">
      <path id="Trazado_105050" data-name="Trazado 105050" d="M25.913,103.784a1.287,1.287,0,0,0,.413-.068l.6-.2c17.61-5.939,20.783-7.009,29.415-1.484a1.293,1.293,0,1,0,1.394-2.178c-9.676-6.194-13.892-4.772-31.635,1.212l-.6.2a1.293,1.293,0,0,0,.413,2.518Z" transform="translate(-24.62 -95.839)" fill="#1e81ce"/>
      <path id="Trazado_105051" data-name="Trazado 105051" d="M56.339,145.859a1.293,1.293,0,1,0,1.394-2.178c-9.676-6.194-13.892-4.772-31.635,1.212l-.6.2a1.293,1.293,0,1,0,.826,2.45l.6-.2C44.534,141.4,47.708,140.334,56.339,145.859Z" transform="translate(-24.619 -132.391)" fill="#1e81ce"/>
      <path id="Trazado_105052" data-name="Trazado 105052" d="M127.009,188.3c-6.644-4.254-10.76-4.924-18.35-2.986a1.293,1.293,0,1,0,.64,2.505c6.908-1.763,10.263-1.217,16.316,2.658a1.293,1.293,0,0,0,1.394-2.178Z" transform="translate(-93.895 -169.598)" fill="#1e81ce"/>
      <path id="Trazado_105053" data-name="Trazado 105053" d="M142.15,235.089a1.293,1.293,0,1,0,1.394-2.178c-5.735-3.671-9.507-4.608-14.949-3.714a1.293,1.293,0,1,0,.419,2.552C133.843,230.956,136.912,231.736,142.15,235.089Z" transform="translate(-110.43 -206.795)" fill="#1e81ce"/>
      <path id="Trazado_105054" data-name="Trazado 105054" d="M141.977,276.164c3.663-.247,6.565.692,11.086,3.585a1.293,1.293,0,1,0,1.394-2.178c-4.223-2.7-7.813-4.312-12.653-3.987a1.293,1.293,0,1,0,.173,2.58Z" transform="translate(-121.343 -244.041)" fill="#1e81ce"/>
      <path id="Trazado_105055" data-name="Trazado 105055" d="M160.674,322.217c-3.758-2.407-7.122-4.013-11.324-4.03h0a1.293,1.293,0,0,0,0,2.586c3.143.012,5.837.994,9.94,3.621a1.293,1.293,0,0,0,1.395-2.178Z" transform="translate(-127.56 -281.274)" fill="#1e81ce"/>
      <path id="Trazado_105056" data-name="Trazado 105056" d="M163.023,366.914c-3.617-2.317-6.841-3.887-10.819-4.02a1.293,1.293,0,0,0-.087,2.585c2.977.1,5.554,1.079,9.511,3.613a1.293,1.293,0,1,0,1.395-2.178Z" transform="translate(-129.908 -318.558)" fill="#1e81ce"/>
      <path id="Trazado_105057" data-name="Trazado 105057" d="M363.377,251.4c4.027.583,9.274,2.294,17.215,4.885l.618.2a1.293,1.293,0,0,0,.8-2.459l-.618-.2c-8.069-2.632-13.4-4.371-17.647-4.986a1.293,1.293,0,1,0-.37,2.559Z" transform="translate(-306.214 -223.425)" fill="#1e81ce"/>
      <path id="Trazado_105058" data-name="Trazado 105058" d="M278.456,254.463a1.288,1.288,0,0,0,.68-.194c3.495-2.164,5.948-3.181,8.465-3.511a1.293,1.293,0,1,0-.336-2.564c-2.91.381-5.659,1.5-9.491,3.876a1.293,1.293,0,0,0,.682,2.392Z" transform="translate(-235.236 -222.892)" fill="#1e81ce"/>
      <path id="Trazado_105059" data-name="Trazado 105059" d="M311.033,292.275l-.619-.2c-9.276-3.026-14.875-4.852-19.44-5.183-4.495-.326-7.949.712-13.2,3.964a1.293,1.293,0,0,0,1.361,2.2c8.954-5.543,12.24-4.471,30.479,1.478l.619.2a1.293,1.293,0,0,0,.8-2.459Z" transform="translate(-235.234 -255.126)" fill="#1e81ce"/>
      <path id="Trazado_105060" data-name="Trazado 105060" d="M311.033,331.736l-.619-.2c-9.276-3.026-14.875-4.852-19.44-5.182-4.495-.325-7.949.712-13.2,3.964a1.293,1.293,0,0,0,1.361,2.2c8.954-5.543,12.24-4.471,30.479,1.478l.619.2a1.293,1.293,0,0,0,.8-2.459Z" transform="translate(-235.234 -288.036)" fill="#1e81ce"/>
      <path id="Trazado_105061" data-name="Trazado 105061" d="M311.033,371.2l-.619-.2c-9.276-3.026-14.875-4.852-19.44-5.182-4.495-.325-7.949.712-13.2,3.964a1.293,1.293,0,0,0,1.361,2.2c8.954-5.543,12.24-4.471,30.479,1.478l.619.2a1.293,1.293,0,0,0,.8-2.459Z" transform="translate(-235.234 -320.947)" fill="#1e81ce"/>
    </g>
    <g id="Grupo_55410" data-name="Grupo 55410" transform="translate(54.488 57.827)">
      <circle id="Elipse_4162" data-name="Elipse 4162" cx="2.849" cy="2.849" r="2.849" transform="translate(5.045 5.257)" fill="#ffcd00"/>
      <path id="Trazado_105062" data-name="Trazado 105062" d="M369.273,108.845a1.293,1.293,0,0,1-1.293-1.293v-.868a1.293,1.293,0,1,1,2.586,0v.868A1.293,1.293,0,0,1,369.273,108.845Z" transform="translate(-361.378 -105.391)" fill="#ffcd00"/>
      <path id="Trazado_105063" data-name="Trazado 105063" d="M343.875,118.091a1.29,1.29,0,0,1-.991-.462l-.558-.665a1.293,1.293,0,1,1,1.981-1.662l.558.665a1.293,1.293,0,0,1-.99,2.124Z" transform="translate(-339.73 -113.272)" fill="#ffcd00"/>
      <path id="Trazado_105064" data-name="Trazado 105064" d="M330.36,141.494a1.294,1.294,0,0,1-.226-.02l-.855-.151a1.293,1.293,0,0,1,.449-2.547l.855.151a1.293,1.293,0,0,1-.223,2.566Z" transform="translate(-328.21 -133.218)" fill="#ffcd00"/>
      <path id="Trazado_105065" data-name="Trazado 105065" d="M334.3,166.368a1.293,1.293,0,0,1-.648-2.413l.752-.434a1.293,1.293,0,0,1,1.293,2.24l-.752.434A1.286,1.286,0,0,1,334.3,166.368Z" transform="translate(-332.21 -153.726)" fill="#ffcd00"/>
      <path id="Trazado_105066" data-name="Trazado 105066" d="M355.46,182.207a1.293,1.293,0,0,1-1.215-1.736l.3-.816a1.293,1.293,0,1,1,2.43.885l-.3.816A1.294,1.294,0,0,1,355.46,182.207Z" transform="translate(-349.857 -166.617)" fill="#ffcd00"/>
      <path id="Trazado_105067" data-name="Trazado 105067" d="M381.592,182.205a1.294,1.294,0,0,1-1.215-.851l-.3-.816a1.293,1.293,0,1,1,2.43-.885l.3.816a1.294,1.294,0,0,1-1.215,1.736Z" transform="translate(-371.403 -166.615)" fill="#ffcd00"/>
      <path id="Trazado_105068" data-name="Trazado 105068" d="M400.467,166.367a1.286,1.286,0,0,1-.645-.173l-.752-.434a1.293,1.293,0,0,1,1.293-2.24l.752.434a1.293,1.293,0,0,1-.648,2.413Z" transform="translate(-386.766 -153.725)" fill="#ffcd00"/>
      <path id="Trazado_105069" data-name="Trazado 105069" d="M403.889,141.5a1.293,1.293,0,0,1-.223-2.566l.855-.151a1.293,1.293,0,1,1,.449,2.547l-.855.151A1.3,1.3,0,0,1,403.889,141.5Z" transform="translate(-390.248 -133.219)" fill="#ffcd00"/>
      <path id="Trazado_105070" data-name="Trazado 105070" d="M391.869,118.09a1.293,1.293,0,0,1-.99-2.124l.558-.665a1.293,1.293,0,0,1,1.981,1.662l-.558.665A1.29,1.29,0,0,1,391.869,118.09Z" transform="translate(-380.223 -113.271)" fill="#ffcd00"/>
    </g>
    <path id="Trazado_105071" data-name="Trazado 105071" d="M42.742,244.041a81.011,81.011,0,0,0-12.977,3.789,75.415,75.415,0,0,1-3.058-20.109c-.05-2.748.09-5.31.1-5.324a50.217,50.217,0,0,1,.8-6.613c1.024-5.251,2.853-8.649,5.182-8.839,1.791-.148,3.6,1.629,5.191,4.741C41.978,219.509,43.718,233.482,42.742,244.041Z" transform="translate(-22.264 -132.252)" fill="#ff9811"/>
    <path id="Trazado_105072" data-name="Trazado 105072" d="M42.919,234.176a23.658,23.658,0,0,1-14.725,7.449A78.258,78.258,0,0,1,26.8,222.332v0q.013-.241.031-.476c1.069-16.112,7.665-20.672,12.685-6.589a61.985,61.985,0,0,1,2.838,12.5C42.64,229.964,42.826,232.133,42.919,234.176Z" transform="translate(-22.259 -132.185)" fill="#ffde55"/>
    <path id="Trazado_105073" data-name="Trazado 105073" d="M43.083,227.767a17.914,17.914,0,0,1-15.523-5.913c1.069-16.112,7.665-20.672,12.685-6.589A61.988,61.988,0,0,1,43.083,227.767Z" transform="translate(-22.985 -132.184)" fill="#ff9811"/>
  </g>
</svg>
