<svg xmlns="http://www.w3.org/2000/svg" width="77.885" height="102" viewBox="0 0 77.885 102">
  <g id="prueba" transform="translate(-60.523)">
    <g id="Grupo_55421" data-name="Grupo 55421" transform="translate(60.523 0)">
      <path id="Trazado_105123" data-name="Trazado 105123" d="M135.5,102H63.431a2.908,2.908,0,0,1-2.908-2.908V2.908A2.908,2.908,0,0,1,63.431,0H135.5a2.908,2.908,0,0,1,2.908,2.908V99.092A2.908,2.908,0,0,1,135.5,102Z" transform="translate(-60.523 0)" fill="#5e54ac"/>
      <path id="Trazado_105124" data-name="Trazado 105124" d="M292.435,0H256.5V102h35.935a2.908,2.908,0,0,0,2.908-2.908V2.908A2.908,2.908,0,0,0,292.435,0Z" transform="translate(-217.458 0)" fill="#453d81"/>
    </g>
    <g id="Grupo_55432" data-name="Grupo 55432" transform="translate(73.203 0)">
      <g id="Grupo_55430" data-name="Grupo 55430" transform="translate(0 13.13)">
        <g id="Grupo_55422" data-name="Grupo 55422">
          <path id="Trazado_105125" data-name="Trazado 105125" d="M172.859,142.08H128.008a3.837,3.837,0,0,1-3.838-3.838v-68.5a3.837,3.837,0,0,1,3.838-3.838h44.851a3.837,3.837,0,0,1,3.838,3.838v68.5A3.838,3.838,0,0,1,172.859,142.08Z" transform="translate(-124.17 -65.907)" fill="#f9f9f9"/>
          <path id="Trazado_105126" data-name="Trazado 105126" d="M278.826,65.907H256.5V142.08h22.326a3.837,3.837,0,0,0,3.838-3.838v-68.5A3.837,3.837,0,0,0,278.826,65.907Z" transform="translate(-230.137 -65.907)" fill="#e2dff4"/>
        </g>
        <g id="Grupo_55429" data-name="Grupo 55429" transform="translate(10.561 19.385)">
          <g id="Grupo_55423" data-name="Grupo 55423" transform="translate(0 0.007)">
            <path id="Trazado_105127" data-name="Trazado 105127" d="M180.165,349.215a2.987,2.987,0,1,1,2.93-2.4,3.018,3.018,0,0,1-2.93,2.4Z" transform="translate(-177.181 -307.387)" fill="#e2dff4"/>
            <path id="Trazado_105128" data-name="Trazado 105128" d="M180.17,289.218a2.988,2.988,0,1,1,2.913-2.327A3.015,3.015,0,0,1,180.17,289.218Z" transform="translate(-177.185 -259.343)" fill="#e2dff4"/>
            <path id="Trazado_105129" data-name="Trazado 105129" d="M180.174,229.218a2.988,2.988,0,1,1,2.93-2.4A3.013,3.013,0,0,1,180.174,229.218Z" transform="translate(-177.19 -211.296)" fill="#e2dff4"/>
            <path id="Trazado_105130" data-name="Trazado 105130" d="M180.174,169.218a2.988,2.988,0,1,1,2.93-2.4A3.013,3.013,0,0,1,180.174,169.218Z" transform="translate(-177.19 -163.249)" fill="#e2dff4"/>
          </g>
          <g id="Grupo_55428" data-name="Grupo 55428" transform="translate(11.949)">
            <g id="Grupo_55424" data-name="Grupo 55424" transform="translate(0 35.859)">
              <path id="Trazado_105131" data-name="Trazado 105131" d="M253.772,349.189H240.15a2.988,2.988,0,0,1,0-5.977h13.622a2.988,2.988,0,1,1,0,5.977Z" transform="translate(-237.162 -343.212)" fill="#e2dff4"/>
              <path id="Trazado_105132" data-name="Trazado 105132" d="M269.258,343.212H256.5v5.977h12.758a2.988,2.988,0,0,0,0-5.977Z" transform="translate(-252.648 -343.212)" fill="#bebcdd"/>
            </g>
            <g id="Grupo_55425" data-name="Grupo 55425" transform="translate(0 23.906)">
              <path id="Trazado_105133" data-name="Trazado 105133" d="M253.772,289.189H240.15a2.988,2.988,0,0,1,0-5.977h13.622a2.988,2.988,0,1,1,0,5.977Z" transform="translate(-237.162 -283.212)" fill="#e2dff4"/>
              <path id="Trazado_105134" data-name="Trazado 105134" d="M269.258,283.212H256.5v5.977h12.758a2.988,2.988,0,0,0,0-5.977Z" transform="translate(-252.648 -283.212)" fill="#bebcdd"/>
            </g>
            <g id="Grupo_55426" data-name="Grupo 55426" transform="translate(0 11.953)">
              <path id="Trazado_105135" data-name="Trazado 105135" d="M253.772,229.189H240.15a2.988,2.988,0,0,1,0-5.977h13.622a2.988,2.988,0,1,1,0,5.977Z" transform="translate(-237.162 -223.212)" fill="#e2dff4"/>
              <path id="Trazado_105136" data-name="Trazado 105136" d="M269.258,223.212H256.5v5.977h12.758a2.988,2.988,0,0,0,0-5.977Z" transform="translate(-252.648 -223.212)" fill="#bebcdd"/>
            </g>
            <g id="Grupo_55427" data-name="Grupo 55427">
              <path id="Trazado_105137" data-name="Trazado 105137" d="M253.772,169.189H240.15a2.988,2.988,0,0,1,0-5.977h13.622a2.988,2.988,0,1,1,0,5.977Z" transform="translate(-237.162 -163.212)" fill="#e2dff4"/>
              <path id="Trazado_105138" data-name="Trazado 105138" d="M269.258,163.212H256.5v5.977h12.758a2.988,2.988,0,0,0,0-5.977Z" transform="translate(-252.648 -163.212)" fill="#bebcdd"/>
            </g>
          </g>
        </g>
      </g>
      <g id="Grupo_55431" data-name="Grupo 55431" transform="translate(12.817)">
        <path id="Trazado_105139" data-name="Trazado 105139" d="M214.61,0H189.293a.788.788,0,0,0-.788.788V12.342a.788.788,0,0,0,.788.788h4.73v.793a7.929,7.929,0,0,0,15.858,0V13.13h4.73a.788.788,0,0,0,.788-.788V.788A.788.788,0,0,0,214.61,0Z" transform="translate(-188.505)" fill="#e2dff4"/>
        <path id="Trazado_105140" data-name="Trazado 105140" d="M269.059,0H256.5V21.849a7.928,7.928,0,0,0,7.829-7.927V13.13h4.73a.788.788,0,0,0,.788-.788V.788A.788.788,0,0,0,269.059,0Z" transform="translate(-242.954)" fill="#bebcdd"/>
      </g>
    </g>
  </g>
</svg>
