<svg xmlns="http://www.w3.org/2000/svg" width="84" height="112.451" viewBox="0 0 84 112.451">
  <g id="revista_6_" data-name="revista (6)" transform="translate(-17.5 -1.747)">
    <path id="Trazado_105141" data-name="Trazado 105141" d="M33.5,1.747h69.55V114.2H33.5Z" transform="translate(-1.548)" fill="#fff5f5"/>
    <path id="Trazado_105142" data-name="Trazado 105142" d="M43.5,37.727H94.984V69.248H43.5Z" transform="translate(-2.516 -3.482)" fill="#efe2dd"/>
    <path id="Trazado_105143" data-name="Trazado 105143" d="M17.5,6.263V109.682a4.516,4.516,0,0,0,4.516,4.516h9.935V1.747H22.016A4.516,4.516,0,0,0,17.5,6.263Z" transform="translate(0 0)" fill="#596c76"/>
    <path id="Trazado_105144" data-name="Trazado 105144" d="M83.758,27.585H74.487A1.582,1.582,0,0,1,72.906,26V11.578A1.581,1.581,0,0,1,74.487,10h9.272a1.581,1.581,0,1,1,0,3.161H76.067V24.424h6.11V20.371H80.027a1.581,1.581,0,0,1,0-3.161h3.731a1.582,1.582,0,0,1,1.581,1.581V26a1.582,1.582,0,0,1-1.581,1.581Z" transform="translate(-5.362 -0.799)" fill="#ff9100"/>
    <path id="Trazado_105145" data-name="Trazado 105145" d="M52.6,27.584A1.582,1.582,0,0,1,51.019,26V16.961l-1.728,2.684a1.582,1.582,0,0,1-2.659,0l-1.726-2.684V26a1.581,1.581,0,1,1-3.161,0V11.578a1.581,1.581,0,0,1,2.911-.854l3.306,5.144,3.306-5.144a1.581,1.581,0,0,1,2.91.854V26A1.582,1.582,0,0,1,52.6,27.584Z" transform="translate(-2.346 -0.798)" fill="#ff9100"/>
    <path id="Trazado_105146" data-name="Trazado 105146" d="M68.179,27.585a1.581,1.581,0,0,1-1.5-1.1l-3.131-9.742-3.131,9.742a1.581,1.581,0,1,1-3.01-.967l4.636-14.426a1.581,1.581,0,0,1,3.01,0l4.635,14.426a1.581,1.581,0,0,1-1.5,2.064Z" transform="translate(-3.854 -0.798)" fill="#ff9100"/>
    <path id="Trazado_105147" data-name="Trazado 105147" d="M99.337,27.585H90.065a1.581,1.581,0,0,1-1.33-2.439l7.711-11.985H90.07a1.581,1.581,0,1,1,0-3.161h9.267a1.581,1.581,0,0,1,1.33,2.439L92.96,24.424h6.377a1.581,1.581,0,0,1,0,3.161Z" transform="translate(-6.869 -0.799)" fill="#ff9100"/>
    <path id="Trazado_105148" data-name="Trazado 105148" d="M43.5,63.5,58.855,53,94.984,67.339v3.387H43.5Z" transform="translate(-2.516 -4.96)" fill="#b9dd39"/>
    <path id="Trazado_105149" data-name="Trazado 105149" d="M87.274,49.387a4.262,4.262,0,1,1-4.262-4.262,4.262,4.262,0,0,1,4.262,4.262Z" transform="translate(-5.927 -4.198)" fill="#ff9100"/>
    <g id="Grupo_55433" data-name="Grupo 55433" transform="translate(39.403 73.225)">
      <path id="Trazado_105150" data-name="Trazado 105150" d="M94.815,84.044H43.331a1.581,1.581,0,1,1,0-3.161H94.815a1.581,1.581,0,0,1,0,3.161Z" transform="translate(-41.75 -80.883)" fill="#596c76"/>
      <path id="Trazado_105151" data-name="Trazado 105151" d="M86.536,92.447H53.594a1.581,1.581,0,1,1,0-3.161H86.536a1.581,1.581,0,0,1,0,3.161Z" transform="translate(-42.743 -81.696)" fill="#596c76"/>
      <path id="Trazado_105152" data-name="Trazado 105152" d="M94.815,100.851H43.331a1.581,1.581,0,1,1,0-3.161H94.815a1.581,1.581,0,0,1,0,3.161Z" transform="translate(-41.75 -82.509)" fill="#596c76"/>
      <path id="Trazado_105153" data-name="Trazado 105153" d="M86.536,109.255H53.594a1.581,1.581,0,0,1,0-3.161H86.536a1.581,1.581,0,0,1,0,3.161Z" transform="translate(-42.743 -83.323)" fill="#596c76"/>
      <path id="Trazado_105154" data-name="Trazado 105154" d="M94.815,117.661H43.331a1.581,1.581,0,1,1,0-3.161H94.815a1.581,1.581,0,0,1,0,3.161Z" transform="translate(-41.75 -84.136)" fill="#596c76"/>
    </g>
  </g>
</svg>
