<svg xmlns="http://www.w3.org/2000/svg" width="85" height="89.75" viewBox="0 0 85 89.75">
  <g id="Grupo_55125" data-name="Grupo 55125" transform="translate(-180 -3146.25)">
    <circle id="Elipse_4141" data-name="Elipse 4141" cx="42.5" cy="42.5" r="42.5" transform="translate(180 3151)" fill="#26c6da"/>
    <g id="Check_list" data-name="Check list" transform="translate(186.262 3144.249)">
      <path id="Trazado_104481" data-name="Trazado 104481" d="M46.038,11.65H56.5V55.826l-9.3,9.3H14.65V11.65H25.113V7H10V69.776H61.151V7H46.038Z" transform="translate(0.163 0.813)" fill="#58595b"/>
      <path id="Trazado_104482" data-name="Trazado 104482" d="M55.85,11V55.176h-9.3v9.3H14V11H55.85Z" transform="translate(0.813 1.463)" fill="#e4d1bc"/>
      <path id="Trazado_104483" data-name="Trazado 104483" d="M54.875,27V52.575h-9.3v9.3H20A34.858,34.858,0,0,0,54.875,27Z" transform="translate(1.788 4.063)" fill="#d9ccbc"/>
      <path id="Trazado_104484" data-name="Trazado 104484" d="M22.65,23.325,18,21V32.625l9.3,4.813V25.65Z" transform="translate(1.463 3.088)" fill="#8b5e3c"/>
      <path id="Trazado_104485" data-name="Trazado 104485" d="M26,25.65V37.438l9.3-4.7V21Z" transform="translate(2.763 3.088)" fill="#c49a6c"/>
      <path id="Trazado_104486" data-name="Trazado 104486" d="M27.3,17,18,21.65l4.65,2.325L27.3,26.3l9.3-4.65Z" transform="translate(1.463 2.438)" fill="#a97c50"/>
      <path id="Trazado_104487" data-name="Trazado 104487" d="M42,58.3,51.3,49H42Z" transform="translate(5.363 7.638)" fill="#ffa733"/>
      <path id="Trazado_104488" data-name="Trazado 104488" d="M18,43v9.3h9.3V43Z" transform="translate(1.463 6.663)" fill="#c3fb40"/>
      <path id="Trazado_104489" data-name="Trazado 104489" d="M23,14.625H43.925v-9.3H36.741a3.474,3.474,0,0,0-6.557,0H23Z" transform="translate(2.275 0.162)" fill="#e6e7e8"/>
      <path id="Trazado_104490" data-name="Trazado 104490" d="M20,61.875A34.858,34.858,0,0,0,54.875,27" transform="translate(1.788 4.063)" fill="none"/>
      <path id="Trazado_104491" data-name="Trazado 104491" d="M17,21.813V33.438a1.163,1.163,0,0,0,.628,1.032l9.3,4.812a1.148,1.148,0,0,0,.535.131,1.162,1.162,0,0,0,.524-.126l9.3-4.7a1.163,1.163,0,0,0,.638-1.037V21.813a1.163,1.163,0,0,0-.643-1.04l-9.3-4.65a1.163,1.163,0,0,0-1.039,0l-9.3,4.65A1.163,1.163,0,0,0,17,21.813Zm2.325,1.881,2.325,1.163v3.932h2.325V26.019L26.3,27.181v9.163l-6.975-3.6Zm9.3,12.671V27.181L35.6,23.694v9.144Zm-1.163-17.9,6.7,3.35-6.7,3.35-2.051-1.025,2.57-1.279-1.039-2.081-4.13,2.06-2.051-1.025Z" transform="translate(1.3 2.275)"/>
      <path id="Trazado_104492" data-name="Trazado 104492" d="M38.163,23.325h9.3a1.163,1.163,0,0,0,0-2.325h-9.3a1.163,1.163,0,0,0,0,2.325Z" transform="translate(4.55 3.088)"/>
      <path id="Trazado_104493" data-name="Trazado 104493" d="M38.163,27.325h9.3a1.163,1.163,0,0,0,0-2.325h-9.3a1.163,1.163,0,1,0,0,2.325Z" transform="translate(4.55 3.738)"/>
      <path id="Trazado_104494" data-name="Trazado 104494" d="M38.163,31.325h9.3a1.163,1.163,0,0,0,0-2.325h-9.3a1.163,1.163,0,1,0,0,2.325Z" transform="translate(4.55 4.388)"/>
      <path id="Trazado_104495" data-name="Trazado 104495" d="M61.313,6.65H47.363V5.487A1.163,1.163,0,0,0,46.2,4.325H39.761a4.644,4.644,0,0,0-8.047,0H25.275a1.163,1.163,0,0,0-1.163,1.163V6.65H10.163A1.163,1.163,0,0,0,9,7.813V70.588a1.163,1.163,0,0,0,1.163,1.163H61.313a1.163,1.163,0,0,0,1.163-1.163V7.813A1.163,1.163,0,0,0,61.313,6.65Zm-34.875,0H32.46a1.162,1.162,0,0,0,1.1-.786,2.311,2.311,0,0,1,4.357,0,1.163,1.163,0,0,0,1.1.786h6.022v6.975h-18.6Zm-1.163,9.3H46.2a1.163,1.163,0,0,0,1.163-1.163V13.625H55.5v41.85H47.363A1.163,1.163,0,0,0,46.2,56.638v8.138H15.975V13.625h8.138v1.163A1.163,1.163,0,0,0,25.275,15.95ZM53.857,57.8l-5.331,5.331V57.8Zm6.294,11.625H11.325V8.975H24.113V11.3h-9.3a1.163,1.163,0,0,0-1.163,1.163V65.938A1.163,1.163,0,0,0,14.813,67.1h32.55a1.162,1.162,0,0,0,.822-.34l9.3-9.3a1.163,1.163,0,0,0,.341-.822V12.463A1.163,1.163,0,0,0,56.663,11.3h-9.3V8.975H60.151Z"/>
      <path id="Trazado_104496" data-name="Trazado 104496" d="M31.415,42.233l-2.79,2.093V43.163A1.163,1.163,0,0,0,27.463,42h-9.3A1.163,1.163,0,0,0,17,43.163v9.3a1.163,1.163,0,0,0,1.163,1.163h9.3a1.163,1.163,0,0,0,1.163-1.163V47.231l4.185-3.139a1.163,1.163,0,0,0-1.4-1.86ZM26.3,51.3H19.325V44.325H26.3v1.744L22.922,48.6l-1.612-1.612a1.162,1.162,0,1,0-1.644,1.644l2.325,2.325a1.163,1.163,0,0,0,1.519.108l2.79-2.093Z" transform="translate(1.3 6.5)"/>
      <path id="Trazado_104497" data-name="Trazado 104497" d="M33.163,45.325h1.163a1.163,1.163,0,0,0,0-2.325H33.163a1.163,1.163,0,1,0,0,2.325Z" transform="translate(3.738 6.663)"/>
      <path id="Trazado_104498" data-name="Trazado 104498" d="M37.163,45.325h9.3a1.163,1.163,0,0,0,0-2.325h-9.3a1.163,1.163,0,1,0,0,2.325Z" transform="translate(4.388 6.663)"/>
      <path id="Trazado_104499" data-name="Trazado 104499" d="M40.138,46H33.163a1.163,1.163,0,1,0,0,2.325h6.975a1.163,1.163,0,0,0,0-2.325Z" transform="translate(3.738 7.151)"/>
      <path id="Trazado_104500" data-name="Trazado 104500" d="M37.813,50h-4.65a1.163,1.163,0,1,0,0,2.325h4.65a1.163,1.163,0,1,0,0-2.325Z" transform="translate(3.738 7.801)"/>
    </g>
  </g>
</svg>
