<svg xmlns="http://www.w3.org/2000/svg" width="820" height="182.045" viewBox="0 0 820 182.045">
  <g id="Grupo_56175" data-name="Grupo 56175" transform="translate(-390 -1278.667)">
    <path id="Trazado_108150" data-name="Trazado 108150" d="M11.871-7.242H5.4v4.078h7.641V0H1.289V-17.062H13.066v3.176H5.4v3.6h6.469Zm7.8-1.945,1.84-3.492h4.1L22.277-6.5l3.5,6.5H21.656L19.664-3.75,17.707,0H13.559l3.516-6.5L13.746-12.68h4.148ZM30.75-11.32a3.952,3.952,0,0,1,3.234-1.594,3.941,3.941,0,0,1,3.164,1.242A5.582,5.582,0,0,1,38.238-8V0H34.277V-7.91a2.232,2.232,0,0,0-.41-1.482,1.762,1.762,0,0,0-1.395-.475,1.9,1.9,0,0,0-1.723.773V0H26.8V-18H30.75ZM44.6,0H40.641V-12.68H44.6Zm-4.2-15.961a1.778,1.778,0,0,1,.609-1.391,2.29,2.29,0,0,1,1.582-.542,2.29,2.29,0,0,1,1.582.542,1.778,1.778,0,0,1,.609,1.391,1.778,1.778,0,0,1-.609,1.391,2.29,2.29,0,0,1-1.582.542,2.29,2.29,0,0,1-1.582-.542A1.778,1.778,0,0,1,40.406-15.961ZM58.8-6.234a7.728,7.728,0,0,1-1.289,4.793A4.318,4.318,0,0,1,53.883.234,3.747,3.747,0,0,1,50.766-1.3L50.6,0H47.063V-18h3.949v6.34a3.615,3.615,0,0,1,2.848-1.254,4.319,4.319,0,0,1,3.656,1.7A7.768,7.768,0,0,1,58.8-6.434Zm-3.961-.252a5.155,5.155,0,0,0-.486-2.6,1.639,1.639,0,0,0-1.494-.778,1.891,1.891,0,0,0-1.852,1.018v5.031a1.9,1.9,0,0,0,1.875,1.006,1.677,1.677,0,0,0,1.77-1.357A9.745,9.745,0,0,0,54.844-6.486ZM64.711,0H60.75V-12.68h3.961Zm-4.2-15.961a1.778,1.778,0,0,1,.609-1.391,2.29,2.29,0,0,1,1.582-.542,2.29,2.29,0,0,1,1.582.542,1.778,1.778,0,0,1,.609,1.391,1.778,1.778,0,0,1-.609,1.391,2.29,2.29,0,0,1-1.582.542,2.29,2.29,0,0,1-1.582-.542A1.778,1.778,0,0,1,60.516-15.961ZM72.5-2.812a1.756,1.756,0,0,0,1.289-.451,1.654,1.654,0,0,0,.445-1.26h3.7A4.384,4.384,0,0,1,76.447-1.1,5.558,5.558,0,0,1,72.6.234,5.627,5.627,0,0,1,68.238-1.5a6.834,6.834,0,0,1-1.594-4.8v-.164a7.723,7.723,0,0,1,.709-3.393A5.162,5.162,0,0,1,69.4-12.123a6.1,6.1,0,0,1,3.164-.791,5.488,5.488,0,0,1,3.926,1.371,4.863,4.863,0,0,1,1.453,3.715h-3.7a2.168,2.168,0,0,0-.48-1.512,1.658,1.658,0,0,0-1.289-.527q-1.535,0-1.793,1.957A13.809,13.809,0,0,0,70.594-6.2a5.424,5.424,0,0,0,.457,2.648A1.582,1.582,0,0,0,72.5-2.812ZM83.777,0H79.816V-12.68h3.961Zm-4.2-15.961a1.778,1.778,0,0,1,.609-1.391,2.29,2.29,0,0,1,1.582-.542,2.29,2.29,0,0,1,1.582.542,1.778,1.778,0,0,1,.609,1.391,1.778,1.778,0,0,1-.609,1.391,2.29,2.29,0,0,1-1.582.542,2.29,2.29,0,0,1-1.582-.542A1.778,1.778,0,0,1,79.582-15.961Zm6.129,9.5a7.484,7.484,0,0,1,.738-3.381,5.28,5.28,0,0,1,2.121-2.279,6.388,6.388,0,0,1,3.246-.8A5.83,5.83,0,0,1,96.3-11.15a6.768,6.768,0,0,1,1.641,4.8v.141A6.566,6.566,0,0,1,96.3-1.506,5.846,5.846,0,0,1,91.84.234a5.912,5.912,0,0,1-4.348-1.623,6.348,6.348,0,0,1-1.77-4.4Zm3.949.246a4.718,4.718,0,0,0,.551,2.578,1.835,1.835,0,0,0,1.629.82q2.109,0,2.156-3.246v-.4q0-3.41-2.18-3.41-1.98,0-2.145,2.941ZM92.355-18h4.172L93.27-14.32l-3.223-.006Zm10.957,5.32.129,1.488a4.3,4.3,0,0,1,3.621-1.723,3.618,3.618,0,0,1,2.959,1.184,5.635,5.635,0,0,1,1.014,3.563V0h-3.961V-8a2.14,2.14,0,0,0-.387-1.412,1.789,1.789,0,0,0-1.406-.451,1.883,1.883,0,0,0-1.723.914V0H99.609V-12.68Z" transform="translate(468 1402)" fill="#12263f"/>
    <path id="Trazado_108149" data-name="Trazado 108149" d="M5.4-5.789V0H1.289V-17.062H8.1a7.93,7.93,0,0,1,3.463.721,5.431,5.431,0,0,1,2.332,2.051,5.6,5.6,0,0,1,.826,3.018,4.937,4.937,0,0,1-1.787,3.99,7.415,7.415,0,0,1-4.9,1.494Zm0-3.176H8.1a2.542,2.542,0,0,0,1.822-.6,2.221,2.221,0,0,0,.627-1.687A2.745,2.745,0,0,0,9.9-13.16a2.282,2.282,0,0,0-1.758-.727H5.4Zm19-.141L23.1-9.2a2.336,2.336,0,0,0-2.391,1.172V0H16.758V-12.68h3.7l.129,1.629a3.058,3.058,0,0,1,2.777-1.863,3.851,3.851,0,0,1,1.1.141Zm.5,2.648a7.484,7.484,0,0,1,.738-3.381,5.28,5.28,0,0,1,2.121-2.279,6.388,6.388,0,0,1,3.246-.8A5.83,5.83,0,0,1,35.5-11.15a6.768,6.768,0,0,1,1.641,4.8v.141A6.566,6.566,0,0,1,35.49-1.506,5.846,5.846,0,0,1,31.031.234a5.912,5.912,0,0,1-4.348-1.623,6.348,6.348,0,0,1-1.77-4.4Zm3.949.246A4.718,4.718,0,0,0,29.4-3.633a1.835,1.835,0,0,0,1.629.82q2.109,0,2.156-3.246v-.4q0-3.41-2.18-3.41-1.98,0-2.145,2.941ZM42.609-12.68l.129,1.488a4.36,4.36,0,0,1,3.621-1.723A3.21,3.21,0,0,1,49.605-11a4.22,4.22,0,0,1,3.727-1.91q3.855,0,3.961,4.664V0H53.332V-8A2.417,2.417,0,0,0,53-9.422a1.4,1.4,0,0,0-1.2-.445,1.871,1.871,0,0,0-1.746,1.043l.012.164V0H46.113V-7.98A2.541,2.541,0,0,0,45.8-9.422a1.393,1.393,0,0,0-1.207-.445,1.894,1.894,0,0,0-1.734,1.043V0H38.906V-12.68ZM59.051-6.457a7.484,7.484,0,0,1,.738-3.381,5.28,5.28,0,0,1,2.121-2.279,6.388,6.388,0,0,1,3.246-.8,5.83,5.83,0,0,1,4.488,1.764,6.768,6.768,0,0,1,1.641,4.8v.141a6.566,6.566,0,0,1-1.646,4.705A5.846,5.846,0,0,1,65.18.234a5.912,5.912,0,0,1-4.348-1.623,6.348,6.348,0,0,1-1.77-4.4ZM63-6.211a4.718,4.718,0,0,0,.551,2.578,1.835,1.835,0,0,0,1.629.82q2.109,0,2.156-3.246v-.4q0-3.41-2.18-3.41-1.98,0-2.145,2.941Zm15.387,3.4a1.756,1.756,0,0,0,1.289-.451,1.654,1.654,0,0,0,.445-1.26h3.7A4.384,4.384,0,0,1,82.33-1.1,5.558,5.558,0,0,1,78.48.234,5.627,5.627,0,0,1,74.121-1.5a6.834,6.834,0,0,1-1.594-4.8v-.164a7.723,7.723,0,0,1,.709-3.393,5.162,5.162,0,0,1,2.045-2.262,6.1,6.1,0,0,1,3.164-.791,5.488,5.488,0,0,1,3.926,1.371,4.863,4.863,0,0,1,1.453,3.715h-3.7a2.168,2.168,0,0,0-.48-1.512,1.658,1.658,0,0,0-1.289-.527q-1.535,0-1.793,1.957A13.809,13.809,0,0,0,76.477-6.2a5.424,5.424,0,0,0,.457,2.648A1.582,1.582,0,0,0,78.387-2.812ZM89.66,0H85.7V-12.68H89.66Zm-4.2-15.961a1.778,1.778,0,0,1,.609-1.391,2.29,2.29,0,0,1,1.582-.542,2.29,2.29,0,0,1,1.582.542,1.778,1.778,0,0,1,.609,1.391,1.778,1.778,0,0,1-.609,1.391,2.29,2.29,0,0,1-1.582.542,2.29,2.29,0,0,1-1.582-.542A1.778,1.778,0,0,1,85.465-15.961Zm6.129,9.5a7.484,7.484,0,0,1,.738-3.381,5.28,5.28,0,0,1,2.121-2.279,6.388,6.388,0,0,1,3.246-.8,5.83,5.83,0,0,1,4.488,1.764,6.768,6.768,0,0,1,1.641,4.8v.141a6.566,6.566,0,0,1-1.646,4.705A5.846,5.846,0,0,1,97.723.234a5.912,5.912,0,0,1-4.348-1.623,6.348,6.348,0,0,1-1.77-4.4Zm3.949.246a4.718,4.718,0,0,0,.551,2.578,1.835,1.835,0,0,0,1.629.82q2.109,0,2.156-3.246v-.4q0-3.41-2.18-3.41-1.98,0-2.145,2.941ZM98.238-18h4.172l-3.258,3.68-3.223-.006ZM109.2-12.68l.129,1.488a4.3,4.3,0,0,1,3.621-1.723A3.618,3.618,0,0,1,115.9-11.73a5.635,5.635,0,0,1,1.014,3.563V0h-3.961V-8a2.14,2.14,0,0,0-.387-1.412,1.789,1.789,0,0,0-1.406-.451,1.883,1.883,0,0,0-1.723.914V0h-3.949V-12.68Z" transform="translate(761 1402)" fill="#12263f"/>
    <path id="Trazado_108151" data-name="Trazado 108151" d="M7.91-4.641l3.4-12.422H15.9L10.16,0H5.66l-5.7-17.062H4.523ZM22.582.234a6.518,6.518,0,0,1-4.723-1.74,6.009,6.009,0,0,1-1.8-4.529v-.328A7.787,7.787,0,0,1,16.775-9.8a5.274,5.274,0,0,1,2.1-2.3,6.35,6.35,0,0,1,3.281-.814,5.489,5.489,0,0,1,4.219,1.658,6.516,6.516,0,0,1,1.547,4.623V-5.1H20.074A2.846,2.846,0,0,0,21-3.422a2.755,2.755,0,0,0,1.852.609,3.549,3.549,0,0,0,2.93-1.312l1.8,2.133A5.045,5.045,0,0,1,25.494-.369,7.069,7.069,0,0,1,22.582.234Zm-.445-10.1q-1.734,0-2.062,2.3h3.984v-.3a1.956,1.956,0,0,0-.48-1.471A1.912,1.912,0,0,0,22.137-9.867Zm11-2.812.129,1.488a4.3,4.3,0,0,1,3.621-1.723A3.618,3.618,0,0,1,39.85-11.73a5.635,5.635,0,0,1,1.014,3.563V0H36.9V-8a2.14,2.14,0,0,0-.387-1.412,1.789,1.789,0,0,0-1.406-.451,1.883,1.883,0,0,0-1.723.914V0H29.438V-12.68Zm14.508-3.152v3.152h2.086v2.742H47.648v5.8a1.481,1.481,0,0,0,.258,1,1.383,1.383,0,0,0,1.02.281,5.793,5.793,0,0,0,.984-.07V-.105a7.288,7.288,0,0,1-2.227.34,4.137,4.137,0,0,1-3.012-.961A3.939,3.939,0,0,1,43.7-3.645V-9.937H42.082V-12.68H43.7v-3.152ZM58.43,0a4.459,4.459,0,0,1-.375-1.137A3.672,3.672,0,0,1,55.008.234,4.5,4.5,0,0,1,51.961-.85a3.45,3.45,0,0,1-1.254-2.725A3.546,3.546,0,0,1,52.23-6.691a7.761,7.761,0,0,1,4.43-1.055h1.219v-.671q0-1.755-1.512-1.755a1.236,1.236,0,0,0-1.406,1.39H51.012a3.54,3.54,0,0,1,1.564-2.985,6.575,6.575,0,0,1,3.99-1.147A5.764,5.764,0,0,1,60.4-11.73,4.115,4.115,0,0,1,61.84-8.484v5.613A5.748,5.748,0,0,0,62.379-.2V0ZM55.957-2.578a2.2,2.2,0,0,0,1.225-.316,1.983,1.983,0,0,0,.7-.715V-5.637H56.73q-2.062,0-2.062,1.852a1.131,1.131,0,0,0,.363.873A1.315,1.315,0,0,0,55.957-2.578Z" transform="translate(1046 1402)" fill="#12263f"/>
    <g id="Grupo_55112" data-name="Grupo 55112" transform="translate(366.465 1178.642)">
      <g id="Grupo_55106" data-name="Grupo 55106" transform="translate(324.689 100.025)">
        <path id="Trazado_104380" data-name="Trazado 104380" d="M444.114,275.4h-229.6c-15.382,0-27.9-11.659-27.9-25.991V119.351c0-14.333,12.513-25.993,27.9-25.993h229.6v34.1H423.853c-9.874,0-17.909,7.485-17.909,16.685v79.826c0,9.2,8.035,16.685,17.909,16.685h20.261ZM214.513,98.52c-12.326,0-22.355,9.345-22.355,20.831v130.06c0,11.485,10.029,20.83,22.355,20.83H438.574V245.815H423.853c-12.928,0-23.449-9.8-23.449-21.846V144.143c0-12.046,10.52-21.846,23.449-21.846h14.721V98.52Z" transform="translate(-186.618 -93.358)" fill="#f57c00"/>
      </g>
      <g id="Grupo_55107" data-name="Grupo 55107" transform="translate(603.168 100.025)">
        <path id="Trazado_104381" data-name="Trazado 104381" d="M577.789,275.4H365.315c-15.381,0-27.893-11.659-27.893-25.991V119.351c0-14.333,12.513-25.993,27.893-25.993H577.789ZM365.315,98.52c-12.326,0-22.354,9.345-22.354,20.831v130.06c0,11.485,10.027,20.83,22.354,20.83H572.249V98.52Z" transform="translate(-337.422 -93.358)" fill="#26c6da"/>
      </g>
      <g id="Grupo_55108" data-name="Grupo 55108" transform="translate(23.535 146.393)">
        <path id="Trazado_104382" data-name="Trazado 104382" d="M68.833,124.244v89.072H38.8V146.895H23.535V124.244Z" transform="translate(-23.535 -124.244)" fill="#fdd835"/>
      </g>
      <g id="Grupo_55109" data-name="Grupo 55109" transform="translate(47.447 100.025)">
        <path id="Trazado_104383" data-name="Trazado 104383" d="M293.982,275.4H64.381c-15.382,0-27.9-11.659-27.9-25.991V119.351c0-14.333,12.515-25.993,27.9-25.993h229.6v34.1H273.719c-9.874,0-17.907,7.485-17.907,16.685v79.826c0,9.2,8.033,16.685,17.907,16.685h20.263ZM64.381,98.52c-12.328,0-22.357,9.345-22.357,20.831v130.06c0,11.485,10.029,20.83,22.357,20.83H288.442V245.815H273.719c-12.928,0-23.447-9.8-23.447-21.846V144.143c0-12.046,10.518-21.846,23.447-21.846h14.723V98.52Z" transform="translate(-36.484 -93.358)" fill="#fdd835"/>
      </g>
      <g id="Grupo_55110" data-name="Grupo 55110" transform="translate(279.013 144.358)">
        <path id="Trazado_104384" data-name="Trazado 104384" d="M238.483,190.963v23.286H167.1V195.8l32.192-29.775a26.548,26.548,0,0,0,5.6-6.744,12.189,12.189,0,0,0,1.4-5.472,6.329,6.329,0,0,0-2.227-5.152q-2.227-1.845-6.426-1.847A14.463,14.463,0,0,0,190,148.973a14.184,14.184,0,0,0-5.472,6.109l-22.649-11.325a37.135,37.135,0,0,1,14.888-15.078q9.795-5.537,23.668-5.536a47.774,47.774,0,0,1,18.7,3.435,29.24,29.24,0,0,1,12.725,9.8,24.414,24.414,0,0,1,4.581,14.633,31.2,31.2,0,0,1-3.119,13.807q-3.119,6.426-12.151,14.57l-12.725,11.578Z" transform="translate(-161.883 -123.142)" fill="#f57c00"/>
      </g>
      <g id="Grupo_55111" data-name="Grupo 55111" transform="translate(557.998 146.393)">
        <path id="Trazado_104385" data-name="Trazado 104385" d="M383.264,168.716a24.416,24.416,0,0,1,5.534,16.1,27.445,27.445,0,0,1-4.389,14.952q-4.39,6.936-13.552,11.259t-22.776,4.327a88.12,88.12,0,0,1-18.769-2.035,58.413,58.413,0,0,1-16.35-5.981l10.179-22.141a47.07,47.07,0,0,0,11.77,4.836,47.725,47.725,0,0,0,12.155,1.655,17.137,17.137,0,0,0,8.395-1.782,5.567,5.567,0,0,0,3.182-5.089q0-6.108-10.561-6.109H336.247v-18.45l13.107-13.36H317.542V124.244h66.421v18.45l-16.542,16.8Q377.729,162.039,383.264,168.716Z" transform="translate(-312.961 -124.244)" fill="#26c6da"/>
      </g>
    </g>
    <g id="en-exhibicion-de-la-tienda" transform="translate(472.221 1322.174)">
      <path id="Trazado_104430" data-name="Trazado 104430" d="M48.619,0H46.387a1.161,1.161,0,0,0-1.16,1.16v4.7H31.555a6.3,6.3,0,0,0-.718-.915l.508-1.017a1.419,1.419,0,0,0-1.269-2.053H22.481a1.419,1.419,0,0,0-1.269,2.053l.509,1.018A6.315,6.315,0,0,0,21,5.858H7.331V1.16A1.161,1.161,0,0,0,6.171,0H3.939a1.161,1.161,0,0,0-1.16,1.16v45.2a1.161,1.161,0,0,0,1.16,1.16H6.171a1.161,1.161,0,0,0,1.16-1.16V44.633h37.9v1.723a1.161,1.161,0,0,0,1.16,1.16h2.232a1.161,1.161,0,0,0,1.16-1.16V1.16A1.161,1.161,0,0,0,48.619,0ZM30.581,33.2h1.171v4.432H30.581Zm7.689-1.856h1.171v6.288H38.27ZM42,37.631H40.833V33.2H42ZM30.581,40.08V39.023h1.171V40.08Zm2.563,0V39.023h1.171V40.08Zm2.563,0V39.023h1.171V40.08Zm2.563,0V39.023h1.171V40.08Zm-1.392-2.449H35.707V31.343h1.171Zm-2.563,0H33.144V33.2h1.171Zm-5.126,0H28.018V33.2h1.171Zm-1.171,1.392h1.171V40.08H28.018ZM40.833,40.08V39.023H42V40.08ZM43.4,32.967a1.161,1.161,0,0,0-1.16-1.16h-1.4v-.7a1.161,1.161,0,0,0-1.16-1.16H38.038a1.153,1.153,0,0,0-.464.1,1.153,1.153,0,0,0-.464-.1H35.475a1.161,1.161,0,0,0-1.16,1.16v.7h-1.4a1.152,1.152,0,0,0-.464.1,1.153,1.153,0,0,0-.464-.1H30.349a1.153,1.153,0,0,0-.464.1,1.153,1.153,0,0,0-.464-.1H27.786a1.161,1.161,0,0,0-1.16,1.16V40.08H25.2V36.253a.7.7,0,0,0-1.392,0V40.08H22.039V13.862a6.289,6.289,0,0,0,1.768,1.147V32.969a.7.7,0,0,0,1.392,0V28.45H45.227V40.08H43.4ZM18.015,36.088V39.9a.184.184,0,0,1-.183.183H16.063a.184.184,0,0,1-.184-.183V36.088a.184.184,0,0,1,.184-.183h1.768A.184.184,0,0,1,18.015,36.088Zm1.326-.448a.7.7,0,0,0-.545-1.128H15.1a.7.7,0,0,0-.545,1.128,1.569,1.569,0,0,0-.066.448V39.9a1.58,1.58,0,0,0,.012.184H13.466a1.578,1.578,0,0,0,.012-.184V36.088a1.568,1.568,0,0,0-.066-.448.7.7,0,0,0-.545-1.128H9.17a.7.7,0,0,0-.545,1.128,1.569,1.569,0,0,0-.066.448V39.9a1.58,1.58,0,0,0,.012.184H7.331V33.554H20.646V40.08H19.395a1.577,1.577,0,0,0,.012-.184V36.088A1.569,1.569,0,0,0,19.341,35.641Zm-7.255.448V39.9a.184.184,0,0,1-.183.183H10.134A.184.184,0,0,1,9.95,39.9V36.088a.184.184,0,0,1,.183-.183H11.9A.184.184,0,0,1,12.086,36.088Zm0-20.313v3.808a.184.184,0,0,1-.183.183H10.134a.184.184,0,0,1-.183-.183V15.776a.184.184,0,0,1,.183-.183H11.9A.184.184,0,0,1,12.086,15.776Zm8.561,5.384V22h-4.6a.7.7,0,1,0,0,1.392h4.6v6.536H19.395a1.579,1.579,0,0,0,.012-.184V25.937a1.568,1.568,0,0,0-.066-.448.7.7,0,0,0-.545-1.128H15.1a.7.7,0,0,0-.545,1.128,1.569,1.569,0,0,0-.066.448v3.808a1.578,1.578,0,0,0,.012.184H13.466a1.579,1.579,0,0,0,.012-.184V25.937a1.568,1.568,0,0,0-.066-.448.7.7,0,0,0-.545-1.128H9.17a.7.7,0,0,0-.545,1.128,1.569,1.569,0,0,0-.066.448v3.808a1.579,1.579,0,0,0,.012.184H7.331V23.393h5.433a.7.7,0,1,0,0-1.392H7.331V21.16Zm-2.632-5.384v3.808a.184.184,0,0,1-.183.183H16.063a.184.184,0,0,1-.184-.183V15.776a.184.184,0,0,1,.184-.183h1.768A.184.184,0,0,1,18.015,15.776Zm0,10.161v3.808a.184.184,0,0,1-.183.183H16.063a.184.184,0,0,1-.184-.183V25.937a.184.184,0,0,1,.184-.183h1.768A.184.184,0,0,1,18.015,25.937Zm-5.929,0v3.808a.184.184,0,0,1-.183.183H10.134a.184.184,0,0,1-.183-.183V25.937a.184.184,0,0,1,.183-.183H11.9A.184.184,0,0,1,12.086,25.937ZM7.331,31.321H20.646v.841H7.331ZM20.646,19.768H19.395a1.579,1.579,0,0,0,.012-.184V15.776a1.569,1.569,0,0,0-.066-.448A.7.7,0,0,0,18.8,14.2H15.1a.7.7,0,0,0-.545,1.128,1.569,1.569,0,0,0-.066.448v3.808a1.579,1.579,0,0,0,.012.184H13.466a1.579,1.579,0,0,0,.012-.184V15.776a1.569,1.569,0,0,0-.066-.448.7.7,0,0,0-.545-1.128H9.17a.7.7,0,0,0-.545,1.128,1.569,1.569,0,0,0-.066.448v3.808a1.579,1.579,0,0,0,.012.184H7.331V13.195H20.646Zm10.5-6.573h14.08V24.826H44.162V20.573a1.254,1.254,0,0,0-1.253-1.253H28.028a1.254,1.254,0,0,0-1.253,1.253v4.252H25.2v-9.4a6.249,6.249,0,0,0,5.948-2.228ZM25.2,26.218H45.227v.84H25.2Zm11.123-5.505-4.1,4.113H30.284L34.4,20.712Zm3.479,0-4.113,4.113h-1.5c.412-.413,3.107-3.115,4.105-4.113Zm2.969,0v4.113H37.656l4.113-4.113ZM28.315,24.826h-.147V20.712h4.261ZM45.227,7.251V11.8H32a6.274,6.274,0,0,0,.222-4.552ZM22.739,6.979a.7.7,0,0,0,1.245-.623L22.458,3.3a.027.027,0,0,1,.024-.039h7.595A.027.027,0,0,1,30.1,3.3L26.3,10.9c-.005.01-.007.015-.024.015s-.019,0-.024-.015l-.8-1.6a.7.7,0,0,0-1.245.623l.8,1.6a1.419,1.419,0,0,0,2.538,0l2.614-5.228a4.833,4.833,0,0,1,1,2.955A4.878,4.878,0,1,1,22.4,6.295Zm-2.405.271a6.268,6.268,0,0,0,.221,4.552H7.331V7.251ZM5.939,46.124H4.171V1.392H5.939Zm39.287-4.651v1.768H7.331V41.472Zm3.16,4.651H46.619V1.392h1.768Z" transform="translate(-4)" fill="#12263f"/>
    </g>
    <g id="promocion" transform="translate(760.965 1323.288)">
      <path id="Trazado_104431" data-name="Trazado 104431" d="M123.4,291.362a.958.958,0,1,0-1.308-.351A.958.958,0,0,0,123.4,291.362Zm0,0" transform="translate(-110.283 -261.842)" fill="#12263f"/>
      <path id="Trazado_104432" data-name="Trazado 104432" d="M9.193,56.345,14.016,64.7a3.831,3.831,0,1,0,6.635-3.831l-2.873-4.977,2.488-1.437a.958.958,0,0,0,.351-1.308l-1.245-2.157,18.344-3.6a2.873,2.873,0,0,0,2.329-4.3l-3.183-5.513,2.034-3.081a.958.958,0,0,0,.03-1.007L37.01,30.168a.96.96,0,0,0-.887-.477l-3.685.221L28.9,23.792a2.848,2.848,0,0,0-2.452-1.436h-.037A2.848,2.848,0,0,0,24,23.68L11.486,39.618l-8.134,4.7a6.7,6.7,0,0,0,5.84,12.031Zm9.8,5.482a1.915,1.915,0,0,1-3.318,1.915l-4.789-8.3L14.2,53.531l4.789,8.3ZM16.82,54.232l-.958-1.659,1.659-.958.958,1.659ZM35.647,31.639l1.324,2.293-1.18,1.788-2.281-3.952ZM25.6,24.73a.957.957,0,0,1,1.647.019l11.14,19.295a.957.957,0,0,1-.806,1.436,3.516,3.516,0,0,0-.525.089L25.271,25.16c.247-.318.279-.349.328-.429ZM24,26.783,35.067,45.959,18.359,49.236l-5.08-8.8ZM2.557,52.514A4.785,4.785,0,0,1,4.31,45.973l7.465-4.31,4.789,8.294L9.1,54.267a4.794,4.794,0,0,1-6.541-1.753Zm0,0" transform="translate(0 -20.214)" fill="#12263f"/>
      <path id="Trazado_104433" data-name="Trazado 104433" d="M48.744,310.052a.958.958,0,0,0-1.308-.351l-1.659.958a.959.959,0,0,1-1.308-.351.958.958,0,0,0-1.659.958,2.877,2.877,0,0,0,3.925,1.052l1.659-.958a.958.958,0,0,0,.351-1.308Zm0,0" transform="translate(-38.594 -279.924)" fill="#12263f"/>
      <path id="Trazado_104434" data-name="Trazado 104434" d="M442.1,42.6l-5.337,2.97a.958.958,0,0,0,.932,1.674l5.336-2.97A.958.958,0,0,0,442.1,42.6Zm0,0" transform="translate(-394.492 -38.412)" fill="#12263f"/>
      <path id="Trazado_104435" data-name="Trazado 104435" d="M444.97,137.645l-3.7-.991a.958.958,0,1,0-.5,1.85l3.7.991a.958.958,0,1,0,.5-1.85Zm0,0" transform="translate(-397.917 -123.536)" fill="#12263f"/>
      <path id="Trazado_104436" data-name="Trazado 104436" d="M384.518.71l-.993,3.7a.958.958,0,1,0,1.85.5l.992-3.7a.958.958,0,1,0-1.85-.5Zm0,0" transform="translate(-346.764 0)" fill="#12263f"/>
    </g>
    <g id="compras" transform="translate(1046 1322.5)">
      <path id="Trazado_104446" data-name="Trazado 104446" d="M214.985,300.988a.992.992,0,1,0-1.4,0A.993.993,0,0,0,214.985,300.988Zm0,0" transform="translate(-192.141 -269.616)" fill="#12263f"/>
      <path id="Trazado_104447" data-name="Trazado 104447" d="M225,62.987V64.97a5.95,5.95,0,0,0,11.9,0V62.987a.992.992,0,1,0,0-1.983h-1.983a.992.992,0,0,0,0,1.983V64.97a3.967,3.967,0,0,1-7.934,0V62.987a.992.992,0,0,0,0-1.983H225a.992.992,0,1,0,0,1.983Zm0,0" transform="translate(-201.794 -54.955)" fill="#12263f"/>
      <path id="Trazado_104448" data-name="Trazado 104448" d="M11.525,46.9a.992.992,0,0,0,1.4,0l3.045-3.045A4.591,4.591,0,0,0,17.3,40.132L18.4,39.078a4.6,4.6,0,0,1,3.207-1.3H34.659a8.875,8.875,0,0,0,6.225-2.529.93.93,0,0,0,.07-.076l8.884-10.668A3.967,3.967,0,0,0,43.8,19.362l-.959.992V.991A.992.992,0,0,0,41.849,0H16.362a.992.992,0,0,0-.992.992V23.209a11.929,11.929,0,0,0-8.527,6.675A4.579,4.579,0,0,0,3.352,31.23L.292,34.275a.992.992,0,0,0,0,1.4ZM40.857,1.983V22.4l-2.87,2.967a3.984,3.984,0,0,0-3.08-1.473h-11.5a.548.548,0,0,1-.2-.043,12.815,12.815,0,0,0-4.861-.949c-.332,0-.663.012-.992.034V1.983ZM16.5,25.021a11.268,11.268,0,0,1,5.958.673,2.523,2.523,0,0,0,.947.188h11.5a1.983,1.983,0,0,1,0,3.967H26.279a.992.992,0,0,0,0,1.983h8.628a3.971,3.971,0,0,0,3.967-3.967,4.012,4.012,0,0,0-.035-.521c.207-.212,6.2-6.411,6.409-6.626.015-.016.03-.032.044-.049a1.984,1.984,0,1,1,3.027,2.564L39.464,33.867a6.9,6.9,0,0,1-4.8,1.932H21.6a6.573,6.573,0,0,0-4.584,1.851l-.437.422a4.616,4.616,0,0,0-.609-.75L9.881,31.231a4.631,4.631,0,0,0-1.094-.809,9.928,9.928,0,0,1,7.717-5.4ZM4.754,32.634a2.63,2.63,0,0,1,3.725,0l6.092,6.091a2.631,2.631,0,0,1,0,3.725l-2.345,2.345L2.4,34.979Zm0,0" fill="#12263f"/>
    </g>
  </g>
</svg>
