<svg xmlns="http://www.w3.org/2000/svg" xmlns:xlink="http://www.w3.org/1999/xlink" width="119" height="119" viewBox="0 0 119 119">
  <defs>
    <clipPath id="clip-path">
      <rect id="Rectángulo_5870" data-name="Rectángulo 5870" width="119" height="119" transform="translate(796 5210)" fill="#fff" stroke="#707070" stroke-width="1"/>
    </clipPath>
  </defs>
  <g id="Enmascarar_grupo_23" data-name="Enmascarar grupo 23" transform="translate(-796 -5210)" clip-path="url(#clip-path)">
    <g id="flat" transform="translate(789.845 5203.845)">
      <path id="Trazado_104584" data-name="Trazado 104584" d="M51.293,44.625V61.552A2.052,2.052,0,0,1,49.241,63.6H20.517a2.052,2.052,0,0,1-2.052-2.052V38.983H11.8a5.642,5.642,0,0,0-5.642,5.642v76.94a3.591,3.591,0,0,0,3.591,3.591H60.013a3.591,3.591,0,0,0,3.591-3.591V38.983H56.935A5.642,5.642,0,0,0,51.293,44.625Z" fill="#bce1ff"/>
      <path id="Trazado_104585" data-name="Trazado 104585" d="M18.466,38.983h3.078a5.129,5.129,0,0,1,5.129,5.129V63.6H20.517a2.052,2.052,0,0,1-2.052-2.052Z" fill="#8ed2ff"/>
      <path id="Trazado_104586" data-name="Trazado 104586" d="M61.552,38.983H63.6V71.81H61.552Z" fill="#8ed2ff"/>
      <path id="Trazado_104587" data-name="Trazado 104587" d="M116.246,125.155H96.959a8.72,8.72,0,0,1-8.526-10.547l.8-2.9a48.7,48.7,0,0,0,.819-22.54l-.42-2.1a72.619,72.619,0,0,1-1.411-14.24V53.99a14.875,14.875,0,0,1,.947-5.223l11.363-30.3h12.31l11.363,30.3a14.875,14.875,0,0,1,.947,5.223V73.47a72.6,72.6,0,0,1-1.171,12.99l-.8,4.38a48.7,48.7,0,0,0,1.4,23.149l.151.487a8.72,8.72,0,0,1-8.5,10.679Z" fill="#8f563b"/>
      <path id="Trazado_104588" data-name="Trazado 104588" d="M88.224,51.293h36.931V77.966H88.224Z" fill="#e13029"/>
      <path id="Trazado_104589" data-name="Trazado 104589" d="M98.483,6.155H114.9v12.31H98.483Z" fill="#e13029"/>
      <path id="Trazado_104590" data-name="Trazado 104590" d="M116.948,112.845a2.052,2.052,0,0,1-1.946-1.4l-.61-1.829a32.254,32.254,0,0,1,.651-22.151,2.052,2.052,0,0,1,3.81,1.524,28.145,28.145,0,0,0-.568,19.33l.609,1.828a2.053,2.053,0,0,1-1.947,2.7Z" fill="#a86545"/>
      <path id="Trazado_104591" data-name="Trazado 104591" d="M113.666,45.138a2.052,2.052,0,0,1-1.906-1.29l-.821-2.052a2.052,2.052,0,1,1,3.81-1.524l.821,2.052a2.052,2.052,0,0,1-1.9,2.814Z" fill="#a86545"/>
      <path id="Trazado_104592" data-name="Trazado 104592" d="M110.383,36.931a2.052,2.052,0,0,1-1.906-1.291l-1.641-4.1a2.052,2.052,0,1,1,3.81-1.524l1.641,4.1a2.052,2.052,0,0,1-1.9,2.814Z" fill="#a86545"/>
      <path id="Trazado_104593" data-name="Trazado 104593" d="M14.362,98.483a2.052,2.052,0,0,1-2.052-2.052V86.172a2.052,2.052,0,1,1,4.1,0V96.431A2.052,2.052,0,0,1,14.362,98.483Z" fill="#8ed2ff"/>
      <path id="Trazado_104594" data-name="Trazado 104594" d="M14.362,108.741a2.052,2.052,0,0,1-2.052-2.052v-2.052a2.052,2.052,0,0,1,4.1,0v2.052A2.052,2.052,0,0,1,14.362,108.741Z" fill="#8ed2ff"/>
      <path id="Trazado_104595" data-name="Trazado 104595" d="M84.121,45.138H71.81L64.292,58.671a21.774,21.774,0,0,0-2.74,10.574,2.565,2.565,0,0,0,2.565,2.565h27.7a2.565,2.565,0,0,0,2.565-2.565,21.774,21.774,0,0,0-2.74-10.574Z" fill="#bce1ff"/>
      <path id="Trazado_104596" data-name="Trazado 104596" d="M94.328,69.759a2.569,2.569,0,0,1-2.513,2.052h-27.7A2.567,2.567,0,0,1,61.6,69.759Z" fill="#bce1ff"/>
      <path id="Trazado_104597" data-name="Trazado 104597" d="M71.81,32.828h12.31a2.052,2.052,0,0,1,2.052,2.052V45.138H69.759V34.879A2.052,2.052,0,0,1,71.81,32.828Z" fill="#8ed2ff"/>
      <g id="Grupo_55190" data-name="Grupo 55190">
        <rect id="Rectángulo_5872" data-name="Rectángulo 5872" width="32.828" height="12.31" rx="2.565" transform="translate(61.552 96.431)" fill="#bce1ff"/>
        <rect id="Rectángulo_5873" data-name="Rectángulo 5873" width="32.828" height="12.31" rx="2.565" transform="translate(61.552 84.121)" fill="#bce1ff"/>
        <rect id="Rectángulo_5874" data-name="Rectángulo 5874" width="32.828" height="12.31" rx="2.565" transform="translate(61.552 71.81)" fill="#bce1ff"/>
        <path id="Trazado_104598" data-name="Trazado 104598" d="M89.25,125.155H66.681a5.129,5.129,0,0,1-5.129-5.129v-8.72a2.565,2.565,0,0,1,2.565-2.565h27.7a2.565,2.565,0,0,1,2.565,2.565v8.72A5.129,5.129,0,0,1,89.25,125.155Z" fill="#bce1ff"/>
      </g>
      <path id="Trazado_104599" data-name="Trazado 104599" d="M94.328,69.759a2.569,2.569,0,0,1-2.513,2.052h-27.7A2.567,2.567,0,0,1,61.6,69.759Z" fill="#8ed2ff"/>
      <path id="Trazado_104600" data-name="Trazado 104600" d="M94.277,82.069a2.569,2.569,0,0,1-2.513,2.052h-27.7a2.567,2.567,0,0,1-2.513-2.052Z" fill="#8ed2ff"/>
      <path id="Trazado_104601" data-name="Trazado 104601" d="M94.379,94.379a2.569,2.569,0,0,1-2.513,2.052h-27.7a2.567,2.567,0,0,1-2.513-2.052Z" fill="#8ed2ff"/>
      <path id="Trazado_104602" data-name="Trazado 104602" d="M94.379,106.69a2.569,2.569,0,0,1-2.513,2.052h-27.7a2.567,2.567,0,0,1-2.513-2.052Z" fill="#8ed2ff"/>
      <path id="Trazado_104603" data-name="Trazado 104603" d="M69.759,43.086H86.172v2.052H69.759Z" fill="#85c4ee"/>
      <path id="Trazado_104604" data-name="Trazado 104604" d="M63.6,125.155H38.983l-4.1-36.931H67.707Z" fill="#e4e4e2"/>
      <path id="Trazado_104605" data-name="Trazado 104605" d="M34.879,80.017l2.052-8.207H65.655l2.052,8.207Z" fill="#05b093"/>
      <circle id="Elipse_4142" data-name="Elipse 4142" cx="6.155" cy="6.155" r="6.155" transform="translate(45.138 98.483)" fill="#8f563b"/>
      <path id="Trazado_104606" data-name="Trazado 104606" d="M32.828,80.017H69.759v8.207H32.828Z" fill="#04957c"/>
    </g>
  </g>
</svg>
