<svg xmlns="http://www.w3.org/2000/svg" xmlns:xlink="http://www.w3.org/1999/xlink" width="119" height="119" viewBox="0 0 119 119">
  <defs>
    <clipPath id="clip-path">
      <rect id="Rectángulo_5871" data-name="Rectángulo 5871" width="119" height="119" transform="translate(958 5210)" fill="#fff" stroke="#707070" stroke-width="1"/>
    </clipPath>
  </defs>
  <g id="Enmascarar_grupo_24" data-name="Enmascarar grupo 24" transform="translate(-958 -5210)" clip-path="url(#clip-path)">
    <g id="soda" transform="translate(958 5210)">
      <path id="Trazado_104607" data-name="Trazado 104607" d="M56.063,94.793a30.705,30.705,0,0,0-6.466,4.99,26.818,26.818,0,0,0-4.155,5.342,52.476,52.476,0,0,1-6.009,7.929c-1.17,1.305-2.4,2.594-3.652,3.826a7.446,7.446,0,0,1-10.45-.043L2.166,93.735l-.007-.007a7.422,7.422,0,0,1-.053-10.414c.7-.708,1.4-1.4,2.082-2.053,1.093-1.04,2.074-1.92,2.97-2.674a51.545,51.545,0,0,1,5.749-4.2,34.522,34.522,0,0,0,6.053-4.719A34.022,34.022,0,0,0,23.944,63.6a66.522,66.522,0,0,1,7.388-9.176c1.933-2.051,3.968-4.046,6.049-5.93a1.74,1.74,0,0,1,2.4.057l25.07,25,5.787,5.771a1.751,1.751,0,0,1,.123,2.332A69,69,0,0,1,64.9,88.01,47.625,47.625,0,0,1,56.063,94.793Z" fill="#eef0f5"/>
      <path id="Trazado_104608" data-name="Trazado 104608" d="M64.9,88.01a69,69,0,0,0,5.861-6.351,1.751,1.751,0,0,0-.123-2.332l-5.787-5.771a1.752,1.752,0,0,1-.007,2.186,69,69,0,0,1-5.861,6.351,47.629,47.629,0,0,1-8.838,6.783,30.706,30.706,0,0,0-6.466,4.99,26.817,26.817,0,0,0-4.155,5.342,52.2,52.2,0,0,1-5.8,7.7,7.458,7.458,0,0,1-9.378-.917L7.258,88.964l-.007-.007A7.42,7.42,0,0,1,7.16,78.587c-.9.754-1.877,1.634-2.97,2.674-.687.654-1.387,1.345-2.082,2.053A7.422,7.422,0,0,0,2.16,93.728l.007.007,23.165,23.1a7.446,7.446,0,0,0,10.45.043c1.253-1.233,2.482-2.521,3.652-3.826a52.481,52.481,0,0,0,6.009-7.929A26.818,26.818,0,0,1,49.6,99.783a30.7,30.7,0,0,1,6.466-4.99A47.618,47.618,0,0,0,64.9,88.01ZM34.795,106.032c-.069.069-.14.136-.212.2.242-.232.431-.417.468-.452-.02.02-.1.1-.256.253Z" fill="#dae1ea"/>
      <path id="Trazado_104609" data-name="Trazado 104609" d="M112.019,23.627l0,0-5.593-5.58,0,0L95.629,7.279a1.743,1.743,0,0,0-2.5.046c-7.27,7.8-14.1,10.545-16.7,11.366-.869.274-1.768.516-2.724.771A34.672,34.672,0,0,0,62.42,24.19a32.373,32.373,0,0,0-6.781,6.1,1.745,1.745,0,0,0,.1,2.357L83.894,60.723l2.7,2.7a1.743,1.743,0,0,0,2.349.1,32.285,32.285,0,0,0,6.116-6.763A34.4,34.4,0,0,0,99.8,45.5c.256-.95.5-1.847.774-2.714.822-2.594,3.58-9.4,11.4-16.651a1.744,1.744,0,0,0,.046-2.512Z" fill="#eef0f5"/>
      <path id="Trazado_104610" data-name="Trazado 104610" d="M88.946,63.524a1.743,1.743,0,0,1-2.349-.1l-2.7-2.7L80.88,57.7a1.747,1.747,0,0,0,2.35.105,32.37,32.37,0,0,0,6.114-6.765,34.453,34.453,0,0,0,4.743-11.255c.255-.952.5-1.849.773-2.715.823-2.592,3.58-9.4,11.4-16.651a1.744,1.744,0,0,0,.169-2.375l5.593,5.58,0,0a1.743,1.743,0,0,1-.046,2.511c-7.815,7.247-10.573,14.058-11.4,16.651-.274.866-.518,1.764-.774,2.714A34.4,34.4,0,0,1,95.062,56.76,32.275,32.275,0,0,1,88.946,63.524Z" fill="#dae1ea"/>
      <path id="Trazado_104611" data-name="Trazado 104611" d="M31.81,111.029a1.746,1.746,0,0,1-2.475.01L8.021,89.724a1.746,1.746,0,0,1,.01-2.475q.481-.476.968-.939a45.549,45.549,0,0,1,6.167-5.059c.523-.358,1.031-.689,1.547-1.024a41.2,41.2,0,0,0,7.107-5.559A41.114,41.114,0,0,0,29.7,67.542a59.453,59.453,0,0,1,6.712-8.336l.077-.084A47.865,47.865,0,0,1,42.6,53.4a1.744,1.744,0,0,1,2.227.2l20.64,20.64a1.746,1.746,0,0,1,.2,2.227,47.642,47.642,0,0,1-5.726,6.108l-.082.079a59.627,59.627,0,0,1-8.336,6.712,42.113,42.113,0,0,0-12.685,12.981,45.5,45.5,0,0,1-6.086,7.717q-.461.486-.935.968Z" fill="#f79e60"/>
      <path id="Trazado_104612" data-name="Trazado 104612" d="M31.81,111.029a1.746,1.746,0,0,1-2.475.01L8.021,89.724a1.746,1.746,0,0,1,.01-2.475q.481-.476.968-.939a45.549,45.549,0,0,1,6.167-5.059,4.722,4.722,0,0,0,.511,6.073l10.9,10.9a4.725,4.725,0,0,0,7.3-.763c.008-.015.02-.03.028-.044A42.113,42.113,0,0,1,46.586,84.432a59.644,59.644,0,0,0,8.336-6.712L55,77.641a47.642,47.642,0,0,0,5.726-6.108,1.746,1.746,0,0,0-.2-2.227l4.931,4.931a1.746,1.746,0,0,1,.2,2.227,47.643,47.643,0,0,1-5.726,6.108l-.082.079a59.627,59.627,0,0,1-8.336,6.712,42.113,42.113,0,0,0-12.685,12.981,45.5,45.5,0,0,1-6.086,7.717q-.461.485-.935.968Z" fill="#d77d41"/>
      <path id="Trazado_104613" data-name="Trazado 104613" d="M83.878,58.491a1.741,1.741,0,0,1-2.357-.1l-4.928-4.924L60.869,37.76l0,0a1.745,1.745,0,0,1-.1-2.357c3.116-3.695,4.911-5.023,5.542-5.424a28.417,28.417,0,0,1,9.2-3.78c.993-.266,2.005-.539,3.013-.856a1.744,1.744,0,0,1,1.759.431,7.727,7.727,0,0,1,2.171,6.175c0,1.553.007,2.577,1.15,3.721s2.168,1.146,3.721,1.15c.432,0,.892,0,1.369.035a7.018,7.018,0,0,1,4.686,2.017,1.734,1.734,0,0,1,.559,1.867c-.317,1.008-.588,2.018-.851,2.995A28.416,28.416,0,0,1,89.3,52.949c-.408.641-1.739,2.433-5.424,5.542Z" fill="#f79e60"/>
      <path id="Trazado_104614" data-name="Trazado 104614" d="M83.878,58.491a1.741,1.741,0,0,1-2.357-.1l-4.928-4.924,0-.007a1.742,1.742,0,0,0,2.357.1c3.685-3.11,5.016-4.9,5.424-5.542A28.416,28.416,0,0,0,88.154,38.8c.171-.638.347-1.29.537-1.948a7.018,7.018,0,0,1,4.686,2.017,1.734,1.734,0,0,1,.559,1.867c-.317,1.008-.588,2.018-.851,2.995A28.416,28.416,0,0,1,89.3,52.949c-.407.641-1.739,2.432-5.424,5.542Z" fill="#d77d41"/>
      <path id="Trazado_104615" data-name="Trazado 104615" d="M117.353,25.952a5.631,5.631,0,0,1-7.939,0l-4.916-4.9L92.986,9.567l0,0a5.6,5.6,0,0,1,0-7.926,5.631,5.631,0,0,1,7.939,0l11.711,11.681,4.719,4.706,0,0a5.6,5.6,0,0,1,0,7.924Z" fill="#56788b"/>
      <path id="Trazado_104616" data-name="Trazado 104616" d="M119,21.988a5.621,5.621,0,0,1-9.586,3.964l-4.916-4.9-.015-.028a5.609,5.609,0,0,0,8.151-7.7l4.719,4.706,0,0A5.563,5.563,0,0,1,119,21.988Z" fill="#415e6f"/>
      <path id="Trazado_104617" data-name="Trazado 104617" d="M90.975,65.328,72.552,83.7a1.74,1.74,0,0,1-2.462,0l-4.922-4.909L35.406,49.111l0,0a1.742,1.742,0,0,1,0-2.467L53.829,28.268a1.743,1.743,0,0,1,2.462,0L86.157,58.055l0,0,4.814,4.8,0,0a1.746,1.746,0,0,1,0,2.467Z" fill="#ed2061"/>
      <path id="Trazado_104618" data-name="Trazado 104618" d="M91.486,64.094a1.746,1.746,0,0,1-.511,1.234L72.552,83.7a1.74,1.74,0,0,1-2.462,0l-4.922-4.909-.008-.021a1.74,1.74,0,0,0,2.462,0L86.044,60.4a1.745,1.745,0,0,0,.117-2.339l4.814,4.8,0,0a1.736,1.736,0,0,1,.509,1.233Z" fill="#c71e54"/>
      <g id="Grupo_55192" data-name="Grupo 55192">
        <path id="Trazado_104619" data-name="Trazado 104619" d="M57.746,48.1,56,46.353l3.41-1.131a1.743,1.743,0,1,0-1.1-3.309l-6.091,2.02a1.743,1.743,0,0,0-.684,2.887l1.814,1.814-3.337,1.219a1.743,1.743,0,1,0,1.2,3.275l5.9-2.157a1.743,1.743,0,0,0,.634-2.87Z" fill="#fbdf63"/>
        <g id="Grupo_55191" data-name="Grupo 55191">
          <path id="Trazado_104620" data-name="Trazado 104620" d="M64.653,53.4l11,11a1.743,1.743,0,1,0,2.465-2.465l-11-11A1.743,1.743,0,0,0,64.653,53.4Z" fill="#fff"/>
          <path id="Trazado_104621" data-name="Trazado 104621" d="M71.6,68.452l-11-11a1.743,1.743,0,1,0-2.465,2.465l11,11A1.743,1.743,0,0,0,71.6,68.452Z" fill="#fff"/>
        </g>
      </g>
    </g>
  </g>
</svg>
