<svg xmlns="http://www.w3.org/2000/svg" width="39.825" height="49.647" viewBox="0 0 39.825 49.647">
  <g id="paleta-de-color_1_" data-name="paleta-de-color (1)" transform="translate(-50.523)">
    <path id="Trazado_104703" data-name="Trazado 104703" d="M89.248,20.1l-2.683-2.968a4.255,4.255,0,0,0-1.244-5.663L81.45,8.787A4.264,4.264,0,0,0,78.771,4.67L70.21,1.256a4.223,4.223,0,0,0-3.183.014A4.243,4.243,0,0,0,64,0H54.78a4.262,4.262,0,0,0-4.257,4.257V40.782a8.86,8.86,0,0,0,14.683,6.683.74.74,0,0,0,.065-.052l16.6-14.937a.729.729,0,1,0-.975-1.084l-.684.615-2.222-2.457,3.488-5.043,3.171,3.507-1.443,1.3a.729.729,0,0,0,.975,1.084l4.767-4.29a4.257,4.257,0,0,0,.3-6.012Zm-3.6-5.632a2.78,2.78,0,0,1-.452,2.094l-1.98,2.862L78.715,16.3,81.1,10.319l3.391,2.345a2.78,2.78,0,0,1,1.161,1.8Zm-6.929,11.46L75.71,23.84l2.451-6.147,4.231,2.926Zm-4.5,6.5L72.7,31.377l2.451-6.147,2.738,1.894Zm1.122-11.616-2.113-.842a.729.729,0,0,0-.54,1.354l2.113.842-2.5,6.281-4.05-1.615v-7.28l1.543.615a.729.729,0,0,0,.54-1.354l-2.083-.831V10.7l9.6,3.827Zm-8.553-4.55H58.537a.729.729,0,1,0,0,1.458h8.258v6.762H51.981V17.72H55.43a.729.729,0,1,0,0-1.458H51.981V9.5H66.795v6.762ZM51.981,25.94H66.795V32.7H51.981ZM68.253,28.4l3.51,1.4-3.51,8.8ZM72.8,37.058l.808.894-3.779,3.4Zm-3.15,1.992,2.506-6.284,1.245.861Zm.024-36.44,8.561,3.413a2.8,2.8,0,0,1,1.739,2.97c0,.006,0,.012,0,.017a2.812,2.812,0,0,1-.173.649l-1.4,3.516L68.253,9.134V4.257a4.231,4.231,0,0,0-.374-1.741,2.777,2.777,0,0,1,1.79.095ZM54.78,1.458H64a2.8,2.8,0,0,1,2.8,2.8V8.042H51.981V4.257a2.8,2.8,0,0,1,2.8-2.8Zm-2.8,39.324V34.161H66.795v6.621a7.407,7.407,0,0,1-14.814,0Zm27.144-7.8-4.437,3.993-1.04-1.151,3.488-5.043Zm9.761-9.893a2.779,2.779,0,0,1-.917,1.934L85.73,27.04l-3.4-3.763,3.394-4.908,2.445,2.7a2.78,2.78,0,0,1,.719,2.018Z" transform="translate(0 0)" fill="#f57c00"/>
    <path id="Trazado_104704" data-name="Trazado 104704" d="M107.553,383.857a3.5,3.5,0,1,0,3.5,3.5A3.5,3.5,0,0,0,107.553,383.857Zm0,5.534a2.038,2.038,0,1,1,2.038-2.038A2.04,2.04,0,0,1,107.553,389.391Z" transform="translate(-48.33 -346.544)" fill="#f57c00"/>
  </g>
</svg>
