<svg xmlns="http://www.w3.org/2000/svg" width="71.181" height="49.647" viewBox="0 0 71.181 49.647">
  <g id="galeria" transform="translate(0 -39.628)">
    <path id="Trazado_104700" data-name="Trazado 104700" d="M133.494,180.458a1.39,1.39,0,0,0-2.144,0l-7.974,9.654-3.07-3.762a1.39,1.39,0,0,0-2.124-.036l-10.549,12.065a1.39,1.39,0,0,0,1.047,2.305h38.568a1.39,1.39,0,0,0,1.072-2.276Zm-14.3,8.924,2.378,2.915-4.63,5.606h-5.2Zm1.354,8.52,11.875-14.376L144.3,197.9Z" transform="translate(-92.374 -120.816)" fill="#f57c00"/>
    <path id="Trazado_104701" data-name="Trazado 104701" d="M173.119,120.181a6.441,6.441,0,1,0-6.441-6.44A6.448,6.448,0,0,0,173.119,120.181Zm0-10.1a3.66,3.66,0,1,1-3.66,3.66A3.664,3.664,0,0,1,173.119,110.08Z" transform="translate(-143.506 -58.264)" fill="#f57c00"/>
    <path id="Trazado_104702" data-name="Trazado 104702" d="M66.071,39.628H5.109A5.115,5.115,0,0,0,0,44.737V84.165a5.115,5.115,0,0,0,5.109,5.109H66.071a5.115,5.115,0,0,0,5.109-5.109V44.737A5.115,5.115,0,0,0,66.071,39.628ZM68.4,84.165a2.332,2.332,0,0,1-2.329,2.329H5.109A2.331,2.331,0,0,1,2.78,84.165V44.737a2.332,2.332,0,0,1,2.329-2.329H66.071A2.332,2.332,0,0,1,68.4,44.737Z" fill="#f57c00"/>
  </g>
</svg>
