<svg xmlns="http://www.w3.org/2000/svg" width="85" height="85" viewBox="0 0 85 85">
  <g id="Grupo_56156" data-name="Grupo 56156" transform="translate(-180 -8680)">
    <circle id="Elipse_4166" data-name="Elipse 4166" cx="42.5" cy="42.5" r="42.5" transform="translate(180 8680)" fill="#26c6da"/>
    <g id="adentro" transform="translate(190.822 8690.244)">
      <path id="Trazado_105193" data-name="Trazado 105193" d="M64,205l24.191,10.332L112.383,205V184.332L88.191,174,64,184.332Zm0,0" transform="translate(-55.935 -152.076)" fill="#ffc15a"/>
      <path id="Trazado_105194" data-name="Trazado 105194" d="M280.092,256.01v20.657L255.9,287l-.014-.006V266.336L280.078,256Zm0,0" transform="translate(-223.645 -223.748)" fill="#ffcb7c"/>
      <path id="Trazado_105195" data-name="Trazado 105195" d="M112.383,184.332h0L88.191,194.664,64,184.332h0L88.191,174Zm0,0" transform="translate(-55.935 -152.076)" fill="#8690a6"/>
      <path id="Trazado_105196" data-name="Trazado 105196" d="M280.191,256h0L256,266.332l6.8,6.846L287,262.342Zm0,0" transform="translate(-223.744 -223.745)" fill="#ffedd1"/>
      <path id="Trazado_105197" data-name="Trazado 105197" d="M16.8,256h0L41,266.332l-6.8,6.846L10,262.342Zm0,0" transform="translate(-8.739 -223.745)" fill="#ffedd1"/>
      <path id="Trazado_105198" data-name="Trazado 105198" d="M280.191,136.845h0L256,126.513l6.8-6.845L287,130.5Zm0,0" transform="translate(-223.744 -104.59)" fill="#ffc15a"/>
      <path id="Trazado_105199" data-name="Trazado 105199" d="M17.058,136.845h0l24.191-10.332-6.8-6.845L10.254,130.5Zm0,0" transform="translate(-8.961 -104.59)" fill="#ffc15a"/>
      <path id="Trazado_105200" data-name="Trazado 105200" d="M182.786,32.863V10H171.194V32.863h-5.612L176.99,44.271,188.4,32.863Zm0,0" transform="translate(-144.718 -8.74)" fill="#91def5"/>
      <path id="Trazado_105201" data-name="Trazado 105201" d="M58.3,32.255l5.815-5.42a1.26,1.26,0,0,0-.345-2.072L39.328,13.83V1.26A1.26,1.26,0,0,0,38.068,0H26.476a1.26,1.26,0,0,0-1.26,1.26V13.83L.778,24.763a1.26,1.26,0,0,0-.345,2.072l5.8,5.406L.4,37.676a1.26,1.26,0,0,0,.345,2.072L6.8,42.461V52.919a1.259,1.259,0,0,0,.765,1.159L31.761,64.409a1.258,1.258,0,0,0,.99,0L40.2,61.228a1.26,1.26,0,0,0-.989-2.318l-5.694,2.432v-15.7l4.65,4.679a1.261,1.261,0,0,0,1.409.262L55.188,43.59v8.5l-6.706,2.864a1.26,1.26,0,1,0,.99,2.317l7.471-3.191a1.26,1.26,0,0,0,.765-1.159V42.461l6.059-2.714a1.26,1.26,0,0,0,.344-2.072ZM31.381,36.422a1.26,1.26,0,0,0,1.782,0l8.929-8.929L53.24,32.255,32.256,41.217,11.288,32.262l11.165-4.768ZM61,26.288l-4.813,4.487-12.177-5.2.56-.56a1.26,1.26,0,0,0-.891-2.151H39.328V16.59ZM27.736,24.123V2.52h4.04V14.3a1.26,1.26,0,1,0,2.52,0V2.52h2.512v21.6a1.261,1.261,0,0,0,1.26,1.26h2.571l-8.367,8.366-8.367-8.366h2.571a1.26,1.26,0,0,0,1.26-1.26Zm-2.52-7.533v6.273H20.864a1.26,1.26,0,0,0-.891,2.151l.56.56-12.177,5.2L3.542,26.288ZM8.324,33.736l21.73,9.281-4.88,4.91-21.664-9.7Zm1,9.853,15.612,6.993a1.261,1.261,0,0,0,1.409-.262L31,45.643v15.7L9.325,52.087Zm46.633-3.106h0L39.339,47.927l-4.88-4.91,21.73-9.281L61,38.224Zm0,0" transform="translate(0)"/>
      <path id="Trazado_105202" data-name="Trazado 105202" d="M343.2,451.109a1.262,1.262,0,1,0,.89.37A1.267,1.267,0,0,0,343.2,451.109Zm0,0" transform="translate(-298.857 -394.27)"/>
      <path id="Trazado_105203" data-name="Trazado 105203" d="M253.451,146.02a1.26,1.26,0,1,0-.891-.369A1.269,1.269,0,0,0,253.451,146.02Zm0,0" transform="translate(-220.415 -125.419)"/>
    </g>
  </g>
</svg>
