<svg xmlns="http://www.w3.org/2000/svg" width="85" height="85" viewBox="0 0 85 85">
  <g id="Grupo_56157" data-name="Grupo 56157" transform="translate(-180 -8464)">
    <circle id="Elipse_4165" data-name="Elipse 4165" cx="42.5" cy="42.5" r="42.5" transform="translate(180 8464)" fill="#26c6da"/>
    <g id="botella-de-plastico" transform="translate(190 8472)">
      <g id="Grupo_55444" data-name="Grupo 55444">
        <g id="Grupo_55435" data-name="Grupo 55435">
          <path id="Trazado_105175" data-name="Trazado 105175" d="M49,2h2a2.006,2.006,0,0,1,2,2V8a2.006,2.006,0,0,1-2,2H39a2,2,0,0,1-2-2V4a2.006,2.006,0,0,1,2-2H49Z" fill="#ccd1d9"/>
        </g>
        <g id="Grupo_55436" data-name="Grupo 55436">
          <path id="Trazado_105176" data-name="Trazado 105176" d="M51,10A14.4,14.4,0,0,0,61.61,23.89L62,24H29v-.65A14.407,14.407,0,0,0,38,10l.05-.24A2.028,2.028,0,0,0,39,10Z" fill="#ffeaa7"/>
        </g>
        <g id="Grupo_55437" data-name="Grupo 55437">
          <path id="Trazado_105177" data-name="Trazado 105177" d="M29,24v-.65a14.484,14.484,0,0,1-1.61.54L27,24v8.94A9,9,0,0,1,32,41l.1,17H32a4,4,0,0,1-4,4H56a6,6,0,0,0,6-6V24Z" fill="#ffeaa7"/>
        </g>
        <g id="Grupo_55438" data-name="Grupo 55438">
          <path id="Trazado_105178" data-name="Trazado 105178" d="M58,29V57a1,1,0,0,1-1,1H32V29a1,1,0,0,1,1-1H57A1,1,0,0,1,58,29Z" fill="#b4dd7f"/>
        </g>
        <g id="Grupo_55439" data-name="Grupo 55439">
          <path id="Trazado_105179" data-name="Trazado 105179" d="M29,22v1.35a14.484,14.484,0,0,1-1.61.54L27,24v8.94A8.956,8.956,0,0,0,23,32H11V28a2.006,2.006,0,0,0-2-2V22a4,4,0,0,1,4-4H25a4,4,0,0,1,4,4Z" fill="#e6e9ed"/>
        </g>
        <g id="Grupo_55440" data-name="Grupo 55440">
          <path id="Trazado_105180" data-name="Trazado 105180" d="M23,12v6H15V12a2.006,2.006,0,0,1,2-2h4A2.006,2.006,0,0,1,23,12Z" fill="#fcd770"/>
        </g>
        <g id="Grupo_55441" data-name="Grupo 55441">
          <path id="Trazado_105181" data-name="Trazado 105181" d="M11,31.96V32H6a3.989,3.989,0,0,0-2,.54V28a2.006,2.006,0,0,1,2-2H9a2.006,2.006,0,0,1,2,2Z" fill="#a0d468"/>
        </g>
        <g id="Grupo_55442" data-name="Grupo 55442">
          <path id="Trazado_105182" data-name="Trazado 105182" d="M4,32.54A3.989,3.989,0,0,1,6,32H23a9.006,9.006,0,0,1,9,9V58a4,4,0,0,1-4,4H6a4,4,0,0,1-4-4V36A3.98,3.98,0,0,1,4,32.54ZM27,42a1,1,0,0,0,1-1,5,5,0,0,0-5-5H17a3,3,0,0,0,0,6Z" fill="#cf9e76"/>
        </g>
        <g id="Grupo_55443" data-name="Grupo 55443">
          <path id="Trazado_105183" data-name="Trazado 105183" d="M28,48v8a2.006,2.006,0,0,1-2,2H8a2.006,2.006,0,0,1-2-2V48a2.006,2.006,0,0,1,2-2H26A2.006,2.006,0,0,1,28,48Z" fill="#e6e9ed"/>
        </g>
      </g>
      <g id="Grupo_55445" data-name="Grupo 55445">
        <path id="Trazado_105187" data-name="Trazado 105187" d="M23,35H17a4,4,0,0,0,0,8H27a2,2,0,0,0,2-2A6.006,6.006,0,0,0,23,35Zm-6,6a2,2,0,0,1,0-4h6a4.006,4.006,0,0,1,4,4Z"/>
        <path id="Trazado_105188" data-name="Trazado 105188" d="M52.034,10.805A3,3,0,0,0,54,8V4a3,3,0,0,0-3-3H39a3,3,0,0,0-3,3V8a2.982,2.982,0,0,0,.991,2.212,13.431,13.431,0,0,1-7.014,11.564A5,5,0,0,0,25,17H24V12a3,3,0,0,0-3-3H17a3,3,0,0,0-3,3v5H13a5.006,5.006,0,0,0-5,5v3H6a3,3,0,0,0-3,3v4.026A4.977,4.977,0,0,0,1,36V58a5.006,5.006,0,0,0,5,5H56a7.008,7.008,0,0,0,7-7V23.235l-1.125-.306a13.426,13.426,0,0,1-9.841-12.124ZM38,4a1,1,0,0,1,1-1h1V7h2V3h2V7h2V3h2V7h2V3h1a1,1,0,0,1,1,1V8a1,1,0,0,1-1,1H39a1,1,0,0,1-1-1Zm.959,7c.014,0,.027,0,.041,0H50.041a15.439,15.439,0,0,0,7.128,12H31.831A15.439,15.439,0,0,0,38.959,11ZM16,12a1,1,0,0,1,1-1h4a1,1,0,0,1,1,1v5H16ZM10,22a3,3,0,0,1,3-3H25a3,3,0,0,1,3,3v.651c-.288.1-.578.2-.875.279L26,23.235v8.226A9.954,9.954,0,0,0,23,31H12V28a3,3,0,0,0-2-2.816ZM5,28a1,1,0,0,1,1-1H9a1,1,0,0,1,1,1v3H6a5,5,0,0,0-1,.1ZM31,43.5V58a3,3,0,0,1-3,3H6a3,3,0,0,1-3-3V36a3,3,0,0,1,3-3H23a8.009,8.009,0,0,1,8,8ZM61,56a5.006,5.006,0,0,1-5,5H31.974a4.952,4.952,0,0,0,.924-2H57a2,2,0,0,0,2-2V29a2,2,0,0,0-2-2H33a2,2,0,0,0-2,2v6.026a10.048,10.048,0,0,0-3-2.672V25H61ZM33,57V29H57V57Z"/>
        <path id="Trazado_105189" data-name="Trazado 105189" d="M53,53h2v2H53Z"/>
        <path id="Trazado_105190" data-name="Trazado 105190" d="M49,53h2v2H49Z"/>
        <path id="Trazado_105191" data-name="Trazado 105191" d="M45,53h2v2H45Z"/>
        <path id="Trazado_105192" data-name="Trazado 105192" d="M26,45H8a3,3,0,0,0-3,3v8a3,3,0,0,0,3,3H26a3,3,0,0,0,3-3V48A3,3,0,0,0,26,45Zm1,11a1,1,0,0,1-1,1H8a1,1,0,0,1-1-1V48a1,1,0,0,1,1-1H26a1,1,0,0,1,1,1Z"/>
      </g>
    </g>
  </g>
</svg>
