<svg xmlns="http://www.w3.org/2000/svg" width="110.414" height="107.979" viewBox="0 0 110.414 107.979">
  <g id="productos" transform="translate(0)">
    <path id="Trazado_104752" data-name="Trazado 104752" d="M261.242,50.449h14.437v7.459H261.242Zm0,0" transform="translate(-204.904 -39.57)" fill="#a2f9f9"/>
    <path id="Trazado_104753" data-name="Trazado 104753" d="M247.23,15.684a1.081,1.081,0,0,0,1.078,1.078h18.323a1.081,1.081,0,0,0,1.078-1.078V8.578A1.081,1.081,0,0,0,266.631,7.5H248.308a1.081,1.081,0,0,0-1.078,1.078Zm0,0" transform="translate(-193.914 -5.883)" fill="#0481bf"/>
    <path id="Trazado_104754" data-name="Trazado 104754" d="M241.084,85.611c0-.193.008-.384.014-.576H216.054a5.389,5.389,0,0,0-5.376,5.39v16.937a5.38,5.38,0,0,0,3.3,4.971,2.566,2.566,0,0,1,1.569,2.366v8.321a2.564,2.564,0,0,1-1.651,2.4,5.42,5.42,0,0,0-3.469,5.04v10.167H222.4a1.128,1.128,0,0,1,1.124,1.126v7.658a1.128,1.128,0,0,1-1.124,1.125h-2.65v21.4a1.127,1.127,0,0,1-1.123,1.125h27.632a1.081,1.081,0,0,1-1.078-1.078v-9.5l-5.567-53.038a1.321,1.321,0,0,1,1.337-1.488h5.53a5.4,5.4,0,0,0,.036-.6V97.081a14.785,14.785,0,0,1-5.437-11.47Zm0,0" transform="translate(-165.043 -66.697)" fill="#c7fffd"/>
    <path id="Trazado_104755" data-name="Trazado 104755" d="M239.619,173.389a1.321,1.321,0,0,1,1.337-1.488h5.53a5.4,5.4,0,0,0,.036-.6v-4.746H210.678V171.3a5.379,5.379,0,0,0,3.3,4.971,2.567,2.567,0,0,1,1.569,2.366v8.321a2.565,2.565,0,0,1-1.652,2.4,5.42,5.42,0,0,0-3.469,5.04v5.348h31.964Zm0,0" transform="translate(-165.044 -130.64)" fill="#0481bf"/>
    <path id="Trazado_104756" data-name="Trazado 104756" d="M216.9,203.1a5.379,5.379,0,0,1-2.615-2.341h20.351a1.32,1.32,0,0,1,1.314,1.317v15.016a1.32,1.32,0,0,1-1.314,1.318H214.149a5.39,5.39,0,0,1,2.665-2.223,2.565,2.565,0,0,0,1.652-2.4v-8.321A2.568,2.568,0,0,0,216.9,203.1Zm0,0" transform="translate(-167.967 -157.467)" fill="#75eae7"/>
    <path id="Trazado_104757" data-name="Trazado 104757" d="M371.621,453.669a1.081,1.081,0,0,0,1.078,1.078h17.726a1.081,1.081,0,0,0,1.078-1.078v-9.5H371.621Zm0,0" transform="translate(-291.48 -348.385)" fill="#89c947"/>
    <path id="Trazado_104758" data-name="Trazado 104758" d="M347.637,215.613l5.172,49.289h19.882l5.173-49.289Zm0,0" transform="translate(-272.668 -169.116)" fill="#d5e962"/>
    <path id="Trazado_104759" data-name="Trazado 104759" d="M375.46,191.336H347.119a1.32,1.32,0,0,0-1.337,1.488l.393,3.748H376.4l.393-3.748a1.321,1.321,0,0,0-1.338-1.488Zm0,0" transform="translate(-271.207 -150.074)" fill="#89c947"/>
    <path id="Trazado_104760" data-name="Trazado 104760" d="M406.327,301.157a1.081,1.081,0,0,1-1.078,1.078h-6.486a1.081,1.081,0,0,1-1.078-1.078V284.981a1.081,1.081,0,0,1,1.078-1.078h6.486a1.081,1.081,0,0,1,1.078,1.078Zm0,0" transform="translate(-311.922 -222.678)" fill="#fff"/>
    <path id="Trazado_104761" data-name="Trazado 104761" d="M49.621,388.77v21.4a1.129,1.129,0,0,0,1.125,1.126H92.507a1.128,1.128,0,0,0,1.123-1.126v-21.4Zm0,0" transform="translate(-38.92 -304.931)" fill="#ffb98a"/>
    <path id="Trazado_104762" data-name="Trazado 104762" d="M190.6,414.879H174.373a1.128,1.128,0,0,0-1.124,1.126v7.658a1.128,1.128,0,0,0,1.124,1.126H190.6Zm0,0" transform="translate(-135.888 -325.409)" fill="#fff"/>
    <path id="Trazado_104763" data-name="Trazado 104763" d="M82.557,342.816H33.249a1.128,1.128,0,0,0-1.124,1.126V351.6a1.128,1.128,0,0,0,1.124,1.125H82.557a1.128,1.128,0,0,0,1.124-1.125v-7.658A1.128,1.128,0,0,0,82.557,342.816Zm0,0" transform="translate(-25.197 -268.887)" fill="#fb8276"/>
    <path id="Trazado_104764" data-name="Trazado 104764" d="M46.95,143.842a.8.8,0,0,1,1.327,0l3.942,5.052a2.113,2.113,0,0,0,1.733.717l6.377-.794a.8.8,0,0,1,.936.936l-.8,6.347a2.1,2.1,0,0,0,.718,1.73l5.07,3.93a.8.8,0,0,1,0,1.321l-5.07,3.931a2.1,2.1,0,0,0-.718,1.729l.8,6.348a.8.8,0,0,1-.936.937l-6.377-.8a2.113,2.113,0,0,0-1.734.716L48.276,181a.8.8,0,0,1-1.327,0l-3.942-5.051a2.113,2.113,0,0,0-1.733-.717l-6.378.794a.8.8,0,0,1-.935-.937l.8-6.347a2.1,2.1,0,0,0-.718-1.729L28.97,163.08a.8.8,0,0,1,0-1.321l5.071-3.93a2.1,2.1,0,0,0,.718-1.73l-.8-6.347a.8.8,0,0,1,.936-.937l6.377.8a2.113,2.113,0,0,0,1.733-.717Zm0,0" transform="translate(-22.446 -112.547)" fill="#ffc502"/>
    <path id="Trazado_104765" data-name="Trazado 104765" d="M137.083,237.547c0,1.8-1.182,3.26-2.64,3.26s-2.638-1.46-2.638-3.26,1.181-3.258,2.638-3.258S137.083,235.748,137.083,237.547Zm0,0" transform="translate(-103.38 -183.764)" fill="#fff"/>
    <path id="Trazado_104766" data-name="Trazado 104766" d="M82.4,201.275c0-1.8-1.182-3.259-2.639-3.259s-2.64,1.459-2.64,3.259,1.182,3.26,2.64,3.26S82.4,203.075,82.4,201.275Zm0,0" transform="translate(-60.487 -155.313)" fill="#fff"/>
    <path id="Trazado_104767" data-name="Trazado 104767" d="M382.166,33.863a14.779,14.779,0,1,1-14.778-14.8A14.791,14.791,0,0,1,382.166,33.863Zm0,0" transform="translate(-276.568 -14.949)" fill="#ffc502"/>
    <path id="Trazado_104768" data-name="Trazado 104768" d="M393.566,49.608a10.457,10.457,0,1,0-10.457,10.475A10.467,10.467,0,0,0,393.566,49.608Zm0,0" transform="translate(-292.289 -30.694)" fill="#fcdb67"/>
    <path id="Trazado_104769" data-name="Trazado 104769" d="M108.8,104.745h-7.156V95.872l3.4-32.441a1.617,1.617,0,1,0-3.217-.338L98.567,94.169H81.6L76.764,48.115H103.4l-.8,7.646a1.617,1.617,0,1,0,3.217.338L107.2,42.918a2.938,2.938,0,0,0-2.947-3.274H83.1v-6.25a16.425,16.425,0,1,0-8.521-16.673H72.392V12.5h.325a2.7,2.7,0,0,0,2.7-2.7V2.7a2.7,2.7,0,0,0-2.7-2.7H54.394a2.7,2.7,0,0,0-2.7,2.7V9.8a2.7,2.7,0,0,0,2.7,2.7h.326v4.224h-3.71a7.008,7.008,0,0,0-6.994,7.007V40.665A6.993,6.993,0,0,0,48.3,47.126a.947.947,0,0,1,.579.876v8.321a.954.954,0,0,1-.609.888,7.046,7.046,0,0,0-4.511,6.551v8.549H22.428a1.617,1.617,0,0,0,0,3.235H56.867v6.675H8.546V75.546h6.119a1.617,1.617,0,0,0,0-3.235H8.052a2.746,2.746,0,0,0-2.741,2.744v7.658a2.745,2.745,0,0,0,2.741,2.743H9.084v19.288H1.618a1.617,1.617,0,1,0,0,3.235H108.8a1.617,1.617,0,0,0,0-3.235Zm-4.846-61.865-.211,2H76.425l-.21-2ZM90.82,5.727A13.187,13.187,0,1,1,77.659,18.914,13.19,13.19,0,0,1,90.82,5.727ZM54.933,3.235H72.178V9.262H54.933ZM69.157,12.5v4.224h-11.2V12.5ZM47,63.762a3.745,3.745,0,0,1,.2-1.2H66.667A2.936,2.936,0,0,0,69.6,59.628V44.611a2.936,2.936,0,0,0-2.932-2.934H47.391a3.777,3.777,0,0,1-.14-1.013V37.536h21.11a1.617,1.617,0,1,0,0-3.235H47.252V23.728a3.77,3.77,0,0,1,3.76-3.772h23.45a16.394,16.394,0,0,0,5.4,11.161V34.3H76.125a1.617,1.617,0,0,0,0,3.235h3.735v2.108H75.912a2.938,2.938,0,0,0-2.946,3.274l2.579,24.574H47Zm3.758-18.85h15.61V59.327H50.837a4.2,4.2,0,0,0,1.28-3V48a4.179,4.179,0,0,0-1.363-3.09Zm2.339,52.85H38.979V91.087H53.093Zm0-9.91H38.486A2.745,2.745,0,0,0,35.745,90.6v7.658A2.746,2.746,0,0,0,38.486,101H53.093v3.747H12.319V85.456H53.093Zm25.431,16.892h-22.2V85.456H57.36a2.721,2.721,0,0,0,1.407-.393V99.67a1.617,1.617,0,0,0,3.235,0V79.385a1.617,1.617,0,0,0-1.617-1.617,1.645,1.645,0,0,0-.283.026V75.055a2.746,2.746,0,0,0-2.741-2.744H47V70.727H75.885l2.639,25.148Zm19.882,0H81.759V97.4H98.406Zm0,0"/>
    <path id="Trazado_104770" data-name="Trazado 104770" d="M332.945,360.617a1.618,1.618,0,0,0-1.617,1.617V382.52a1.617,1.617,0,0,0,3.235,0V362.234A1.617,1.617,0,0,0,332.945,360.617Zm0,0" transform="translate(-259.876 -282.849)"/>
    <path id="Trazado_104771" data-name="Trazado 104771" d="M303.535,360.617a1.618,1.618,0,0,0-1.617,1.617V382.52a1.617,1.617,0,1,0,3.235,0V362.234A1.617,1.617,0,0,0,303.535,360.617Zm0,0" transform="translate(-236.808 -282.849)"/>
    <path id="Trazado_104772" data-name="Trazado 104772" d="M390.184,279.1v16.176a2.7,2.7,0,0,0,2.7,2.7h6.486a2.7,2.7,0,0,0,2.7-2.7V279.1a2.7,2.7,0,0,0-2.7-2.7H392.88a2.7,2.7,0,0,0-2.7,2.7Zm3.235.539h5.408v15.1h-5.408Zm0,0" transform="translate(-306.04 -216.795)"/>
    <path id="Trazado_104773" data-name="Trazado 104773" d="M405.1,252.2a1.617,1.617,0,0,0,0-3.235h-5.111a1.617,1.617,0,1,0,0,3.235Zm0,0" transform="translate(-312.461 -195.278)"/>
    <path id="Trazado_104774" data-name="Trazado 104774" d="M69.422,421.059h2.023a1.617,1.617,0,1,0,0-3.235H69.422a1.617,1.617,0,1,0,0,3.235Zm0,0" transform="translate(-53.182 -327.719)"/>
    <path id="Trazado_104775" data-name="Trazado 104775" d="M69.422,444.036H80.583a1.617,1.617,0,0,0,0-3.235H69.422a1.617,1.617,0,0,0,0,3.235Zm0,0" transform="translate(-53.182 -345.741)"/>
    <path id="Trazado_104776" data-name="Trazado 104776" d="M98.6,421.059h4.868a1.617,1.617,0,1,0,0-3.235H98.6a1.617,1.617,0,1,0,0,3.235Zm0,0" transform="translate(-76.066 -327.719)"/>
    <path id="Trazado_104777" data-name="Trazado 104777" d="M22.1,158.474l5.055,3.917a.667.667,0,0,1,.117.282L26.477,169a2.413,2.413,0,0,0,2.74,2.743l6.357-.792a.671.671,0,0,1,.291.12l3.93,5.036a2.417,2.417,0,0,0,3.877,0l3.931-5.036a.667.667,0,0,1,.29-.12l6.358.793A2.413,2.413,0,0,0,56.989,169l-.794-6.328a.657.657,0,0,1,.117-.282l5.054-3.917a2.411,2.411,0,0,0,0-3.878l-5.054-3.917a.656.656,0,0,1-.117-.283l.794-6.327a2.414,2.414,0,0,0-2.74-2.743l-6.357.792a.672.672,0,0,1-.29-.12l-3.931-5.037a2.417,2.417,0,0,0-3.877,0L35.865,142a.68.68,0,0,1-.29.12l-6.358-.793a2.415,2.415,0,0,0-2.74,2.743l.794,6.328a.657.657,0,0,1-.117.282L22.1,154.6a2.411,2.411,0,0,0,0,3.878Zm7.052-5.251a3.722,3.722,0,0,0,1.332-3.21l-.672-5.354,5.383.671a3.019,3.019,0,0,0,.373.023A3.758,3.758,0,0,0,38.4,144l3.33-4.268L45.064,144a3.757,3.757,0,0,0,2.835,1.35,3.019,3.019,0,0,0,.373-.023l5.383-.671-.672,5.353a3.725,3.725,0,0,0,1.332,3.21l4.273,3.311-4.273,3.311a3.723,3.723,0,0,0-1.332,3.21l.672,5.354-5.383-.671a3.019,3.019,0,0,0-.373-.023,3.757,3.757,0,0,0-2.835,1.35l-3.331,4.268-3.33-4.268a3.759,3.759,0,0,0-2.835-1.35,3.016,3.016,0,0,0-.372.023l-5.384.671.672-5.353a3.72,3.72,0,0,0-1.332-3.21l-4.273-3.311Zm0,0" transform="translate(-16.566 -106.662)"/>
    <path id="Trazado_104778" data-name="Trazado 104778" d="M124.305,231.664c0,2.69,1.91,4.877,4.256,4.877s4.257-2.188,4.257-4.877-1.91-4.876-4.257-4.876S124.305,228.976,124.305,231.664Zm4.256-1.641c.483,0,1.023.7,1.023,1.641s-.539,1.643-1.023,1.643-1.021-.7-1.021-1.643S128.079,230.023,128.561,230.023Zm0,0" transform="translate(-97.498 -177.881)"/>
    <path id="Trazado_104779" data-name="Trazado 104779" d="M73.875,200.27c2.347,0,4.257-2.188,4.257-4.877s-1.91-4.877-4.257-4.877-4.257,2.188-4.257,4.877S71.528,200.27,73.875,200.27Zm0-6.519c.483,0,1.022.7,1.022,1.642s-.539,1.643-1.022,1.643-1.023-.7-1.023-1.643S73.392,193.75,73.875,193.75Zm0,0" transform="translate(-54.604 -149.43)"/>
    <path id="Trazado_104780" data-name="Trazado 104780" d="M95.594,208.838a1.617,1.617,0,0,0,2.155-.767l6.488-13.658a1.617,1.617,0,1,0-2.922-1.387l-6.487,13.657A1.617,1.617,0,0,0,95.594,208.838Zm0,0" transform="translate(-74.254 -150.675)"/>
    <path id="Trazado_104781" data-name="Trazado 104781" d="M377.227,55.818a12.093,12.093,0,1,0-12.074-12.093A12.1,12.1,0,0,0,377.227,55.818Zm0-20.95a8.857,8.857,0,1,1-8.839,8.858A8.858,8.858,0,0,1,377.227,34.867Zm0,0" transform="translate(-286.406 -24.811)"/>
    <path id="Trazado_104782" data-name="Trazado 104782" d="M400.093,59.573h3.158a.543.543,0,0,1,0,1.085h-4.782a1.617,1.617,0,1,0,0,3.235h1.586v.051a1.617,1.617,0,0,0,3.235,0V63.89a3.776,3.776,0,0,0-.039-7.552h-3.159a.542.542,0,0,1,0-1.084h4.039a1.617,1.617,0,1,0,0-3.235h-.842v-.488a1.617,1.617,0,1,0-3.235,0v.489a3.776,3.776,0,0,0,.038,7.552Zm0,0" transform="translate(-310.852 -39.15)"/>
  </g>
</svg>
