<svg xmlns="http://www.w3.org/2000/svg" xmlns:xlink="http://www.w3.org/1999/xlink" width="190" height="163" viewBox="0 0 190 163">
  <defs>
    <clipPath id="clip-path">
      <rect id="Rectángulo_5637" data-name="Rectángulo 5637" width="190" height="163" transform="translate(194 571)" fill="#fdd835"/>
    </clipPath>
  </defs>
  <g id="Enmascarar_grupo_32" data-name="Enmascarar grupo 32" transform="translate(-194 -571)" clip-path="url(#clip-path)">
    <g id="dibujar" transform="translate(195.447 558.948)">
      <path id="Trazado_104888" data-name="Trazado 104888" d="M182.047,80.3l-12.21-19.884V42.932a4.387,4.387,0,0,0-4.385-4.385H42.584V25.6a1.461,1.461,0,0,0-.313-.9,17.937,17.937,0,0,0-6.059-4.945A17.484,17.484,0,0,0,28.335,17.9,17.707,17.707,0,0,0,10.691,34.037V137.516a21.929,21.929,0,0,0,21.926,21.926h121.87v9.579a6.031,6.031,0,0,0,6.031,6.031H176.23a6.031,6.031,0,0,0,6.031-6.031V81.067a1.46,1.46,0,0,0-.215-.765Z" fill="#e6e7e8"/>
      <g id="Grupo_55397" data-name="Grupo 55397">
        <path id="Trazado_104889" data-name="Trazado 104889" d="M150.1,75.221,162.525,54.98l0,.006v-17.9a2.923,2.923,0,0,0-2.924-2.924H35.275v88.761a16.236,16.236,0,0,0-28.968,8.624v.123a20.465,20.465,0,0,0,20.465,20.465H150.1V75.221Z" fill="#d4fbff"/>
        <path id="Trazado_104890" data-name="Trazado 104890" d="M159.6,34.161H35.275v4.385h124.33a2.923,2.923,0,0,1,2.924,2.924V37.085A2.925,2.925,0,0,0,159.6,34.161Z" fill="#fff"/>
        <path id="Trazado_104891" data-name="Trazado 104891" d="M22.488,13.514A16.261,16.261,0,0,0,6.306,28.192V131.549a16.236,16.236,0,0,1,28.968-8.624V19.75a16.215,16.215,0,0,0-12.786-6.236Z" fill="#6dc9f7"/>
        <g id="Grupo_55394" data-name="Grupo 55394">
          <g id="Grupo_55392" data-name="Grupo 55392">
            <path id="Trazado_104892" data-name="Trazado 104892" d="M150.1,75.221,162.525,54.98l12.428,20.241v87.954a4.569,4.569,0,0,1-4.569,4.569h-15.71a4.569,4.569,0,0,1-4.569-4.569Z" fill="#ffd7e5"/>
          </g>
          <g id="Grupo_55393" data-name="Grupo 55393">
            <path id="Trazado_104893" data-name="Trazado 104893" d="M150.1,75.221h24.85v87.954a4.569,4.569,0,0,1-4.569,4.569h-15.71a4.569,4.569,0,0,1-4.569-4.569Z" fill="#0089ef"/>
          </g>
          <path id="Trazado_104894" data-name="Trazado 104894" d="M150.1,157.128v6.047a4.569,4.569,0,0,0,4.569,4.569h15.71a4.569,4.569,0,0,0,4.569-4.569v-6.047Z" fill="#fa759e"/>
        </g>
        <path id="Trazado_104895" data-name="Trazado 104895" d="M66.782,69.609H114.29V124.06H66.782Z" fill="#fa759e"/>
        <circle id="Elipse_4153" data-name="Elipse 4153" cx="19.085" cy="19.085" r="19.085" transform="translate(95.205 50.524)" fill="#ffd7e5"/>
        <g id="Grupo_55396" data-name="Grupo 55396">
          <path id="Trazado_104896" data-name="Trazado 104896" d="M43.495,140.819,66.782,98.305l23.289,42.514Z" fill="#0089ef"/>
          <g id="Grupo_55395" data-name="Grupo 55395">
            <path id="Trazado_104897" data-name="Trazado 104897" d="M132.929,150.673H119.955a1.462,1.462,0,1,0,0,2.924h12.973a1.462,1.462,0,1,0,0-2.924Z" fill="#3a2c60"/>
            <path id="Trazado_104898" data-name="Trazado 104898" d="M176.2,74.455,163.99,54.572V37.085A4.391,4.391,0,0,0,159.6,32.7H36.737V19.75a1.461,1.461,0,0,0-.313-.9,17.706,17.706,0,0,0-31.58,9.345V131.67A21.951,21.951,0,0,0,26.771,153.6h87.155a1.462,1.462,0,1,0,0-2.924H26.771a19.025,19.025,0,0,1-19-19v-.039a14.877,14.877,0,0,1,14.72-13.482,14.724,14.724,0,0,1,11.639,5.678,1.461,1.461,0,0,0,2.611-.9v-87.3H159.606a1.463,1.463,0,0,1,1.462,1.462V54.56l-12.21,19.9a1.452,1.452,0,0,0-.215.765v75.452H138.41a1.462,1.462,0,0,0,0,2.924h10.232v9.579a6.038,6.038,0,0,0,6.031,6.031h15.71a6.039,6.039,0,0,0,6.033-6.031V75.221a1.462,1.462,0,0,0-.216-.766ZM33.814,119.324a17.584,17.584,0,0,0-11.326-4.1,17.79,17.79,0,0,0-14.72,7.927L7.761,28.33a14.786,14.786,0,0,1,26.053-8.063ZM151.566,76.681h21.926v78.985H151.566Zm13.219-15.227,7.556,12.305H152.716l7.551-12.305Zm5.6,104.829h-15.71a3.112,3.112,0,0,1-3.108-3.108V158.59h21.926v4.586A3.112,3.112,0,0,1,170.383,166.283Z" fill="#3a2c60"/>
            <path id="Trazado_104899" data-name="Trazado 104899" d="M114.291,49.063A20.558,20.558,0,0,0,93.819,68.147H66.784a1.461,1.461,0,0,0-1.462,1.462V97.931L42.213,140.116a1.462,1.462,0,0,0,1.282,2.163H90.07a1.462,1.462,0,0,0,1.282-2.163l-7.994-14.6h30.934a1.461,1.461,0,0,0,1.462-1.462V90.081a20.535,20.535,0,0,0-1.462-41.019Zm-1.462,38.1A17.632,17.632,0,0,1,96.743,71.071h16.087ZM68.245,104.016,78.424,122.6H68.245ZM45.962,139.357l19.36-35.341V124.06a1.461,1.461,0,0,0,1.462,1.462H80.024L87.6,139.357ZM81.757,122.6,68.245,97.932V71.071H93.819a20.547,20.547,0,0,0,19.01,19.01V122.6Zm34-35.441V69.609a1.461,1.461,0,0,0-1.462-1.462H96.743a17.616,17.616,0,1,1,19.01,19.01Z" fill="#3a2c60"/>
          </g>
        </g>
      </g>
    </g>
  </g>
</svg>
