<svg xmlns="http://www.w3.org/2000/svg" width="314.436" height="278.244" viewBox="0 0 314.436 278.244">
  <g id="Grupo_55375" data-name="Grupo 55375" transform="translate(-877.052 -21313.833)">
    <g id="Grupo_55374" data-name="Grupo 55374" transform="translate(881.631 21349.365)">
      <rect id="Rectángulo_5985" data-name="Rectángulo 5985" width="226.933" height="205.32" transform="translate(0 0)" fill="#fff"/>
      <rect id="Rectángulo_5983" data-name="Rectángulo 5983" width="226.933" height="205.32" transform="translate(0 0)" fill="none" stroke="#f57c00" stroke-miterlimit="10" stroke-width="1"/>
      <line id="Línea_167" data-name="Línea 167" x2="227" transform="translate(-0.01 153.968)" fill="none" stroke="#f57c00" stroke-miterlimit="10" stroke-width="1"/>
      <line id="Línea_168" data-name="Línea 168" x2="226.933" transform="translate(0 102.66)" fill="none" stroke="#f57c00" stroke-miterlimit="10" stroke-width="1"/>
      <line id="Línea_169" data-name="Línea 169" x2="226.933" transform="translate(0 51.33)" fill="none" stroke="#f57c00" stroke-miterlimit="10" stroke-width="1"/>
      <line id="Línea_170" data-name="Línea 170" y2="205.32" transform="translate(181.546 0)" fill="none" stroke="#f57c00" stroke-miterlimit="10" stroke-width="1"/>
      <line id="Línea_171" data-name="Línea 171" y2="205.32" transform="translate(136.16 0)" fill="none" stroke="#f57c00" stroke-miterlimit="10" stroke-width="1"/>
      <line id="Línea_172" data-name="Línea 172" y2="205.32" transform="translate(90.773 0)" fill="none" stroke="#f57c00" stroke-miterlimit="10" stroke-width="1"/>
      <line id="Línea_173" data-name="Línea 173" y2="205.32" transform="translate(45.387 0)" fill="none" stroke="#f57c00" stroke-miterlimit="10" stroke-width="1"/>
    </g>
    <path id="Trazado_108155" data-name="Trazado 108155" d="M1.811-6.416l.65-6.381H9.018v1.5H3.841L3.454-7.8A4.13,4.13,0,0,1,5.59-8.358,3.531,3.531,0,0,1,8.367-7.2,4.53,4.53,0,0,1,9.4-4.078,4.372,4.372,0,0,1,8.328-.962,3.892,3.892,0,0,1,5.344.176a4.045,4.045,0,0,1-2.769-.94,3.754,3.754,0,0,1-1.222-2.6H2.892a2.582,2.582,0,0,0,.782,1.657,2.432,2.432,0,0,0,1.67.558,2.194,2.194,0,0,0,1.78-.773A3.233,3.233,0,0,0,7.77-4.061a2.968,2.968,0,0,0-.7-2.061A2.377,2.377,0,0,0,5.212-6.9a2.681,2.681,0,0,0-1.67.466l-.431.352ZM17.736-5.01V0H16.049V-12.8h4.72a4.742,4.742,0,0,1,3.292,1.072,3.635,3.635,0,0,1,1.191,2.839,3.587,3.587,0,0,1-1.165,2.87A4.954,4.954,0,0,1,20.751-5.01Zm0-1.38h3.032a3.032,3.032,0,0,0,2.074-.638,2.334,2.334,0,0,0,.721-1.845,2.411,2.411,0,0,0-.721-1.831,2.84,2.84,0,0,0-1.978-.713H17.736ZM28.916,0H27.29V-9.51h1.626ZM27.158-12.032A.971.971,0,0,1,27.4-12.7a.907.907,0,0,1,.716-.272.922.922,0,0,1,.721.272.96.96,0,0,1,.246.668.929.929,0,0,1-.246.659.938.938,0,0,1-.721.264.924.924,0,0,1-.716-.264A.938.938,0,0,1,27.158-12.032Zm7.55,5.994L36.817-9.51h1.9L35.6-4.808,38.813,0H36.932l-2.2-3.56L32.537,0h-1.89l3.208-4.808-3.111-4.7h1.881Zm9.5,6.214a4.155,4.155,0,0,1-3.146-1.27,4.714,4.714,0,0,1-1.213-3.4v-.3a5.707,5.707,0,0,1,.541-2.527A4.217,4.217,0,0,1,41.9-9.057a3.8,3.8,0,0,1,2.1-.628A3.562,3.562,0,0,1,46.89-8.464a5.289,5.289,0,0,1,1.028,3.5v.677H41.476A3.38,3.38,0,0,0,42.3-2.017a2.583,2.583,0,0,0,2,.866A2.832,2.832,0,0,0,45.756-1.5,3.666,3.666,0,0,0,46.8-2.435l.993.773A3.993,3.993,0,0,1,44.209.176Zm-.2-8.525a2.169,2.169,0,0,0-1.652.716,3.482,3.482,0,0,0-.826,2.008h4.764v-.123a3.1,3.1,0,0,0-.668-1.92A2.042,2.042,0,0,0,44.007-8.35ZM51.565,0H49.939V-13.5h1.626Zm6.548.176a4.155,4.155,0,0,1-3.146-1.27,4.714,4.714,0,0,1-1.213-3.4v-.3a5.707,5.707,0,0,1,.541-2.527,4.217,4.217,0,0,1,1.512-1.74,3.8,3.8,0,0,1,2.1-.628,3.562,3.562,0,0,1,2.883,1.222,5.289,5.289,0,0,1,1.028,3.5v.677H55.38A3.38,3.38,0,0,0,56.2-2.017a2.583,2.583,0,0,0,2,.866A2.832,2.832,0,0,0,59.66-1.5a3.666,3.666,0,0,0,1.046-.932l.993.773A3.993,3.993,0,0,1,58.113.176Zm-.2-8.525a2.169,2.169,0,0,0-1.652.716,3.482,3.482,0,0,0-.826,2.008H60.2v-.123a3.1,3.1,0,0,0-.668-1.92A2.042,2.042,0,0,0,57.911-8.35ZM69.24-2.522a1.2,1.2,0,0,0-.5-1.024,4.78,4.78,0,0,0-1.731-.628,8.186,8.186,0,0,1-1.96-.633,2.788,2.788,0,0,1-1.072-.879A2.1,2.1,0,0,1,63.633-6.9a2.467,2.467,0,0,1,.989-1.978,3.861,3.861,0,0,1,2.527-.809,3.974,3.974,0,0,1,2.624.835,2.652,2.652,0,0,1,1.006,2.136H69.144a1.468,1.468,0,0,0-.567-1.151,2.124,2.124,0,0,0-1.428-.483,2.223,2.223,0,0,0-1.389.387,1.217,1.217,0,0,0-.5,1.011.986.986,0,0,0,.466.888,5.731,5.731,0,0,0,1.683.571,8.77,8.77,0,0,1,1.973.65,2.878,2.878,0,0,1,1.121.91,2.237,2.237,0,0,1,.365,1.3,2.434,2.434,0,0,1-1.02,2.043A4.277,4.277,0,0,1,67.2.176a4.789,4.789,0,0,1-2.021-.4A3.288,3.288,0,0,1,63.8-1.358a2.722,2.722,0,0,1-.5-1.569h1.626a1.683,1.683,0,0,0,.655,1.3,2.54,2.54,0,0,0,1.613.479,2.622,2.622,0,0,0,1.481-.374A1.148,1.148,0,0,0,69.24-2.522Z" transform="translate(957.621 21327.332)" fill="#12263f"/>
    <path id="Trazado_108156" data-name="Trazado 108156" d="M7.928-4.3H9.7v1.327H7.928V0H6.293V-2.971H.466v-.958L6.2-12.8H7.928Zm-5.616,0H6.293v-6.275l-.193.352ZM17.736-5.01V0H16.049V-12.8h4.72a4.742,4.742,0,0,1,3.292,1.072,3.635,3.635,0,0,1,1.191,2.839,3.587,3.587,0,0,1-1.165,2.87A4.954,4.954,0,0,1,20.751-5.01Zm0-1.38h3.032a3.032,3.032,0,0,0,2.074-.638,2.334,2.334,0,0,0,.721-1.845,2.411,2.411,0,0,0-.721-1.831,2.84,2.84,0,0,0-1.978-.713H17.736ZM28.916,0H27.29V-9.51h1.626ZM27.158-12.032A.971.971,0,0,1,27.4-12.7a.907.907,0,0,1,.716-.272.922.922,0,0,1,.721.272.96.96,0,0,1,.246.668.929.929,0,0,1-.246.659.938.938,0,0,1-.721.264.924.924,0,0,1-.716-.264A.938.938,0,0,1,27.158-12.032Zm7.55,5.994L36.817-9.51h1.9L35.6-4.808,38.813,0H36.932l-2.2-3.56L32.537,0h-1.89l3.208-4.808-3.111-4.7h1.881Zm9.5,6.214a4.155,4.155,0,0,1-3.146-1.27,4.714,4.714,0,0,1-1.213-3.4v-.3a5.707,5.707,0,0,1,.541-2.527A4.217,4.217,0,0,1,41.9-9.057a3.8,3.8,0,0,1,2.1-.628A3.562,3.562,0,0,1,46.89-8.464a5.289,5.289,0,0,1,1.028,3.5v.677H41.476A3.38,3.38,0,0,0,42.3-2.017a2.583,2.583,0,0,0,2,.866A2.832,2.832,0,0,0,45.756-1.5,3.666,3.666,0,0,0,46.8-2.435l.993.773A3.993,3.993,0,0,1,44.209.176Zm-.2-8.525a2.169,2.169,0,0,0-1.652.716,3.482,3.482,0,0,0-.826,2.008h4.764v-.123a3.1,3.1,0,0,0-.668-1.92A2.042,2.042,0,0,0,44.007-8.35ZM51.565,0H49.939V-13.5h1.626Zm6.548.176a4.155,4.155,0,0,1-3.146-1.27,4.714,4.714,0,0,1-1.213-3.4v-.3a5.707,5.707,0,0,1,.541-2.527,4.217,4.217,0,0,1,1.512-1.74,3.8,3.8,0,0,1,2.1-.628,3.562,3.562,0,0,1,2.883,1.222,5.289,5.289,0,0,1,1.028,3.5v.677H55.38A3.38,3.38,0,0,0,56.2-2.017a2.583,2.583,0,0,0,2,.866A2.832,2.832,0,0,0,59.66-1.5a3.666,3.666,0,0,0,1.046-.932l.993.773A3.993,3.993,0,0,1,58.113.176Zm-.2-8.525a2.169,2.169,0,0,0-1.652.716,3.482,3.482,0,0,0-.826,2.008H60.2v-.123a3.1,3.1,0,0,0-.668-1.92A2.042,2.042,0,0,0,57.911-8.35ZM69.24-2.522a1.2,1.2,0,0,0-.5-1.024,4.78,4.78,0,0,0-1.731-.628,8.186,8.186,0,0,1-1.96-.633,2.788,2.788,0,0,1-1.072-.879A2.1,2.1,0,0,1,63.633-6.9a2.467,2.467,0,0,1,.989-1.978,3.861,3.861,0,0,1,2.527-.809,3.974,3.974,0,0,1,2.624.835,2.652,2.652,0,0,1,1.006,2.136H69.144a1.468,1.468,0,0,0-.567-1.151,2.124,2.124,0,0,0-1.428-.483,2.223,2.223,0,0,0-1.389.387,1.217,1.217,0,0,0-.5,1.011.986.986,0,0,0,.466.888,5.731,5.731,0,0,0,1.683.571,8.77,8.77,0,0,1,1.973.65,2.878,2.878,0,0,1,1.121.91,2.237,2.237,0,0,1,.365,1.3,2.434,2.434,0,0,1-1.02,2.043A4.277,4.277,0,0,1,67.2.176a4.789,4.789,0,0,1-2.021-.4A3.288,3.288,0,0,1,63.8-1.358a2.722,2.722,0,0,1-.5-1.569h1.626a1.683,1.683,0,0,0,.655,1.3,2.54,2.54,0,0,0,1.613.479,2.622,2.622,0,0,0,1.481-.374A1.148,1.148,0,0,0,69.24-2.522Z" transform="translate(1120.621 21458.332)" fill="#12263f"/>
    <path id="Trazado_108157" data-name="Trazado 108157" d="M10.327-11.417H6.214V0H4.535V-11.417H.431V-12.8h9.9ZM16.849,0a3.416,3.416,0,0,1-.229-1A3.628,3.628,0,0,1,13.913.176a3.357,3.357,0,0,1-2.307-.8,2.573,2.573,0,0,1-.9-2.017,2.688,2.688,0,0,1,1.129-2.307,5.325,5.325,0,0,1,3.177-.822h1.582v-.747a1.826,1.826,0,0,0-.51-1.358,2.049,2.049,0,0,0-1.5-.505,2.371,2.371,0,0,0-1.459.439,1.3,1.3,0,0,0-.589,1.063H10.9A2.244,2.244,0,0,1,11.4-8.249,3.449,3.449,0,0,1,12.775-9.3a4.613,4.613,0,0,1,1.9-.387,3.759,3.759,0,0,1,2.575.822A2.964,2.964,0,0,1,18.22-6.6v4.377a5.351,5.351,0,0,0,.334,2.083V0Zm-2.7-1.239a2.858,2.858,0,0,0,1.45-.4,2.392,2.392,0,0,0,.993-1.028V-4.614H15.319q-2.988,0-2.988,1.749a1.48,1.48,0,0,0,.51,1.2A1.959,1.959,0,0,0,14.15-1.239ZM22.3-9.51l.044,1.055a3.512,3.512,0,0,1,2.821-1.23,2.719,2.719,0,0,1,2.716,1.529,3.6,3.6,0,0,1,1.235-1.107,3.647,3.647,0,0,1,1.8-.422q3.129,0,3.182,3.313V0H32.467V-6.275A2.184,2.184,0,0,0,32-7.8a2.051,2.051,0,0,0-1.564-.505,2.156,2.156,0,0,0-1.5.541,2.193,2.193,0,0,0-.694,1.455V0H26.6V-6.231a1.814,1.814,0,0,0-2.03-2.074,2.175,2.175,0,0,0-2.188,1.362V0H20.76V-9.51ZM42.416,0a3.416,3.416,0,0,1-.229-1A3.628,3.628,0,0,1,39.48.176a3.357,3.357,0,0,1-2.307-.8,2.573,2.573,0,0,1-.9-2.017A2.688,2.688,0,0,1,37.4-4.944a5.325,5.325,0,0,1,3.177-.822h1.582v-.747a1.826,1.826,0,0,0-.51-1.358,2.049,2.049,0,0,0-1.5-.505,2.371,2.371,0,0,0-1.459.439A1.3,1.3,0,0,0,38.1-6.873H36.466a2.244,2.244,0,0,1,.505-1.375A3.449,3.449,0,0,1,38.342-9.3a4.613,4.613,0,0,1,1.9-.387,3.759,3.759,0,0,1,2.575.822A2.964,2.964,0,0,1,43.787-6.6v4.377a5.351,5.351,0,0,0,.334,2.083V0Zm-2.7-1.239a2.858,2.858,0,0,0,1.45-.4,2.392,2.392,0,0,0,.993-1.028V-4.614H40.887q-2.988,0-2.988,1.749a1.48,1.48,0,0,0,.51,1.2A1.959,1.959,0,0,0,39.718-1.239ZM47.874-9.51l.053,1.2a3.465,3.465,0,0,1,2.848-1.371q3.015,0,3.041,3.4V0H52.189V-6.293a2.189,2.189,0,0,0-.47-1.521,1.884,1.884,0,0,0-1.437-.492,2.347,2.347,0,0,0-1.389.422,2.865,2.865,0,0,0-.932,1.107V0H46.336V-9.51Zm5.379-3.709a2.185,2.185,0,0,1-.541,1.538,1.756,1.756,0,0,1-1.349.589,1.979,1.979,0,0,1-.624-.088,3.367,3.367,0,0,1-.69-.36,2.988,2.988,0,0,0-.615-.33A1.506,1.506,0,0,0,49-11.927a.806.806,0,0,0-.615.277,1,1,0,0,0-.255.708L47.039-11a2.294,2.294,0,0,1,.532-1.556,1.705,1.705,0,0,1,1.349-.615,1.639,1.639,0,0,1,.554.088,4.035,4.035,0,0,1,.668.343,3.931,3.931,0,0,0,.646.334,1.484,1.484,0,0,0,.5.079.786.786,0,0,0,.628-.3,1.048,1.048,0,0,0,.25-.694Zm2.584,8.376a5.617,5.617,0,0,1,.549-2.514,4.1,4.1,0,0,1,1.529-1.723,4.163,4.163,0,0,1,2.237-.606,4.01,4.01,0,0,1,3.142,1.345,5.174,5.174,0,0,1,1.2,3.577v.114a5.666,5.666,0,0,1-.532,2.492A4.038,4.038,0,0,1,62.442-.439,4.211,4.211,0,0,1,60.17.176a4,4,0,0,1-3.133-1.345,5.147,5.147,0,0,1-1.2-3.56Zm1.635.193a4.068,4.068,0,0,0,.734,2.54,2.349,2.349,0,0,0,1.964.958,2.335,2.335,0,0,0,1.969-.971,4.449,4.449,0,0,0,.729-2.72,4.061,4.061,0,0,0-.743-2.536,2.361,2.361,0,0,0-1.973-.971,2.335,2.335,0,0,0-1.942.958A4.416,4.416,0,0,0,57.472-4.649ZM72.756,0H71.13V-9.51h1.626ZM71-12.032a.971.971,0,0,1,.242-.668.907.907,0,0,1,.716-.272.922.922,0,0,1,.721.272.96.96,0,0,1,.246.668.929.929,0,0,1-.246.659.938.938,0,0,1-.721.264.924.924,0,0,1-.716-.264A.938.938,0,0,1,71-12.032ZM76.887-9.51l.044,1.055a3.512,3.512,0,0,1,2.821-1.23,2.719,2.719,0,0,1,2.716,1.529A3.6,3.6,0,0,1,83.7-9.264a3.647,3.647,0,0,1,1.8-.422q3.129,0,3.182,3.313V0H87.056V-6.275A2.184,2.184,0,0,0,86.59-7.8a2.051,2.051,0,0,0-1.564-.505,2.156,2.156,0,0,0-1.5.541,2.193,2.193,0,0,0-.694,1.455V0H81.193V-6.231a1.814,1.814,0,0,0-2.03-2.074,2.175,2.175,0,0,0-2.188,1.362V0H75.349V-9.51ZM97,0a3.416,3.416,0,0,1-.229-1A3.628,3.628,0,0,1,94.069.176a3.357,3.357,0,0,1-2.307-.8,2.573,2.573,0,0,1-.9-2.017,2.688,2.688,0,0,1,1.129-2.307,5.325,5.325,0,0,1,3.177-.822H96.75v-.747a1.826,1.826,0,0,0-.51-1.358,2.049,2.049,0,0,0-1.5-.505,2.371,2.371,0,0,0-1.459.439,1.3,1.3,0,0,0-.589,1.063H91.055a2.244,2.244,0,0,1,.505-1.375A3.449,3.449,0,0,1,92.931-9.3a4.613,4.613,0,0,1,1.9-.387,3.759,3.759,0,0,1,2.575.822A2.964,2.964,0,0,1,98.376-6.6v4.377A5.351,5.351,0,0,0,98.71-.141V0Zm-2.7-1.239a2.858,2.858,0,0,0,1.45-.4,2.392,2.392,0,0,0,.993-1.028V-4.614H95.476q-2.988,0-2.988,1.749A1.48,1.48,0,0,0,93-1.67,1.959,1.959,0,0,0,94.307-1.239Zm6.231-3.595a5.589,5.589,0,0,1,1.028-3.538,3.289,3.289,0,0,1,2.725-1.314,3.271,3.271,0,0,1,2.716,1.23l.079-1.055h1.485V-.229a3.869,3.869,0,0,1-1.094,2.909,4.038,4.038,0,0,1-2.94,1.063,4.891,4.891,0,0,1-2.013-.439,3.465,3.465,0,0,1-1.5-1.2l.844-.976a3.18,3.18,0,0,0,2.558,1.292,2.491,2.491,0,0,0,1.85-.668,2.553,2.553,0,0,0,.664-1.881V-.949A3.342,3.342,0,0,1,104.273.176a3.248,3.248,0,0,1-2.7-1.345A5.876,5.876,0,0,1,100.538-4.834Zm1.635.185a4.264,4.264,0,0,0,.659,2.527,2.142,2.142,0,0,0,1.846.918,2.382,2.382,0,0,0,2.259-1.4V-6.943A2.41,2.41,0,0,0,104.7-8.306a2.161,2.161,0,0,0-1.854.923A4.644,4.644,0,0,0,102.173-4.649ZM114.97.176a4.155,4.155,0,0,1-3.146-1.27,4.714,4.714,0,0,1-1.213-3.4v-.3a5.707,5.707,0,0,1,.541-2.527,4.217,4.217,0,0,1,1.512-1.74,3.8,3.8,0,0,1,2.1-.628,3.562,3.562,0,0,1,2.883,1.222,5.289,5.289,0,0,1,1.028,3.5v.677h-6.442a3.38,3.38,0,0,0,.822,2.272,2.583,2.583,0,0,0,2,.866,2.832,2.832,0,0,0,1.459-.352,3.666,3.666,0,0,0,1.046-.932l.993.773A3.993,3.993,0,0,1,114.97.176Zm-.2-8.525a2.169,2.169,0,0,0-1.652.716,3.482,3.482,0,0,0-.826,2.008h4.764v-.123a3.1,3.1,0,0,0-.668-1.92A2.042,2.042,0,0,0,114.768-8.35Zm7.33-1.16.053,1.2A3.465,3.465,0,0,1,125-9.686q3.015,0,3.041,3.4V0h-1.626V-6.293a2.189,2.189,0,0,0-.47-1.521,1.884,1.884,0,0,0-1.437-.492,2.347,2.347,0,0,0-1.389.422,2.865,2.865,0,0,0-.932,1.107V0H120.56V-9.51Zm20.285,2.355h-7.33V-8.569h7.33Zm0,3.647h-7.33V-4.913h7.33ZM157.5,0h-8.385V-1.169l4.43-4.922A10.524,10.524,0,0,0,154.9-7.906a3.029,3.029,0,0,0,.374-1.446A2.3,2.3,0,0,0,154.67-11a2.12,2.12,0,0,0-1.617-.642,2.511,2.511,0,0,0-1.885.69,2.635,2.635,0,0,0-.672,1.92h-1.626a3.774,3.774,0,0,1,1.138-2.856,4.219,4.219,0,0,1,3.045-1.09,4.054,4.054,0,0,1,2.821.936,3.193,3.193,0,0,1,1.037,2.492q0,1.89-2.408,4.5l-3.428,3.718H157.5Zm9.747-5.458a7.436,7.436,0,0,1-.976,4.245,3.47,3.47,0,0,1-3.05,1.389,3.5,3.5,0,0,1-3.032-1.358,7.058,7.058,0,0,1-1.02-4.056V-7.409a7.271,7.271,0,0,1,.976-4.192,3.5,3.5,0,0,1,3.059-1.371,3.528,3.528,0,0,1,3.041,1.323,7.017,7.017,0,0,1,1,4.083Zm-1.626-2.224a5.958,5.958,0,0,0-.58-3.01,2,2,0,0,0-1.837-.945,1.97,1.97,0,0,0-1.819.94A5.817,5.817,0,0,0,160.8-7.8v2.6a6.053,6.053,0,0,0,.6,3.063,1.993,1.993,0,0,0,1.824.989,1.966,1.966,0,0,0,1.789-.932,5.834,5.834,0,0,0,.611-2.936Zm16.365,3.032a5.694,5.694,0,0,1-.993,3.5A3.183,3.183,0,0,1,178.3.176a3.488,3.488,0,0,1-2.725-1.1V3.656h-1.626V-9.51h1.485l.079,1.055a3.35,3.35,0,0,1,2.76-1.23,3.243,3.243,0,0,1,2.711,1.292,5.756,5.756,0,0,1,1,3.595Zm-1.626-.185a4.2,4.2,0,0,0-.686-2.54,2.208,2.208,0,0,0-1.881-.932A2.39,2.39,0,0,0,175.579-7v4.544a2.4,2.4,0,0,0,2.232,1.3,2.2,2.2,0,0,0,1.859-.927A4.587,4.587,0,0,0,180.36-4.834ZM185.818,0h-1.626V-9.51h1.626Zm-1.758-12.032a.971.971,0,0,1,.242-.668.907.907,0,0,1,.716-.272.922.922,0,0,1,.721.272.96.96,0,0,1,.246.668.929.929,0,0,1-.246.659.938.938,0,0,1-.721.264.924.924,0,0,1-.716-.264A.938.938,0,0,1,184.061-12.032Zm7.55,5.994L193.72-9.51h1.9l-3.111,4.7L195.715,0h-1.881l-2.2-3.56L189.439,0h-1.89l3.208-4.808-3.111-4.7h1.881Zm9.5,6.214a4.155,4.155,0,0,1-3.146-1.27,4.714,4.714,0,0,1-1.213-3.4v-.3a5.707,5.707,0,0,1,.541-2.527,4.217,4.217,0,0,1,1.512-1.74,3.8,3.8,0,0,1,2.1-.628,3.562,3.562,0,0,1,2.883,1.222,5.289,5.289,0,0,1,1.028,3.5v.677h-6.442a3.38,3.38,0,0,0,.822,2.272,2.583,2.583,0,0,0,2,.866,2.832,2.832,0,0,0,1.459-.352,3.666,3.666,0,0,0,1.046-.932l.993.773A3.993,3.993,0,0,1,201.111.176Zm-.2-8.525a2.169,2.169,0,0,0-1.652.716,3.482,3.482,0,0,0-.826,2.008h4.764v-.123a3.1,3.1,0,0,0-.668-1.92A2.042,2.042,0,0,0,200.909-8.35ZM208.468,0h-1.626V-13.5h1.626Zm6.548.176a4.155,4.155,0,0,1-3.146-1.27,4.714,4.714,0,0,1-1.213-3.4v-.3a5.707,5.707,0,0,1,.541-2.527,4.217,4.217,0,0,1,1.512-1.74,3.8,3.8,0,0,1,2.1-.628A3.562,3.562,0,0,1,217.7-8.464a5.289,5.289,0,0,1,1.028,3.5v.677h-6.442a3.38,3.38,0,0,0,.822,2.272,2.583,2.583,0,0,0,2,.866,2.832,2.832,0,0,0,1.459-.352,3.666,3.666,0,0,0,1.046-.932l.993.773A3.993,3.993,0,0,1,215.016.176Zm-.2-8.525a2.169,2.169,0,0,0-1.652.716,3.482,3.482,0,0,0-.826,2.008H217.1v-.123a3.1,3.1,0,0,0-.668-1.92A2.042,2.042,0,0,0,214.813-8.35Zm11.329,5.827a1.2,1.2,0,0,0-.5-1.024,4.78,4.78,0,0,0-1.731-.628,8.186,8.186,0,0,1-1.96-.633,2.788,2.788,0,0,1-1.072-.879,2.1,2.1,0,0,1-.347-1.213,2.467,2.467,0,0,1,.989-1.978,3.861,3.861,0,0,1,2.527-.809,3.974,3.974,0,0,1,2.624.835,2.652,2.652,0,0,1,1.006,2.136h-1.635a1.468,1.468,0,0,0-.567-1.151,2.124,2.124,0,0,0-1.428-.483,2.223,2.223,0,0,0-1.389.387,1.217,1.217,0,0,0-.5,1.011.986.986,0,0,0,.466.888,5.731,5.731,0,0,0,1.683.571,8.77,8.77,0,0,1,1.973.65,2.878,2.878,0,0,1,1.121.91,2.237,2.237,0,0,1,.365,1.3,2.434,2.434,0,0,1-1.02,2.043A4.277,4.277,0,0,1,224.1.176a4.789,4.789,0,0,1-2.021-.4,3.288,3.288,0,0,1-1.375-1.129,2.722,2.722,0,0,1-.5-1.569h1.626a1.683,1.683,0,0,0,.655,1.3,2.54,2.54,0,0,0,1.613.479,2.622,2.622,0,0,0,1.481-.374A1.148,1.148,0,0,0,226.143-2.522Z" transform="translate(876.621 21588.332)" fill="#12263f"/>
  </g>
</svg>
