<?xml version="1.0" encoding="UTF-8" standalone="no"?><!DOCTYPE svg PUBLIC "-//W3C//DTD SVG 1.1//EN" "http://www.w3.org/Graphics/SVG/1.1/DTD/svg11.dtd"><svg width="100%" height="100%" viewBox="0 0 894 359" version="1.1" xmlns="http://www.w3.org/2000/svg" xmlns:xlink="http://www.w3.org/1999/xlink" xml:space="preserve" xmlns:serif="http://www.serif.com/" style="fill-rule:evenodd;clip-rule:evenodd;stroke-linecap:round;stroke-linejoin:round;stroke-miterlimit:1.5;"><rect x="-0.549" y="-2.611" width="899.729" height="368.88" style="fill:#fff;"/><g><path d="M133.928,151.513l-2.742,-0l-0,7.611l-1.119,0l-0,-7.611l-2.737,-0l0,-0.92l6.598,-0l-0,0.92Z" style="fill-rule:nonzero;"/><path d="M138.276,159.124c-0.063,-0.125 -0.114,-0.348 -0.153,-0.668c-0.504,0.523 -1.105,0.785 -1.804,0.785c-0.625,0 -1.138,-0.177 -1.539,-0.53c-0.4,-0.354 -0.6,-0.802 -0.6,-1.345c-0,-0.66 0.251,-1.173 0.753,-1.538c0.502,-0.365 1.208,-0.548 2.118,-0.548l1.055,0l-0,-0.498c-0,-0.379 -0.114,-0.68 -0.34,-0.905c-0.227,-0.225 -0.561,-0.337 -1.002,-0.337c-0.387,0 -0.711,0.098 -0.973,0.293c-0.262,0.195 -0.392,0.432 -0.392,0.709l-1.09,-0c-0,-0.316 0.112,-0.622 0.337,-0.917c0.224,-0.295 0.529,-0.528 0.914,-0.7c0.384,-0.172 0.807,-0.258 1.268,-0.258c0.731,-0 1.303,0.183 1.717,0.548c0.414,0.365 0.629,0.868 0.645,1.509l-0,2.918c-0,0.582 0.074,1.045 0.222,1.388l0,0.094l-1.136,0Zm-1.799,-0.826c0.34,-0 0.662,-0.088 0.967,-0.264c0.304,-0.176 0.525,-0.404 0.662,-0.685l-0,-1.301l-0.85,-0c-1.328,-0 -1.992,0.389 -1.992,1.166c-0,0.34 0.113,0.605 0.34,0.797c0.226,0.191 0.517,0.287 0.873,0.287Z" style="fill-rule:nonzero;"/><path d="M143.953,153.757c-0.164,-0.028 -0.342,-0.041 -0.533,-0.041c-0.711,-0 -1.193,0.303 -1.447,0.908l-0,4.5l-1.084,0l-0,-6.34l1.055,0l0.017,0.733c0.356,-0.567 0.859,-0.85 1.512,-0.85c0.211,-0 0.371,0.027 0.48,0.082l0,1.008Z" style="fill-rule:nonzero;"/><path d="M146.069,152.784l-0,7.072c-0,1.219 -0.553,1.829 -1.659,1.829c-0.238,-0 -0.459,-0.035 -0.662,-0.105l0,-0.862c0.125,0.031 0.289,0.047 0.492,0.047c0.243,-0 0.427,-0.066 0.554,-0.197c0.127,-0.131 0.191,-0.358 0.191,-0.683l-0,-7.101l1.084,0Zm-1.196,-1.681c0,-0.172 0.054,-0.32 0.161,-0.443c0.108,-0.123 0.265,-0.184 0.472,-0.184c0.211,-0 0.371,0.06 0.48,0.181c0.11,0.121 0.165,0.27 0.165,0.446c-0,0.175 -0.055,0.322 -0.165,0.439c-0.109,0.117 -0.269,0.176 -0.48,0.176c-0.211,-0 -0.369,-0.059 -0.475,-0.176c-0.105,-0.117 -0.158,-0.264 -0.158,-0.439Z" style="fill-rule:nonzero;"/><path d="M150.445,159.241c-0.859,0 -1.558,-0.282 -2.097,-0.846c-0.539,-0.565 -0.809,-1.32 -0.809,-2.265l0,-0.199c0,-0.629 0.12,-1.191 0.361,-1.685c0.24,-0.494 0.576,-0.881 1.007,-1.16c0.432,-0.279 0.9,-0.419 1.404,-0.419c0.824,-0 1.465,0.271 1.922,0.814c0.457,0.543 0.685,1.321 0.685,2.332l0,0.452l-4.295,-0c0.016,0.625 0.198,1.13 0.548,1.514c0.35,0.385 0.794,0.577 1.333,0.577c0.383,0 0.707,-0.078 0.973,-0.234c0.265,-0.156 0.498,-0.363 0.697,-0.621l0.662,0.516c-0.531,0.816 -1.328,1.224 -2.391,1.224Zm-0.134,-5.683c-0.438,-0 -0.805,0.159 -1.102,0.477c-0.297,0.318 -0.48,0.765 -0.551,1.339l3.176,0l0,-0.082c-0.031,-0.551 -0.18,-0.978 -0.445,-1.28c-0.266,-0.303 -0.625,-0.454 -1.078,-0.454Z" style="fill-rule:nonzero;"/><path d="M155.643,151.249l-0,1.535l1.183,0l0,0.838l-1.183,0l-0,3.937c-0,0.254 0.052,0.445 0.158,0.572c0.105,0.127 0.285,0.19 0.539,0.19c0.125,0 0.297,-0.023 0.516,-0.07l-0,0.874c-0.286,0.077 -0.563,0.116 -0.832,0.116c-0.485,0 -0.85,-0.146 -1.096,-0.439c-0.246,-0.293 -0.369,-0.709 -0.369,-1.248l-0,-3.932l-1.155,0l0,-0.838l1.155,0l-0,-1.535l1.084,0Z" style="fill-rule:nonzero;"/><path d="M162.006,159.124c-0.062,-0.125 -0.113,-0.348 -0.152,-0.668c-0.504,0.523 -1.106,0.785 -1.805,0.785c-0.625,0 -1.138,-0.177 -1.538,-0.53c-0.401,-0.354 -0.601,-0.802 -0.601,-1.345c0,-0.66 0.251,-1.173 0.753,-1.538c0.502,-0.365 1.208,-0.548 2.118,-0.548l1.055,0l0,-0.498c0,-0.379 -0.113,-0.68 -0.34,-0.905c-0.226,-0.225 -0.56,-0.337 -1.002,-0.337c-0.386,0 -0.711,0.098 -0.972,0.293c-0.262,0.195 -0.393,0.432 -0.393,0.709l-1.09,-0c0,-0.316 0.113,-0.622 0.337,-0.917c0.225,-0.295 0.529,-0.528 0.914,-0.7c0.385,-0.172 0.808,-0.258 1.269,-0.258c0.73,-0 1.302,0.183 1.717,0.548c0.414,0.365 0.628,0.868 0.644,1.509l0,2.918c0,0.582 0.074,1.045 0.223,1.388l-0,0.094l-1.137,0Zm-1.799,-0.826c0.34,-0 0.662,-0.088 0.967,-0.264c0.305,-0.176 0.525,-0.404 0.662,-0.685l0,-1.301l-0.85,-0c-1.328,-0 -1.992,0.389 -1.992,1.166c0,0.34 0.114,0.605 0.34,0.797c0.227,0.191 0.518,0.287 0.873,0.287Z" style="fill-rule:nonzero;"/><path d="M167.326,155.901c0,-0.972 0.231,-1.755 0.692,-2.346c0.461,-0.592 1.064,-0.888 1.81,-0.888c0.742,-0 1.33,0.254 1.764,0.762l-0,-3.305l1.084,0l-0,9l-0.996,0l-0.053,-0.68c-0.433,0.532 -1.037,0.797 -1.81,0.797c-0.735,0 -1.333,-0.301 -1.796,-0.902c-0.463,-0.602 -0.695,-1.387 -0.695,-2.356l0,-0.082Zm1.084,0.123c0,0.719 0.149,1.282 0.446,1.688c0.296,0.406 0.707,0.609 1.23,0.609c0.688,0 1.19,-0.308 1.506,-0.926l-0,-2.912c-0.324,-0.597 -0.822,-0.896 -1.494,-0.896c-0.531,-0 -0.946,0.205 -1.242,0.615c-0.297,0.41 -0.446,1.018 -0.446,1.822Z" style="fill-rule:nonzero;"/><path d="M176.988,159.241c-0.859,0 -1.558,-0.282 -2.097,-0.846c-0.539,-0.565 -0.809,-1.32 -0.809,-2.265l0,-0.199c0,-0.629 0.12,-1.191 0.361,-1.685c0.24,-0.494 0.576,-0.881 1.007,-1.16c0.432,-0.279 0.9,-0.419 1.404,-0.419c0.824,-0 1.465,0.271 1.922,0.814c0.457,0.543 0.685,1.321 0.685,2.332l0,0.452l-4.295,-0c0.016,0.625 0.198,1.13 0.548,1.514c0.35,0.385 0.794,0.577 1.333,0.577c0.383,0 0.707,-0.078 0.973,-0.234c0.265,-0.156 0.498,-0.363 0.697,-0.621l0.662,0.516c-0.531,0.816 -1.328,1.224 -2.391,1.224Zm-0.134,-5.683c-0.438,-0 -0.805,0.159 -1.102,0.477c-0.297,0.318 -0.48,0.765 -0.551,1.339l3.176,0l0,-0.082c-0.031,-0.551 -0.18,-0.978 -0.445,-1.28c-0.266,-0.303 -0.625,-0.454 -1.078,-0.454Z" style="fill-rule:nonzero;"/><path d="M189.041,156.024c0,0.965 -0.221,1.743 -0.662,2.332c-0.441,0.59 -1.039,0.885 -1.793,0.885c-0.769,0 -1.375,-0.244 -1.816,-0.732l-0,3.053l-1.084,-0l-0,-8.778l0.99,0l0.053,0.703c0.441,-0.547 1.054,-0.82 1.84,-0.82c0.761,-0 1.364,0.287 1.807,0.861c0.443,0.575 0.665,1.373 0.665,2.397l0,0.099Zm-1.084,-0.123c0,-0.714 -0.152,-1.279 -0.457,-1.693c-0.305,-0.414 -0.723,-0.621 -1.254,-0.621c-0.656,-0 -1.148,0.291 -1.476,0.873l-0,3.029c0.324,0.578 0.82,0.867 1.488,0.867c0.519,0 0.933,-0.206 1.239,-0.618c0.307,-0.412 0.46,-1.024 0.46,-1.837Z" style="fill-rule:nonzero;"/><path d="M193.483,153.757c-0.164,-0.028 -0.342,-0.041 -0.534,-0.041c-0.711,-0 -1.193,0.303 -1.447,0.908l0,4.5l-1.084,0l0,-6.34l1.055,0l0.017,0.733c0.356,-0.567 0.86,-0.85 1.512,-0.85c0.211,-0 0.371,0.027 0.481,0.082l-0,1.008Z" style="fill-rule:nonzero;"/><path d="M196.998,159.241c-0.859,0 -1.558,-0.282 -2.097,-0.846c-0.54,-0.565 -0.809,-1.32 -0.809,-2.265l-0,-0.199c-0,-0.629 0.12,-1.191 0.36,-1.685c0.241,-0.494 0.576,-0.881 1.008,-1.16c0.432,-0.279 0.9,-0.419 1.403,-0.419c0.825,-0 1.465,0.271 1.922,0.814c0.457,0.543 0.686,1.321 0.686,2.332l-0,0.452l-4.295,-0c0.016,0.625 0.198,1.13 0.548,1.514c0.349,0.385 0.794,0.577 1.333,0.577c0.383,0 0.707,-0.078 0.972,-0.234c0.266,-0.156 0.498,-0.363 0.698,-0.621l0.662,0.516c-0.531,0.816 -1.328,1.224 -2.391,1.224Zm-0.135,-5.683c-0.437,-0 -0.804,0.159 -1.101,0.477c-0.297,0.318 -0.481,0.765 -0.551,1.339l3.176,0l-0,-0.082c-0.031,-0.551 -0.18,-0.978 -0.445,-1.28c-0.266,-0.303 -0.625,-0.454 -1.079,-0.454Z" style="fill-rule:nonzero;"/><path d="M204.416,157.442c0,-0.293 -0.11,-0.52 -0.331,-0.682c-0.221,-0.162 -0.605,-0.302 -1.154,-0.419c-0.549,-0.117 -0.985,-0.258 -1.307,-0.422c-0.322,-0.164 -0.56,-0.359 -0.715,-0.586c-0.154,-0.227 -0.231,-0.496 -0.231,-0.809c-0,-0.519 0.22,-0.959 0.659,-1.318c0.44,-0.359 1.001,-0.539 1.685,-0.539c0.718,-0 1.301,0.186 1.749,0.557c0.447,0.371 0.671,0.845 0.671,1.423l-1.09,0c-0,-0.296 -0.126,-0.552 -0.378,-0.767c-0.252,-0.215 -0.57,-0.322 -0.952,-0.322c-0.395,-0 -0.703,0.086 -0.926,0.257c-0.223,0.172 -0.334,0.397 -0.334,0.674c-0,0.262 0.103,0.459 0.31,0.592c0.207,0.133 0.581,0.26 1.122,0.381c0.541,0.121 0.98,0.266 1.316,0.433c0.336,0.168 0.585,0.371 0.747,0.607c0.162,0.236 0.243,0.524 0.243,0.864c0,0.567 -0.226,1.021 -0.68,1.362c-0.453,0.342 -1.041,0.513 -1.763,0.513c-0.508,0 -0.957,-0.09 -1.348,-0.269c-0.39,-0.18 -0.696,-0.431 -0.917,-0.753c-0.221,-0.323 -0.331,-0.671 -0.331,-1.046l1.084,-0c0.02,0.363 0.165,0.651 0.437,0.864c0.271,0.213 0.629,0.319 1.075,0.319c0.41,0 0.739,-0.083 0.987,-0.249c0.248,-0.166 0.372,-0.387 0.372,-0.665Z" style="fill-rule:nonzero;"/><path d="M209.543,159.241c-0.859,0 -1.558,-0.282 -2.098,-0.846c-0.539,-0.565 -0.808,-1.32 -0.808,-2.265l-0,-0.199c-0,-0.629 0.12,-1.191 0.36,-1.685c0.24,-0.494 0.576,-0.881 1.008,-1.16c0.432,-0.279 0.899,-0.419 1.403,-0.419c0.825,-0 1.465,0.271 1.922,0.814c0.457,0.543 0.686,1.321 0.686,2.332l-0,0.452l-4.295,-0c0.015,0.625 0.198,1.13 0.548,1.514c0.349,0.385 0.794,0.577 1.333,0.577c0.383,0 0.707,-0.078 0.972,-0.234c0.266,-0.156 0.498,-0.363 0.698,-0.621l0.662,0.516c-0.532,0.816 -1.328,1.224 -2.391,1.224Zm-0.135,-5.683c-0.437,-0 -0.804,0.159 -1.101,0.477c-0.297,0.318 -0.481,0.765 -0.551,1.339l3.176,0l-0,-0.082c-0.031,-0.551 -0.18,-0.978 -0.446,-1.28c-0.265,-0.303 -0.625,-0.454 -1.078,-0.454Z" style="fill-rule:nonzero;"/><path d="M214.295,152.784l0.035,0.797c0.485,-0.609 1.117,-0.914 1.899,-0.914c1.34,-0 2.015,0.756 2.027,2.268l0,4.189l-1.084,0l0,-4.195c-0.004,-0.457 -0.108,-0.795 -0.313,-1.014c-0.206,-0.219 -0.525,-0.328 -0.958,-0.328c-0.352,-0 -0.661,0.094 -0.926,0.281c-0.266,0.188 -0.473,0.434 -0.621,0.738l-0,4.518l-1.084,0l-0,-6.34l1.025,0Z" style="fill-rule:nonzero;"/><path d="M221.361,151.249l0,1.535l1.184,0l0,0.838l-1.184,0l0,3.937c0,0.254 0.053,0.445 0.159,0.572c0.105,0.127 0.285,0.19 0.539,0.19c0.125,0 0.297,-0.023 0.515,-0.07l0,0.874c-0.285,0.077 -0.562,0.116 -0.832,0.116c-0.484,0 -0.849,-0.146 -1.095,-0.439c-0.246,-0.293 -0.37,-0.709 -0.37,-1.248l0,-3.932l-1.154,0l0,-0.838l1.154,0l0,-1.535l1.084,0Z" style="fill-rule:nonzero;"/><path d="M227.725,159.124c-0.063,-0.125 -0.114,-0.348 -0.153,-0.668c-0.503,0.523 -1.105,0.785 -1.804,0.785c-0.625,0 -1.138,-0.177 -1.538,-0.53c-0.401,-0.354 -0.601,-0.802 -0.601,-1.345c0,-0.66 0.251,-1.173 0.753,-1.538c0.502,-0.365 1.208,-0.548 2.118,-0.548l1.055,0l-0,-0.498c-0,-0.379 -0.113,-0.68 -0.34,-0.905c-0.227,-0.225 -0.561,-0.337 -1.002,-0.337c-0.387,0 -0.711,0.098 -0.973,0.293c-0.261,0.195 -0.392,0.432 -0.392,0.709l-1.09,-0c-0,-0.316 0.112,-0.622 0.337,-0.917c0.224,-0.295 0.529,-0.528 0.914,-0.7c0.385,-0.172 0.808,-0.258 1.268,-0.258c0.731,-0 1.303,0.183 1.717,0.548c0.414,0.365 0.629,0.868 0.645,1.509l-0,2.918c-0,0.582 0.074,1.045 0.222,1.388l0,0.094l-1.136,0Zm-1.799,-0.826c0.34,-0 0.662,-0.088 0.967,-0.264c0.304,-0.176 0.525,-0.404 0.662,-0.685l-0,-1.301l-0.85,-0c-1.328,-0 -1.992,0.389 -1.992,1.166c0,0.34 0.113,0.605 0.34,0.797c0.226,0.191 0.517,0.287 0.873,0.287Z" style="fill-rule:nonzero;"/><path d="M232.881,158.356c0.387,0 0.725,-0.117 1.014,-0.351c0.289,-0.235 0.449,-0.527 0.48,-0.879l1.026,-0c-0.02,0.363 -0.145,0.709 -0.375,1.037c-0.231,0.328 -0.539,0.59 -0.923,0.785c-0.385,0.196 -0.792,0.293 -1.222,0.293c-0.863,0 -1.55,-0.288 -2.06,-0.864c-0.509,-0.576 -0.764,-1.364 -0.764,-2.364l-0,-0.182c-0,-0.617 0.113,-1.166 0.34,-1.646c0.226,-0.481 0.551,-0.854 0.975,-1.12c0.424,-0.265 0.925,-0.398 1.503,-0.398c0.711,-0 1.302,0.213 1.773,0.639c0.47,0.425 0.721,0.978 0.753,1.658l-1.026,-0c-0.031,-0.41 -0.186,-0.747 -0.466,-1.011c-0.279,-0.264 -0.624,-0.395 -1.034,-0.395c-0.551,-0 -0.977,0.198 -1.28,0.594c-0.303,0.397 -0.454,0.97 -0.454,1.72l-0,0.205c-0,0.731 0.15,1.293 0.451,1.688c0.301,0.394 0.73,0.591 1.289,0.591Z" style="fill-rule:nonzero;"/><path d="M237.797,159.124l-1.084,0l0,-6.34l1.084,0l0,6.34Zm-1.172,-8.021c0,-0.176 0.054,-0.325 0.161,-0.446c0.108,-0.121 0.267,-0.181 0.478,-0.181c0.211,-0 0.371,0.06 0.48,0.181c0.11,0.121 0.164,0.27 0.164,0.446c0,0.175 -0.054,0.322 -0.164,0.439c-0.109,0.117 -0.269,0.176 -0.48,0.176c-0.211,-0 -0.37,-0.059 -0.478,-0.176c-0.107,-0.117 -0.161,-0.264 -0.161,-0.439Z" style="fill-rule:nonzero;"/><path d="M239.244,155.895c0,-0.621 0.122,-1.179 0.366,-1.675c0.245,-0.496 0.584,-0.879 1.02,-1.149c0.436,-0.269 0.933,-0.404 1.491,-0.404c0.864,-0 1.562,0.299 2.095,0.896c0.533,0.598 0.8,1.393 0.8,2.385l-0,0.076c-0,0.618 -0.118,1.171 -0.355,1.662c-0.236,0.49 -0.574,0.872 -1.013,1.145c-0.44,0.273 -0.945,0.41 -1.515,0.41c-0.859,0 -1.556,-0.299 -2.089,-0.896c-0.533,-0.598 -0.8,-1.389 -0.8,-2.373l0,-0.077Zm1.09,0.129c0,0.704 0.163,1.268 0.489,1.694c0.327,0.426 0.763,0.638 1.31,0.638c0.551,0 0.988,-0.215 1.312,-0.647c0.325,-0.432 0.487,-1.036 0.487,-1.814c-0,-0.695 -0.165,-1.258 -0.495,-1.69c-0.33,-0.432 -0.769,-0.647 -1.316,-0.647c-0.535,-0 -0.967,0.212 -1.295,0.638c-0.328,0.426 -0.492,1.035 -0.492,1.828Zm2.279,-5.888l1.313,-0l-1.57,1.722l-0.873,-0.003l1.13,-1.719Z" style="fill-rule:nonzero;"/><path d="M247.401,152.784l0.035,0.797c0.484,-0.609 1.117,-0.914 1.898,-0.914c1.34,-0 2.016,0.756 2.027,2.268l0,4.189l-1.084,0l0,-4.195c-0.003,-0.457 -0.108,-0.795 -0.313,-1.014c-0.205,-0.219 -0.524,-0.328 -0.958,-0.328c-0.352,-0 -0.66,0.094 -0.926,0.281c-0.265,0.188 -0.472,0.434 -0.621,0.738l0,4.518l-1.084,0l0,-6.34l1.026,0Z" style="fill-rule:nonzero;"/></g><g><path d="M382.427,198.941l-4.404,0l-0,4.635l-1.384,0l-0,-10.496l6.502,0l0,1.132l-5.118,0l-0,3.597l4.404,0l0,1.132Z" style="fill-rule:nonzero;"/><path d="M384.086,199.604c-0,-0.764 0.15,-1.451 0.45,-2.061c0.3,-0.611 0.719,-1.082 1.254,-1.413c0.536,-0.332 1.148,-0.498 1.835,-0.498c1.062,0 1.921,0.368 2.577,1.103c0.656,0.735 0.984,1.713 0.984,2.934l0,0.094c0,0.759 -0.145,1.441 -0.436,2.044c-0.291,0.603 -0.706,1.073 -1.247,1.409c-0.541,0.336 -1.162,0.505 -1.863,0.505c-1.058,-0 -1.914,-0.368 -2.57,-1.103c-0.656,-0.736 -0.984,-1.709 -0.984,-2.92l-0,-0.094Zm1.34,0.159c0,0.865 0.201,1.559 0.602,2.083c0.402,0.524 0.939,0.786 1.612,0.786c0.677,0 1.215,-0.265 1.614,-0.796c0.399,-0.532 0.599,-1.275 0.599,-2.232c-0,-0.855 -0.203,-1.548 -0.609,-2.079c-0.407,-0.532 -0.946,-0.797 -1.619,-0.797c-0.658,-0 -1.189,0.262 -1.593,0.786c-0.404,0.524 -0.606,1.273 -0.606,2.249Z" style="fill-rule:nonzero;"/><rect x="392.974" y="192.503" width="1.334" height="11.073" style="fill-rule:nonzero;"/><path d="M397.891,203.576l-1.334,0l0,-7.8l1.334,0l-0,7.8Zm-1.442,-9.869c-0,-0.216 0.066,-0.399 0.198,-0.548c0.132,-0.148 0.328,-0.223 0.588,-0.223c0.259,0 0.456,0.075 0.591,0.223c0.134,0.149 0.202,0.332 0.202,0.548c-0,0.217 -0.068,0.397 -0.202,0.541c-0.135,0.144 -0.332,0.216 -0.591,0.216c-0.26,0 -0.456,-0.072 -0.588,-0.216c-0.132,-0.144 -0.198,-0.324 -0.198,-0.541Z" style="fill-rule:nonzero;"/><path d="M399.671,199.604c0,-0.764 0.151,-1.451 0.451,-2.061c0.3,-0.611 0.718,-1.082 1.254,-1.413c0.536,-0.332 1.148,-0.498 1.835,-0.498c1.062,0 1.921,0.368 2.577,1.103c0.656,0.735 0.984,1.713 0.984,2.934l0,0.094c0,0.759 -0.145,1.441 -0.436,2.044c-0.291,0.603 -0.706,1.073 -1.247,1.409c-0.541,0.336 -1.162,0.505 -1.864,0.505c-1.057,-0 -1.914,-0.368 -2.57,-1.103c-0.656,-0.736 -0.984,-1.709 -0.984,-2.92l0,-0.094Zm1.341,0.159c0,0.865 0.201,1.559 0.602,2.083c0.402,0.524 0.939,0.786 1.611,0.786c0.678,0 1.216,-0.265 1.615,-0.796c0.399,-0.532 0.599,-1.275 0.599,-2.232c-0,-0.855 -0.203,-1.548 -0.61,-2.079c-0.406,-0.532 -0.945,-0.797 -1.618,-0.797c-0.658,-0 -1.189,0.262 -1.593,0.786c-0.404,0.524 -0.606,1.273 -0.606,2.249Z" style="fill-rule:nonzero;"/><path d="M418.105,200.83l-4.398,-0l-0.987,2.746l-1.428,0l4.008,-10.496l1.212,0l4.015,10.496l-1.42,0l-1.002,-2.746Zm-3.98,-1.132l3.569,0l-1.788,-4.909l-1.781,4.909Z" style="fill-rule:nonzero;"/><path d="M427.224,200.051l1.456,0l0,1.089l-1.456,-0l0,2.436l-1.341,0l0,-2.436l-4.779,-0l-0,-0.786l4.7,-7.274l1.42,0l0,6.971Zm-4.606,0l3.265,0l0,-5.147l-0.158,0.288l-3.107,4.859Z" style="fill-rule:nonzero;"/></g><g><path d="M605.213,188.76c-1.23,-0.354 -2.126,-0.789 -2.686,-1.305c-0.561,-0.515 -0.841,-1.152 -0.841,-1.909c-0,-0.857 0.342,-1.566 1.027,-2.126c0.686,-0.561 1.576,-0.841 2.672,-0.841c0.748,-0 1.414,0.144 2,0.433c0.585,0.289 1.038,0.688 1.36,1.196c0.321,0.508 0.482,1.064 0.482,1.667l-1.443,-0c0,-0.66 -0.209,-1.179 -0.627,-1.557c-0.419,-0.377 -1.009,-0.566 -1.772,-0.566c-0.707,0 -1.259,0.156 -1.655,0.468c-0.396,0.312 -0.594,0.745 -0.594,1.299c-0,0.444 0.188,0.82 0.564,1.127c0.376,0.307 1.016,0.588 1.921,0.842c0.904,0.255 1.612,0.535 2.122,0.842c0.511,0.306 0.89,0.664 1.136,1.072c0.247,0.409 0.37,0.89 0.37,1.443c0,0.882 -0.344,1.588 -1.031,2.118c-0.688,0.531 -1.607,0.796 -2.758,0.796c-0.747,0 -1.445,-0.143 -2.093,-0.429c-0.647,-0.287 -1.147,-0.679 -1.498,-1.177c-0.351,-0.499 -0.527,-1.064 -0.527,-1.697l1.442,0c0,0.658 0.243,1.177 0.729,1.558c0.486,0.381 1.135,0.572 1.947,0.572c0.757,0 1.338,-0.154 1.741,-0.463c0.404,-0.309 0.606,-0.73 0.606,-1.263c-0,-0.533 -0.187,-0.946 -0.561,-1.237c-0.373,-0.292 -1.051,-0.579 -2.033,-0.863Z" style="fill-rule:nonzero;"/><path d="M610.505,189.492c-0,-0.792 0.156,-1.505 0.467,-2.138c0.311,-0.632 0.745,-1.121 1.3,-1.464c0.556,-0.344 1.19,-0.516 1.902,-0.516c1.102,-0 1.992,0.381 2.672,1.143c0.68,0.763 1.02,1.777 1.02,3.042l0,0.097c0,0.788 -0.15,1.494 -0.452,2.119c-0.301,0.625 -0.732,1.113 -1.293,1.461c-0.56,0.349 -1.204,0.523 -1.932,0.523c-1.096,0 -1.984,-0.381 -2.664,-1.143c-0.68,-0.762 -1.02,-1.771 -1.02,-3.027l-0,-0.097Zm1.39,0.164c-0,0.897 0.208,1.617 0.624,2.16c0.416,0.543 0.973,0.815 1.67,0.815c0.703,-0 1.261,-0.275 1.674,-0.826c0.414,-0.55 0.621,-1.322 0.621,-2.313c-0,-0.887 -0.211,-1.606 -0.632,-2.156c-0.421,-0.551 -0.98,-0.826 -1.678,-0.826c-0.682,-0 -1.233,0.271 -1.651,0.815c-0.419,0.543 -0.628,1.32 -0.628,2.331Z" style="fill-rule:nonzero;"/><path d="M626.446,189.656c0,1.236 -0.284,2.229 -0.852,2.979c-0.568,0.75 -1.33,1.124 -2.287,1.124c-1.021,0 -1.811,-0.361 -2.369,-1.083l-0.067,0.934l-1.271,-0l0,-11.48l1.383,0l-0,4.283c0.558,-0.693 1.328,-1.039 2.309,-1.039c0.982,-0 1.753,0.371 2.314,1.114c0.56,0.742 0.84,1.758 0.84,3.049l0,0.119Zm-1.382,-0.157c-0,-0.941 -0.182,-1.669 -0.546,-2.182c-0.364,-0.513 -0.887,-0.77 -1.569,-0.77c-0.912,0 -1.567,0.424 -1.966,1.271l-0,3.498c0.424,0.847 1.084,1.27 1.981,1.27c0.662,0 1.178,-0.257 1.547,-0.77c0.368,-0.513 0.553,-1.285 0.553,-2.317Z" style="fill-rule:nonzero;"/><path d="M632.096,186.764c-0.209,-0.035 -0.436,-0.052 -0.68,-0.052c-0.906,-0 -1.522,0.386 -1.846,1.158l0,5.74l-1.382,-0l-0,-8.087l1.345,0l0.022,0.935c0.454,-0.723 1.097,-1.084 1.929,-1.084c0.269,-0 0.473,0.035 0.612,0.105l0,1.285Z" style="fill-rule:nonzero;"/><path d="M636.581,193.759c-1.096,0 -1.988,-0.36 -2.676,-1.08c-0.688,-0.719 -1.031,-1.682 -1.031,-2.888l-0,-0.254c-0,-0.802 0.153,-1.519 0.459,-2.149c0.307,-0.63 0.735,-1.123 1.286,-1.48c0.55,-0.356 1.147,-0.534 1.79,-0.534c1.051,-0 1.868,0.346 2.451,1.039c0.583,0.692 0.875,1.684 0.875,2.974l-0,0.576l-5.479,-0c0.02,0.797 0.253,1.441 0.699,1.932c0.446,0.491 1.013,0.736 1.7,0.736c0.489,-0 0.902,-0.1 1.241,-0.299c0.339,-0.199 0.635,-0.463 0.889,-0.792l0.845,0.657c-0.678,1.042 -1.694,1.562 -3.049,1.562Zm-0.172,-7.249c-0.558,-0 -1.027,0.203 -1.405,0.609c-0.379,0.406 -0.613,0.975 -0.703,1.708l4.051,-0l-0,-0.105c-0.04,-0.702 -0.229,-1.247 -0.568,-1.633c-0.339,-0.386 -0.797,-0.579 -1.375,-0.579Z" style="fill-rule:nonzero;"/><path d="M652.111,193.61l-7.13,-0l0,-0.994l3.767,-4.185c0.558,-0.633 0.943,-1.148 1.155,-1.544c0.211,-0.396 0.317,-0.806 0.317,-1.229c0,-0.568 -0.172,-1.034 -0.515,-1.398c-0.344,-0.363 -0.803,-0.545 -1.376,-0.545c-0.687,-0 -1.222,0.195 -1.603,0.586c-0.381,0.392 -0.571,0.936 -0.571,1.633l-1.383,0c-0,-1.001 0.323,-1.811 0.968,-2.429c0.645,-0.617 1.508,-0.926 2.589,-0.926c1.012,-0 1.812,0.265 2.399,0.796c0.588,0.53 0.882,1.237 0.882,2.119c0,1.071 -0.682,2.346 -2.047,3.826l-2.915,3.161l5.463,0l0,1.129Z" style="fill-rule:nonzero;"/><path d="M660.706,193.61l-7.13,-0l-0,-0.994l3.767,-4.185c0.558,-0.633 0.943,-1.148 1.154,-1.544c0.212,-0.396 0.318,-0.806 0.318,-1.229c0,-0.568 -0.172,-1.034 -0.516,-1.398c-0.343,-0.363 -0.802,-0.545 -1.375,-0.545c-0.687,-0 -1.222,0.195 -1.603,0.586c-0.381,0.392 -0.572,0.936 -0.572,1.633l-1.382,0c-0,-1.001 0.322,-1.811 0.968,-2.429c0.645,-0.617 1.508,-0.926 2.589,-0.926c1.012,-0 1.811,0.265 2.399,0.796c0.588,0.53 0.882,1.237 0.882,2.119c0,1.071 -0.682,2.346 -2.048,3.826l-2.914,3.161l5.463,0l-0,1.129Z" style="fill-rule:nonzero;"/><path d="M668.994,188.969c0,1.619 -0.276,2.822 -0.829,3.61c-0.553,0.787 -1.418,1.18 -2.594,1.18c-1.161,0 -2.02,-0.384 -2.578,-1.154c-0.558,-0.77 -0.847,-1.92 -0.867,-3.449l-0,-1.846c-0,-1.6 0.276,-2.788 0.829,-3.565c0.554,-0.778 1.42,-1.166 2.601,-1.166c1.171,-0 2.033,0.375 2.586,1.125c0.553,0.749 0.837,1.907 0.852,3.471l0,1.794Zm-1.382,-1.891c-0,-1.171 -0.165,-2.024 -0.494,-2.56c-0.328,-0.535 -0.849,-0.803 -1.562,-0.803c-0.707,-0 -1.223,0.266 -1.547,0.799c-0.324,0.534 -0.49,1.353 -0.5,2.459l-0,2.213c-0,1.175 0.17,2.044 0.511,2.604c0.342,0.561 0.859,0.841 1.551,0.841c0.683,-0 1.19,-0.264 1.521,-0.792c0.332,-0.528 0.505,-1.361 0.52,-2.497l-0,-2.264Z" style="fill-rule:nonzero;"/><path d="M677.41,188.476l1.793,-2.953l1.615,0l-2.646,3.999l2.728,4.088l-1.599,-0l-1.869,-3.027l-1.868,3.027l-1.607,-0l2.728,-4.088l-2.646,-3.999l1.599,0l1.772,2.953Z" style="fill-rule:nonzero;"/><path d="M690.474,193.61l-1.39,-0l-0,-9.215l-2.788,1.024l-0,-1.256l3.961,-1.487l0.217,-0l-0,10.934Z" style="fill-rule:nonzero;"/><path d="M699.069,193.61l-1.391,-0l0,-9.215l-2.787,1.024l-0,-1.256l3.961,-1.487l0.217,-0l-0,10.934Z" style="fill-rule:nonzero;"/><path d="M709.943,188.969c-0,1.619 -0.277,2.822 -0.83,3.61c-0.553,0.787 -1.417,1.18 -2.593,1.18c-1.161,0 -2.021,-0.384 -2.579,-1.154c-0.558,-0.77 -0.847,-1.92 -0.867,-3.449l0,-1.846c0,-1.6 0.277,-2.788 0.83,-3.565c0.553,-0.778 1.42,-1.166 2.601,-1.166c1.171,-0 2.033,0.375 2.586,1.125c0.553,0.749 0.837,1.907 0.852,3.471l-0,1.794Zm-1.383,-1.891c0,-1.171 -0.164,-2.024 -0.493,-2.56c-0.329,-0.535 -0.85,-0.803 -1.562,-0.803c-0.708,-0 -1.223,0.266 -1.547,0.799c-0.324,0.534 -0.491,1.353 -0.501,2.459l0,2.213c0,1.175 0.171,2.044 0.512,2.604c0.341,0.561 0.858,0.841 1.551,0.841c0.682,-0 1.189,-0.264 1.521,-0.792c0.331,-0.528 0.504,-1.361 0.519,-2.497l0,-2.264Z" style="fill-rule:nonzero;"/><path d="M716.946,185.523l0.037,0.897c0.593,-0.697 1.393,-1.046 2.399,-1.046c1.131,-0 1.901,0.433 2.31,1.3c0.269,-0.388 0.619,-0.702 1.05,-0.941c0.431,-0.239 0.94,-0.359 1.528,-0.359c1.774,-0 2.676,0.939 2.705,2.818l0,5.418l-1.382,-0l-0,-5.336c-0,-0.578 -0.132,-1.01 -0.396,-1.297c-0.264,-0.286 -0.708,-0.43 -1.331,-0.43c-0.513,0 -0.939,0.154 -1.278,0.46c-0.338,0.306 -0.535,0.719 -0.59,1.237l-0,5.366l-1.39,-0l-0,-5.299c-0,-1.176 -0.576,-1.764 -1.727,-1.764c-0.906,0 -1.527,0.386 -1.861,1.159l0,5.904l-1.382,-0l-0,-8.087l1.308,0Z" style="fill-rule:nonzero;"/><path d="M730.361,185.523l0.037,0.897c0.593,-0.697 1.393,-1.046 2.4,-1.046c1.131,-0 1.9,0.433 2.309,1.3c0.269,-0.388 0.619,-0.702 1.05,-0.941c0.431,-0.239 0.94,-0.359 1.528,-0.359c1.774,-0 2.676,0.939 2.706,2.818l-0,5.418l-1.383,-0l0,-5.336c0,-0.578 -0.132,-1.01 -0.396,-1.297c-0.264,-0.286 -0.707,-0.43 -1.33,-0.43c-0.513,0 -0.939,0.154 -1.278,0.46c-0.339,0.306 -0.536,0.719 -0.591,1.237l0,5.366l-1.39,-0l0,-5.299c0,-1.176 -0.575,-1.764 -1.726,-1.764c-0.907,0 -1.527,0.386 -1.861,1.159l-0,5.904l-1.383,-0l0,-8.087l1.308,0Z" style="fill-rule:nonzero;"/></g><g><path d="M163.884,167.611c-0,0.425 -0.112,0.804 -0.337,1.136c-0.225,0.332 -0.528,0.592 -0.911,0.78c0.445,0.191 0.798,0.47 1.058,0.838c0.259,0.367 0.389,0.783 0.389,1.248c0,0.738 -0.249,1.326 -0.747,1.763c-0.498,0.438 -1.153,0.657 -1.966,0.657c-0.82,-0 -1.477,-0.22 -1.971,-0.66c-0.495,-0.439 -0.742,-1.026 -0.742,-1.76c0,-0.461 0.126,-0.877 0.378,-1.248c0.252,-0.372 0.601,-0.653 1.046,-0.844c-0.379,-0.188 -0.678,-0.447 -0.896,-0.779c-0.219,-0.333 -0.328,-0.709 -0.328,-1.131c-0,-0.719 0.23,-1.289 0.691,-1.711c0.461,-0.422 1.068,-0.633 1.822,-0.633c0.75,-0 1.357,0.211 1.82,0.633c0.462,0.422 0.694,0.992 0.694,1.711Zm-0.885,3.978c0,-0.476 -0.151,-0.865 -0.454,-1.166c-0.303,-0.301 -0.698,-0.451 -1.186,-0.451c-0.489,-0 -0.88,0.148 -1.175,0.445c-0.295,0.297 -0.443,0.688 -0.443,1.172c0,0.485 0.144,0.865 0.431,1.143c0.287,0.277 0.687,0.416 1.198,0.416c0.508,-0 0.907,-0.14 1.196,-0.419c0.289,-0.279 0.433,-0.659 0.433,-1.14Zm-1.629,-5.431c-0.426,-0 -0.77,0.131 -1.034,0.395c-0.264,0.264 -0.395,0.622 -0.395,1.075c-0,0.434 0.129,0.784 0.389,1.052c0.26,0.268 0.607,0.401 1.04,0.401c0.434,0 0.781,-0.133 1.04,-0.401c0.26,-0.268 0.39,-0.618 0.39,-1.052c-0,-0.433 -0.135,-0.787 -0.404,-1.06c-0.27,-0.274 -0.612,-0.41 -1.026,-0.41Z" style="fill-rule:nonzero;"/><path d="M165.946,169.638l0.434,-4.254l4.371,0l0,1.002l-3.451,0l-0.258,2.326c0.418,-0.246 0.893,-0.369 1.424,-0.369c0.777,0 1.394,0.257 1.852,0.771c0.457,0.513 0.685,1.208 0.685,2.083c0,0.878 -0.237,1.571 -0.712,2.077c-0.474,0.506 -1.138,0.759 -1.989,0.759c-0.754,-0 -1.369,-0.209 -1.846,-0.627c-0.476,-0.418 -0.748,-0.997 -0.814,-1.735l1.025,0c0.067,0.488 0.24,0.857 0.522,1.105c0.281,0.248 0.652,0.372 1.113,0.372c0.504,-0 0.899,-0.172 1.186,-0.516c0.288,-0.344 0.431,-0.818 0.431,-1.424c0,-0.57 -0.155,-1.028 -0.466,-1.374c-0.31,-0.345 -0.723,-0.518 -1.239,-0.518c-0.473,-0 -0.844,0.103 -1.113,0.31l-0.287,0.235l-0.868,-0.223Z" style="fill-rule:nonzero;"/><path d="M177.396,169.89l1.406,-2.315l1.266,0l-2.075,3.135l2.139,3.205l-1.254,0l-1.465,-2.373l-1.465,2.373l-1.259,0l2.138,-3.205l-2.074,-3.135l1.254,0l1.389,2.315Z" style="fill-rule:nonzero;"/><path d="M184.573,169.638l0.434,-4.254l4.371,0l0,1.002l-3.451,0l-0.258,2.326c0.418,-0.246 0.893,-0.369 1.424,-0.369c0.777,0 1.394,0.257 1.851,0.771c0.458,0.513 0.686,1.208 0.686,2.083c0,0.878 -0.237,1.571 -0.712,2.077c-0.474,0.506 -1.138,0.759 -1.989,0.759c-0.754,-0 -1.369,-0.209 -1.846,-0.627c-0.476,-0.418 -0.748,-0.997 -0.814,-1.735l1.025,0c0.066,0.488 0.24,0.857 0.522,1.105c0.281,0.248 0.652,0.372 1.113,0.372c0.504,-0 0.899,-0.172 1.186,-0.516c0.287,-0.344 0.431,-0.818 0.431,-1.424c0,-0.57 -0.155,-1.028 -0.466,-1.374c-0.31,-0.345 -0.723,-0.518 -1.239,-0.518c-0.473,-0 -0.844,0.103 -1.113,0.31l-0.287,0.235l-0.868,-0.223Z" style="fill-rule:nonzero;"/><path d="M191.312,169.638l0.433,-4.254l4.371,0l0,1.002l-3.451,0l-0.258,2.326c0.418,-0.246 0.893,-0.369 1.424,-0.369c0.778,0 1.395,0.257 1.852,0.771c0.457,0.513 0.685,1.208 0.685,2.083c0,0.878 -0.237,1.571 -0.712,2.077c-0.474,0.506 -1.137,0.759 -1.989,0.759c-0.754,-0 -1.369,-0.209 -1.846,-0.627c-0.476,-0.418 -0.748,-0.997 -0.814,-1.735l1.025,0c0.067,0.488 0.241,0.857 0.522,1.105c0.281,0.248 0.652,0.372 1.113,0.372c0.504,-0 0.9,-0.172 1.187,-0.516c0.287,-0.344 0.43,-0.818 0.43,-1.424c0,-0.57 -0.155,-1.028 -0.465,-1.374c-0.311,-0.345 -0.724,-0.518 -1.24,-0.518c-0.472,-0 -0.844,0.103 -1.113,0.31l-0.287,0.235l-0.867,-0.223Z" style="fill-rule:nonzero;"/><path d="M201.653,167.575l0.03,0.704c0.465,-0.547 1.092,-0.821 1.881,-0.821c0.886,0 1.49,0.34 1.81,1.02c0.211,-0.305 0.486,-0.551 0.823,-0.738c0.338,-0.188 0.738,-0.282 1.199,-0.282c1.39,0 2.097,0.737 2.121,2.209l-0,4.248l-1.084,0l-0,-4.183c-0,-0.453 -0.104,-0.792 -0.311,-1.017c-0.207,-0.224 -0.554,-0.337 -1.043,-0.337c-0.402,0 -0.736,0.12 -1.002,0.361c-0.265,0.24 -0.42,0.563 -0.463,0.969l0,4.207l-1.089,0l-0,-4.154c-0,-0.922 -0.452,-1.383 -1.354,-1.383c-0.711,0 -1.197,0.303 -1.459,0.908l0,4.629l-1.084,0l0,-6.34l1.025,0Z" style="fill-rule:nonzero;"/><path d="M212.171,167.575l0.029,0.704c0.465,-0.547 1.092,-0.821 1.881,-0.821c0.887,0 1.49,0.34 1.811,1.02c0.211,-0.305 0.485,-0.551 0.823,-0.738c0.338,-0.188 0.737,-0.282 1.198,-0.282c1.391,0 2.098,0.737 2.121,2.209l0,4.248l-1.084,0l0,-4.183c0,-0.453 -0.103,-0.792 -0.31,-1.017c-0.207,-0.224 -0.555,-0.337 -1.043,-0.337c-0.403,0 -0.737,0.12 -1.002,0.361c-0.266,0.24 -0.42,0.563 -0.463,0.969l-0,4.207l-1.09,0l0,-4.154c0,-0.922 -0.451,-1.383 -1.353,-1.383c-0.711,0 -1.198,0.303 -1.459,0.908l-0,4.629l-1.084,0l-0,-6.34l1.025,0Z" style="fill-rule:nonzero;"/></g><path d="M750.952,80.645l-205.558,-0" style="fill:none;stroke:#b5d268;stroke-opacity:0.6;stroke-width:3px;"/><rect x="116.843" y="111.491" width="145.005" height="93.475" style="fill:none;stroke:#b5d268;stroke-width:3px;"/><rect x="304.391" y="30.001" width="196.536" height="277.428" style="fill:none;stroke:#b5d268;stroke-width:3px;"/><path d="M564.802,183.333l-0,51.521l206.722,-0l0,-103.661l-206.722,-0l-0,52.14l-19.408,0l0,-102.688l9.425,25.525l178.722,-0l16.874,-25.525l-0,50.548" style="fill:none;stroke:#b5d268;stroke-width:3px;"/></svg>