<svg xmlns="http://www.w3.org/2000/svg" width="115.795" height="98" viewBox="0 0 115.795 98">
  <g id="libro" transform="translate(0 -36.908)">
    <g id="Grupo_55046" data-name="Grupo 55046" transform="translate(1.808 38.716)">
      <g id="Grupo_55036" data-name="Grupo 55036" transform="translate(0 18.241)">
        <path id="Trazado_104304" data-name="Trazado 104304" d="M63.589,120.076H12.321A4.821,4.821,0,0,0,7.5,124.9v66.5a4.821,4.821,0,0,0,4.821,4.821H114.858a4.821,4.821,0,0,0,4.821-4.821V124.9a4.821,4.821,0,0,0-4.821-4.821Z" transform="translate(-7.5 -120.076)" fill="#bb696a"/>
      </g>
      <g id="Grupo_55037" data-name="Grupo 55037" transform="translate(56.089 12.936)">
        <path id="Trazado_104305" data-name="Trazado 104305" d="M288.852,171.8h-48.68V102.889a4.821,4.821,0,0,1,4.821-4.821h43.844Z" transform="translate(-240.171 -98.068)" fill="#fef2e2"/>
      </g>
      <g id="Grupo_55038" data-name="Grupo 55038" transform="translate(99.941 12.936)">
        <path id="Trazado_104306" data-name="Trazado 104306" d="M422.077,98.068H426.9V171.8h-4.821Z" transform="translate(-422.077 -98.068)" fill="#ffe1ba"/>
      </g>
      <g id="Grupo_55039" data-name="Grupo 55039" transform="translate(7.424 4.672)">
        <path id="Trazado_104307" data-name="Trazado 104307" d="M86.976,145.789H38.3V72.052l10.172-4.81a37.009,37.009,0,0,1,35.11,2.108,7.218,7.218,0,0,1,3.385,6.125Z" transform="translate(-38.296 -63.788)" fill="#fef2e2"/>
      </g>
      <g id="Grupo_55040" data-name="Grupo 55040" transform="translate(47.276 7.457)">
        <path id="Trazado_104308" data-name="Trazado 104308" d="M212.425,84.242a7.218,7.218,0,0,0-3.385-6.125,36.241,36.241,0,0,0-5.429-2.776c.2.121.407.24.607.366a7.218,7.218,0,0,1,3.385,6.125l.014,72.725h4.821Z" transform="translate(-203.611 -75.341)" fill="#ffe1ba"/>
      </g>
      <g id="Grupo_55041" data-name="Grupo 55041" transform="translate(56.089 75.448)">
        <path id="Trazado_104309" data-name="Trazado 104309" d="M288.852,368.606h-48.68v-6.4a4.821,4.821,0,0,1,4.821-4.821h43.844Z" transform="translate(-240.171 -357.381)" fill="#ffe1ba"/>
      </g>
      <g id="Grupo_55042" data-name="Grupo 55042" transform="translate(7.424 66.627)">
        <path id="Trazado_104310" data-name="Trazado 104310" d="M86.961,332.475a7.218,7.218,0,0,0-3.385-6.125,37.009,37.009,0,0,0-35.11-2.108l-10.172,4.81v11.782H86.963Z" transform="translate(-38.295 -320.789)" fill="#ffe1ba"/>
      </g>
      <g id="Grupo_55043" data-name="Grupo 55043" transform="translate(7.424 66.627)">
        <path id="Trazado_104311" data-name="Trazado 104311" d="M48.468,324.242,38.3,329.052v.558H86.369a7.183,7.183,0,0,0-2.792-3.26,37.009,37.009,0,0,0-35.109-2.108Z" transform="translate(-38.296 -320.788)" fill="#ffc277"/>
      </g>
      <g id="Grupo_55044" data-name="Grupo 55044" transform="translate(25.393 0)">
        <path id="Trazado_104312" data-name="Trazado 104312" d="M112.835,44.408H127.3V72.785l-7.232-1.929-7.232,1.929Z" transform="translate(-112.835 -44.408)" fill="#f88fa4"/>
      </g>
      <g id="Grupo_55045" data-name="Grupo 55045" transform="translate(35.036 0)">
        <path id="Trazado_104313" data-name="Trazado 104313" d="M152.835,44.407V71.5l4.821,1.286V44.407Z" transform="translate(-152.835 -44.407)" fill="#f05475"/>
      </g>
    </g>
    <g id="Grupo_55047" data-name="Grupo 55047" transform="translate(0 36.908)">
      <path id="Trazado_104314" data-name="Trazado 104314" d="M115.795,105.877v-44.1a6.637,6.637,0,0,0-6.629-6.629h-.794V49.844H62.719A6.592,6.592,0,0,0,58.8,51.13c-.07-.145-.142-.29-.22-.431a9.008,9.008,0,0,0-3.11-3.284,38.256,38.256,0,0,0-12-4.894V36.908H25.393v5.87a37.565,37.565,0,0,0-6.762,2.429l-11.207,5.3v4.642H6.629A6.637,6.637,0,0,0,0,61.778v66.5a6.637,6.637,0,0,0,6.629,6.629H109.166a6.637,6.637,0,0,0,6.629-6.629V109.753h-3.616v18.526a3.017,3.017,0,0,1-3.013,3.013H6.629a3.017,3.017,0,0,1-3.013-3.013v-66.5a3.017,3.017,0,0,1,3.013-3.013h.795V127.2H108.386l-.014-68.431h.793a3.017,3.017,0,0,1,3.013,3.013v44.1ZM29.009,40.524H39.857V64.739l-5.424-1.446-5.424,1.446Zm-8.832,7.952a33.885,33.885,0,0,1,5.216-1.954V69.446l9.04-2.411,9.04,2.411V46.235a34.606,34.606,0,0,1,10.083,4.248,5.385,5.385,0,0,1,1.858,1.963,5.455,5.455,0,0,1,.676,2.628v1.371c0,.009,0,.019,0,.028V66.02h3.616V58.868h0V56.459a3.016,3.016,0,0,1,3.013-3h42.036v3.5l.011,55.4H62.719a6.583,6.583,0,0,0-3.013.728V69.877H56.089V109.8c-.2-.149-.4-.294-.619-.427a38.853,38.853,0,0,0-36.84-2.208l-7.59,3.59V52.8Zm-9.136,75.1v-8.829l9.136-4.321a35.2,35.2,0,0,1,33.243,1.925H29v3.616H55.988c.066.337.1,7.609.1,7.609H11.04Zm48.666,0v-4.6a3.017,3.017,0,0,1,3.013-3.013h42.049v7.609Z" transform="translate(0 -36.908)"/>
      <path id="Trazado_104315" data-name="Trazado 104315" d="M90.171,349.881h3.616V353.5H90.171Z" transform="translate(-68.434 -274.433)"/>
      <path id="Trazado_104316" data-name="Trazado 104316" d="M0,0H21.7V3.616H0Z" transform="translate(72.19 23.714) rotate(-0.458)"/>
      <path id="Trazado_104317" data-name="Trazado 104317" d="M0,0H30.7V3.616H0Z" transform="translate(66.889 34.801) rotate(-0.458)"/>
      <path id="Trazado_104318" data-name="Trazado 104318" d="M0,0H18.237V3.616H0Z" transform="translate(79.351 41.933) rotate(-0.458)"/>
      <path id="Trazado_104319" data-name="Trazado 104319" d="M0,0H8.925V3.616H0Z" transform="translate(66.887 42.038) rotate(-0.458)"/>
      <path id="Trazado_104320" data-name="Trazado 104320" d="M0,0H30.7V3.616H0Z" transform="translate(66.891 49.265) rotate(-0.458)"/>
      <path id="Trazado_104321" data-name="Trazado 104321" d="M0,0H30.7V3.616H0Z" transform="translate(66.891 56.259) rotate(-0.458)"/>
      <path id="Trazado_104322" data-name="Trazado 104322" d="M0,0H19.769V3.616H0Z" transform="translate(66.848 63.651) rotate(-0.63)"/>
    </g>
  </g>
</svg>
