<svg xmlns="http://www.w3.org/2000/svg" width="78.801" height="106.728" viewBox="0 0 78.801 106.728">
  <g id="revista_3_" data-name="revista (3)" transform="translate(-66.986)">
    <path id="Trazado_105074" data-name="Trazado 105074" d="M111.8,133.274l9.7-87.615h59.76v87.615Z" transform="translate(-35.476 -36.141)" fill="#e5e9ea"/>
    <path id="SVGCleanerId_0" d="M66.986,465.414c0-.083,0-.163,0-.246v.244Z" transform="translate(0 -368.202)" fill="#e5e9ea"/>
    <path id="Trazado_105075" data-name="Trazado 105075" d="M86.026,9.518V97.212a9.52,9.52,0,0,0-19.037-.246V9.518h0a9.519,9.519,0,0,1,19.039,0Z" transform="translate(-0.001)" fill="#f4f4f4"/>
    <g id="Grupo_55411" data-name="Grupo 55411" transform="translate(66.986)">
      <path id="Trazado_105076" data-name="Trazado 105076" d="M76.507,0V87.691a9.522,9.522,0,0,0-9.518,9.274V9.518h0A9.521,9.521,0,0,1,76.507,0Z" transform="translate(-66.987)" fill="#d1d1d1"/>
      <path id="Trazado_105077" data-name="Trazado 105077" d="M145.79,430.117l-.582,1.377-.4.943-.636,1.5-.349.823-.05.12-.318.751-.664,1.573-.368.871-.693,1.636H76.51a9.518,9.518,0,1,1,9.518-9.516Z" transform="translate(-66.989 -332.984)" fill="#d1d1d1"/>
    </g>
    <path id="Trazado_105078" data-name="Trazado 105078" d="M93.048,439.72v7.01h-7.01a7.01,7.01,0,1,1,7.01-7.01Z" transform="translate(-9.531 -342.51)" fill="#b2b2b2"/>
    <g id="Grupo_55412" data-name="Grupo 55412" transform="translate(66.986 96.966)">
      <path id="SVGCleanerId_0_1_" d="M66.986,465.414c0-.083,0-.163,0-.246v.244Z" transform="translate(-66.986 -465.168)" fill="#e5e9ea"/>
    </g>
    <g id="Grupo_55413" data-name="Grupo 55413" transform="translate(86.638 98.51)">
      <path id="Trazado_105079" data-name="Trazado 105079" d="M218.077,492.43,217.412,494l-.368.871H161.26V492.43Z" transform="translate(-161.26 -488.292)" fill="#b2b2b2"/>
      <path id="Trazado_105080" data-name="Trazado 105080" d="M228.654,472.577l-.4.943-.636,1.5H172.41v-2.444Z" transform="translate(-170.086 -472.577)" fill="#b2b2b2"/>
    </g>
    <rect id="Rectángulo_6015" data-name="Rectángulo 6015" width="43.645" height="70.728" transform="translate(93.703 17.961)" fill="#53bce9"/>
    <path id="Trazado_105081" data-name="Trazado 105081" d="M256.156,207.621v7.724H230.611a18.058,18.058,0,0,1,.562-5.264,31.436,31.436,0,0,1,4.82-10.141,31.555,31.555,0,0,1,2.537-10.1c-3.2-4.236-2.252-10.73-4.581-13.058-2.017-2.019-7.878.375-12.1.793-1.651.163-3.049.026-3.868-.793-2.921-2.921,1.943-7.338,5.18-10.577,3.561-3.559,12.3-10.575,18.129-2.374s9.928,2.374,11.006,10.144-5.611,14.676-3.021,24.388A14.768,14.768,0,0,0,256.156,207.621Z" transform="translate(-118.808 -126.656)" fill="#fcb65f"/>
    <path id="Trazado_105082" data-name="Trazado 105082" d="M241.369,254.632a11.121,11.121,0,0,1-7.1-16.4c4.221-.419,10.083-2.812,12.1-.794,2.329,2.329,1.386,8.823,4.58,13.059a31.557,31.557,0,0,0-2.536,10.1,31.424,31.424,0,0,0-4.821,10.141c-9.25-1.882-8.387-6.382-8.387-6.382C238.315,260.174,241.369,256.458,241.369,254.632Z" transform="translate(-131.231 -187.311)" fill="#fff"/>
    <path id="Trazado_105083" data-name="Trazado 105083" d="M228.024,381.255h-14.21c.6-3.526,3.513-7.782,6.384-11.642-.028.172-.68,4.533,8.388,6.378A18.059,18.059,0,0,0,228.024,381.255Z" transform="translate(-116.221 -292.566)" fill="#fa3f68"/>
    <g id="Grupo_55414" data-name="Grupo 55414" transform="translate(98.48 24.045)">
      <path id="Trazado_105084" data-name="Trazado 105084" d="M351.059,118.617h-2.831a1.634,1.634,0,1,1,0-3.267h2.831a1.634,1.634,0,1,1,0,3.267Z" transform="translate(-319.803 -115.35)" fill="#e5e9ea"/>
      <path id="Trazado_105085" data-name="Trazado 105085" d="M241.049,118.617H219.7a1.634,1.634,0,1,1,0-3.267h21.345a1.634,1.634,0,0,1,0,3.267Z" transform="translate(-218.07 -115.35)" fill="#e5e9ea"/>
    </g>
    <g id="Grupo_55415" data-name="Grupo 55415" transform="translate(98.389 54.639)">
      <path id="Trazado_105086" data-name="Trazado 105086" d="M264.421,265.273a4.754,4.754,0,0,1-3.1-.865l-.022-.019-.11-.1a1.2,1.2,0,1,1,1.6-1.781l.061.055a4.474,4.474,0,0,0,2.977.175,1.2,1.2,0,1,1,.428,2.358A10.268,10.268,0,0,1,264.421,265.273Zm-1.547-2.687.025.022,0,0S262.869,262.581,262.874,262.586Zm0,0Zm-.044-.035Z" transform="translate(-251.793 -262.184)" fill="#435054"/>
      <path id="Trazado_105087" data-name="Trazado 105087" d="M221.265,265.186a4.755,4.755,0,0,1-3.1-.865l-.022-.019-.11-.1a1.2,1.2,0,1,1,1.6-1.781l.061.055a4.474,4.474,0,0,0,2.977.175,1.2,1.2,0,1,1,.428,2.358A10.271,10.271,0,0,1,221.265,265.186Zm-1.547-2.687.025.022,0,0A.279.279,0,0,0,219.718,262.5Zm0,0Zm-.044-.035Z" transform="translate(-217.633 -262.115)" fill="#435054"/>
    </g>
  </g>
</svg>
