<svg xmlns="http://www.w3.org/2000/svg" width="74.671" height="91" viewBox="0 0 74.671 91">
  <g id="revista" transform="translate(-44.591)">
    <path id="Trazado_105007" data-name="Trazado 105007" d="M409.929,17.865l-8.136-.96V97.688l9.259-78.4a1.282,1.282,0,0,0-1.123-1.423Z" transform="translate(-291.799 -13.81)" fill="#dcf2f6"/>
    <path id="Trazado_105008" data-name="Trazado 105008" d="M112.3,89.535,111.022,0H47.337a2.747,2.747,0,0,0-2.746,2.746L44.6,88.254Z" fill="#6bbdd5"/>
    <path id="Trazado_105009" data-name="Trazado 105009" d="M112.511,0h-1.465V86.972a1.282,1.282,0,0,1-1.282,1.282H44.62A2.747,2.747,0,0,0,47.366,91h9.3l16.021-1.282L88.708,91h11.473l4.07-1.282L108.322,91h4.189a1.282,1.282,0,0,0,1.282-1.282V30.1l-1.282-2.633,1.282-2.56V1.282A1.282,1.282,0,0,0,112.511,0Z" transform="translate(-0.024)" fill="#5595a2"/>
    <path id="Trazado_105010" data-name="Trazado 105010" d="M191.858,170.076v-11.36H181.513c-.883.772-1.793,1.222-1.793,2.148,0,1.279,2.821,2.833,2.821,2.833v4.394C184.3,171.457,191.858,170.076,191.858,170.076Z" transform="translate(-110.387 -129.655)" fill="#e3a76f"/>
    <path id="Trazado_105011" data-name="Trazado 105011" d="M191.146,138.488a4.487,4.487,0,0,1-1.637,3.7c2.7,1.122,5.49,2.264,8.514,3.266v6.813s-5.446.7-7.486-.7c0,5.079,10.232,2.9,10.232,2.9l3.193-15.98H191.146Z" transform="translate(-118.384 -113.131)" fill="#c48958"/>
    <path id="Trazado_105012" data-name="Trazado 105012" d="M109.793,255.771a6.626,6.626,0,0,0-2.788-.613l-19.259-1.483a19.542,19.542,0,0,1-9.283-.76,8.211,8.211,0,0,0-6.918.747,18.924,18.924,0,0,0-4.1,3.829L52.656,264.98a2.751,2.751,0,0,0-1.1,3.882c4.991,8.263,14.878,17.144,18.253,19.062H75.09v-7.787H68.547c-4.471-3.162-7.427-10.178-7.427-10.178l8.012-7.248c2.808-1.449,9.519,3.44,9.519,3.44l26.867,6.463V294.5l4.115,1.831,2.653-1.206V261.811A7.865,7.865,0,0,0,109.793,255.771Z" transform="translate(-5.36 -206.245)" fill="#e3a76f"/>
    <path id="Trazado_105013" data-name="Trazado 105013" d="M110.353,304.762l-8,4.127a1.373,1.373,0,0,0-.621,1.788l.605,1.332,9.157-4.727a6.112,6.112,0,0,1,6.666.508l1.708.411v-2.415A9.634,9.634,0,0,0,110.353,304.762Z" transform="translate(-46.581 -248.296)" fill="#c48958"/>
    <path id="Trazado_105014" data-name="Trazado 105014" d="M352.344,270.491a12.868,12.868,0,0,1,1.118,6.04v32.687h-5.395v2.746h5.395l2.746-2.746V276.531A6.652,6.652,0,0,0,352.344,270.491Z" transform="translate(-247.911 -220.964)" fill="#c48958"/>
    <path id="Trazado_105015" data-name="Trazado 105015" d="M377.531,482h2.746v2.746h-2.746Z" transform="translate(-271.979 -393.746)" fill="#9a6a53"/>
    <path id="Trazado_105016" data-name="Trazado 105016" d="M155.581,269.7a7.7,7.7,0,0,1-1.2-3.792v-1.423H134.768v-7.735a19.7,19.7,0,0,1-2.746-.582V266.1l-2.267,2.662a7.759,7.759,0,0,0-1.852,5.031v9.365c0,5.258-9.056,9.831-12.1,14.362l29.742,1.282c.481-4.566,1.583-9.369,4.336-13.338l7.288-10.184Z" transform="translate(-58.171 -209.267)" fill="#f5fcff"/>
    <path id="Trazado_105017" data-name="Trazado 105017" d="M151.182,330.075v5.2l-6.436,9.278a29.188,29.188,0,0,0-4.885,13.338H111.4a4.993,4.993,0,0,0-.986,2.746h29.3l2.9-2.746a27.436,27.436,0,0,1,4.879-12.606l6.436-9.278v-2.467a17.7,17.7,0,0,1-2.746-3.466Z" transform="translate(-53.771 -269.639)" fill="#dcf2f6"/>
    <path id="Trazado_105018" data-name="Trazado 105018" d="M270.41,484.746h2.746a24.749,24.749,0,0,1,.157-2.746h-2.752A26.323,26.323,0,0,0,270.41,484.746Z" transform="translate(-184.472 -393.746)" fill="#bae6ef"/>
    <path id="Trazado_105019" data-name="Trazado 105019" d="M267.164,190.8v-9.621H251.011v14.257c0,11.811,1.346,16.588,4.069,19.082a1.373,1.373,0,1,0,1.855-2.025c-1.931-1.769-2.822-4.267-3.051-9.258a5.832,5.832,0,0,0,4.916,2.954c6.609,0,9.639-9.452,9.639-9.452s-1.275-1.471-1.275-5.936Z" transform="translate(-168.625 -148.007)" fill="#9a6a53"/>
    <path id="Trazado_105020" data-name="Trazado 105020" d="M268.629,171.063V157.018H251.011v4.424a58.352,58.352,0,0,0,14.871,2.256v7.364L267.157,177s-2.48,8.354-9.089,8.354a5.558,5.558,0,0,1-4.184-1.856c1.549,2.806,3.875,4.053,5.832,4.053,6.609,0,10.554-10.368,10.554-10.368s-1.642-1.654-1.642-6.119Z" transform="translate(-168.625 -128.268)" fill="#7a5341"/>
    <path id="Trazado_105021" data-name="Trazado 105021" d="M129.4,68.838,117.175,66.2s.161-11.687-13.36-11.687c-11.465,0-12.672,9.883-12.672,9.883H68.464a1.373,1.373,0,0,0,0,2.746c16.767,0,25.851,9.176,48.711,9.176a72.409,72.409,0,0,0,12.228-1.17l.907-3.183Z" transform="translate(-18.38 -44.528)" fill="#f5fcff"/>
    <path id="Trazado_105022" data-name="Trazado 105022" d="M410.155,133.361l-2.746-.593v6.306c.944-.165,1.862-.34,2.746-.52Z" transform="translate(-296.387 -108.458)" fill="#dcf2f6"/>
    <path id="Trazado_105023" data-name="Trazado 105023" d="M108.464,45.158a1.373,1.373,0,0,1-1.373-1.373V23.873a1.373,1.373,0,0,1,1.373-1.373h10.757a1.373,1.373,0,0,1,0,2.746h-9.383v5.31h7.552a1.373,1.373,0,0,1,0,2.746h-7.552V43.785A1.373,1.373,0,0,1,108.464,45.158Z" transform="translate(-51.056 -18.38)" fill="#bae6ef"/>
  </g>
</svg>
