<svg xmlns="http://www.w3.org/2000/svg" width="81.176" height="101.229" viewBox="0 0 81.176 101.229">
  <g id="revista_5_" data-name="revista (5)" transform="translate(-49.201)">
    <path id="Trazado_105101" data-name="Trazado 105101" d="M127.511,101.23H52.067A2.866,2.866,0,0,1,49.2,98.364V2.866A2.866,2.866,0,0,1,52.067,0h75.445a2.866,2.866,0,0,1,2.866,2.866v95.5A2.866,2.866,0,0,1,127.511,101.23Z" transform="translate(0 0)" fill="#fee97d"/>
    <g id="Grupo_55417" data-name="Grupo 55417" transform="translate(49.201 26.968)">
      <path id="Trazado_105102" data-name="Trazado 105102" d="M183.887,146.232l6.233-10.408v-3.49H149.7v3.49l6.022,10.056Z" transform="translate(-129.22 -132.334)" fill="#fed402"/>
      <path id="Trazado_105103" data-name="Trazado 105103" d="M303.559,149.462l-20.722,23.407-11.189,13.38v6.311L276.222,191l31.27-24.263V149.462Z" transform="translate(-226.316 -145.971)" fill="#fed402"/>
      <path id="Trazado_105104" data-name="Trazado 105104" d="M309.99,339.2l23.266,2.7V324.468L306.9,334.683l-2.9,1.168v3.058Z" transform="translate(-252.079 -285.313)" fill="#fed402"/>
      <path id="Trazado_105105" data-name="Trazado 105105" d="M53.121,149.462H49.2v17.284L80.457,191l4.575,1.561v-6.311l-11.189-13.38Z" transform="translate(-49.201 -145.972)" fill="#fed402"/>
      <path id="Trazado_105106" data-name="Trazado 105106" d="M49.2,324.493v17.421l23.252-2.7,5.985-.289v-3.058l-2.9-1.168Z" transform="translate(-49.201 -285.333)" fill="#fed402"/>
    </g>
    <g id="Grupo_55418" data-name="Grupo 55418" transform="translate(60.491 80.032)">
      <path id="Trazado_105107" data-name="Trazado 105107" d="M163.4,413.917v-9.138a4.66,4.66,0,0,0-1.732-3.625l-10.447-8.435H116.782l-10.447,8.435a4.66,4.66,0,0,0-1.732,3.625v9.138Z" transform="translate(-104.603 -392.719)" fill="#7ca1b1"/>
    </g>
    <path id="Trazado_105108" data-name="Trazado 105108" d="M130.355,19.145,111.211,0H52.067A2.866,2.866,0,0,0,49.2,2.866V30.458h81.176V19.145Z" transform="translate(0 0)" fill="#62dbfb"/>
    <path id="Trazado_105109" data-name="Trazado 105109" d="M372.652,19.123H359.726a6.241,6.241,0,0,1-6.241-6.241V0Z" transform="translate(-242.274)" fill="#01d0fb"/>
    <g id="Grupo_55419" data-name="Grupo 55419" transform="translate(59.581 7.611)">
      <path id="Trazado_105110" data-name="Trazado 105110" d="M198.9,38.518l-.017-.042a1.814,1.814,0,0,0-1.683-1.127h0a1.813,1.813,0,0,0-1.682,1.131l-.014.035-4.826,12.67a1.528,1.528,0,1,0,2.856,1.088l.827-2.171h5.643l.818,2.167a1.528,1.528,0,1,0,2.86-1.079Zm-3.375,8.526,1.67-4.386,1.655,4.386Z" transform="translate(-172.149 -37.349)" fill="#fff9e2"/>
      <path id="Trazado_105111" data-name="Trazado 105111" d="M114.317,38.8a1.819,1.819,0,0,0-3.512-.2c-.006.018-.011.035-.016.053l-2.376,8.333-2.463-8.349q-.008-.028-.017-.054a1.819,1.819,0,0,0-3.513.253l-2.259,12.514a1.528,1.528,0,1,0,3.008.543l1.33-7.37,2.193,7.434c.005.018.011.036.017.054a1.815,1.815,0,0,0,1.724,1.24h.009A1.816,1.816,0,0,0,110.163,52c.006-.018.011-.035.016-.053l2.117-7.427,1.413,7.4a1.528,1.528,0,0,0,3-.574Z" transform="translate(-100.136 -37.347)" fill="#fff9e2"/>
      <path id="Trazado_105112" data-name="Trazado 105112" d="M273.8,43.773h-3.844a1.528,1.528,0,0,0,0,3.057h2.151a3.851,3.851,0,0,1-3.853,3.368,4.9,4.9,0,1,1,2.737-8.958,1.528,1.528,0,0,0,1.711-2.533,7.954,7.954,0,1,0-4.448,14.548c4.166,0,7.075-3.271,7.075-7.954a1.528,1.528,0,0,0-1.528-1.528Z" transform="translate(-227.662 -37.348)" fill="#fff9e2"/>
    </g>
    <path id="Trazado_105113" data-name="Trazado 105113" d="M178.463,180.846,178,171a6.328,6.328,0,0,1,2.242-5.136l.4-.337a18.076,18.076,0,0,1,23.352.041l.35.3a6.329,6.329,0,0,1,2.225,5.122l-.465,9.863v2.685H178.3Z" transform="translate(-102.544 -128.402)" fill="#918291"/>
    <path id="Trazado_105114" data-name="Trazado 105114" d="M222.664,382.8H205.143l8.911,23.218Z" transform="translate(-124.163 -304.794)" fill="#fff9e2"/>
    <path id="Trazado_105115" data-name="Trazado 105115" d="M206.617,343.476l.779-7.321,6.314-2.848,9.2,2.8.152,8.237-2.6,1.89-.194.145a8.458,8.458,0,0,1-10.285-.145Z" transform="translate(-125.336 -265.383)" fill="#ffcebf"/>
    <path id="Trazado_105116" data-name="Trazado 105116" d="M214.811,346.237a8.013,8.013,0,0,1-.807-.76,1.466,1.466,0,0,1,1.094-2.461h.028A16.091,16.091,0,0,0,223,340.966l-.09-4.854-9.2-2.8-6.314,2.848-.491,4.613-.288,2.708,3.371,2.76a8.457,8.457,0,0,0,7.647,1.465A8.446,8.446,0,0,1,214.811,346.237Z" transform="translate(-125.337 -265.384)" fill="#ffb09e"/>
    <path id="Trazado_105117" data-name="Trazado 105117" d="M198.6,224.923h-.2a1.356,1.356,0,0,1-1.144-.6c-.018-.028-.038-.055-.059-.082l-2.807-3.56a3.932,3.932,0,0,0-3.933-3.933h-1.193a3.932,3.932,0,0,0-2.387.807l-1.214.927a.58.58,0,0,1-.7,0l-1.214-.927a3.932,3.932,0,0,0-2.387-.807h-1.193a3.933,3.933,0,0,0-3.933,3.933l-2.807,3.56c-.021.026-.041.054-.059.082a1.356,1.356,0,0,1-1.144.6,3.052,3.052,0,1,0,0,6.1h.968v2.99a12.12,12.12,0,0,0,24.239,0v-2.99H198.6a3.052,3.052,0,1,0,0-6.1Z" transform="translate(-95.521 -172.581)" fill="#ffdfcf"/>
    <g id="Grupo_55420" data-name="Grupo 55420" transform="translate(73.65 44.172)">
      <path id="Trazado_105118" data-name="Trazado 105118" d="M179.515,234.019v-2.99l-.007-3.358a9.284,9.284,0,0,1,2.327-6.168l.722-.817a3.92,3.92,0,0,1,1.375-2.983l-.185-.142a3.931,3.931,0,0,0-2.387-.807h-1.193a3.933,3.933,0,0,0-3.933,3.933l-2.807,3.56a1.15,1.15,0,0,0-.069.1,1.18,1.18,0,0,1-1.032.581,3.052,3.052,0,0,0-3.15,3.2,3.105,3.105,0,0,0,3.129,2.9h.888v2.99a12.121,12.121,0,0,0,15.281,11.7A12.123,12.123,0,0,1,179.515,234.019Z" transform="translate(-169.172 -216.754)" fill="#ffcebf"/>
    </g>
    <path id="Trazado_105119" data-name="Trazado 105119" d="M181.587,377.738l-7.832-30.458-8.666,7.656a2.14,2.14,0,0,0-.723,1.6v3.79a1.091,1.091,0,0,0,1.091,1.091h2.232a1.54,1.54,0,0,1,1.2.573Z" transform="translate(-91.696 -276.508)" fill="#678d98"/>
    <path id="Trazado_105120" data-name="Trazado 105120" d="M109.837,420.234l-3.5,2.828a4.66,4.66,0,0,0-1.732,3.625v9.138h10.113V428.55a8.158,8.158,0,0,0-2.324-5.7Z" transform="translate(-44.112 -334.595)" fill="#678d98"/>
    <path id="Trazado_105121" data-name="Trazado 105121" d="M248.869,377.561l7.683-30.5,8.815,7.7a2.14,2.14,0,0,1,.723,1.6v3.79A1.091,1.091,0,0,1,265,361.244h-2.232a1.54,1.54,0,0,0-1.2.573Z" transform="translate(-158.978 -276.332)" fill="#678d98"/>
    <path id="Trazado_105122" data-name="Trazado 105122" d="M353.624,426.687a4.66,4.66,0,0,0-1.732-3.625l-3.5-2.828-2.555,2.614a8.158,8.158,0,0,0-2.324,5.7v7.274h10.113Z" transform="translate(-234.333 -334.595)" fill="#678d98"/>
  </g>
</svg>
