<svg xmlns="http://www.w3.org/2000/svg" width="820" height="358.355" viewBox="0 0 820 358.355">
  <g id="Grupo_55123" data-name="Grupo 55123" transform="translate(-390 -2491)">
    <rect id="Rectángulo_5857" data-name="Rectángulo 5857" width="820" height="242" transform="translate(390 2549)" fill="#fdd835" opacity="0.5"/>
    <g id="Grupo_55122" data-name="Grupo 55122" transform="translate(625.273 2159.571)">
      <path id="Trazado_104466" data-name="Trazado 104466" d="M84.471,506.189l163.647,61.446a178.926,178.926,0,0,0,9.347-57.109c0-96.9-76.9-175.791-172.994-179.1Z" transform="translate(96.637)" fill="#fdd835"/>
      <path id="Trazado_104467" data-name="Trazado 104467" d="M166.01,420.47,3.867,490.555a179.295,179.295,0,0,0,327.514-7.994Z" transform="translate(9.001 96.808)" fill="#26c6da"/>
      <path id="Trazado_104468" data-name="Trazado 104468" d="M168.584,506.412V331.429c-96.1,3.306-173,82.2-173,179.1A178.723,178.723,0,0,0,7.924,575.859Z" transform="translate(0)" fill="#f57c00"/>
    </g>
    <path id="Trazado_108155" data-name="Trazado 108155" d="M-26.52,0V-17.062h6.129a8.679,8.679,0,0,1,5.01,1.207,4.016,4.016,0,0,1,1.717,3.5,4.06,4.06,0,0,1-.609,2.262,3.551,3.551,0,0,1-1.793,1.383,3.6,3.6,0,0,1,2.051,1.313A3.816,3.816,0,0,1-13.3-5.051a4.518,4.518,0,0,1-1.588,3.768A7.556,7.556,0,0,1-19.594,0Zm4.113-7.254v4.09h2.7A2.564,2.564,0,0,0-18-3.674a1.784,1.784,0,0,0,.6-1.436,1.891,1.891,0,0,0-2.121-2.145Zm0-2.7h2.145a3.047,3.047,0,0,0,1.922-.494,1.752,1.752,0,0,0,.574-1.422,1.839,1.839,0,0,0-.621-1.557,3.324,3.324,0,0,0-2-.476h-2.016ZM-3.668-1.371A4.072,4.072,0,0,1-7.055.234,3.993,3.993,0,0,1-10.213-.979a5.1,5.1,0,0,1-1.072-3.486V-12.68h3.949v8.238A1.419,1.419,0,0,0-5.754-2.812,2.064,2.064,0,0,0-3.82-3.785V-12.68H.152V0h-3.7ZM8.449.234a6.518,6.518,0,0,1-4.723-1.74,6.009,6.009,0,0,1-1.8-4.529v-.328A7.787,7.787,0,0,1,2.643-9.8a5.274,5.274,0,0,1,2.1-2.3,6.35,6.35,0,0,1,3.281-.814,5.489,5.489,0,0,1,4.219,1.658,6.516,6.516,0,0,1,1.547,4.623V-5.1H5.941a2.846,2.846,0,0,0,.926,1.676,2.755,2.755,0,0,0,1.852.609,3.549,3.549,0,0,0,2.93-1.312l1.8,2.133A5.045,5.045,0,0,1,11.361-.369,7.069,7.069,0,0,1,8.449.234ZM8-9.867q-1.734,0-2.062,2.3H9.926v-.3a1.956,1.956,0,0,0-.48-1.471A1.912,1.912,0,0,0,8-9.867Zm11-2.812.129,1.488a4.3,4.3,0,0,1,3.621-1.723,3.618,3.618,0,0,1,2.959,1.184A5.635,5.635,0,0,1,26.73-8.168V0H22.77V-8a2.14,2.14,0,0,0-.387-1.412,1.789,1.789,0,0,0-1.406-.451,1.883,1.883,0,0,0-1.723.914V0H15.3V-12.68ZM-43.916,24.211V30h-4.113V12.938h6.809a7.93,7.93,0,0,1,3.463.721,5.431,5.431,0,0,1,2.332,2.051,5.6,5.6,0,0,1,.826,3.018,4.937,4.937,0,0,1-1.787,3.99,7.415,7.415,0,0,1-4.9,1.494Zm0-3.176h2.7a2.542,2.542,0,0,0,1.822-.6,2.221,2.221,0,0,0,.627-1.687,2.745,2.745,0,0,0-.645-1.91,2.282,2.282,0,0,0-1.758-.727h-2.742Zm19-.141-1.3-.094a2.336,2.336,0,0,0-2.391,1.172V30h-3.949V17.32h3.7l.129,1.629a3.058,3.058,0,0,1,2.777-1.863,3.851,3.851,0,0,1,1.1.141Zm.5,2.648a7.484,7.484,0,0,1,.738-3.381,5.28,5.28,0,0,1,2.121-2.279,6.388,6.388,0,0,1,3.246-.8,5.83,5.83,0,0,1,4.488,1.764,6.768,6.768,0,0,1,1.641,4.8v.141a6.566,6.566,0,0,1-1.646,4.705,5.846,5.846,0,0,1-4.459,1.74,5.912,5.912,0,0,1-4.348-1.623,6.348,6.348,0,0,1-1.77-4.4Zm3.949.246a4.718,4.718,0,0,0,.551,2.578,1.835,1.835,0,0,0,1.629.82q2.109,0,2.156-3.246v-.4q0-3.41-2.18-3.41-1.98,0-2.145,2.941Zm9.527-.223a7.746,7.746,0,0,1,1.3-4.746,4.282,4.282,0,0,1,3.633-1.734,3.641,3.641,0,0,1,2.859,1.336V12H.814V30H-2.736l-.2-1.359a3.739,3.739,0,0,1-3.094,1.594A4.274,4.274,0,0,1-9.615,28.5,7.991,7.991,0,0,1-10.939,23.566Zm3.949.246q0,3.375,1.969,3.375a1.944,1.944,0,0,0,1.875-1.1V21.258A1.892,1.892,0,0,0-5,20.133q-1.828,0-1.98,2.953Zm17.6,4.816a4.072,4.072,0,0,1-3.387,1.605,3.993,3.993,0,0,1-3.158-1.213,5.1,5.1,0,0,1-1.072-3.486V17.32H6.943v8.238a1.419,1.419,0,0,0,1.582,1.629,2.064,2.064,0,0,0,1.934-.973V17.32h3.973V30h-3.7Zm11.344-1.441a1.756,1.756,0,0,0,1.289-.451,1.654,1.654,0,0,0,.445-1.26h3.7A4.384,4.384,0,0,1,25.9,28.9a5.558,5.558,0,0,1-3.85,1.336A5.627,5.627,0,0,1,17.689,28.5,6.834,6.834,0,0,1,16.1,23.7v-.164a7.723,7.723,0,0,1,.709-3.393,5.162,5.162,0,0,1,2.045-2.262,6.1,6.1,0,0,1,3.164-.791,5.488,5.488,0,0,1,3.926,1.371,4.863,4.863,0,0,1,1.453,3.715h-3.7a2.168,2.168,0,0,0-.48-1.512,1.658,1.658,0,0,0-1.289-.527q-1.535,0-1.793,1.957a13.809,13.809,0,0,0-.082,1.711,5.424,5.424,0,0,0,.457,2.648A1.582,1.582,0,0,0,21.955,27.188Zm11.707-13.02V17.32h2.086v2.742H33.662v5.8a1.481,1.481,0,0,0,.258,1,1.383,1.383,0,0,0,1.02.281,5.793,5.793,0,0,0,.984-.07v2.824a7.288,7.288,0,0,1-2.227.34,4.137,4.137,0,0,1-3.012-.961,3.939,3.939,0,0,1-.973-2.918V20.063H28.1V17.32h1.617V14.168Zm2.789,9.375a7.484,7.484,0,0,1,.738-3.381,5.28,5.28,0,0,1,2.121-2.279,6.388,6.388,0,0,1,3.246-.8,5.83,5.83,0,0,1,4.488,1.764,6.768,6.768,0,0,1,1.641,4.8v.141a6.566,6.566,0,0,1-1.646,4.705,5.846,5.846,0,0,1-4.459,1.74,5.912,5.912,0,0,1-4.348-1.623,6.348,6.348,0,0,1-1.77-4.4Zm3.949.246a4.718,4.718,0,0,0,.551,2.578,1.835,1.835,0,0,0,1.629.82q2.109,0,2.156-3.246v-.4q0-3.41-2.18-3.41-1.98,0-2.145,2.941Z" transform="translate(703 2618)" fill="#12263f"/>
    <path id="Trazado_108156" data-name="Trazado 108156" d="M-26.52,0V-17.062h6.129a8.679,8.679,0,0,1,5.01,1.207,4.016,4.016,0,0,1,1.717,3.5,4.06,4.06,0,0,1-.609,2.262,3.551,3.551,0,0,1-1.793,1.383,3.6,3.6,0,0,1,2.051,1.313A3.816,3.816,0,0,1-13.3-5.051a4.518,4.518,0,0,1-1.588,3.768A7.556,7.556,0,0,1-19.594,0Zm4.113-7.254v4.09h2.7A2.564,2.564,0,0,0-18-3.674a1.784,1.784,0,0,0,.6-1.436,1.891,1.891,0,0,0-2.121-2.145Zm0-2.7h2.145a3.047,3.047,0,0,0,1.922-.494,1.752,1.752,0,0,0,.574-1.422,1.839,1.839,0,0,0-.621-1.557,3.324,3.324,0,0,0-2-.476h-2.016ZM-3.668-1.371A4.072,4.072,0,0,1-7.055.234,3.993,3.993,0,0,1-10.213-.979a5.1,5.1,0,0,1-1.072-3.486V-12.68h3.949v8.238A1.419,1.419,0,0,0-5.754-2.812,2.064,2.064,0,0,0-3.82-3.785V-12.68H.152V0h-3.7ZM8.449.234a6.518,6.518,0,0,1-4.723-1.74,6.009,6.009,0,0,1-1.8-4.529v-.328A7.787,7.787,0,0,1,2.643-9.8a5.274,5.274,0,0,1,2.1-2.3,6.35,6.35,0,0,1,3.281-.814,5.489,5.489,0,0,1,4.219,1.658,6.516,6.516,0,0,1,1.547,4.623V-5.1H5.941a2.846,2.846,0,0,0,.926,1.676,2.755,2.755,0,0,0,1.852.609,3.549,3.549,0,0,0,2.93-1.312l1.8,2.133A5.045,5.045,0,0,1,11.361-.369,7.069,7.069,0,0,1,8.449.234ZM8-9.867q-1.734,0-2.062,2.3H9.926v-.3a1.956,1.956,0,0,0-.48-1.471A1.912,1.912,0,0,0,8-9.867Zm11-2.812.129,1.488a4.3,4.3,0,0,1,3.621-1.723,3.618,3.618,0,0,1,2.959,1.184A5.635,5.635,0,0,1,26.73-8.168V0H22.77V-8a2.14,2.14,0,0,0-.387-1.412,1.789,1.789,0,0,0-1.406-.451,1.883,1.883,0,0,0-1.723.914V0H15.3V-12.68ZM-38.35,22.758h-6.469v4.078h7.641V30H-48.932V12.938h11.777v3.176h-7.664v3.6h6.469Zm6.4-5.437.129,1.488A4.36,4.36,0,0,1-28.2,17.086,3.21,3.21,0,0,1-24.955,19a4.22,4.22,0,0,1,3.727-1.91q3.855,0,3.961,4.664V30h-3.961V22a2.417,2.417,0,0,0-.328-1.418,1.4,1.4,0,0,0-1.2-.445A1.871,1.871,0,0,0-24.5,21.176l.012.164V30h-3.961V22.02a2.541,2.541,0,0,0-.316-1.441,1.393,1.393,0,0,0-1.207-.445,1.894,1.894,0,0,0-1.734,1.043V30h-3.949V17.32ZM-3.24,23.754a7.646,7.646,0,0,1-1.33,4.717,4.264,4.264,0,0,1-3.592,1.764,3.655,3.655,0,0,1-2.871-1.277v5.918h-3.949V17.32h3.691l.117,1.172a3.656,3.656,0,0,1,2.988-1.406,4.3,4.3,0,0,1,3.645,1.729,7.741,7.741,0,0,1,1.3,4.752Zm-3.949-.246q0-3.375-1.969-3.375a1.859,1.859,0,0,0-1.875,1.008v4.992a1.919,1.919,0,0,0,1.9,1.055q1.887,0,1.945-3.258ZM5.643,30a4.459,4.459,0,0,1-.375-1.137,3.672,3.672,0,0,1-3.047,1.371A4.5,4.5,0,0,1-.826,29.15,3.45,3.45,0,0,1-2.08,26.426,3.546,3.546,0,0,1-.557,23.309a7.761,7.761,0,0,1,4.43-1.055H5.092v-.671q0-1.755-1.512-1.755a1.236,1.236,0,0,0-1.406,1.39H-1.775A3.54,3.54,0,0,1-.211,18.233a6.575,6.575,0,0,1,3.99-1.147A5.764,5.764,0,0,1,7.611,18.27a4.115,4.115,0,0,1,1.441,3.246v5.613A5.748,5.748,0,0,0,9.592,29.8V30ZM3.17,27.422a2.2,2.2,0,0,0,1.225-.316,1.983,1.983,0,0,0,.7-.715V24.363H3.943q-2.062,0-2.062,1.852a1.131,1.131,0,0,0,.363.873A1.315,1.315,0,0,0,3.17,27.422Zm7.57-3.891A7.611,7.611,0,0,1,12.053,18.8a4.311,4.311,0,0,1,3.621-1.711,3.682,3.682,0,0,1,3.117,1.594l.281-1.359h3.422V34.875H18.533v-5.93a3.676,3.676,0,0,1-2.883,1.289,4.273,4.273,0,0,1-3.58-1.74A8.036,8.036,0,0,1,10.74,23.531Zm3.949.246q0,3.41,1.969,3.41a1.907,1.907,0,0,0,1.875-1.031V21.141a1.866,1.866,0,0,0-1.852-1.008q-1.84,0-1.98,2.941Zm17.59,4.852a4.072,4.072,0,0,1-3.387,1.605,3.993,3.993,0,0,1-3.158-1.213,5.1,5.1,0,0,1-1.072-3.486V17.32h3.949v8.238a1.419,1.419,0,0,0,1.582,1.629,2.064,2.064,0,0,0,1.934-.973V17.32H36.1V30H32.4ZM44.4,30.234a6.518,6.518,0,0,1-4.723-1.74,6.009,6.009,0,0,1-1.8-4.529v-.328A7.787,7.787,0,0,1,38.59,20.2a5.274,5.274,0,0,1,2.1-2.3,6.35,6.35,0,0,1,3.281-.814,5.489,5.489,0,0,1,4.219,1.658,6.516,6.516,0,0,1,1.547,4.623V24.9H41.889a2.846,2.846,0,0,0,.926,1.676,2.755,2.755,0,0,0,1.852.609,3.549,3.549,0,0,0,2.93-1.312l1.8,2.133a5.045,5.045,0,0,1-2.092,1.623A7.069,7.069,0,0,1,44.4,30.234Zm-.445-10.1q-1.734,0-2.062,2.3h3.984v-.3a1.956,1.956,0,0,0-.48-1.471A1.912,1.912,0,0,0,43.951,20.133Z" transform="translate(910 2618)" fill="#12263f"/>
    <path id="Trazado_108157" data-name="Trazado 108157" d="M-40.922-7.242h-6.469v4.078h7.641V0H-51.5V-17.062h11.777v3.176h-7.664v3.6h6.469Zm7.8-1.945,1.84-3.492h4.1L-30.516-6.5l3.5,6.5h-4.125l-1.992-3.75L-35.086,0h-4.148l3.516-6.5-3.328-6.176H-34.9Zm12.34,6.375a1.756,1.756,0,0,0,1.289-.451,1.654,1.654,0,0,0,.445-1.26h3.7A4.384,4.384,0,0,1-16.834-1.1,5.558,5.558,0,0,1-20.684.234,5.627,5.627,0,0,1-25.043-1.5a6.834,6.834,0,0,1-1.594-4.8v-.164a7.723,7.723,0,0,1,.709-3.393,5.162,5.162,0,0,1,2.045-2.262,6.1,6.1,0,0,1,3.164-.791,5.488,5.488,0,0,1,3.926,1.371A4.863,4.863,0,0,1-15.34-7.828h-3.7a2.168,2.168,0,0,0-.48-1.512,1.658,1.658,0,0,0-1.289-.527q-1.535,0-1.793,1.957A13.809,13.809,0,0,0-22.687-6.2a5.424,5.424,0,0,0,.457,2.648A1.582,1.582,0,0,0-20.777-2.812ZM-7.535.234a6.518,6.518,0,0,1-4.723-1.74,6.009,6.009,0,0,1-1.8-4.529v-.328A7.787,7.787,0,0,1-13.342-9.8a5.274,5.274,0,0,1,2.1-2.3,6.35,6.35,0,0,1,3.281-.814,5.489,5.489,0,0,1,4.219,1.658A6.516,6.516,0,0,1-2.191-6.633V-5.1h-7.852a2.846,2.846,0,0,0,.926,1.676,2.755,2.755,0,0,0,1.852.609,3.549,3.549,0,0,0,2.93-1.312l1.8,2.133A5.045,5.045,0,0,1-4.623-.369,7.069,7.069,0,0,1-7.535.234Zm-.445-10.1q-1.734,0-2.062,2.3h3.984v-.3a1.956,1.956,0,0,0-.48-1.471A1.912,1.912,0,0,0-7.98-9.867ZM3.563,0H-.4V-18H3.563Zm8.566.234a6.518,6.518,0,0,1-4.723-1.74A6.009,6.009,0,0,1,5.6-6.035v-.328A7.787,7.787,0,0,1,6.322-9.8a5.274,5.274,0,0,1,2.1-2.3,6.35,6.35,0,0,1,3.281-.814,5.489,5.489,0,0,1,4.219,1.658,6.516,6.516,0,0,1,1.547,4.623V-5.1H9.621a2.846,2.846,0,0,0,.926,1.676,2.755,2.755,0,0,0,1.852.609,3.549,3.549,0,0,0,2.93-1.312l1.8,2.133A5.045,5.045,0,0,1,15.041-.369,7.069,7.069,0,0,1,12.129.234Zm-.445-10.1q-1.734,0-2.062,2.3h3.984v-.3a1.956,1.956,0,0,0-.48-1.471A1.912,1.912,0,0,0,11.684-9.867Zm11-2.812.129,1.488a4.3,4.3,0,0,1,3.621-1.723A3.618,3.618,0,0,1,29.4-11.73,5.635,5.635,0,0,1,30.41-8.168V0H26.449V-8a2.14,2.14,0,0,0-.387-1.412,1.789,1.789,0,0,0-1.406-.451,1.883,1.883,0,0,0-1.723.914V0H18.984V-12.68ZM37.2-15.832v3.152h2.086v2.742H37.2v5.8a1.481,1.481,0,0,0,.258,1,1.383,1.383,0,0,0,1.02.281,5.793,5.793,0,0,0,.984-.07V-.105a7.288,7.288,0,0,1-2.227.34,4.137,4.137,0,0,1-3.012-.961,3.939,3.939,0,0,1-.973-2.918V-9.937H31.629V-12.68h1.617v-3.152ZM46.969.234a6.518,6.518,0,0,1-4.723-1.74,6.009,6.009,0,0,1-1.8-4.529v-.328A7.787,7.787,0,0,1,41.162-9.8a5.274,5.274,0,0,1,2.1-2.3,6.35,6.35,0,0,1,3.281-.814,5.489,5.489,0,0,1,4.219,1.658,6.516,6.516,0,0,1,1.547,4.623V-5.1H44.461a2.846,2.846,0,0,0,.926,1.676,2.755,2.755,0,0,0,1.852.609,3.549,3.549,0,0,0,2.93-1.312l1.8,2.133A5.045,5.045,0,0,1,49.881-.369,7.069,7.069,0,0,1,46.969.234Zm-.445-10.1q-1.734,0-2.062,2.3h3.984v-.3a1.956,1.956,0,0,0-.48-1.471A1.912,1.912,0,0,0,46.523-9.867ZM-43.916,24.211V30h-4.113V12.938h6.809a7.93,7.93,0,0,1,3.463.721,5.431,5.431,0,0,1,2.332,2.051,5.6,5.6,0,0,1,.826,3.018,4.937,4.937,0,0,1-1.787,3.99,7.415,7.415,0,0,1-4.9,1.494Zm0-3.176h2.7a2.542,2.542,0,0,0,1.822-.6,2.221,2.221,0,0,0,.627-1.687,2.745,2.745,0,0,0-.645-1.91,2.282,2.282,0,0,0-1.758-.727h-2.742Zm19-.141-1.3-.094a2.336,2.336,0,0,0-2.391,1.172V30h-3.949V17.32h3.7l.129,1.629a3.058,3.058,0,0,1,2.777-1.863,3.851,3.851,0,0,1,1.1.141Zm.5,2.648a7.484,7.484,0,0,1,.738-3.381,5.28,5.28,0,0,1,2.121-2.279,6.388,6.388,0,0,1,3.246-.8,5.83,5.83,0,0,1,4.488,1.764,6.768,6.768,0,0,1,1.641,4.8v.141a6.566,6.566,0,0,1-1.646,4.705,5.846,5.846,0,0,1-4.459,1.74,5.912,5.912,0,0,1-4.348-1.623,6.348,6.348,0,0,1-1.77-4.4Zm3.949.246a4.718,4.718,0,0,0,.551,2.578,1.835,1.835,0,0,0,1.629.82q2.109,0,2.156-3.246v-.4q0-3.41-2.18-3.41-1.98,0-2.145,2.941Zm9.527-.223a7.746,7.746,0,0,1,1.3-4.746,4.282,4.282,0,0,1,3.633-1.734,3.641,3.641,0,0,1,2.859,1.336V12H.814V30H-2.736l-.2-1.359a3.739,3.739,0,0,1-3.094,1.594A4.274,4.274,0,0,1-9.615,28.5,7.991,7.991,0,0,1-10.939,23.566Zm3.949.246q0,3.375,1.969,3.375a1.944,1.944,0,0,0,1.875-1.1V21.258A1.892,1.892,0,0,0-5,20.133q-1.828,0-1.98,2.953Zm17.6,4.816a4.072,4.072,0,0,1-3.387,1.605,3.993,3.993,0,0,1-3.158-1.213,5.1,5.1,0,0,1-1.072-3.486V17.32H6.943v8.238a1.419,1.419,0,0,0,1.582,1.629,2.064,2.064,0,0,0,1.934-.973V17.32h3.973V30h-3.7Zm11.344-1.441a1.756,1.756,0,0,0,1.289-.451,1.654,1.654,0,0,0,.445-1.26h3.7A4.384,4.384,0,0,1,25.9,28.9a5.558,5.558,0,0,1-3.85,1.336A5.627,5.627,0,0,1,17.689,28.5,6.834,6.834,0,0,1,16.1,23.7v-.164a7.723,7.723,0,0,1,.709-3.393,5.162,5.162,0,0,1,2.045-2.262,6.1,6.1,0,0,1,3.164-.791,5.488,5.488,0,0,1,3.926,1.371,4.863,4.863,0,0,1,1.453,3.715h-3.7a2.168,2.168,0,0,0-.48-1.512,1.658,1.658,0,0,0-1.289-.527q-1.535,0-1.793,1.957a13.809,13.809,0,0,0-.082,1.711,5.424,5.424,0,0,0,.457,2.648A1.582,1.582,0,0,0,21.955,27.188Zm11.707-13.02V17.32h2.086v2.742H33.662v5.8a1.481,1.481,0,0,0,.258,1,1.383,1.383,0,0,0,1.02.281,5.793,5.793,0,0,0,.984-.07v2.824a7.288,7.288,0,0,1-2.227.34,4.137,4.137,0,0,1-3.012-.961,3.939,3.939,0,0,1-.973-2.918V20.063H28.1V17.32h1.617V14.168Zm2.789,9.375a7.484,7.484,0,0,1,.738-3.381,5.28,5.28,0,0,1,2.121-2.279,6.388,6.388,0,0,1,3.246-.8,5.83,5.83,0,0,1,4.488,1.764,6.768,6.768,0,0,1,1.641,4.8v.141a6.566,6.566,0,0,1-1.646,4.705,5.846,5.846,0,0,1-4.459,1.74,5.912,5.912,0,0,1-4.348-1.623,6.348,6.348,0,0,1-1.77-4.4Zm3.949.246a4.718,4.718,0,0,0,.551,2.578,1.835,1.835,0,0,0,1.629.82q2.109,0,2.156-3.246v-.4q0-3.41-2.18-3.41-1.98,0-2.145,2.941Z" transform="translate(800 2755)" fill="#12263f"/>
    <g id="producto" transform="translate(761.929 2625.622)">
      <path id="Trazado_104469" data-name="Trazado 104469" d="M39.853,41.89l10.414,17L39.039,56.08,36.232,67.308,24.99,48.5a6.971,6.971,0,0,0,3.832-4.183,6.929,6.929,0,0,0,8.056.828l.112-.07A6.891,6.891,0,0,0,39.853,41.89Z" transform="translate(9.733 16.5)" fill="#fc6e51"/>
      <path id="Trazado_104470" data-name="Trazado 104470" d="M28.278,48.5,17.035,67.308,14.228,56.08,3,58.887l10.414-17a6.891,6.891,0,0,0,2.863,3.186l.112.07a6.929,6.929,0,0,0,8.056-.828A6.971,6.971,0,0,0,28.278,48.5Z" transform="translate(0.86 16.5)" fill="#fc6e51"/>
      <path id="Trazado_104471" data-name="Trazado 104471" d="M52.527,34.474h8.421v.07A6.924,6.924,0,0,1,56.2,41.1a6.929,6.929,0,0,1,.828,8.056l-.07.112A6.915,6.915,0,0,1,49.58,52.58a6.91,6.91,0,0,1-3.312,7.383l-.112.07A6.929,6.929,0,0,1,38.1,59.2a6.971,6.971,0,0,1-3.832,4.183,6.8,6.8,0,0,1-2.723.561H31.4a6.8,6.8,0,0,1-2.723-.561A6.971,6.971,0,0,1,24.849,59.2a6.929,6.929,0,0,1-8.056.828l-.112-.07a6.91,6.91,0,0,1-3.312-7.383,6.915,6.915,0,0,1-7.383-3.312l-.07-.112A6.929,6.929,0,0,1,6.744,41.1,6.924,6.924,0,0,1,2,34.544V34.4a6.924,6.924,0,0,1,4.744-6.554,6.929,6.929,0,0,1-.828-8.056l.07-.112a6.915,6.915,0,0,1,7.383-3.312,6.915,6.915,0,0,1,3.312-7.383l.112-.07a6.929,6.929,0,0,1,8.056.828A6.924,6.924,0,0,1,31.4,5h.14A6.924,6.924,0,0,1,38.1,9.744a6.929,6.929,0,0,1,8.056-.828l.112.07a5.106,5.106,0,0,1,.646.421V20.158a21.055,21.055,0,1,0,5.614,14.316Z" transform="translate(0.456 1.614)" fill="#ff826e"/>
      <circle id="Elipse_4138" data-name="Elipse 4138" cx="21.053" cy="21.053" r="21.053" transform="translate(10.878 15.035)" fill="#fcd770"/>
      <circle id="Elipse_4139" data-name="Elipse 4139" cx="15.439" cy="15.439" r="15.439" transform="translate(16.492 20.649)" fill="#ffeaa7"/>
      <path id="Trazado_104472" data-name="Trazado 104472" d="M70.492,35.685H36.807A2.806,2.806,0,0,1,34,32.878V4.807A2.806,2.806,0,0,1,36.807,2H70.492A2.806,2.806,0,0,1,73.3,4.807V32.878A2.806,2.806,0,0,1,70.492,35.685Z" transform="translate(13.369 0.404)" fill="#ecc19c"/>
      <path id="Trazado_104473" data-name="Trazado 104473" d="M42,2H58.842v8.421H42Z" transform="translate(16.597 0.404)" fill="#cf9e76"/>
      <path id="Trazado_104474" data-name="Trazado 104474" d="M26.228,20.807V18A11.241,11.241,0,0,0,15,29.228h2.807A8.43,8.43,0,0,1,26.228,20.807Z" transform="translate(5.702 6.86)" fill="#12263f"/>
      <path id="Trazado_104475" data-name="Trazado 104475" d="M83.861,1H50.176a4.216,4.216,0,0,0-4.211,4.211V8.705a8.323,8.323,0,0,0-6.845.545,8.4,8.4,0,0,0-7.26-4.039,8.311,8.311,0,0,0-7.121,4.041,8.3,8.3,0,0,0-8.185.06l-.124.072a8.313,8.313,0,0,0-4.146,7.058,8.313,8.313,0,0,0-7.058,4.146l-.072.124a8.313,8.313,0,0,0-.06,8.185,8.312,8.312,0,0,0-4.041,7.12v.142A8.311,8.311,0,0,0,5.094,43.28a8.31,8.31,0,0,0,.06,8.185l.072.124a8.316,8.316,0,0,0,7.058,4.146,8.386,8.386,0,0,0,.444,2.494L.869,77.581l13.2-3.3,3.291,13.162L29.766,66.677A8.684,8.684,0,0,0,32,66.966a8.3,8.3,0,0,0,2.1-.274L46.5,87.445l3.291-13.162,13.2,3.3L51.133,58.23a8.342,8.342,0,0,0,.444-2.494,8.309,8.309,0,0,0,7.058-4.146l.072-.124a8.306,8.306,0,0,0,.06-8.185,8.332,8.332,0,0,0,3.912-5.788H83.861a4.216,4.216,0,0,0,4.211-4.211V5.211A4.216,4.216,0,0,0,83.861,1ZM68.422,6.614V9.421H65.615V6.614H62.808V9.421H60V3.807H74.036V9.421H71.229V6.614ZM45.966,26.8a16.849,16.849,0,1,0,2.75,10.417,4.184,4.184,0,0,0,1.461.276h1.332a19.661,19.661,0,1,1-5.543-15.126Zm0,9.29A14.035,14.035,0,1,1,31.93,22.053,14.051,14.051,0,0,1,45.966,36.088ZM18.433,80.172,16.11,70.877,6.851,73.192l7.461-12.176a8.232,8.232,0,0,0,2.119,1.777l.124.072a8.319,8.319,0,0,0,8.187.06A8.258,8.258,0,0,0,27.2,65.5ZM57.01,73.193l-9.259-2.314-2.323,9.294L36.665,65.509a8.344,8.344,0,0,0,2.458-2.583,8.317,8.317,0,0,0,8.185-.06l.124-.072a8.233,8.233,0,0,0,2.119-1.777Zm-.8-31.81-2,.674,1.4,1.585a5.527,5.527,0,0,1,.667,6.418l-.072.124a5.516,5.516,0,0,1-5.892,2.632l-2.07-.417.417,2.07a5.526,5.526,0,0,1-2.632,5.892l-.124.072a5.529,5.529,0,0,1-6.418-.667l-1.585-1.4-.674,2a5.6,5.6,0,0,1-10.594,0l-.674-2-1.585,1.4a5.522,5.522,0,0,1-6.418.667l-.124-.072A5.526,5.526,0,0,1,15.2,54.47l.417-2.07-2.07.417a5.519,5.519,0,0,1-5.892-2.632l-.072-.124a5.524,5.524,0,0,1,.667-6.418l1.4-1.585-2-.674A5.527,5.527,0,0,1,3.86,36.158v-.142a5.524,5.524,0,0,1,3.787-5.225l2-.674-1.4-1.585a5.529,5.529,0,0,1-.667-6.418l.072-.124a5.526,5.526,0,0,1,5.892-2.632l2.07.417-.417-2.07a5.522,5.522,0,0,1,2.632-5.892l.124-.072a5.522,5.522,0,0,1,6.418.667l1.585,1.4.674-2a5.6,5.6,0,0,1,10.594,0l.674,2,1.585-1.4a5.532,5.532,0,0,1,6.418-.667l.062.036V18.6a22.444,22.444,0,1,0,8.35,18.893h5.5a5.528,5.528,0,0,1-3.6,3.892Zm29.05-8.1a1.4,1.4,0,0,1-1.4,1.4H50.176a1.4,1.4,0,0,1-1.4-1.4V5.211a1.4,1.4,0,0,1,1.4-1.4h7.018v8.421H76.843V3.807h7.018a1.4,1.4,0,0,1,1.4,1.4Z" transform="translate(0 0)" fill="#12263f"/>
      <path id="Trazado_104476" data-name="Trazado 104476" d="M49,21h2.807v2.807H49Z" transform="translate(19.422 8.071)" fill="#12263f"/>
      <path id="Trazado_104477" data-name="Trazado 104477" d="M53,21h2.807v2.807H53Z" transform="translate(21.036 8.071)" fill="#12263f"/>
      <path id="Trazado_104478" data-name="Trazado 104478" d="M57,21h2.807v2.807H57Z" transform="translate(22.65 8.071)" fill="#12263f"/>
      <path id="Trazado_104479" data-name="Trazado 104479" d="M49,17H63.035v2.807H49Z" transform="translate(19.422 6.456)" fill="#12263f"/>
      <path id="Trazado_104480" data-name="Trazado 104480" d="M22.5,33.932l-3.218-3.218L17.293,32.7l5.2,5.2L36.12,24.278l-1.985-1.985Z" transform="translate(6.628 8.592)" fill="#12263f"/>
    </g>
  </g>
</svg>
