<svg xmlns="http://www.w3.org/2000/svg" xmlns:xlink="http://www.w3.org/1999/xlink" width="119" height="119" viewBox="0 0 119 119">
  <defs>
    <clipPath id="clip-path">
      <rect id="Rectángulo_5866" data-name="Rectángulo 5866" width="119" height="119" transform="translate(180 5210)" fill="#fff" stroke="#707070" stroke-width="1"/>
    </clipPath>
  </defs>
  <g id="Enmascarar_grupo_19" data-name="Enmascarar grupo 19" transform="translate(-180 -5210)" clip-path="url(#clip-path)">
    <g id="papel" transform="translate(180 5210)">
      <g id="Grupo_55132" data-name="Grupo 55132">
        <path id="Trazado_104501" data-name="Trazado 104501" d="M15.734,78.049.07,34.493a1.236,1.236,0,0,1,.743-1.569c20.594-7.407,43.8-14.3,63.638-22.76.886-.559,1.582-.007,1.964,1.05L91.027,74.652,97.71,93.238a1.231,1.231,0,0,1-.737,1.569L49.879,111.743l-18.358,6.6a1.227,1.227,0,0,1-1.568-.737Z" fill="#fff" fill-rule="evenodd"/>
      </g>
      <g id="Grupo_55133" data-name="Grupo 55133">
        <path id="Trazado_104502" data-name="Trazado 104502" d="M28.793,63.6,20.972,17.98a1.229,1.229,0,0,1,1-1.419L75.833,7.327,88.17,5.294c.675-.293,1.773.048,2.032,1.555l13.325,66.542,3.335,19.466a1.232,1.232,0,0,1-1,1.419l-49.324,8.458-19.231,3.3a1.242,1.242,0,0,1-1.418-1Z" fill="#fff" fill-rule="evenodd"/>
      </g>
      <g id="Grupo_55134" data-name="Grupo 55134">
        <path id="Trazado_104503" data-name="Trazado 104503" d="M43.885,50.146V94a1.284,1.284,0,0,0,1.275,1.282h72.565A1.284,1.284,0,0,0,119,94V15.886H106.043c-1.248,0-3.839.177-3.839-2.653L102.176.581H45.16a1.278,1.278,0,0,0-1.275,1.276V50.146Z" fill="#fff" fill-rule="evenodd"/>
      </g>
      <g id="Grupo_55135" data-name="Grupo 55135">
        <path id="Trazado_104504" data-name="Trazado 104504" d="M22.267,25.544C14.97,28,7.742,30.435.813,32.924A1.236,1.236,0,0,0,.07,34.493L15.734,78.049l14.218,39.559a1.227,1.227,0,0,0,1.568.737l18.358-6.6L91.709,96.7Z" fill="#b5c4cf" fill-rule="evenodd"/>
      </g>
      <g id="Grupo_55136" data-name="Grupo 55136">
        <path id="Trazado_104505" data-name="Trazado 104505" d="M43.885,12.8,21.967,16.562a1.229,1.229,0,0,0-1,1.419l1.3,7.564L28.794,63.6l7.1,41.435a1.242,1.242,0,0,0,1.418,1l19.231-3.3L91.709,96.7l8.272-1.419H95.65Z" fill="#d7e7ec" fill-rule="evenodd"/>
      </g>
      <g id="Grupo_55137" data-name="Grupo 55137">
        <path id="Trazado_104506" data-name="Trazado 104506" d="M119,73.4V15.689c0-.368-.157-.43-.723-.982L104.291,1.365c-.661-.628-.77-.784-1.159-.784H45.16a1.278,1.278,0,0,0-1.275,1.276V94a1.284,1.284,0,0,0,1.275,1.282h72.565A1.284,1.284,0,0,0,119,94Z" fill="#edf3f4" fill-rule="evenodd"/>
      </g>
      <g id="Grupo_55138" data-name="Grupo 55138">
        <path id="Trazado_104507" data-name="Trazado 104507" d="M43.885,12.8l-5.135.88V98.716A1.279,1.279,0,0,0,40.025,100H72.492L91.709,96.7l8.272-1.419H45.16A1.284,1.284,0,0,1,43.885,94V12.8Z" fill="#b5c4cf" fill-rule="evenodd"/>
      </g>
      <g id="Grupo_55139" data-name="Grupo 55139">
        <path id="Trazado_104508" data-name="Trazado 104508" d="M28.793,63.6,22.267,25.544q-2.649.89-5.278,1.78l.812,4.727L24.327,70.1l7.106,41.435a1.232,1.232,0,0,0,1.411,1l19.231-3.3,9.124-1.562,27.482-9.89-.327-.512L72.492,100l-15.95,2.735-19.231,3.3a1.242,1.242,0,0,1-1.418-1Z" fill="#9aafb7" fill-rule="evenodd"/>
      </g>
      <g id="Grupo_55140" data-name="Grupo 55140">
        <path id="Trazado_104509" data-name="Trazado 104509" d="M119,73.4V15.886c0-.689-.225-.7-.723-1.18L104.291,1.365c-.661-.628-.77-.784-1.159-.784H87.985c17.342,23.217,18.33,65.068,5.462,91.191-.593,1.214-1.214,2.38-1.862,3.513h26.139A1.284,1.284,0,0,0,119,94Z" fill="#d7e7ec" fill-rule="evenodd"/>
      </g>
      <g id="Grupo_55141" data-name="Grupo 55141">
        <path id="Trazado_104510" data-name="Trazado 104510" d="M102.2,13.233c0,2.83,2.591,2.653,3.839,2.653H119v-.2c0-.368-.157-.43-.723-.982L104.291,1.365c-.661-.628-.77-.784-1.159-.784h-.955Z" fill="#fff" fill-rule="evenodd"/>
      </g>
      <g id="Grupo_55142" data-name="Grupo 55142">
        <path id="Trazado_104511" data-name="Trazado 104511" d="M118.277,14.706,104.291,1.365c-.661-.628-.77-.784-1.159-.784h-.955l.027,12.652c0,2.83,2.591,2.653,3.839,2.653H119v-.2C119,15.32,118.843,15.259,118.277,14.706Z" fill="#b5c4cf" fill-rule="evenodd"/>
      </g>
      <g id="Grupo_55143" data-name="Grupo 55143">
        <path id="Trazado_104512" data-name="Trazado 104512" d="M107.475,28.473H56.132a1.8,1.8,0,0,1,0-3.593h51.343a1.8,1.8,0,0,1,0,3.593Z" fill="#9aafb7"/>
      </g>
      <g id="Grupo_55144" data-name="Grupo 55144">
        <path id="Trazado_104513" data-name="Trazado 104513" d="M107.475,41.234H56.132a1.8,1.8,0,0,1,0-3.593h51.343a1.8,1.8,0,0,1,0,3.593Z" fill="#9aafb7"/>
      </g>
      <g id="Grupo_55145" data-name="Grupo 55145">
        <path id="Trazado_104514" data-name="Trazado 104514" d="M107.475,54H56.132a1.8,1.8,0,0,1,0-3.593h51.343a1.8,1.8,0,0,1,0,3.593Z" fill="#9aafb7"/>
      </g>
      <g id="Grupo_55146" data-name="Grupo 55146">
        <path id="Trazado_104515" data-name="Trazado 104515" d="M107.475,66.757H56.132a1.8,1.8,0,0,1,0-3.593h51.343a1.8,1.8,0,0,1,0,3.593Z" fill="#9aafb7"/>
      </g>
      <g id="Grupo_55147" data-name="Grupo 55147">
        <path id="Trazado_104516" data-name="Trazado 104516" d="M107.475,79.518H56.132a1.8,1.8,0,0,1,0-3.593h51.343a1.8,1.8,0,0,1,0,3.593Z" fill="#9aafb7"/>
      </g>
    </g>
  </g>
</svg>
