<svg xmlns="http://www.w3.org/2000/svg" xmlns:xlink="http://www.w3.org/1999/xlink" width="119" height="119" viewBox="0 0 119 119">
  <defs>
    <clipPath id="clip-path">
      <rect id="Rectángulo_5869" data-name="Rectángulo 5869" width="119" height="119" transform="translate(649 5210)" fill="#fff" stroke="#707070" stroke-width="1"/>
    </clipPath>
  </defs>
  <g id="Enmascarar_grupo_22" data-name="Enmascarar grupo 22" transform="translate(-649 -5210)" clip-path="url(#clip-path)">
    <g id="azucar" transform="translate(670.408 5210)">
      <path id="Trazado_104565" data-name="Trazado 104565" d="M38.093,37.419S0,47.485,0,80.908a38.092,38.092,0,0,0,76.185,0c0-33.423-38.092-43.488-38.092-43.488Zm0,0" fill="#f9efd1"/>
      <g id="Grupo_55189" data-name="Grupo 55189">
        <path id="Trazado_104566" data-name="Trazado 104566" d="M7.183,80.907c0-27.083,25.013-38.83,34.5-42.312-2.22-.814-3.592-1.178-3.592-1.178S0,47.485,0,80.907A38.093,38.093,0,0,0,38.093,119c1.211,0,2.409-.059,3.592-.17a38.1,38.1,0,0,1-34.5-37.923Zm0,0" fill="#e6ddc1"/>
        <path id="Trazado_104567" data-name="Trazado 104567" d="M9.875,25.8a1.832,1.832,0,0,0,1.25,2.242L35.994,35.35a1.635,1.635,0,0,0,2.03-2.03L30.716,8.453A1.832,1.832,0,0,0,28.474,7.2a26.561,26.561,0,0,0-18.6,18.6Zm0,0" fill="#e6ddc1"/>
        <path id="Trazado_104568" data-name="Trazado 104568" d="M66.309,25.8a1.831,1.831,0,0,1-1.25,2.242L40.191,35.35a1.635,1.635,0,0,1-2.03-2.03L45.469,8.453A1.833,1.833,0,0,1,47.711,7.2a26.562,26.562,0,0,1,18.6,18.6Zm0,0" fill="#e6ddc1"/>
      </g>
      <path id="Trazado_104569" data-name="Trazado 104569" d="M22.388,4.16a2.189,2.189,0,0,0-.837,2.95L36.379,34.278a1.952,1.952,0,0,0,3.427,0L54.634,7.11A2.189,2.189,0,0,0,53.8,4.16a31.724,31.724,0,0,0-31.409,0Zm0,0" fill="#f9efd1"/>
      <path id="Trazado_104570" data-name="Trazado 104570" d="M48.963,41.558H27.222a1.2,1.2,0,0,1-1.2-1.2V34.476a1.2,1.2,0,0,1,1.2-1.2H48.963a1.2,1.2,0,0,1,1.2,1.2v5.887a1.2,1.2,0,0,1-1.2,1.2Zm0,0" fill="#e3637b"/>
      <path id="Trazado_104571" data-name="Trazado 104571" d="M33.209,40.362V34.476a1.2,1.2,0,0,1,1.2-1.2H27.223a1.2,1.2,0,0,0-1.2,1.2v5.887a1.2,1.2,0,0,0,1.2,1.2H34.4a1.2,1.2,0,0,1-1.2-1.2Zm0,0" fill="#d75e74"/>
      <path id="Trazado_104572" data-name="Trazado 104572" d="M29.367,83.6A10.821,10.821,0,1,1,18.546,72.777,10.821,10.821,0,0,1,29.367,83.6Zm0,0" fill="#62c397"/>
      <path id="Trazado_104573" data-name="Trazado 104573" d="M11.917,83.6a10.823,10.823,0,0,1,8.725-10.616,10.821,10.821,0,1,0,0,21.232A10.823,10.823,0,0,1,11.917,83.6Zm0,0" fill="#20ab6c"/>
      <path id="Trazado_104574" data-name="Trazado 104574" d="M68.46,83.6A10.821,10.821,0,1,1,57.639,72.777,10.821,10.821,0,0,1,68.46,83.6Zm0,0" fill="#c2e3ee"/>
      <path id="Trazado_104575" data-name="Trazado 104575" d="M51.009,83.6a10.823,10.823,0,0,1,8.726-10.616,10.821,10.821,0,1,0,0,21.232A10.822,10.822,0,0,1,51.009,83.6Zm0,0" fill="#add9e8"/>
      <path id="Trazado_104576" data-name="Trazado 104576" d="M48.913,87.282a10.821,10.821,0,1,1-10.82-10.821A10.821,10.821,0,0,1,48.913,87.282Zm0,0" fill="#e8a8c2"/>
      <path id="Trazado_104577" data-name="Trazado 104577" d="M31.463,87.282a10.823,10.823,0,0,1,8.725-10.616,10.821,10.821,0,1,0,0,21.232,10.823,10.823,0,0,1-8.725-10.616Zm0,0" fill="#db9eb7"/>
      <path id="Trazado_104578" data-name="Trazado 104578" d="M33.56,98.445A10.821,10.821,0,1,1,22.738,87.623,10.822,10.822,0,0,1,33.56,98.445Zm0,0" fill="#ab8ecd"/>
      <path id="Trazado_104579" data-name="Trazado 104579" d="M16.109,98.445a10.824,10.824,0,0,1,8.725-10.617,10.821,10.821,0,1,0,0,21.233,10.823,10.823,0,0,1-8.725-10.616Zm0,0" fill="#9d7bc6"/>
      <path id="Trazado_104580" data-name="Trazado 104580" d="M64.268,98.445a10.821,10.821,0,1,1-10.82-10.821A10.821,10.821,0,0,1,64.268,98.445Zm0,0" fill="#e3637b"/>
      <path id="Trazado_104581" data-name="Trazado 104581" d="M46.818,98.445a10.824,10.824,0,0,1,8.725-10.617,10.821,10.821,0,1,0,0,21.233,10.823,10.823,0,0,1-8.725-10.616Zm0,0" fill="#d75e74"/>
      <path id="Trazado_104582" data-name="Trazado 104582" d="M48.913,104.112a10.821,10.821,0,1,1-10.82-10.821A10.821,10.821,0,0,1,48.913,104.112Zm0,0" fill="#f5d96c"/>
      <path id="Trazado_104583" data-name="Trazado 104583" d="M31.463,104.112A10.824,10.824,0,0,1,40.188,93.5a10.821,10.821,0,1,0,0,21.233,10.823,10.823,0,0,1-8.725-10.616Zm0,0" fill="#eaca65"/>
    </g>
  </g>
</svg>
