<svg xmlns="http://www.w3.org/2000/svg" xmlns:xlink="http://www.w3.org/1999/xlink" width="119" height="119" viewBox="0 0 119 119">
  <defs>
    <clipPath id="clip-path">
      <rect id="Rectángulo_5876" data-name="Rectángulo 5876" width="119" height="119" transform="translate(1271 5210)" fill="#fff" stroke="#707070" stroke-width="1"/>
    </clipPath>
  </defs>
  <g id="Enmascarar_grupo_26" data-name="Enmascarar grupo 26" transform="translate(-1271 -5210)" clip-path="url(#clip-path)">
    <g id="caja" transform="translate(1271 5228.466)">
      <path id="Trazado_104639" data-name="Trazado 104639" d="M119,4.1V77.966a4.115,4.115,0,0,1-4.1,4.1H4.1a4.115,4.115,0,0,1-4.1-4.1V4.1A4.116,4.116,0,0,1,4.1,0h12.31a4.1,4.1,0,0,1,4.062,3.55,4.91,4.91,0,0,1,.042.554V12.31H98.482V4.1a4.91,4.91,0,0,1,.042-.554A4.1,4.1,0,0,1,102.586,0H114.9A4.116,4.116,0,0,1,119,4.1Zm0,0" fill="#f29c1f"/>
      <path id="Trazado_104640" data-name="Trazado 104640" d="M20.476,3.55A4.1,4.1,0,0,0,16.414,0h.821a3.609,3.609,0,0,1,3.241,3.55Zm0,0" fill="#f29c1f"/>
      <path id="Trazado_104641" data-name="Trazado 104641" d="M102.586,0a4.1,4.1,0,0,0-4.062,3.55A3.609,3.609,0,0,1,101.765,0Zm0,0" fill="#f29c1f"/>
      <path id="Trazado_104642" data-name="Trazado 104642" d="M20.518,51.293V82.068H4.1a4.115,4.115,0,0,1-4.1-4.1V51.293Zm0,0" fill="#d25627"/>
      <path id="Trazado_104643" data-name="Trazado 104643" d="M20.518,51.293V82.068H7.387a3.773,3.773,0,0,1-3.283-4.1V51.293Zm0,0" fill="#e57e25"/>
      <path id="Trazado_104644" data-name="Trazado 104644" d="M36.931,51.293H84.12V82.068H36.931Zm0,0" fill="#e57e25"/>
      <path id="Trazado_104645" data-name="Trazado 104645" d="M119,51.293V77.966a4.115,4.115,0,0,1-4.1,4.1H100.534V51.293Zm0,0" fill="#d25627"/>
      <path id="Trazado_104646" data-name="Trazado 104646" d="M114.9,51.293V77.966a3.745,3.745,0,0,1-3.191,4.1H100.534V51.293Zm0,0" fill="#e57e25"/>
      <path id="Trazado_104647" data-name="Trazado 104647" d="M100.534,22.569H119V51.293H100.534Zm0,0" fill="#e57e25"/>
      <path id="Trazado_104648" data-name="Trazado 104648" d="M0,22.569H20.518V51.293H0Zm0,0" fill="#e57e25"/>
      <path id="Trazado_104649" data-name="Trazado 104649" d="M100.534,22.569H114.9V51.293H100.534Zm0,0" fill="#f29c1f"/>
      <path id="Trazado_104650" data-name="Trazado 104650" d="M4.1,22.569H20.518V51.293H4.1Zm0,0" fill="#f29c1f"/>
      <path id="Trazado_104651" data-name="Trazado 104651" d="M20.518,12.31H36.931V82.068H20.518Zm0,0" fill="#fac176"/>
      <path id="Trazado_104652" data-name="Trazado 104652" d="M84.12,12.31h16.414V82.068H84.12Zm0,0" fill="#fac176"/>
      <path id="Trazado_104653" data-name="Trazado 104653" d="M36.931,12.31H84.12V22.568H36.931Zm0,0" fill="#d25627"/>
      <path id="Trazado_104654" data-name="Trazado 104654" d="M100.534,12.31H119V22.568H100.534Zm0,0" fill="#d25627"/>
      <path id="Trazado_104655" data-name="Trazado 104655" d="M0,12.31H20.518V22.568H0Zm0,0" fill="#d25627"/>
      <g id="Grupo_55194" data-name="Grupo 55194">
        <path id="Trazado_104656" data-name="Trazado 104656" d="M30.776,36.931a2.052,2.052,0,1,1-2.052-2.052A2.051,2.051,0,0,1,30.776,36.931Zm0,0" fill="#35495e"/>
        <path id="Trazado_104657" data-name="Trazado 104657" d="M30.776,67.706a2.052,2.052,0,1,1-2.052-2.051A2.051,2.051,0,0,1,30.776,67.706Zm0,0" fill="#35495e"/>
        <path id="Trazado_104658" data-name="Trazado 104658" d="M94.379,36.931a2.052,2.052,0,1,1-2.052-2.052A2.051,2.051,0,0,1,94.379,36.931Zm0,0" fill="#35495e"/>
        <path id="Trazado_104659" data-name="Trazado 104659" d="M94.379,67.706a2.052,2.052,0,1,1-2.052-2.051A2.051,2.051,0,0,1,94.379,67.706Zm0,0" fill="#35495e"/>
      </g>
      <path id="Trazado_104660" data-name="Trazado 104660" d="M20.518,4.1V12.31H0V4.1A4.116,4.116,0,0,1,4.1,0h12.31a4.116,4.116,0,0,1,4.1,4.1Zm0,0" fill="#e57e25"/>
      <path id="Trazado_104661" data-name="Trazado 104661" d="M20.518,4.1V12.31H4.1V4.1A3.774,3.774,0,0,1,7.387,0h9.848A3.775,3.775,0,0,1,20.518,4.1Zm0,0" fill="#f29c1f"/>
      <path id="Trazado_104662" data-name="Trazado 104662" d="M119,4.1V12.31H98.482V4.1a4.116,4.116,0,0,1,4.1-4.1H114.9A4.116,4.116,0,0,1,119,4.1Zm0,0" fill="#e57e25"/>
      <path id="Trazado_104663" data-name="Trazado 104663" d="M114.9,4.1V12.31H98.482V4.1A3.775,3.775,0,0,1,101.765,0h9.848A3.774,3.774,0,0,1,114.9,4.1Zm0,0" fill="#f29c1f"/>
      <path id="Trazado_104664" data-name="Trazado 104664" d="M47.19,32.828H45.138a2.052,2.052,0,0,1,0-4.1H47.19a2.052,2.052,0,0,1,0,4.1Zm0,0" fill="#fac176"/>
      <path id="Trazado_104665" data-name="Trazado 104665" d="M75.914,32.828H55.4a2.052,2.052,0,0,1,0-4.1H75.914a2.052,2.052,0,0,1,0,4.1Zm0,0" fill="#fac176"/>
    </g>
  </g>
</svg>
