<svg xmlns="http://www.w3.org/2000/svg" xmlns:xlink="http://www.w3.org/1999/xlink" width="119" height="119" viewBox="0 0 119 119">
  <defs>
    <clipPath id="clip-path">
      <rect id="Rectángulo_5878" data-name="Rectángulo 5878" width="119" height="119" transform="translate(426 5477)" fill="#fff" stroke="#707070" stroke-width="1"/>
    </clipPath>
  </defs>
  <g id="Enmascarar_grupo_28" data-name="Enmascarar grupo 28" transform="translate(-426 -5477)" clip-path="url(#clip-path)">
    <g id="impresion-3d" transform="translate(426 5477)">
      <path id="Trazado_104674" data-name="Trazado 104674" d="M106.487,0H12.513a1.732,1.732,0,0,0-1.224.507L.507,11.288A1.732,1.732,0,0,0,0,12.513V117.268A1.732,1.732,0,0,0,1.732,119H18.7a1.732,1.732,0,0,0,1.732-1.732v-3.72a1.732,1.732,0,0,1,1.732-1.732H96.833a1.732,1.732,0,0,1,1.732,1.732v3.72A1.732,1.732,0,0,0,100.3,119h16.973A1.732,1.732,0,0,0,119,117.268V12.513a1.732,1.732,0,0,0-.507-1.224L107.712.507A1.732,1.732,0,0,0,106.487,0Z" fill="#365e7d"/>
      <g id="Grupo_55197" data-name="Grupo 55197">
        <path id="Trazado_104675" data-name="Trazado 104675" d="M106.971,0h-4.912l9.152,9.152a9.026,9.026,0,0,1,2.644,6.383V119h4.389a.757.757,0,0,0,.757-.757V12.029a.565.565,0,0,0-.165-.4L107.37.165a.565.565,0,0,0-.4-.165Z" fill="#2b4d66"/>
      </g>
      <path id="Trazado_104676" data-name="Trazado 104676" d="M103.814,101.078a1.527,1.527,0,0,1-1.08.447H16.265a1.527,1.527,0,0,1-1.08-.447l-3.161-3.161a1.526,1.526,0,0,1-.447-1.08V31.429a1.527,1.527,0,0,1,.447-1.08l3.161-3.161a1.527,1.527,0,0,1,1.08-.447h86.47a1.527,1.527,0,0,1,1.08.447l3.161,3.161a1.526,1.526,0,0,1,.447,1.08V96.838a1.527,1.527,0,0,1-.447,1.08Z" fill="#b1e4f9"/>
      <path id="Trazado_104677" data-name="Trazado 104677" d="M103.814,27.189a1.527,1.527,0,0,0-1.08-.447H98l3.608,3.608a1.527,1.527,0,0,1,.447,1.08V96.838a1.527,1.527,0,0,1-.447,1.08L98,101.526h4.731a1.527,1.527,0,0,0,1.08-.447l3.161-3.161a1.527,1.527,0,0,0,.447-1.08V31.429a1.527,1.527,0,0,0-.447-1.08l-3.161-3.161Z" fill="#90d8f9"/>
      <path id="Trazado_104678" data-name="Trazado 104678" d="M58.242,17.823a2.323,2.323,0,0,1-2.323,2.323H25.614a2.323,2.323,0,0,1-2.323-2.323V8.692a2.323,2.323,0,0,1,2.323-2.323H55.919a2.323,2.323,0,0,1,2.323,2.323Z" fill="#b1e4f9"/>
      <path id="Trazado_104679" data-name="Trazado 104679" d="M55.919,6.369h-4.5a2.323,2.323,0,0,1,2.323,2.323v9.131a2.323,2.323,0,0,1-2.323,2.323h4.5a2.323,2.323,0,0,0,2.323-2.323V8.692A2.323,2.323,0,0,0,55.919,6.369Z" fill="#90d8f9"/>
      <path id="Trazado_104680" data-name="Trazado 104680" d="M24.282,75.551a1.8,1.8,0,0,0-1.8,1.8v24.179h3.592V77.346a1.8,1.8,0,0,0-1.8-1.8Z" fill="#2b4d66"/>
      <path id="Trazado_104681" data-name="Trazado 104681" d="M94.718,75.551a1.8,1.8,0,0,0-1.8,1.8v24.179h3.592V77.346a1.8,1.8,0,0,0-1.8-1.8Z" fill="#2b4d66"/>
      <circle id="Elipse_4143" data-name="Elipse 4143" cx="7.364" cy="7.364" r="7.364" transform="translate(81.822 6.369)" fill="#e490d0"/>
      <path id="Trazado_104682" data-name="Trazado 104682" d="M89.186,6.369a7.358,7.358,0,0,0-2.194.333,7.367,7.367,0,0,1,0,14.063,7.365,7.365,0,1,0,2.194-14.4Z" fill="#df73c1"/>
      <g id="Grupo_55200" data-name="Grupo 55200">
        <g id="Grupo_55198" data-name="Grupo 55198">
          <path id="Trazado_104683" data-name="Trazado 104683" d="M72.05,12.721H67.282a1.8,1.8,0,1,1,0-3.591H72.05a1.8,1.8,0,1,1,0,3.591Z" fill="#b1e4f9"/>
        </g>
        <g id="Grupo_55199" data-name="Grupo 55199">
          <path id="Trazado_104684" data-name="Trazado 104684" d="M72.05,18.336H67.282a1.8,1.8,0,1,1,0-3.591H72.05a1.8,1.8,0,1,1,0,3.591Z" fill="#b1e4f9"/>
        </g>
      </g>
      <g id="Grupo_55201" data-name="Grupo 55201">
        <path id="Trazado_104685" data-name="Trazado 104685" d="M41.563,61.542a10.454,10.454,0,0,1-6.354-2.4c-1.361-1.038-2.606-.678-4.69.049-2.121.74-5.326,1.857-7.729-1.517a5.659,5.659,0,0,1-.925-4.988c1.434-4.972,9.468-8.406,10.379-8.781a1.8,1.8,0,0,1,1.368,3.321c-2.826,1.168-7.577,3.954-8.3,6.457a2.079,2.079,0,0,0,.4,1.908c.73,1.025,1.2,1.052,3.62.209,2.146-.749,5.086-1.774,8.05.487a6.511,6.511,0,0,0,4.965,1.6,7.361,7.361,0,0,0,4.267-2.778,1.8,1.8,0,1,1,2.957,2.038,10.965,10.965,0,0,1-6.66,4.287,8.555,8.555,0,0,1-1.353.108Z" fill="#f6f1f1"/>
      </g>
      <g id="Grupo_55204" data-name="Grupo 55204">
        <g id="Grupo_55202" data-name="Grupo 55202">
          <path id="Trazado_104686" data-name="Trazado 104686" d="M32.341,15.053H30.493a1.8,1.8,0,1,1,0-3.591h1.848a1.8,1.8,0,1,1,0,3.591Z" fill="#2b4d66"/>
        </g>
        <g id="Grupo_55203" data-name="Grupo 55203">
          <path id="Trazado_104687" data-name="Trazado 104687" d="M51.039,15.053H37.812a1.8,1.8,0,1,1,0-3.591H51.039a1.8,1.8,0,1,1,0,3.591Z" fill="#2b4d66"/>
        </g>
      </g>
      <path id="Trazado_104688" data-name="Trazado 104688" d="M81.251,101.526h-43.5V96.845a2.279,2.279,0,0,1,2.279-2.279H78.972a2.279,2.279,0,0,1,2.279,2.279v4.681Z" fill="#7398d3"/>
      <path id="Trazado_104689" data-name="Trazado 104689" d="M81.251,96.845a2.279,2.279,0,0,0-2.279-2.278H74.748a2.279,2.279,0,0,1,2.279,2.278v4.681h4.224Z" fill="#5986cb"/>
      <path id="Trazado_104690" data-name="Trazado 104690" d="M47.453,94.566V87.248a.6.6,0,0,1,.2-.451L55.5,79.905a.6.6,0,0,1,.531-.134L68.141,82.56a.6.6,0,0,1,.357.24l2.941,4.179a.6.6,0,0,1,.109.346v7.242H47.453Z" fill="#707dd3"/>
      <path id="Trazado_104691" data-name="Trazado 104691" d="M68.5,82.8a.6.6,0,0,0-.357-.24L56.027,79.771a.6.6,0,0,0-.531.134l-3.023,2.658L63.9,85.194a.6.6,0,0,1,.357.24L67.2,89.613a.6.6,0,0,1,.109.346v4.608h4.241V87.324a.6.6,0,0,0-.109-.346Z" fill="#5766cb"/>
      <path id="Trazado_104692" data-name="Trazado 104692" d="M56.612,59.2a.6.6,0,0,1-.571.415H47.855a.6.6,0,0,1-.571-.415L45.153,52.64h13.59Z" fill="#2b4d66"/>
      <g id="Grupo_55205" data-name="Grupo 55205">
        <path id="Trazado_104693" data-name="Trazado 104693" d="M51.948,68.586a1.8,1.8,0,0,1-1.8-1.8V58.658a1.8,1.8,0,1,1,3.591,0V66.79A1.8,1.8,0,0,1,51.948,68.586Z" fill="#707dd3"/>
      </g>
      <g id="Grupo_55206" data-name="Grupo 55206">
        <path id="Trazado_104694" data-name="Trazado 104694" d="M43.161,43.774H11.578v3.592H43.16a1.8,1.8,0,0,0,0-3.592Z" fill="#2b4d66"/>
        <path id="Trazado_104695" data-name="Trazado 104695" d="M107.422,43.774H60.736a1.8,1.8,0,0,0,0,3.591h46.687Z" fill="#2b4d66"/>
        <path id="Trazado_104696" data-name="Trazado 104696" d="M50.152,26.742V40.894a1.8,1.8,0,0,0,3.591,0V26.742Z" fill="#2b4d66"/>
      </g>
      <g id="Grupo_55207" data-name="Grupo 55207">
        <path id="Trazado_104697" data-name="Trazado 104697" d="M63.13,52.04a.6.6,0,0,1-.6.6H41.367a.6.6,0,0,1-.6-.6V39.1a.6.6,0,0,1,.6-.6H62.529a.6.6,0,0,1,.6.6Z" fill="#365e7d"/>
      </g>
      <g id="Grupo_55208" data-name="Grupo 55208">
        <path id="Trazado_104698" data-name="Trazado 104698" d="M59.021,38.5V52.64h3.508a.6.6,0,0,0,.6-.6V39.1a.6.6,0,0,0-.6-.6H59.021Z" fill="#2b4d66"/>
      </g>
    </g>
  </g>
</svg>
