<svg xmlns="http://www.w3.org/2000/svg" xmlns:xlink="http://www.w3.org/1999/xlink" width="119" height="119" viewBox="0 0 119 119">
  <defs>
    <clipPath id="clip-path">
      <rect id="Rectángulo_5868" data-name="Rectángulo 5868" width="119" height="119" transform="translate(495 5210)" fill="#fff" stroke="#707070" stroke-width="1"/>
    </clipPath>
  </defs>
  <g id="Enmascarar_grupo_21" data-name="Enmascarar grupo 21" transform="translate(-495 -5210)" clip-path="url(#clip-path)">
    <g id="aperitivos" transform="translate(495 5210)">
      <g id="Grupo_55186" data-name="Grupo 55186">
        <g id="Grupo_55149" data-name="Grupo 55149">
          <path id="Trazado_104524" data-name="Trazado 104524" d="M116.639,91.422v10.492a3.7,3.7,0,0,1-3.69,3.7H55.53a30.931,30.931,0,0,1-3.015-14.191l27.21-8.047Z" fill="#ffd772" fill-rule="evenodd"/>
        </g>
        <g id="Grupo_55150" data-name="Grupo 55150">
          <path id="Trazado_104525" data-name="Trazado 104525" d="M116.639,5.859V16.354L75.944,22.292,36.1,16.353V5.859a3.706,3.706,0,0,1,3.7-3.692h73.145a3.7,3.7,0,0,1,3.69,3.692Z" fill="#ffd772" fill-rule="evenodd"/>
        </g>
        <g id="Grupo_55151" data-name="Grupo 55151">
          <path id="Trazado_104526" data-name="Trazado 104526" d="M116.64,91.421c1.493-16.135,4.466-58.913,0-75.068H36.106c-1.611,5.834-2.254,15.153-2.344,25.433L54.957,91.421H116.64Z" fill="#ce9874" fill-rule="evenodd"/>
        </g>
        <g id="Grupo_55152" data-name="Grupo 55152">
          <path id="Trazado_104527" data-name="Trazado 104527" d="M86.977,47.44A60.829,60.829,0,0,1,60.466,33.808c-3.885-3.851-5.15-2.654-7.1,2.509a16.791,16.791,0,0,0-1.085,5.468h3.463a2.689,2.689,0,0,1,2.682,2.682v7.611c-.346.843-.726,1.694-1.1,2.578a25.028,25.028,0,0,0,6.526,5.164,26.878,26.878,0,0,0,3.028,1.217c8.365,2.765,17.324.912,22.183-6.36,2.966-4.431,3.173-6.395-1.576-7.162-.166-.027-.331-.048-.511-.076Z" fill="#ffd772" fill-rule="evenodd"/>
        </g>
        <g id="Grupo_55153" data-name="Grupo 55153">
          <path id="Trazado_104528" data-name="Trazado 104528" d="M89.065,54.678c-4.86,7.272-13.819,9.125-22.183,6.36-.1.041-.194.076-.283.118-5.841,1.839-5.33,4.023-.954,8.621,7.8,8.185,20.1,7.618,29.614.885,9.09-7.307,13.01-18.976,7.279-28.717-3.221-5.475-4.894-6.581-8.551-1.459a72.88,72.88,0,0,1-6.5,7.031c4.749.767,4.542,2.731,1.576,7.162Z" fill="#ffd772" fill-rule="evenodd"/>
        </g>
        <g id="Grupo_55154" data-name="Grupo 55154">
          <path id="Trazado_104529" data-name="Trazado 104529" d="M86.977,47.44q-1.95-.456-3.871-1.037a12,12,0,0,1-2.088,4.2c-4.6,6.872-12.858,8.9-20.815,6.768a25.471,25.471,0,0,0,3.65,2.447,26.878,26.878,0,0,0,3.028,1.217c8.365,2.765,17.324.912,22.183-6.36,2.966-4.431,3.173-6.395-1.576-7.162-.166-.028-.332-.048-.512-.076Z" fill="#fdb440" fill-rule="evenodd"/>
        </g>
        <g id="Grupo_55155" data-name="Grupo 55155">
          <path id="Trazado_104530" data-name="Trazado 104530" d="M96.745,40.534c5.731,9.74,1.818,21.41-7.272,28.717a26.191,26.191,0,0,1-17.241,5.067c7.189,2.973,15.886,1.389,23.027-3.657,9.09-7.307,13.01-18.976,7.279-28.717-2.73-4.646-4.348-6.146-7-3.367.38.574.781,1.223,1.21,1.956Z" fill="#fdb440" fill-rule="evenodd"/>
        </g>
        <g id="Grupo_55156" data-name="Grupo 55156">
          <path id="Trazado_104531" data-name="Trazado 104531" d="M116.64,5.858a3.7,3.7,0,0,0-3.692-3.692H107.29a3.657,3.657,0,0,1,1.853.5,3.713,3.713,0,0,1,1.846,3.194V16.352h5.652Z" fill="#fdb440" fill-rule="evenodd"/>
        </g>
        <g id="Grupo_55157" data-name="Grupo 55157">
          <path id="Trazado_104532" data-name="Trazado 104532" d="M29.214,46.929,0,52.079c.346.843.726,1.694,1.1,2.585A25.1,25.1,0,0,1,3.47,64.944V91.511A30.9,30.9,0,0,1,1.1,104.189c-.332.788-.7,1.562-1.1,2.35l31.163,5.15,27.264-5.15c-.159-.311-.311-.622-.456-.926a30.517,30.517,0,0,1-3.014-14.1V64.944a25.161,25.161,0,0,1,2.371-10.287c.373-.885.754-1.735,1.1-2.578Z" fill="#95d6a4" fill-rule="evenodd"/>
        </g>
        <g id="Grupo_55158" data-name="Grupo 55158">
          <path id="Trazado_104533" data-name="Trazado 104533" d="M34.419,67.716a13.073,13.073,0,0,0-18.678,8.247c8.51,2.572,16.515,1.756,23.5-3.92a13.1,13.1,0,0,0-4.825-4.327Z" fill="#dd636e" fill-rule="evenodd"/>
        </g>
        <g id="Grupo_55159" data-name="Grupo 55159">
          <path id="Trazado_104534" data-name="Trazado 104534" d="M41.138,82.144c-10.286-2.9-16.8,3.353-23.642,4.41a13.071,13.071,0,0,0,23.642-4.41Z" fill="#dd636e" fill-rule="evenodd"/>
        </g>
        <g id="Grupo_55160" data-name="Grupo 55160">
          <path id="Trazado_104535" data-name="Trazado 104535" d="M58.427,44.468V52.08H0V44.468a2.682,2.682,0,0,1,2.682-2.682H55.746A2.688,2.688,0,0,1,58.427,44.468Z" fill="#ccf49e" fill-rule="evenodd"/>
        </g>
        <g id="Grupo_55161" data-name="Grupo 55161">
          <path id="Trazado_104536" data-name="Trazado 104536" d="M58.427,106.54v7.612a2.688,2.688,0,0,1-2.682,2.682H2.682A2.687,2.687,0,0,1,0,114.151V106.54H58.427Z" fill="#ccf49e" fill-rule="evenodd"/>
        </g>
        <g id="Grupo_55162" data-name="Grupo 55162">
          <path id="Trazado_104537" data-name="Trazado 104537" d="M58.427,44.468a2.689,2.689,0,0,0-2.682-2.682H48.77a2.689,2.689,0,0,1,2.682,2.682v7.611h6.975Z" fill="#b3e59e" fill-rule="evenodd"/>
        </g>
        <g id="Grupo_55163" data-name="Grupo 55163">
          <path id="Trazado_104538" data-name="Trazado 104538" d="M58.427,106.54H52.579v7.611a2.685,2.685,0,0,1-2.682,2.682h5.848a2.689,2.689,0,0,0,2.682-2.682Z" fill="#b3e59e" fill-rule="evenodd"/>
        </g>
        <g id="Grupo_55164" data-name="Grupo 55164">
          <path id="Trazado_104539" data-name="Trazado 104539" d="M39.244,72.044a13.067,13.067,0,0,0-10.867-5.807,13.506,13.506,0,0,0-1.922.138,16.506,16.506,0,0,1,6.4,6.457c.595-.124,1.2-.242,1.825-.339a34.69,34.69,0,0,1,4.562-.45Z" fill="#da4a54" fill-rule="evenodd"/>
        </g>
        <g id="Grupo_55165" data-name="Grupo 55165">
          <path id="Trazado_104540" data-name="Trazado 104540" d="M41.138,82.144a28.182,28.182,0,0,0-5.765.512c-.429.083-.857.173-1.279.27a15.736,15.736,0,0,1-7.231,9.367,12.182,12.182,0,0,0,1.514.09A13.069,13.069,0,0,0,41.138,82.144Z" fill="#da4a54" fill-rule="evenodd"/>
        </g>
        <g id="Grupo_55166" data-name="Grupo 55166">
          <path id="Trazado_104541" data-name="Trazado 104541" d="M58.427,52.079H0c.346.843.726,1.694,1.1,2.585.47,1.12.94,2.3,1.334,3.567H50.145a1.752,1.752,0,0,1,.055-.18,22.339,22.339,0,0,0-1.092,6.892V91.511a30.518,30.518,0,0,0,3.014,14.1c.145.3.3.615.456.926h5.848c-.159-.311-.311-.622-.456-.926a30.517,30.517,0,0,1-3.014-14.1V64.944a25.161,25.161,0,0,1,2.371-10.287c.373-.885.754-1.735,1.1-2.578Z" fill="#78c2a4" fill-rule="evenodd"/>
        </g>
        <g id="Grupo_55167" data-name="Grupo 55167">
          <path id="Trazado_104542" data-name="Trazado 104542" d="M31.009,41.786v3.29a1.8,1.8,0,0,1-3.591,0v-3.29Z" fill="#b3e59e"/>
        </g>
        <g id="Grupo_55168" data-name="Grupo 55168">
          <path id="Trazado_104543" data-name="Trazado 104543" d="M15.822,41.786v3.29a1.8,1.8,0,0,1-3.591,0v-3.29Z" fill="#b3e59e"/>
        </g>
        <g id="Grupo_55169" data-name="Grupo 55169">
          <path id="Trazado_104544" data-name="Trazado 104544" d="M46.2,41.786v3.29a1.8,1.8,0,0,1-3.591,0v-3.29Z" fill="#b3e59e"/>
        </g>
        <g id="Grupo_55170" data-name="Grupo 55170">
          <path id="Trazado_104545" data-name="Trazado 104545" d="M31.009,113.543v3.29H27.418v-3.29a1.8,1.8,0,0,1,3.592,0Z" fill="#b3e59e"/>
        </g>
        <g id="Grupo_55171" data-name="Grupo 55171">
          <path id="Trazado_104546" data-name="Trazado 104546" d="M15.822,113.543v3.29H12.23v-3.29a1.8,1.8,0,1,1,3.591,0Z" fill="#b3e59e"/>
        </g>
        <g id="Grupo_55172" data-name="Grupo 55172">
          <path id="Trazado_104547" data-name="Trazado 104547" d="M46.2,113.543v3.29H42.605v-3.29a1.8,1.8,0,0,1,3.592,0Z" fill="#b3e59e"/>
        </g>
        <g id="Grupo_55173" data-name="Grupo 55173">
          <path id="Trazado_104548" data-name="Trazado 104548" d="M65.006,47.149a1.787,1.787,0,0,1-1.8-1.785v-.021a1.8,1.8,0,1,1,1.8,1.806Z" fill="#ce9874"/>
        </g>
        <g id="Grupo_55174" data-name="Grupo 55174">
          <path id="Trazado_104549" data-name="Trazado 104549" d="M72.029,53.281a1.787,1.787,0,0,1-1.8-1.785v-.021a1.8,1.8,0,1,1,1.8,1.806Z" fill="#ce9874"/>
        </g>
        <g id="Grupo_55175" data-name="Grupo 55175">
          <path id="Trazado_104550" data-name="Trazado 104550" d="M88.049,68.032a1.79,1.79,0,0,1-1.8-1.789V66.23a1.8,1.8,0,1,1,1.8,1.8Z" fill="#ce9874"/>
        </g>
        <g id="Grupo_55176" data-name="Grupo 55176">
          <path id="Trazado_104551" data-name="Trazado 104551" d="M95.3,58.3a1.786,1.786,0,0,1-1.8-1.785V56.5A1.8,1.8,0,1,1,95.3,58.3Z" fill="#ce9874"/>
        </g>
        <g id="Grupo_55177" data-name="Grupo 55177">
          <path id="Trazado_104552" data-name="Trazado 104552" d="M116.64,91.421h-5.413v10.494a3.95,3.95,0,0,1-2.085,3.2,2.891,2.891,0,0,1-1.613.5h5.42a3.706,3.706,0,0,0,3.692-3.7V91.421Z" fill="#fdb440" fill-rule="evenodd"/>
          <path id="Trazado_104553" data-name="Trazado 104553" d="M116.64,91.421c1.493-16.135,4.466-58.913,0-75.068h-5.652c4.466,16.156,1.486,58.933,0,75.068Z" fill="#c6875e" fill-rule="evenodd"/>
          <path id="Trazado_104554" data-name="Trazado 104554" d="M116.64,5.858a3.7,3.7,0,0,0-3.692-3.692H107.29a3.657,3.657,0,0,1,1.853.5,3.713,3.713,0,0,1,1.846,3.194V16.352h5.652Z" fill="#fdb440" fill-rule="evenodd"/>
        </g>
        <g id="Grupo_55178" data-name="Grupo 55178">
          <path id="Trazado_104555" data-name="Trazado 104555" d="M64.337,2.167v5.55a1.8,1.8,0,0,1-3.591,0V2.167Z" fill="#fdb440"/>
        </g>
        <g id="Grupo_55179" data-name="Grupo 55179">
          <path id="Trazado_104556" data-name="Trazado 104556" d="M50.507,2.167v5.55a1.8,1.8,0,1,1-3.591,0V2.167Z" fill="#fdb440"/>
        </g>
        <g id="Grupo_55180" data-name="Grupo 55180">
          <path id="Trazado_104557" data-name="Trazado 104557" d="M78.169,2.167v5.55a1.8,1.8,0,0,1-3.591,0V2.167Z" fill="#fdb440"/>
        </g>
        <g id="Grupo_55181" data-name="Grupo 55181">
          <path id="Trazado_104558" data-name="Trazado 104558" d="M92,2.167v5.55a1.8,1.8,0,0,1-3.591,0V2.167Z" fill="#fdb440"/>
        </g>
        <g id="Grupo_55182" data-name="Grupo 55182">
          <path id="Trazado_104559" data-name="Trazado 104559" d="M105.831,2.167v5.55a1.8,1.8,0,0,1-3.591,0V2.167Z" fill="#fdb440"/>
        </g>
        <g id="Grupo_55183" data-name="Grupo 55183">
          <path id="Trazado_104560" data-name="Trazado 104560" d="M74.029,100.056v5.557H70.437v-5.557a1.8,1.8,0,0,1,3.592,0Z" fill="#fdb440"/>
        </g>
        <g id="Grupo_55184" data-name="Grupo 55184">
          <path id="Trazado_104561" data-name="Trazado 104561" d="M89.458,100.056v5.557H85.867v-5.557a1.8,1.8,0,0,1,3.592,0Z" fill="#fdb440"/>
        </g>
        <g id="Grupo_55185" data-name="Grupo 55185">
          <path id="Trazado_104562" data-name="Trazado 104562" d="M104.89,100.056v5.557H101.3v-5.557a1.8,1.8,0,0,1,3.592,0Z" fill="#fdb440"/>
        </g>
      </g>
      <g id="Grupo_55187" data-name="Grupo 55187">
        <path id="Trazado_104563" data-name="Trazado 104563" d="M39.244,72.044a34.7,34.7,0,0,0-4.562.449c-6.761,1.092-11.959,3.733-18.941,3.47a27.676,27.676,0,0,1-4.763-.608v9.658A20.565,20.565,0,0,0,17.5,86.554c6.387.394,11.365-2.655,17.876-3.9a28.183,28.183,0,0,1,5.765-.512,29.139,29.139,0,0,1,4.638.47V72.459a35.38,35.38,0,0,0-6.532-.415Z" fill="#ffd772" fill-rule="evenodd"/>
      </g>
      <g id="Grupo_55188" data-name="Grupo 55188">
        <path id="Trazado_104564" data-name="Trazado 104564" d="M45.777,72.458c-1.306-.2-2.544-.325-3.726-.387V82.178a29.869,29.869,0,0,1,3.726.436Z" fill="#fdb440" fill-rule="evenodd"/>
      </g>
    </g>
  </g>
</svg>
