<svg xmlns="http://www.w3.org/2000/svg" xmlns:xlink="http://www.w3.org/1999/xlink" width="119" height="119" viewBox="0 0 119 119">
  <defs>
    <clipPath id="clip-path">
      <rect id="Rectángulo_5875" data-name="Rectángulo 5875" width="119" height="119" transform="translate(1111 5210)" fill="#fff" stroke="#707070" stroke-width="1"/>
    </clipPath>
  </defs>
  <g id="Enmascarar_grupo_25" data-name="Enmascarar grupo 25" transform="translate(-1111 -5210)" clip-path="url(#clip-path)">
    <g id="latas" transform="translate(1113.052 5210)">
      <path id="Trazado_104622" data-name="Trazado 104622" d="M30.776,61.552V63.6A10.259,10.259,0,0,1,20.517,73.862,10.259,10.259,0,0,0,10.259,84.121v4.1A10.259,10.259,0,0,1,0,98.483v10.259H53.345v-8.207a18.466,18.466,0,1,1,0-36.931V51.293H41.034A10.259,10.259,0,0,0,30.776,61.552Zm0,0" fill="#f4c734"/>
      <path id="Trazado_104623" data-name="Trazado 104623" d="M34.879,82.069a18.465,18.465,0,0,0,18.466,18.466V63.6A18.465,18.465,0,0,0,34.879,82.069Zm0,0" fill="#a3740c"/>
      <path id="Trazado_104624" data-name="Trazado 104624" d="M90.276,75.914A24.621,24.621,0,0,0,114.9,100.534V51.293A24.621,24.621,0,0,0,90.276,75.914Zm0,0" fill="#a3740c"/>
      <path id="Trazado_104625" data-name="Trazado 104625" d="M92.328,30.776V47.19A10.259,10.259,0,0,1,82.069,57.448,10.259,10.259,0,0,0,71.81,67.707V88.224A10.259,10.259,0,0,1,61.552,98.483v10.259H114.9v-8.207a24.621,24.621,0,0,1,0-49.241V20.517h-12.31A10.259,10.259,0,0,0,92.328,30.776Zm0,0" fill="#f4c734"/>
      <path id="Trazado_104626" data-name="Trazado 104626" d="M107.58,0H68.868A2.053,2.053,0,0,0,67.11,1l-5.558,9.262V98.483A10.259,10.259,0,0,0,71.811,88.224V67.568A10.32,10.32,0,0,1,82.275,57.448,10.259,10.259,0,0,0,92.328,47.19V30.776a10.259,10.259,0,0,1,10.259-10.259H114.9V10.259L109.339,1a2.053,2.053,0,0,0-1.758-1Zm0,0" fill="#e2e2e2"/>
      <path id="Trazado_104627" data-name="Trazado 104627" d="M68.868,119H107.58a2.053,2.053,0,0,0,1.758-1l5.558-9.262H61.552L67.11,118a2.053,2.053,0,0,0,1.758,1Zm0,0" fill="#f9f2cc"/>
      <path id="Trazado_104628" data-name="Trazado 104628" d="M7.316,119H46.028a2.053,2.053,0,0,0,1.758-1l5.558-9.262H0L5.558,118a2.053,2.053,0,0,0,1.758,1Zm0,0" fill="#f9f2cc"/>
      <path id="Trazado_104629" data-name="Trazado 104629" d="M47.787,31.771a2.051,2.051,0,0,0-1.758-.995H22.569l1.04-6.239a5.215,5.215,0,1,0-10.287,0l1.04,6.239H7.316a2.051,2.051,0,0,0-1.758.995L0,41.035V98.483A10.259,10.259,0,0,0,10.259,88.224V83.981A10.32,10.32,0,0,1,20.723,73.862,10.259,10.259,0,0,0,30.776,63.6V61.552A10.259,10.259,0,0,1,41.034,51.293h12.31V41.035Zm0,0" fill="#e2e2e2"/>
      <g id="Grupo_55193" data-name="Grupo 55193">
        <path id="Trazado_104630" data-name="Trazado 104630" d="M105.378,12.089a12.3,12.3,0,0,1-2.324.221h-41.5V10.259H114.9Zm0,0" fill="#ccc"/>
        <path id="Trazado_104631" data-name="Trazado 104631" d="M43.827,42.865a12.3,12.3,0,0,1-2.324.221H0V41.035H53.345Zm0,0" fill="#ccc"/>
        <path id="Trazado_104632" data-name="Trazado 104632" d="M65.244,4.1H111.2l-1.231-2.052h-43.5Zm0,0" fill="#ccc"/>
        <path id="Trazado_104633" data-name="Trazado 104633" d="M3.693,34.879H49.652l-1.231-2.052H4.924Zm0,0" fill="#ccc"/>
        <path id="Trazado_104634" data-name="Trazado 104634" d="M15.644,30.776h5.642l-.029-5.168a3.9,3.9,0,0,0-.681-3.066,2.726,2.726,0,0,0-2.111-.742,2.723,2.723,0,0,0-2.111.738,3.855,3.855,0,0,0-.681,3.035Zm1.846-7.193c.158-.17.452-.244.983-.244s.82.074.983.244.378.615.273,1.935v.063l.024,4.426H17.187l.023-4.489c-.105-1.307.125-1.777.272-1.935Zm0,0" fill="#ccc"/>
      </g>
      <path id="Trazado_104635" data-name="Trazado 104635" d="M42.06,82.069A11.3,11.3,0,0,1,53.345,70.784V68.733a13.336,13.336,0,1,0,0,26.672V93.353A11.3,11.3,0,0,1,42.06,82.069Zm0,0" fill="#f49e34"/>
      <path id="Trazado_104636" data-name="Trazado 104636" d="M101.56,75.914A13.353,13.353,0,0,1,114.9,62.578V60.526a15.388,15.388,0,0,0,0,30.776V89.25A13.353,13.353,0,0,1,101.56,75.914Zm0,0" fill="#f49e34"/>
      <path id="Trazado_104637" data-name="Trazado 104637" d="M68.868,119H107.58a2.053,2.053,0,0,0,1.758-1l5.558-9.262H61.552L67.11,118a2.053,2.053,0,0,0,1.758,1Zm0,0" fill="#e2e2e2"/>
      <path id="Trazado_104638" data-name="Trazado 104638" d="M7.316,119H46.028a2.053,2.053,0,0,0,1.758-1l5.558-9.262H0L5.558,118a2.053,2.053,0,0,0,1.758,1Zm0,0" fill="#e2e2e2"/>
    </g>
  </g>
</svg>
