<svg xmlns="http://www.w3.org/2000/svg" width="51.5" height="48.602" viewBox="0 0 51.5 48.602">
  <g id="fuente_1_" data-name="fuente (1)" transform="translate(0 -14.4)">
    <path id="Trazado_104705" data-name="Trazado 104705" d="M50.156,23.284A1.345,1.345,0,0,0,51.5,21.941V18.9a1.345,1.345,0,0,0-1.344-1.344H47.118A1.345,1.345,0,0,0,45.774,18.9v.764H43.28a.755.755,0,1,0,0,1.509h2.494v.764a1.345,1.345,0,0,0,1.344,1.344h.764V50.974h-.764a1.345,1.345,0,0,0-1.344,1.344v1.215H39.846l-6.8-32.356h7.014a.755.755,0,1,0,0-1.509H32.733l-.765-3.642A2.073,2.073,0,0,0,29.953,14.4H21.446a2.075,2.075,0,0,0-2.016,1.63l-.764,3.637H5.726V18.9a1.345,1.345,0,0,0-1.344-1.344H1.344A1.345,1.345,0,0,0,0,18.9V21.94a1.345,1.345,0,0,0,1.344,1.344h.764V50.974H1.344A1.346,1.346,0,0,0,0,52.318v3.038A1.345,1.345,0,0,0,1.344,56.7H4.382a1.345,1.345,0,0,0,1.344-1.344v-.313h5.51l-.412,1.964h-1.8A1.393,1.393,0,0,0,7.627,58.4V61.61A1.393,1.393,0,0,0,9.019,63h13.69A1.393,1.393,0,0,0,24.1,61.61V58.4a1.393,1.393,0,0,0-1.392-1.392H21.048l.322-1.964h8.66l.322,1.964H28.69A1.393,1.393,0,0,0,27.3,58.4V61.61A1.393,1.393,0,0,0,28.69,63H42.38a1.393,1.393,0,0,0,1.392-1.392V58.4a1.393,1.393,0,0,0-1.392-1.392h-1.8l-.412-1.964h5.611v.313A1.345,1.345,0,0,0,47.118,56.7h3.038A1.345,1.345,0,0,0,51.5,55.355V52.318a1.345,1.345,0,0,0-1.344-1.344h-.764V23.284Zm-29.249-6.94a.555.555,0,0,1,.54-.435h8.506a.554.554,0,0,1,.539.43l.7,3.327H20.209Zm-19.4,2.724H4.216v2.707H1.509ZM4.216,55.19H1.509V52.483H4.216Zm18.375,3.326v2.977H9.137V58.515h2.3a.755.755,0,0,0,.739-.6l2.156-10.264a.755.755,0,0,0-1.477-.31l-1.3,6.191H5.726V52.318a1.345,1.345,0,0,0-1.344-1.344H3.618V23.284h.764a1.345,1.345,0,0,0,1.344-1.344v-.764H18.349L13.515,44.193a.755.755,0,0,0,1.477.31l4.9-23.326H31.507l6.8,32.356H31.312l-.5-3.04a.755.755,0,0,0-.745-.633H21.33a.755.755,0,0,0-.745.633l-1.171,7.146a.755.755,0,0,0,.745.877h2.433Zm-.975-4.983.354-2.163h7.457l.354,2.163Zm17.607,4.383a.755.755,0,0,0,.739.6h2.3v2.977H28.808V58.515H31.24a.755.755,0,0,0,.745-.877l-.426-2.6h7.061ZM49.99,55.19H47.284V52.483H49.99ZM47.284,19.068H49.99v2.707H47.284Z" fill="#f57c00"/>
    <path id="Trazado_104706" data-name="Trazado 104706" d="M218.99,179.55h5.966a.755.755,0,0,0,.74-.9l-.578-2.881a.755.755,0,1,0-1.48.3l.4,1.978h-4.124l2.062-10.276L223,172.9a.755.755,0,0,0,1.48-.3l-1.428-7.115a1.105,1.105,0,0,0-2.167,0l-2.639,13.154a.755.755,0,0,0,.74.9Z" transform="translate(-196.274 -135.089)" fill="#f57c00"/>
  </g>
</svg>
