<svg xmlns="http://www.w3.org/2000/svg" width="34.356" height="46.291" viewBox="0 0 34.356 46.291">
  <g id="carton-de-leche" transform="translate(-66)">
    <path id="Trazado_104454" data-name="Trazado 104454" d="M99.394,13.058,95.836,5.229V2.712A2.715,2.715,0,0,0,93.123,0H73.233a2.715,2.715,0,0,0-2.712,2.712V5.229l-3.559,7.829A8.812,8.812,0,0,0,66,17.63V43.578a2.715,2.715,0,0,0,2.712,2.712H97.644a2.715,2.715,0,0,0,2.712-2.712V17.63A8.812,8.812,0,0,0,99.394,13.058ZM67.808,18.534H85.891V31.192H67.808Zm19.891,0H98.548V31.192H87.7Zm10.05-4.728a6.586,6.586,0,0,1,.785,2.92H87.714a6.586,6.586,0,0,1,.785-2.92L92.13,5.817a.9.9,0,0,0,.089-.366.019.019,0,0,1,0,0c0-.008,0-.016,0-.024V2.712a.9.9,0,0,1,1.808,0V5.425a.905.905,0,0,0,.081.374Zm-24.515-12H90.566a2.7,2.7,0,0,0-.155.9V4.521H72.329V2.712A.905.905,0,0,1,73.233,1.808ZM72.007,6.329h17.9l-3.059,6.729a8.358,8.358,0,0,0-.948,3.668H67.823a6.586,6.586,0,0,1,.785-2.92Zm-4.2,37.25V33H85.891V43.578a2.7,2.7,0,0,0,.155.9H68.712A.905.905,0,0,1,67.808,43.578Zm29.836.9H88.6a.905.905,0,0,1-.9-.9V33H98.548V43.578A.905.905,0,0,1,97.644,44.482Z" fill="#f57c00"/>
    <path id="Trazado_104455" data-name="Trazado 104455" d="M152.755,245.106a.9.9,0,0,0-.928.045l-2.211,1.474-2.211-1.474A.9.9,0,0,0,146,245.9v3.616a.9.9,0,0,0,1.808,0v-1.927l1.307.871a.9.9,0,0,0,1,0l1.307-.871v1.927a.9.9,0,0,0,1.808,0V245.9A.9.9,0,0,0,152.755,245.106Z" transform="translate(-72.767 -222.848)" fill="#f57c00"/>
  </g>
</svg>
