<svg xmlns="http://www.w3.org/2000/svg" xmlns:xlink="http://www.w3.org/1999/xlink" width="190" height="163" viewBox="0 0 190 163">
  <defs>
    <clipPath id="clip-path">
      <rect id="Rectángulo_5635" data-name="Rectángulo 5635" width="190" height="163" transform="translate(194 212)" fill="#fdd835"/>
    </clipPath>
  </defs>
  <g id="Enmascarar_grupo_31" data-name="Enmascarar grupo 31" transform="translate(-194 -212)" clip-path="url(#clip-path)">
    <g id="diseno-de-interfaz-de-usuario" transform="translate(190.212 194.712)">
      <path id="Trazado_104863" data-name="Trazado 104863" d="M190.469,161.953H176.585V71.616A10.818,10.818,0,0,0,165.78,60.811H156V28.093a4.636,4.636,0,0,0-4.631-4.631H52.384a4.636,4.636,0,0,0-4.631,4.631V60.809H37.972A10.818,10.818,0,0,0,27.167,71.614v90.338H13.282a1.543,1.543,0,0,0-1.544,1.544v6.072a10.732,10.732,0,0,0,10.72,10.72H181.29a10.733,10.733,0,0,0,10.722-10.72V163.5A1.541,1.541,0,0,0,190.469,161.953Z" fill="#e6e7e8"/>
      <g id="Grupo_55391" data-name="Grupo 55391">
        <g id="Grupo_55381" data-name="Grupo 55381">
          <path id="Trazado_104864" data-name="Trazado 104864" d="M159.607,56.178H148.282V157.323h20.587V65.44a9.262,9.262,0,0,0-9.261-9.261Z" fill="#0089ef"/>
          <path id="Trazado_104865" data-name="Trazado 104865" d="M31.8,56.178a9.261,9.261,0,0,0-9.261,9.261v91.883H43.121V56.178Z" fill="#0089ef"/>
        </g>
        <g id="Grupo_55382" data-name="Grupo 55382">
          <path id="Trazado_104866" data-name="Trazado 104866" d="M36.472,69.819a3.087,3.087,0,0,0-3.087,3.087v84.417h9.738v-87.5Z" fill="#d4fbff"/>
          <path id="Trazado_104867" data-name="Trazado 104867" d="M154.932,69.819H148.28v87.5h9.738V72.906A3.087,3.087,0,0,0,154.932,69.819Z" fill="#d4fbff"/>
        </g>
        <path id="Trazado_104868" data-name="Trazado 104868" d="M7.108,157.323v6.071a9.177,9.177,0,0,0,9.177,9.177H175.116a9.178,9.178,0,0,0,9.178-9.177v-6.071Z" fill="#0089ef"/>
        <path id="Trazado_104869" data-name="Trazado 104869" d="M7.108,157.323v6.071a9.177,9.177,0,0,0,9.177,9.177H175.116a9.178,9.178,0,0,0,9.178-9.177v-6.071Z" fill="#0089ef"/>
        <path id="Trazado_104870" data-name="Trazado 104870" d="M66.3,157.323V160.4a4.644,4.644,0,0,0,4.645,4.645h49.523a4.647,4.647,0,0,0,4.646-4.645v-3.073Z" fill="#6dc9f7"/>
        <path id="Trazado_104871" data-name="Trazado 104871" d="M148.28,157.323H43.123V21.919a3.086,3.086,0,0,1,3.087-3.087h98.983a3.086,3.086,0,0,1,3.087,3.087Z" fill="#ffd7e5"/>
        <path id="Trazado_104872" data-name="Trazado 104872" d="M43.123,152.692H148.28v4.631H43.123Z" fill="#fff"/>
        <g id="Grupo_55386" data-name="Grupo 55386">
          <g id="Grupo_55383" data-name="Grupo 55383">
            <path id="Trazado_104873" data-name="Trazado 104873" d="M83.943,138.241h23.518v9.5H83.943Z" fill="#0089ef"/>
            <path id="Trazado_104874" data-name="Trazado 104874" d="M83.736,138.241h23.93a3.441,3.441,0,0,0,3.441-3.441v-1.034a3.441,3.441,0,0,0-3.441-3.441H83.736a3.441,3.441,0,0,0-3.441,3.441V134.8a3.441,3.441,0,0,0,3.441,3.441Z" fill="#6dc9f7"/>
            <path id="Trazado_104875" data-name="Trazado 104875" d="M81.207,111.182,95.7,91.122l14.494,20.06-2.735,19.142H83.943Z" fill="#d4fbff"/>
            <circle id="Elipse_4149" data-name="Elipse 4149" cx="2.269" cy="2.269" r="2.269" transform="translate(93.433 112.125)" fill="#6dc9f7"/>
          </g>
          <g id="Grupo_55385" data-name="Grupo 55385">
            <g id="Grupo_55384" data-name="Grupo 55384">
              <circle id="Elipse_4150" data-name="Elipse 4150" cx="3.626" cy="3.626" r="3.626" transform="translate(120.799 79.809)" fill="#0089ef"/>
              <circle id="Elipse_4151" data-name="Elipse 4151" cx="3.626" cy="3.626" r="3.626" transform="translate(63.353 79.809)" fill="#0089ef"/>
            </g>
            <path id="Trazado_104876" data-name="Trazado 104876" d="M116.163,107.089h6.383v6.383h-6.383Z" fill="#0089ef"/>
            <path id="Trazado_104877" data-name="Trazado 104877" d="M68.857,107.089H75.24v6.383H68.857Z" fill="#0089ef"/>
          </g>
        </g>
        <g id="Grupo_55387" data-name="Grupo 55387">
          <path id="Trazado_104878" data-name="Trazado 104878" d="M104.306,48.928a12.708,12.708,0,0,1-17.208,0,15.035,15.035,0,0,0-9.354,13.918v7.514a3.086,3.086,0,0,0,3.087,3.087h29.742a3.086,3.086,0,0,0,3.087-3.087V62.847a15.037,15.037,0,0,0-9.354-13.918Z" fill="#fa759e"/>
          <circle id="Elipse_4152" data-name="Elipse 4152" cx="12.761" cy="12.761" r="12.761" transform="translate(82.941 26.764)" fill="#fff"/>
        </g>
        <g id="Grupo_55390" data-name="Grupo 55390">
          <path id="Trazado_104879" data-name="Trazado 104879" d="M137.394,51.96V41.087H127.85V35.5l-12.1,11.02,12.1,11.018V51.96Z" fill="#0089ef"/>
          <g id="Grupo_55389" data-name="Grupo 55389">
            <path id="Trazado_104880" data-name="Trazado 104880" d="M54.01,51.96V41.087h9.544V35.5l12.1,11.02-12.1,11.018V51.96Z" fill="#0089ef"/>
            <g id="Grupo_55388" data-name="Grupo 55388">
              <path id="Trazado_104881" data-name="Trazado 104881" d="M158.024,102.12a1.543,1.543,0,0,0-1.544,1.544V118.71a1.544,1.544,0,1,0,3.087,0V103.663A1.543,1.543,0,0,0,158.024,102.12Z" fill="#3a2c60"/>
              <path id="Trazado_104882" data-name="Trazado 104882" d="M184.3,155.779H170.411V65.44a10.818,10.818,0,0,0-10.805-10.805h-9.782V21.919a4.636,4.636,0,0,0-4.631-4.631H46.21a4.636,4.636,0,0,0-4.631,4.631V54.635H31.8A10.818,10.818,0,0,0,20.993,65.44v90.338H7.108a1.543,1.543,0,0,0-1.544,1.544v6.072a10.732,10.732,0,0,0,10.72,10.72H175.116a10.733,10.733,0,0,0,10.722-10.72v-6.072A1.541,1.541,0,0,0,184.3,155.779ZM159.606,57.722a7.727,7.727,0,0,1,7.718,7.718v90.338h-7.761V126.172a1.544,1.544,0,1,0-3.087,0v29.607h-6.653V71.363h5.109a1.545,1.545,0,0,1,1.544,1.544v23.68a1.544,1.544,0,1,0,3.087,0V72.906a4.636,4.636,0,0,0-4.631-4.631h-5.109V57.722ZM44.666,21.919a1.545,1.545,0,0,1,1.544-1.544h98.983a1.545,1.545,0,0,1,1.544,1.544v133.86H44.666Zm-9.74,133.86V72.906a1.545,1.545,0,0,1,1.544-1.544h5.109v84.415H34.926ZM24.08,65.44A7.727,7.727,0,0,1,31.8,57.722h9.782V68.275H36.47a4.636,4.636,0,0,0-4.631,4.631v82.871H24.08Zm158.672,97.954a7.642,7.642,0,0,1-7.635,7.633H16.285a7.642,7.642,0,0,1-7.633-7.633v-4.529h174.1Z" fill="#3a2c60"/>
              <path id="Trazado_104883" data-name="Trazado 104883" d="M109.2,129.048l2.522-17.648a1.541,1.541,0,0,0-.276-1.124L96.954,90.217a1.6,1.6,0,0,0-2.5,0L79.957,110.276a1.541,1.541,0,0,0-.276,1.124L82.2,129.048a4.975,4.975,0,0,0-3.45,4.717V134.8a4.977,4.977,0,0,0,3.647,4.779v8.158a1.543,1.543,0,0,0,1.544,1.544h23.518a1.543,1.543,0,0,0,1.544-1.544v-8.158a4.979,4.979,0,0,0,3.647-4.779v-1.034a4.977,4.977,0,0,0-3.451-4.717ZM95.7,113.67a.725.725,0,1,1-.725.725A.727.727,0,0,1,95.7,113.67ZM94.158,95.893v15.022a3.813,3.813,0,1,0,3.087,0V95.893L108.58,111.58l-2.457,17.2H85.281l-2.457-17.2Zm11.759,50.3H85.486v-6.407h20.431Zm3.647-11.393a1.9,1.9,0,0,1-1.9,1.9H83.737a1.9,1.9,0,0,1-1.9-1.9v-1.034a1.9,1.9,0,0,1,1.9-1.9h23.93a1.9,1.9,0,0,1,1.9,1.9Z" fill="#3a2c60"/>
              <path id="Trazado_104884" data-name="Trazado 104884" d="M124.423,78.267a5.157,5.157,0,0,0-4.907,3.626H71.887a5.169,5.169,0,1,0,0,3.087H83.632a25.208,25.208,0,0,0-13.049,20.565H68.857a1.543,1.543,0,0,0-1.544,1.544v6.384a1.543,1.543,0,0,0,1.544,1.544H75.24a1.543,1.543,0,0,0,1.544-1.544v-6.384a1.543,1.543,0,0,0-1.544-1.544H73.67a22.084,22.084,0,0,1,44.063,0h-1.57a1.543,1.543,0,0,0-1.544,1.544v6.384a1.543,1.543,0,0,0,1.544,1.544h6.383a1.543,1.543,0,0,0,1.544-1.544v-6.384a1.543,1.543,0,0,0-1.544-1.544H120.82A25.211,25.211,0,0,0,107.771,84.98h11.745a5.158,5.158,0,1,0,4.907-6.713ZM66.98,85.517a2.082,2.082,0,1,1,2.082-2.082A2.084,2.084,0,0,1,66.98,85.517ZM73.7,111.929H70.4v-3.3h3.3Zm47.306,0h-3.3v-3.3H121Zm3.421-26.412a2.082,2.082,0,1,1,2.082-2.082A2.084,2.084,0,0,1,124.423,85.517Z" fill="#3a2c60"/>
              <path id="Trazado_104885" data-name="Trazado 104885" d="M76.2,62.848v7.513a4.636,4.636,0,0,0,4.631,4.631h29.743a4.636,4.636,0,0,0,4.631-4.631V62.848a16.566,16.566,0,0,0-8.363-14.371,14.3,14.3,0,1,0-22.277,0A16.564,16.564,0,0,0,76.2,62.848ZM95.7,28.308A11.218,11.218,0,1,1,84.485,39.525,11.23,11.23,0,0,1,95.7,28.308ZM86.859,50.745a14.22,14.22,0,0,0,17.686,0,13.489,13.489,0,0,1,7.571,12.1v7.513a1.545,1.545,0,0,1-1.544,1.544H80.831a1.545,1.545,0,0,1-1.544-1.544V62.847A13.489,13.489,0,0,1,86.859,50.745Z" fill="#3a2c60"/>
              <path id="Trazado_104886" data-name="Trazado 104886" d="M137.394,39.543h-8V35.5a1.544,1.544,0,0,0-2.584-1.141l-12.1,11.018a1.541,1.541,0,0,0,0,2.281l12.1,11.02a1.543,1.543,0,0,0,2.582-1.141V53.5h8a1.543,1.543,0,0,0,1.544-1.544V41.087a1.543,1.543,0,0,0-1.544-1.544ZM135.85,50.416h-8a1.543,1.543,0,0,0-1.544,1.544v2.088l-8.261-7.525L126.306,39v2.09a1.543,1.543,0,0,0,1.544,1.544h8Z" fill="#3a2c60"/>
              <path id="Trazado_104887" data-name="Trazado 104887" d="M62.01,57.541a1.543,1.543,0,0,0,2.582,1.141l12.1-11.02a1.541,1.541,0,0,0,0-2.281l-12.1-11.02A1.544,1.544,0,0,0,62.009,35.5v4.04h-8a1.543,1.543,0,0,0-1.544,1.544V51.958A1.543,1.543,0,0,0,54.01,53.5h8Zm-6.457-7.125V42.63h8A1.543,1.543,0,0,0,65.1,41.087V39l8.261,7.525L65.1,54.047V51.958a1.543,1.543,0,0,0-1.544-1.544h-8Z" fill="#3a2c60"/>
            </g>
          </g>
        </g>
      </g>
    </g>
  </g>
</svg>
