<svg xmlns="http://www.w3.org/2000/svg" width="107.978" height="107.979" viewBox="0 0 107.978 107.979">
  <g id="paquete" transform="translate(-0.001)">
    <path id="Trazado_104719" data-name="Trazado 104719" d="M7.6,33.063,19.65,7.605h80.679l12.046,25.458L64.066,47.175" transform="translate(-6 -6.001)" fill="#e9bb91"/>
    <rect id="Rectángulo_5885" data-name="Rectángulo 5885" width="104.771" height="79.314" transform="translate(1.604 27.063)" fill="#ca936c"/>
    <g id="Grupo_55238" data-name="Grupo 55238" transform="translate(45.743 1.604)">
      <path id="Trazado_104720" data-name="Trazado 104720" d="M233.39,33.063V55.08H216.9V33.063l1.9-25.459h12.7Z" transform="translate(-216.897 -7.604)" fill="#764f43"/>
      <rect id="Rectángulo_5886" data-name="Rectángulo 5886" width="16.492" height="22.017" transform="translate(0 82.754)" fill="#764f43"/>
    </g>
    <path id="Trazado_104721" data-name="Trazado 104721" d="M216.9,33.063l1.9-25.458h12.7l1.9,25.458" transform="translate(-171.157 -6.001)" fill="#8e6459"/>
    <rect id="Rectángulo_5887" data-name="Rectángulo 5887" width="28.543" height="22.13" transform="translate(69.825 37.966)" fill="#f5ffff"/>
    <path id="Trazado_104722" data-name="Trazado 104722" d="M107.979,83.721V27.062a1.6,1.6,0,0,0-.155-.685h0L95.779.918A1.6,1.6,0,0,0,94.33,0H13.651A1.6,1.6,0,0,0,12.2.918L.155,26.376h0A1.594,1.594,0,0,0,0,27.062v79.313a1.6,1.6,0,0,0,1.6,1.6H106.376a1.6,1.6,0,0,0,1.6-1.6V88h-3.207v16.774H63.839V84.358a1.6,1.6,0,0,0-1.6-1.6H45.744a1.6,1.6,0,0,0-1.6,1.6v20.413H3.208V28.666H15.946V25.458H4.138L14.666,3.208H45.913L44.255,25.458H20.223v3.207H44.14V49.08a1.6,1.6,0,0,0,1.6,1.6H62.235a1.6,1.6,0,0,0,1.6-1.6V28.666h40.933V83.721h3.208ZM47.347,85.961H60.632v18.81H47.347V85.961Zm56.5-60.5H63.724L62.067,3.208H93.314ZM49.129,3.208h9.722l1.657,22.251H47.471Zm11.5,44.269H47.347V28.666H60.632Z"/>
    <path id="Trazado_104723" data-name="Trazado 104723" d="M46.508,364.079a1.6,1.6,0,0,0,1.6-1.6V349.783l2.657,2.658a1.6,1.6,0,1,0,2.268-2.268l-5.4-5.4a1.6,1.6,0,0,0-2.268,0l-5.4,5.4a1.6,1.6,0,0,0,2.268,2.268l2.658-2.658v12.692A1.6,1.6,0,0,0,46.508,364.079Z" transform="translate(-31.176 -271.695)"/>
    <path id="Trazado_104724" data-name="Trazado 104724" d="M129.072,350.174l-5.4-5.4a1.6,1.6,0,0,0-2.268,0l-5.4,5.4a1.6,1.6,0,0,0,2.268,2.268l2.657-2.658v12.692a1.6,1.6,0,0,0,3.207,0V349.784l2.657,2.658a1.6,1.6,0,0,0,2.268-2.268Z" transform="translate(-91.175 -271.696)"/>
    <path id="Trazado_104725" data-name="Trazado 104725" d="M41.6,452.413H68.222a1.6,1.6,0,0,0,0-3.207H41.6a1.6,1.6,0,0,0,0,3.207Z" transform="translate(-31.563 -354.47)"/>
    <path id="Trazado_104726" data-name="Trazado 104726" d="M325.089,172.421a1.6,1.6,0,0,0-1.6,1.6v22.129a1.6,1.6,0,0,0,1.6,1.6h28.543a1.6,1.6,0,0,0,1.6-1.6V174.025a1.6,1.6,0,0,0-1.6-1.6Zm26.94,22.129H326.692V175.628h25.336V194.55Z" transform="translate(-255.263 -136.058)"/>
    <path id="Trazado_104727" data-name="Trazado 104727" d="M354.49,209.874h16.356a1.6,1.6,0,1,0,0-3.207H354.49a1.6,1.6,0,0,0,0,3.207Z" transform="translate(-278.463 -163.082)"/>
    <path id="Trazado_104728" data-name="Trazado 104728" d="M354.49,246.311h16.356a1.6,1.6,0,1,0,0-3.207H354.49a1.6,1.6,0,0,0,0,3.207Z" transform="translate(-278.463 -191.834)"/>
  </g>
</svg>
